<?xml version="1.0" encoding="UTF-8"?>
<svg version="1.1" xmlns="http://www.w3.org/2000/svg" width="640" height="640">
<path d="M0 0 C0.8350524 -0.00235223 1.6701048 -0.00470446 2.53046182 -0.00712797 C5.32912938 -0.01378589 8.12775018 -0.01336072 10.92642498 -0.01294994 C12.95316519 -0.01625057 14.97990475 -0.01997656 17.00664347 -0.02409142 C22.57705385 -0.034097 28.14745346 -0.0378259 33.71787155 -0.04048073 C39.72565185 -0.04438809 45.73342367 -0.05396615 51.74119854 -0.0626936 C65.56513096 -0.08151265 79.38906401 -0.09171252 93.21300558 -0.10015428 C100.04921623 -0.10436465 106.88542599 -0.10958615 113.7216359 -0.11483881 C137.13760052 -0.13272817 160.5535654 -0.14772218 183.96953583 -0.155159 C185.43898874 -0.15563375 186.90844165 -0.15610964 188.37789456 -0.15658666 C189.10658801 -0.15682303 189.83528145 -0.15705941 190.58605652 -0.15730295 C194.27777501 -0.15850411 197.96949349 -0.15971957 201.66121197 -0.16094494 C202.76014734 -0.16130516 202.76014734 -0.16130516 203.88128342 -0.16167267 C227.62010205 -0.16956079 251.35887064 -0.192983 275.09766743 -0.22550088 C300.21425797 -0.25984305 325.33081925 -0.27951424 350.44743365 -0.28280324 C353.20783279 -0.28322075 355.9682319 -0.28370031 358.72863102 -0.28422642 C359.40828509 -0.28434961 360.08793916 -0.2844728 360.78818881 -0.28459973 C371.69958671 -0.2869264 382.61092624 -0.30255661 393.52230338 -0.32306826 C404.50316867 -0.34338204 415.48397373 -0.3484455 426.46485577 -0.33929763 C432.40731275 -0.33476141 438.34958124 -0.33659993 444.29201221 -0.35605907 C449.74227746 -0.37375173 455.19221754 -0.37264355 460.64248654 -0.35716178 C462.60423054 -0.35479496 464.56599744 -0.35906062 466.5277066 -0.37099043 C481.55827095 -0.45666428 497.48064977 0.38945766 510.92708111 7.88422108 C511.57701031 8.22928699 512.22693951 8.57435291 512.89656353 8.92987537 C534.05679719 20.44733852 547.94054325 37.51185844 555.48958111 60.13422108 C557.14991591 65.89511399 557.77821911 70.97044389 557.74685001 76.94785881 C557.75035609 77.80353595 557.75386216 78.6592131 557.75747448 79.54081985 C557.76676688 82.40364838 557.76187071 85.26627251 557.75700665 88.12910938 C557.760744 90.2042245 557.76534586 92.27933821 557.77073729 94.35444969 C557.78297236 100.05382503 557.78270621 105.75314169 557.78034854 111.45252717 C557.7799405 117.60066103 557.79097842 123.74877604 557.80046368 129.89690113 C557.81707803 141.94193562 557.82259937 153.98694521 557.82368843 166.03198815 C557.82460802 175.82429244 557.82872731 185.6165904 557.83508968 195.40889263 C557.83688482 198.22908955 557.83866445 201.04928648 557.84043944 203.86948341 C557.84110258 204.92120142 557.84110258 204.92120142 557.84177912 205.99416627 C557.85408623 225.71424671 557.8619804 245.43432495 557.86109257 265.15440941 C557.86106141 265.89776457 557.86103025 266.64111974 557.86099815 267.40700082 C557.86083194 271.17449561 557.86063386 274.94199039 557.86042874 278.70948518 C557.8603689 279.83180755 557.8603689 279.83180755 557.86030786 280.9768031 C557.86022698 282.48987686 557.86014339 284.00295062 557.86005707 285.51602438 C557.85883206 309.04739136 557.87383607 332.57870067 557.9012022 356.11005116 C557.93194837 382.55858938 557.94913312 409.00708971 557.94727576 435.45564693 C557.9471265 438.27804434 557.94702909 441.10044175 557.94696712 443.92283916 C557.94693216 444.96522591 557.94693216 444.96522591 557.94689649 446.02867097 C557.94683504 457.19444616 557.95958738 468.36017115 557.97683165 479.52593143 C557.99381665 490.75643458 557.99539762 501.98686545 557.98261301 513.21738077 C557.97608754 519.29718581 557.97595121 525.37680958 557.99331951 531.45659733 C558.00907368 537.02879725 558.00616233 542.60067255 557.98875125 548.17286467 C557.98568652 550.18230185 557.98929368 552.1917634 558.0004714 554.20117182 C558.07675469 568.89471165 556.75823932 582.21143517 549.73958111 595.44672108 C549.39524029 596.11203846 549.05089947 596.77735584 548.69612408 597.46283436 C545.6006155 603.26110622 541.94366473 608.29246722 537.48958111 613.13422108 C536.75223736 613.96308826 536.01489361 614.79195545 535.25520611 615.64593983 C523.50183338 628.18671171 505.82808219 638.7712643 488.40123243 640.31978869 C486.15389685 640.39236229 483.91439476 640.40524819 481.66591263 640.39428329 C480.8091463 640.39808897 479.95237998 640.40189464 479.06965104 640.40581563 C476.20310124 640.41610952 473.33675028 640.41222928 470.47018719 640.40837574 C468.39237238 640.41282935 466.31455926 640.4181438 464.23674864 640.42424446 C458.529836 640.43842042 452.82297784 640.44008783 447.11605012 640.43964756 C440.95969573 640.44129614 434.80336375 640.45436355 428.64702129 640.46584034 C415.88638919 640.4874987 403.12577998 640.4960963 390.36513379 640.50087534 C389.67178424 640.50113652 388.9784347 640.50139769 388.26407456 640.50166678 C387.22190918 640.5020572 387.22190918 640.5020572 386.15868994 640.50245549 C378.45265956 640.50554019 370.7466326 640.51204587 363.04060459 640.51866817 C339.75436 640.53831515 316.4681191 640.55471955 293.18186569 640.55754471 C292.06498431 640.5576858 292.06498431 640.5576858 290.92553966 640.55782974 C287.90818098 640.55820821 284.8908223 640.55857221 281.87346362 640.55893272 C279.60251776 640.55920444 277.33157189 640.55948112 275.06062603 640.55975819 C274.31021646 640.55984621 273.5598069 640.55993423 272.78665765 640.56002492 C249.22169351 640.56292874 225.65681149 640.58501078 202.09187603 640.62128162 C175.60303146 640.66205208 149.11424285 640.68570361 122.6253652 640.68600422 C119.79787663 640.68610104 116.97038807 640.68626775 114.14289951 640.68648434 C113.44672671 640.68652845 112.75055392 640.68657257 112.03328497 640.68661802 C100.85301277 640.68773566 89.67282313 640.70511237 78.49257748 640.72830366 C67.24410819 640.75120261 55.99574834 640.75491288 44.74725438 640.74075436 C38.65906109 640.73359477 32.57115244 640.73440237 26.48299122 640.75716496 C20.90075952 640.77783531 15.31902985 640.77507915 9.73680311 640.75429011 C7.72598212 640.75081061 5.71512431 640.75563923 3.70435155 640.76999455 C-22.15458802 640.94258946 -41.24908956 632.82128276 -60.13541889 614.94672108 C-78.83968938 595.79397019 -82.98662491 572.24620894 -82.89136982 546.71515369 C-82.89483231 544.67936913 -82.89960082 542.64358645 -82.90555155 540.60780764 C-82.91800992 535.04962951 -82.91191475 529.49160702 -82.9025929 523.93342853 C-82.89578151 517.92515873 -82.90629397 511.91691496 -82.91453266 505.9086504 C-82.92708142 494.83106229 -82.92602275 483.75351674 -82.91779826 472.67592837 C-82.91023673 462.44041727 -82.90828839 452.20492421 -82.91186619 441.9694109 C-82.91209534 441.2891499 -82.9123245 440.6088889 -82.9125606 439.90801394 C-82.91349469 437.14626723 -82.9144499 434.38452054 -82.91543989 431.62277385 C-82.92460663 405.7417963 -82.91631281 379.86085007 -82.9001492 353.97987735 C-82.88591352 331.01128894 -82.88718745 308.04275045 -82.90153217 285.07416248 C-82.91761343 259.239014 -82.9239564 233.40389317 -82.91469538 207.56874037 C-82.9137333 204.81217067 -82.91279478 202.05560097 -82.91186619 199.29903126 C-82.91162896 198.62034692 -82.91139172 197.94166259 -82.9111473 197.24241206 C-82.90774205 187.01602808 -82.91171233 176.78966416 -82.91930485 166.56328297 C-82.9278994 154.92961665 -82.92541499 143.29599781 -82.90946262 131.66233671 C-82.90159575 125.73035968 -82.89846131 119.79848374 -82.90841007 113.86650753 C-82.91739023 108.42970804 -82.91236953 102.99310276 -82.89647742 97.55632073 C-82.89314365 95.59622102 -82.89479179 93.63610469 -82.90210478 91.67601579 C-82.95048413 77.62417962 -82.39704455 63.82762419 -76.26041889 50.88422108 C-75.95668354 50.22148182 -75.65294819 49.55874256 -75.34000874 48.8759203 C-64.94821781 26.75785885 -47.54008179 12.15369161 -24.84635639 3.78265858 C-16.54353947 1.12957455 -8.68497849 -0.0167906 0 0 Z " fill="#E42E03" transform="translate(82.51041889190674,-0.13422107696533203)"/>
<path d="M0 0 C0.8350524 -0.00235223 1.6701048 -0.00470446 2.53046182 -0.00712797 C5.32912938 -0.01378589 8.12775018 -0.01336072 10.92642498 -0.01294994 C12.95316519 -0.01625057 14.97990475 -0.01997656 17.00664347 -0.02409142 C22.57705385 -0.034097 28.14745346 -0.0378259 33.71787155 -0.04048073 C39.72565185 -0.04438809 45.73342367 -0.05396615 51.74119854 -0.0626936 C65.56513096 -0.08151265 79.38906401 -0.09171252 93.21300558 -0.10015428 C100.04921623 -0.10436465 106.88542599 -0.10958615 113.7216359 -0.11483881 C137.13760052 -0.13272817 160.5535654 -0.14772218 183.96953583 -0.155159 C185.43898874 -0.15563375 186.90844165 -0.15610964 188.37789456 -0.15658666 C189.10658801 -0.15682303 189.83528145 -0.15705941 190.58605652 -0.15730295 C194.27777501 -0.15850411 197.96949349 -0.15971957 201.66121197 -0.16094494 C202.76014734 -0.16130516 202.76014734 -0.16130516 203.88128342 -0.16167267 C227.62010205 -0.16956079 251.35887064 -0.192983 275.09766743 -0.22550088 C300.21425797 -0.25984305 325.33081925 -0.27951424 350.44743365 -0.28280324 C353.20783279 -0.28322075 355.9682319 -0.28370031 358.72863102 -0.28422642 C359.40828509 -0.28434961 360.08793916 -0.2844728 360.78818881 -0.28459973 C371.69958671 -0.2869264 382.61092624 -0.30255661 393.52230338 -0.32306826 C404.50316867 -0.34338204 415.48397373 -0.3484455 426.46485577 -0.33929763 C432.40731275 -0.33476141 438.34958124 -0.33659993 444.29201221 -0.35605907 C449.74227746 -0.37375173 455.19221754 -0.37264355 460.64248654 -0.35716178 C462.60423054 -0.35479496 464.56599744 -0.35906062 466.5277066 -0.37099043 C481.55827095 -0.45666428 497.48064977 0.38945766 510.92708111 7.88422108 C511.57701031 8.22928699 512.22693951 8.57435291 512.89656353 8.92987537 C535.36711117 21.1605392 549.2740602 39.47700183 556.54985332 63.65802479 C557.82295377 68.86785491 557.75431215 73.98637588 557.71663189 79.3236742 C557.71692394 80.41724232 557.717216 81.51081043 557.7175169 82.63751698 C557.71613033 86.23025077 557.70060067 89.82277378 557.68489361 93.41547108 C557.68116109 95.91510371 557.67831525 98.41473782 557.67631817 100.91437244 C557.66947795 106.80735916 557.65373605 112.70026882 557.63361919 118.59322405 C557.60900041 125.96625136 557.59831404 133.33928814 557.58723736 140.71234608 C557.56582043 153.85300904 557.53209425 166.9936103 557.48958111 180.13422108 C557.15958111 180.13422108 556.82958111 180.13422108 556.48958111 180.13422108 C556.26915142 178.78843983 556.26915142 178.78843983 556.04426861 177.41547108 C552.44376089 157.38506035 544.46451706 138.92883751 531.48958111 123.13422108 C530.8025108 122.28215076 530.11544048 121.43008045 529.40754986 120.55218983 C518.59509421 107.81395358 503.887089 97.50815936 488.48958111 91.13422108 C487.82958111 90.80422108 487.16958111 90.47422108 486.48958111 90.13422108 C486.48958111 89.47422108 486.48958111 88.81422108 486.48958111 88.13422108 C485.53594708 88.02132048 484.58231306 87.90841988 483.59978104 87.79209805 C480.67892526 87.37885856 477.90406518 86.74408318 475.06028175 85.96332836 C455.50378304 80.82933459 435.86931952 81.44396256 415.80610812 81.53923392 C410.46683511 81.55899144 405.12759779 81.54940687 399.78830242 81.54364491 C389.36499489 81.53686836 378.94189885 81.55636838 368.51863451 81.58480819 C356.36807933 81.61681304 344.21756019 81.62106665 332.06696897 81.62400012 C310.39114317 81.63004838 288.71541142 81.65908355 267.03962994 81.70209217 C246.02107335 81.7437603 225.0025609 81.77204727 203.98396587 81.78412342 C202.03860077 81.78524574 202.03860077 81.78524574 200.05393536 81.78639074 C194.84039169 81.78936528 189.626848 81.79230258 184.41330427 81.79517702 C161.92980885 81.80791044 139.44632317 81.83164517 116.96283874 81.85681528 C113.32746315 81.86079428 109.69208737 81.86451346 106.05671144 81.86816931 C93.33793176 81.88119471 80.61916943 81.89754412 67.90040822 81.92315371 C62.6435594 81.93372709 57.38672025 81.94283962 52.12986279 81.94772434 C47.31738374 81.9522825 42.50493656 81.96147707 37.69247287 81.97438578 C35.95280233 81.97827632 34.21312717 81.98052143 32.47345234 81.98094399 C17.31949953 81.29981008 17.31949953 81.29981008 3.48958111 86.13422108 C1.25444893 86.73429351 -0.99837897 87.27026485 -3.26041889 87.75922108 C-28.23112295 93.90204524 -51.22584523 113.41326452 -64.63444233 134.93866444 C-66.43994236 138.02478103 -68.0067626 141.05395306 -69.13541889 144.44672108 C-70.51041889 148.13422108 -70.51041889 148.13422108 -72.51041889 150.13422108 C-73.41947781 152.81769308 -74.24351813 155.47295099 -75.01041889 158.19672108 C-75.23181538 158.97168934 -75.45321186 159.7466576 -75.68131733 160.54510975 C-78.30189772 169.80962074 -79.89066233 178.49537565 -80.51041889 188.13422108 C-81.17041889 188.13422108 -81.83041889 188.13422108 -82.51041889 188.13422108 C-82.5808172 173.52956534 -82.63355684 158.92493237 -82.66585541 144.32014084 C-82.6812576 137.53732503 -82.70221811 130.75461526 -82.73673725 123.97186756 C-82.77008236 117.41662534 -82.78731158 110.86145153 -82.79505062 104.3061285 C-82.80056038 101.81490383 -82.81131886 99.32368463 -82.82760906 96.83250713 C-83.02636853 65.15499764 -83.02636853 65.15499764 -76.26041889 50.88422108 C-75.95668354 50.22148182 -75.65294819 49.55874256 -75.34000874 48.8759203 C-64.94821781 26.75785885 -47.54008179 12.15369161 -24.84635639 3.78265858 C-16.54353947 1.12957455 -8.68497849 -0.0167906 0 0 Z " fill="#FD9800" transform="translate(82.51041889190674,-0.13422107696533203)"/>
<path d="M0 0 C0 0.66 0 1.32 0 2 C1.11375 2.0928125 1.11375 2.0928125 2.25 2.1875 C5.86782848 3.25640387 6.93843714 4.90765572 9 8 C9.98043964 10.94131891 10.11621202 12.82501665 10.09765625 15.88671875 C10.09443359 16.82451172 10.09121094 17.76230469 10.08789062 18.72851562 C10.07951172 19.70498047 10.07113281 20.68144531 10.0625 21.6875 C10.05798828 22.67556641 10.05347656 23.66363281 10.04882812 24.68164062 C10.03704303 27.12115474 10.02059011 29.56054689 10 32 C10.66 32 11.32 32 12 32 C12.10546143 32.55349121 12.21092285 33.10698242 12.31958008 33.67724609 C14.9517981 48.0186859 14.9517981 48.0186859 19 62 C19.31195313 62.95132813 19.62390625 63.90265625 19.9453125 64.8828125 C30.37546381 94.56862776 54.60647112 122.55636707 82.390625 137.265625 C84.57035161 138.24733393 86.77696273 139.12048058 89 140 C90.27551642 140.55514346 91.54873979 141.11556937 92.8203125 141.6796875 C93.51713135 141.9888208 94.2139502 142.2979541 94.93188477 142.61645508 C95.63498779 142.9286499 96.33809082 143.24084473 97.0625 143.5625 C108.11601552 148.47786021 108.11601552 148.47786021 119.875 151.125 C125.82334385 151.91167192 125.82334385 151.91167192 128 153 C150.60500773 156.20605454 172.28240597 154.11310997 193.77563477 146.68847656 C196.02317928 145.99282564 198.23619561 145.53334325 200.546875 145.09765625 C205.35527496 144.08113631 209.10306921 142.01389728 213.25 139.4375 C213.98162354 138.99349854 214.71324707 138.54949707 215.46704102 138.09204102 C225.22751469 132.10809939 234.4829214 125.8216475 242.8671875 117.9765625 C245 116 245 116 248.0625 113.625 C252.62580047 109.54715703 256.27396324 104.84013413 260 100 C260.73476563 99.05382812 261.46953125 98.10765625 262.2265625 97.1328125 C268.32607097 88.83489461 272.56962821 79.96478167 276.8359375 70.625 C278.37065253 67.27360218 280.04347564 64.12924232 282 61 C283.69355617 56.7162991 284.58415668 52.38449769 285.4296875 47.875 C285.82826363 45.86573951 286.2750642 43.86571463 286.7578125 41.875 C288.5629877 34.30377976 289.41920841 27.06109167 289.62133789 19.3046875 C289.79063604 14.04759661 289.97290201 8.51834458 293.40234375 4.2578125 C298.00112402 0.86431052 301.70522455 -0.6589505 307.40161133 -0.49829102 C312.50880133 0.48111092 315.93674589 3.94851004 319 8 C320.18119563 12.03575172 320.04615781 15.76387729 319.8125 19.9375 C319.78003174 21.06470459 319.74756348 22.19190918 319.71411133 23.35327148 C319.0978148 38.41329859 317.20905277 53.79939979 312 68 C311.69586182 68.86214111 311.39172363 69.72428223 311.07836914 70.61254883 C306.42318932 83.65831948 301.12334044 94.8150991 293 106 C291.84035986 107.86649237 290.69344898 109.74098476 289.5625 111.625 C274.77791 134.88242929 253.1217155 152.30682544 229 165 C228.34386719 165.35191406 227.68773437 165.70382812 227.01171875 166.06640625 C214.00109091 173.02080496 200.62465847 178.94957888 185.83203125 180.578125 C182.95216822 180.91920204 182.95216822 180.91920204 180.13671875 181.984375 C173.70640814 184.06641829 167.01785044 184.171201 160.3125 184.23828125 C159.09451721 184.25297203 159.09451721 184.25297203 157.85192871 184.26795959 C133.72202424 184.49900467 111.46712755 183.57378669 89 174 C87.77539062 173.54882812 86.55078125 173.09765625 85.2890625 172.6328125 C50.53484342 159.73659284 17.04357591 130.60276893 1 97 C1 96.34 1 95.68 1 95 C0.34 95 -0.32 95 -1 95 C-1.58600461 93.70954304 -2.16858462 92.41753112 -2.75 91.125 C-3.07484375 90.40570313 -3.3996875 89.68640625 -3.734375 88.9453125 C-7.33342859 80.56973717 -10.2279098 72.22021971 -12.6875 63.4375 C-13.292682 61.28954797 -13.90059999 59.14236424 -14.51171875 56.99609375 C-14.77428467 56.05950928 -15.03685059 55.1229248 -15.30737305 54.15795898 C-15.80493603 52.04267086 -15.80493603 52.04267086 -17 51 C-19.26531531 40.64762641 -20.33613654 30.27834321 -20.5 19.6875 C-20.53037354 18.71603027 -20.56074707 17.74456055 -20.59204102 16.74365234 C-20.59478613 12.25499531 -20.53098913 9.02817598 -17.640625 5.44921875 C-11.99367651 0.2115905 -7.40534514 -0.44432071 0 0 Z " fill="#FDFBF9" transform="translate(171,176)"/>
<path d="M0 0 C7.07826715 3.26943288 13.79466212 8.61737791 17.07421875 15.84765625 C19.14425363 22.64919942 18.94361031 30.21388485 16.94921875 36.97265625 C12.54821391 44.45436447 8.45601535 49.59739596 0.44921875 53.41015625 C-10.47087754 55.83684432 -18.48698574 53.82343356 -27.92578125 48.16015625 C-27.92578125 59.05015625 -27.92578125 69.94015625 -27.92578125 81.16015625 C-31.22578125 81.16015625 -34.52578125 81.16015625 -37.92578125 81.16015625 C-37.99548246 73.45809315 -38.04869428 65.75606302 -38.08121777 58.05375576 C-38.0968324 54.47672268 -38.11799285 50.89990639 -38.15209961 47.32299805 C-38.18484443 43.86704966 -38.20266583 40.41130898 -38.21041298 36.95521736 C-38.21860289 35.00380217 -38.24199803 33.05246981 -38.26567078 31.10118103 C-38.26764181 20.65667116 -35.98667985 13.97640679 -28.92578125 6.16015625 C-20.38873672 -1.15731049 -10.89868302 -3.12846041 0 0 Z " fill="#FBEEE7" transform="translate(351.92578125,440.83984375)"/>
<path d="M0 0 C1.51400391 0.01740234 1.51400391 0.01740234 3.05859375 0.03515625 C4.07050781 0.04417969 5.08242187 0.05320312 6.125 0.0625 C6.90746094 0.07410156 7.68992188 0.08570313 8.49609375 0.09765625 C8.7748938 0.92003784 8.7748938 0.92003784 9.05932617 1.7590332 C13.68881654 15.38629982 13.68881654 15.38629982 19.37890625 28.59375 C21.06383598 32.37011348 22.27497799 36.27767057 23.5390625 40.2109375 C24.66939416 43.62038688 25.99371265 46.92080826 27.34765625 50.24609375 C28.84944095 53.97501495 30.30817334 57.7186961 31.74609375 61.47265625 C32.01663574 62.16327148 32.28717773 62.85388672 32.56591797 63.56542969 C33.87264682 67.00011556 34.49609375 69.36917725 34.49609375 73.09765625 C31.85609375 73.09765625 29.21609375 73.09765625 26.49609375 73.09765625 C25.67776653 71.20433091 24.86667107 69.30787892 24.05859375 67.41015625 C23.37990234 65.82654297 23.37990234 65.82654297 22.6875 64.2109375 C21.49609375 61.09765625 21.49609375 61.09765625 20.49609375 56.09765625 C8.61609375 56.09765625 -3.26390625 56.09765625 -15.50390625 56.09765625 C-15.83390625 58.40765625 -16.16390625 60.71765625 -16.50390625 63.09765625 C-17.4765625 65.96875 -17.4765625 65.96875 -18.56640625 68.53515625 C-18.92863281 69.40011719 -19.29085937 70.26507813 -19.6640625 71.15625 C-19.94121094 71.79691406 -20.21835938 72.43757813 -20.50390625 73.09765625 C-23.47390625 73.09765625 -26.44390625 73.09765625 -29.50390625 73.09765625 C-27.7706564 63.1879886 -23.92227506 53.68379191 -19.62109375 44.640625 C-18.5259839 42.14790992 -17.73597739 39.71748385 -17.00390625 37.09765625 C-15.70845929 32.48353617 -13.86532136 28.29560332 -11.8359375 23.9609375 C-8.35219719 16.47242827 -5.32890465 9.15806584 -3.50390625 1.09765625 C-2.50390625 0.09765625 -2.50390625 0.09765625 0 0 Z " fill="#FBEFE8" transform="translate(121.50390625,420.90234375)"/>
<path d="M0 0 C6.98230763 4.64186932 11.27282016 8.49696078 13 17 C13 20.96 13 24.92 13 29 C-1.19 29 -15.38 29 -30 29 C-30 29.99 -30 30.98 -30 32 C-29.34 32 -28.68 32 -28 32 C-27.15364583 33.69270833 -26.30729167 35.38541667 -25.4609375 37.078125 C-22.96130018 40.36641794 -20.09750842 42.68185244 -15.92041016 43.31542969 C-13.64188102 43.39243067 -11.40243186 43.3503614 -9.125 43.25 C-8.34125 43.23195313 -7.5575 43.21390625 -6.75 43.1953125 C-4.83279811 43.14855148 -2.91623285 43.07682003 -1 43 C-1 42.34 -1 41.68 -1 41 C2 39 2 39 4 39.25 C6 40 6 40 9 42 C9 42.99 9 43.98 9 45 C6.91796875 46.5703125 6.91796875 46.5703125 4.1875 48.125 C3.29417969 48.64320313 2.40085937 49.16140625 1.48046875 49.6953125 C-5.47748466 53.35508642 -14.41854629 53.06051229 -21.875 50.875 C-30.01970872 47.61413856 -34.24858978 42.16742396 -37.89453125 34.2890625 C-40.28541384 27.17555316 -40.15088333 20.02413154 -37.3125 13.0625 C-33.57612748 5.90439686 -28.70789865 1.1897203 -21.3125 -2.25 C-13.7906425 -3.95306208 -6.81489131 -3.85748565 0 0 Z " fill="#FCF4EE" transform="translate(446,443)"/>
<path d="M0 0 C14.52 0 29.04 0 44 0 C44 3.3 44 6.6 44 10 C32.45 10 20.9 10 9 10 C9 17.26 9 24.52 9 32 C19.23 32 29.46 32 40 32 C40 35.3 40 38.6 40 42 C29.77 42 19.54 42 9 42 C9.33 49.26 9.66 56.52 10 64 C21.88 64.33 33.76 64.66 46 65 C46 67.97 46 70.94 46 74 C30.82 74 15.64 74 0 74 C0 49.58 0 25.16 0 0 Z " fill="#FCEFEA" transform="translate(208,420)"/>
<path d="M0 0 C0.70938721 0.01200439 1.41877441 0.02400879 2.1496582 0.03637695 C14.99721805 0.38154405 14.99721805 0.38154405 19.875 4.5625 C20.65875 5.47 21.4425 6.3775 22.25 7.3125 C23.47174763 8.28027384 24.7013568 9.23818263 25.9375 10.1875 C29.4432835 13.12292827 30.38029164 15.79001655 31.25 20.3125 C31.745 21.3025 31.745 21.3025 32.25 22.3125 C32.374558 25.13678021 32.43516772 27.92560525 32.4375 30.75 C32.44974609 31.52666016 32.46199219 32.30332031 32.47460938 33.10351562 C32.48474195 37.02482309 32.4725417 38.97868745 30.25 42.3125 C29.59 42.3125 28.93 42.3125 28.25 42.3125 C28.0025 42.993125 27.755 43.67375 27.5 44.375 C25.65182162 48.7182192 23.61576263 52.94673737 20.25 56.3125 C19.0922494 52.83924819 19.18133348 49.95182552 19.25 46.3125 C18.59 46.3125 17.93 46.3125 17.25 46.3125 C17.23541748 45.70776855 17.22083496 45.10303711 17.20581055 44.47998047 C17.13090812 41.71520735 17.03438927 38.95158643 16.9375 36.1875 C16.90366211 34.76050781 16.90366211 34.76050781 16.86914062 33.3046875 C16.66559146 27.97540038 16.33890027 23.8584287 13.25 19.3125 C10.19960779 17.41043151 10.19960779 17.41043151 7.25 16.3125 C7.25 15.6525 7.25 14.9925 7.25 14.3125 C-2.17473241 15.17336405 -2.17473241 15.17336405 -9.75 20.3125 C-12.14629455 23.90694183 -12.00781331 26.46111652 -11.9453125 30.60546875 C-11.9424826 31.31149734 -11.93965271 32.01752594 -11.93673706 32.74494934 C-11.92555464 34.99680633 -11.9004542 37.24826352 -11.875 39.5 C-11.86496767 41.02798904 -11.85584226 42.55598433 -11.84765625 44.08398438 C-11.82562172 47.82697663 -11.79110567 51.56967056 -11.75 55.3125 C-18.87011414 51.10789668 -22.89435376 46.59538735 -26.75 39.3125 C-27.08 38.9825 -27.41 38.6525 -27.75 38.3125 C-29.25160311 21.2816597 -29.25160311 21.2816597 -23.26171875 14.03515625 C-22.76285156 13.46667969 -22.26398438 12.89820313 -21.75 12.3125 C-21.255 11.384375 -20.76 10.45625 -20.25 9.5 C-18.22008732 6.53971068 -15.80984283 5.1484057 -12.75 3.3125 C-11.65558594 2.52166016 -11.65558594 2.52166016 -10.5390625 1.71484375 C-6.98918074 -0.07004078 -3.88000955 -0.10077355 0 0 Z " fill="#B62305" transform="translate(163.75,161.6875)"/>
<path d="M0 0 C0.74789795 0.0002417 1.4957959 0.0004834 2.26635742 0.00073242 C11.0343976 0.26825104 18.2397359 4.00862371 24.9375 9.5625 C25.66654086 11.20284193 26.32405243 12.87551918 26.9375 14.5625 C27.63875 15.51125 28.34 16.46 29.0625 17.4375 C32.76197624 23.75570662 31.83649886 32.65313925 30.25390625 39.53515625 C29.57715122 41.5783736 28.77274566 43.57879155 27.9375 45.5625 C27.2775 45.5625 26.6175 45.5625 25.9375 45.5625 C25.834375 46.160625 25.73125 46.75875 25.625 47.375 C24.83925967 49.87508286 23.96831147 50.93785082 21.9375 52.5625 C21.2775 52.5625 20.6175 52.5625 19.9375 52.5625 C19.6075 53.5525 19.2775 54.5425 18.9375 55.5625 C17.9475 55.8925 16.9575 56.2225 15.9375 56.5625 C15.96106567 55.23859253 15.96106567 55.23859253 15.98510742 53.88793945 C16.03637998 50.59849114 16.07391917 47.30947039 16.10229492 44.01977539 C16.1173376 42.59880859 16.13777704 41.17788787 16.16381836 39.75708008 C16.20040347 37.70903114 16.21727097 35.6615985 16.23046875 33.61328125 C16.25403442 31.76730347 16.25403442 31.76730347 16.27807617 29.8840332 C15.76301988 24.86084983 13.6949476 22.374051 10.3125 18.75 C7.03788772 16.16778086 4.20031165 15.95287978 0.11328125 16.20703125 C-4.51496503 16.96317203 -7.26513362 18.67893185 -10.375 22.125 C-12.84765074 25.69660663 -13.25838587 27.8416308 -13.5625 32.15625 C-13.645 33.26871094 -13.7275 34.38117188 -13.8125 35.52734375 C-13.895 36.69394531 -13.9775 37.86054688 -14.0625 39.0625 C-14.22531874 41.36485868 -14.39179963 43.66696225 -14.5625 45.96875 C-14.67078125 47.50499023 -14.67078125 47.50499023 -14.78125 49.07226562 C-15.0625 51.5625 -15.0625 51.5625 -16.0625 53.5625 C-19.33839642 52.17272576 -21.07672192 50.66370808 -23.1875 47.8125 C-23.68507813 47.15765625 -24.18265625 46.5028125 -24.6953125 45.828125 C-29.16759131 38.41692011 -29.12287158 29.50058086 -27.6328125 21.15625 C-25.57679751 14.75975893 -20.7110916 10.2110916 -16.0625 5.5625 C-15.0725 5.5625 -14.0825 5.5625 -13.0625 5.5625 C-13.0625 4.9025 -13.0625 4.2425 -13.0625 3.5625 C-8.99152659 0.3200613 -5.03190346 -0.01517157 0 0 Z " fill="#B62103" transform="translate(474.0625,160.4375)"/>
<path d="M0 0 C5.06887461 2.91045209 9.28957974 6.8266779 11.77734375 12.1640625 C12.89247571 17.66751953 12.54282148 22.54023194 9.77734375 27.4765625 C6.0494221 32.51289119 2.16720572 36.58497964 -4.1953125 37.671875 C-8.90696698 37.84702944 -12.3438406 37.56352416 -16.66015625 35.6015625 C-22.30820303 30.2290302 -25.32578973 25.38990358 -25.66015625 17.4765625 C-25.62657636 11.92916483 -24.49081969 8.97137563 -20.92578125 4.78515625 C-15.03827659 -0.81877594 -7.87962672 -2.96351515 0 0 Z " fill="#E43007" transform="translate(349.22265625,449.8359375)"/>
<path d="M0 0 C3.79876466 1.81711153 6.75006428 4.02025728 9.51171875 7.2421875 C8.37866883 10.64133725 7.386534 11.29473201 4.51171875 13.2421875 C2.26771194 12.16173978 0.28802481 11.08063077 -1.73828125 9.6171875 C-5.43169234 7.77048195 -8.4332936 7.65356026 -12.48828125 8.2421875 C-15.526527 9.16239482 -15.526527 9.16239482 -17.48828125 11.2421875 C-18.23828125 14.2421875 -18.23828125 14.2421875 -17.48828125 17.2421875 C-13.62946147 21.16067975 -8.10591453 21.88658359 -2.95117188 23.171875 C2.45699092 24.63068732 6.15606315 26.69230002 10.51171875 30.2421875 C12.47428401 34.16731802 11.85360574 38.95305979 11.51171875 43.2421875 C9.27545954 48.77398661 5.18552116 51.41996877 -0.05078125 53.9921875 C-6.76880804 56.29079402 -14.44583286 56.59129325 -20.92578125 53.4921875 C-24.00860652 51.69011845 -26.79899307 49.59531465 -29.48828125 47.2421875 C-29.09024564 44.35642931 -28.69819056 43.42029237 -26.42578125 41.4921875 C-25.78640625 41.0796875 -25.14703125 40.6671875 -24.48828125 40.2421875 C-22.02028078 41.39392105 -20.4404456 42.29002315 -18.48828125 44.2421875 C-15.17837163 45.39732374 -11.90969585 45.44038208 -8.42578125 45.4921875 C-7.38292969 45.51796875 -6.34007812 45.54375 -5.265625 45.5703125 C-2.49760326 45.46300964 -2.49760326 45.46300964 -0.62890625 43.95703125 C1.21147949 41.19014995 0.69385237 38.45988154 0.51171875 35.2421875 C-4.63129233 32.74377385 -9.64240089 30.89552565 -15.17578125 29.4296875 C-20.02215605 27.94853548 -23.6014879 26.6534172 -26.578125 22.4296875 C-28.54389002 17.70510205 -28.73326059 13.18194422 -27.48828125 8.2421875 C-25.24331993 5.19620711 -22.7044716 3.20242031 -19.48828125 1.2421875 C-18.86953125 0.860625 -18.25078125 0.4790625 -17.61328125 0.0859375 C-12.32552264 -2.01361371 -5.37875061 -1.63811243 0 0 Z " fill="#FBEFE9" transform="translate(492.48828125,440.7578125)"/>
<path d="M0 0 C0.97453125 0.05800781 1.9490625 0.11601562 2.953125 0.17578125 C3.93796875 0.22089844 4.9228125 0.26601563 5.9375 0.3125 C7.05898438 0.39951172 7.05898438 0.39951172 8.203125 0.48828125 C6.65646958 3.99674696 4.54689405 6.6304081 2.078125 9.55078125 C-2.4715676 15.0222106 -6.67901906 20.68737792 -10.796875 26.48828125 C-9.0486638 30.60833454 -6.26645839 33.84626867 -3.484375 37.30078125 C7.203125 50.63470982 7.203125 50.63470982 7.203125 53.48828125 C3.65798068 54.22099375 0.73072876 54.38122128 -2.796875 53.48828125 C-6.40829755 50.2396755 -9.03842192 46.46496166 -11.796875 42.48828125 C-12.91449219 41.13283203 -12.91449219 41.13283203 -14.0546875 39.75 C-15.796875 37.48828125 -15.796875 37.48828125 -15.796875 35.48828125 C-21.48107631 38.16319952 -25.00257386 43.11524872 -27.90234375 48.56640625 C-29.06720195 50.63539627 -29.91996345 52.01997963 -31.796875 53.48828125 C-35.53276773 54.07565249 -39.04854636 53.90184466 -42.796875 53.48828125 C-41.18063653 49.88808868 -38.99149528 46.93730795 -36.609375 43.80078125 C-36.21443848 43.27548828 -35.81950195 42.75019531 -35.41259766 42.20898438 C-33.52715501 39.71124708 -31.60590221 37.25699578 -29.61328125 34.84375 C-28.97261719 34.06644531 -28.33195312 33.28914063 -27.671875 32.48828125 C-26.80175781 31.46734375 -26.80175781 31.46734375 -25.9140625 30.42578125 C-24.63657777 28.59250163 -24.63657777 28.59250163 -24.82421875 26.62890625 C-26.2529699 23.48450614 -28.33898553 20.9151581 -30.484375 18.23828125 C-31.39213654 17.08089342 -32.29968901 15.92334157 -33.20703125 14.765625 C-33.64934082 14.20601074 -34.09165039 13.64639648 -34.54736328 13.06982422 C-36.18859001 10.99247628 -37.81310783 8.90336664 -39.421875 6.80078125 C-39.88851563 6.19878906 -40.35515625 5.59679687 -40.8359375 4.9765625 C-41.796875 3.48828125 -41.796875 3.48828125 -41.796875 1.48828125 C-33.28177588 0.42810093 -33.28177588 0.42810093 -30.0078125 2.765625 C-28.45435167 4.59737962 -27.12722585 6.48899692 -25.796875 8.48828125 C-24.67374308 9.90642939 -23.54876478 11.32311735 -22.421875 12.73828125 C-19.796875 16.10366587 -19.796875 16.10366587 -19.796875 19.48828125 C-18.476875 19.48828125 -17.156875 19.48828125 -15.796875 19.48828125 C-15.71050781 18.93011719 -15.62414062 18.37195313 -15.53515625 17.796875 C-14.57687944 14.80035863 -12.99070827 12.96657029 -10.984375 10.55078125 C-10.29730469 9.71675781 -9.61023438 8.88273437 -8.90234375 8.0234375 C-8.20753906 7.18683594 -7.51273437 6.35023438 -6.796875 5.48828125 C-6.16910156 4.5653125 -5.54132813 3.64234375 -4.89453125 2.69140625 C-2.796875 0.48828125 -2.796875 0.48828125 0 0 Z " fill="#FCF2EC" transform="translate(301.796875,440.51171875)"/>
<path d="M0 0 C0 0.66 0 1.32 0 2 C1.0828125 2.37125 1.0828125 2.37125 2.1875 2.75 C5.27606582 4.12269592 7.51011418 5.72353296 10 8 C10 8.66 10 9.32 10 10 C6.535 11.98 6.535 11.98 3 14 C2.01 13.175 1.02 12.35 0 11.5 C-4.24804746 8.47916625 -6.85229898 8.34632368 -12 9 C-15.40241824 10.3648868 -15.40241824 10.3648868 -18 12 C-18.33397787 14.87413125 -18.33397787 14.87413125 -18 18 C-13.9420705 22.20067074 -8.22463418 22.18264846 -2.7265625 23.05859375 C2.80866672 24.45690637 7.50279035 27.44453306 11 32 C11.49609375 35.05859375 11.49609375 35.05859375 11.4375 38.4375 C11.43621094 39.54996094 11.43492187 40.66242188 11.43359375 41.80859375 C10.9629645 45.27259463 10.11370357 47.23513103 8 50 C7.34 50 6.68 50 6 50 C6 50.66 6 51.32 6 52 C-3.19344734 55.78553714 -11.42544157 57.97712427 -21 54 C-23.82736645 52.17964078 -26.43379575 50.17035359 -29 48 C-28.2578125 44.21875 -28.2578125 44.21875 -25.9375 42.25 C-25.298125 41.8375 -24.65875 41.425 -24 41 C-21.78260826 42.06763306 -19.76855952 43.15881606 -17.734375 44.5546875 C-14.54490546 46.24054997 -12.52163415 46.37140486 -8.9375 46.3125 C-7.91527344 46.30863281 -6.89304687 46.30476563 -5.83984375 46.30078125 C-3.05867366 46.0062144 -1.37385534 45.42886736 1 44 C1 41.36 1 38.72 1 36 C-3.26334182 33.19007016 -6.79926485 31.72249048 -11.8125 30.6875 C-18.13560649 29.17250601 -23.77540047 27.15636345 -28 22 C-29.31489729 17.16791439 -29.17408286 12.64826762 -27.12890625 8.03515625 C-20.37130049 -1.15425227 -10.21678861 -0.47891197 0 0 Z " fill="#FBEEE6" transform="translate(538,440)"/>
<path d="M0 0 C0 3.3 0 6.6 0 10 C-1.52625 10.185625 -3.0525 10.37125 -4.625 10.5625 C-9.51201137 11.53851785 -11.7935114 13.08712492 -14.84375 16.953125 C-17.5800803 21.79716919 -18.26800497 26.42818724 -18.4140625 31.9296875 C-18.47207031 33.86328125 -18.47207031 33.86328125 -18.53125 35.8359375 C-18.56269758 37.18228707 -18.59394511 38.52864132 -18.625 39.875 C-18.66323041 41.24481514 -18.70228501 42.61460755 -18.7421875 43.984375 C-18.83622715 47.32278263 -18.92188057 50.66118814 -19 54 C-21.97 54 -24.94 54 -28 54 C-28 36.84 -28 19.68 -28 2 C-25.03 2 -22.06 2 -19 2 C-19 3.32 -19 4.64 -19 6 C-18.01 6 -17.02 6 -16 6 C-16 5.34 -16 4.68 -16 4 C-10.45108785 1.18150494 -6.258654 -0.5326514 0 0 Z " fill="#FCF0EA" transform="translate(405,440)"/>
<path d="M0 0 C2.97 0 5.94 0 9 0 C9 24.09 9 48.18 9 73 C6.03 73 3.06 73 0 73 C0 48.91 0 24.82 0 0 Z " fill="#FDF2ED" transform="translate(163,421)"/>
<path d="M0 0 C3.3 0 6.6 0 10 0 C10 17.16 10 34.32 10 52 C6.7 52 3.4 52 0 52 C0 34.84 0 17.68 0 0 Z " fill="#FEFDF9" transform="translate(185,442)"/>
<path d="M0 0 C0.99 0.33 1.98 0.66 3 1 C3.75473535 3.02406299 4.48795713 5.058475 5.1171875 7.125 C6.1574695 10.51282103 7.31792607 13.84654855 8.5 17.1875 C8.9021875 18.33605469 9.304375 19.48460937 9.71875 20.66796875 C10.93912154 24.02963498 10.93912154 24.02963498 12.65625 27.17578125 C14 30 14 30 14 34 C5.75 34 -2.5 34 -11 34 C-10.28467748 28.99274234 -9.77235507 25.87475329 -7.96875 21.42578125 C-7.57042969 20.42869141 -7.17210938 19.43160156 -6.76171875 18.40429688 C-6.13716797 16.87385742 -6.13716797 16.87385742 -5.5 15.3125 C-4.67496085 13.26778222 -3.85195872 11.22224102 -3.03125 9.17578125 C-2.66580078 8.27770752 -2.30035156 7.37963379 -1.92382812 6.4543457 C-1.11656518 4.30968016 -0.49704067 2.23375541 0 0 Z " fill="#E2320B" transform="translate(123,433)"/>
<path d="M0 0 C15.18 0 30.36 0 46 0 C46 3.96 46 7.92 46 12 C34.45 12 22.9 12 11 12 C11 18.93 11 25.86 11 33 C10.67 33 10.34 33 10 33 C10 25.74 10 18.48 10 11 C21.55 11 33.1 11 45 11 C45 7.7 45 4.4 45 1 C30.48 1 15.96 1 1 1 C1 25.42 1 49.84 1 75 C16.18 75 31.36 75 47 75 C47 72.03 47 69.06 47 66 C45.37203491 66.00785522 45.37203491 66.00785522 43.71118164 66.01586914 C39.69882018 66.03391836 35.68646233 66.04543171 31.67407227 66.05493164 C29.93480832 66.05997204 28.19554864 66.0668043 26.45629883 66.07543945 C23.96174063 66.08751792 21.46723827 66.09323108 18.97265625 66.09765625 C18.19036148 66.10281754 17.40806671 66.10797882 16.60206604 66.11329651 C14.73432886 66.11349226 12.86670796 66.06199694 11 66 C10 65 10 65 9.88647461 62.86694336 C9.89171143 61.95050049 9.89694824 61.03405762 9.90234375 60.08984375 C9.90484131 59.199021 9.90733887 58.30819824 9.90991211 57.39038086 C9.91901611 56.25093018 9.92812012 55.11147949 9.9375 53.9375 C9.958125 50.328125 9.97875 46.71875 10 43 C20.23 43 30.46 43 41 43 C41 43.33 41 43.66 41 44 C31.43 44 21.86 44 12 44 C12 50.6 12 57.2 12 64 C14.50335938 63.98839844 17.00671875 63.97679687 19.5859375 63.96484375 C22.00520704 63.95704941 24.4244752 63.95097479 26.84375 63.94506836 C28.52767562 63.94003347 30.21159686 63.93320519 31.89550781 63.92456055 C34.31316203 63.91245804 36.73075856 63.90676332 39.1484375 63.90234375 C39.9036972 63.89718246 40.65895691 63.89202118 41.43710327 63.88670349 C46.77225659 63.88612829 46.77225659 63.88612829 49 65 C49.02687279 66.81242052 49.04633715 68.62495233 49.0625 70.4375 C49.07410156 71.44683594 49.08570313 72.45617187 49.09765625 73.49609375 C49 76 49 76 48 77 C46.49581261 77.09311889 44.98728644 77.11746028 43.48022461 77.11352539 C42.50581421 77.11340454 41.53140381 77.11328369 40.52746582 77.11315918 C39.49617554 77.10804321 38.46488525 77.10292725 37.40234375 77.09765625 C35.98846375 77.09614563 35.98846375 77.09614563 34.54602051 77.09460449 C31.00983471 77.08935477 27.47366619 77.07539364 23.9375 77.0625 C16.038125 77.041875 8.13875 77.02125 0 77 C0 51.59 0 26.18 0 0 Z " fill="#DD5E42" transform="translate(207,419)"/>
<path d="M0 0 C2.93257199 2.47781927 4.75020735 4.45410989 5.5625 8.3125 C5.5625 9.6325 5.5625 10.9525 5.5625 12.3125 C-5.3275 12.3125 -16.2175 12.3125 -27.4375 12.3125 C-26.22004247 6.22521236 -23.92010343 3.44243483 -19.4375 -0.6875 C-13.04641136 -4.02198103 -5.92899928 -4.18580893 0 0 Z " fill="#E0320B" transform="translate(443.4375,451.6875)"/>
<path d="M0 0 C3.3 0 6.6 0 10 0 C10 17.16 10 34.32 10 52 C6.7 52 3.4 52 0 52 C0 34.84 0 17.68 0 0 Z M3 2 C1.78519716 2.99411455 1.78519716 2.99411455 1.87974548 4.94252014 C1.88196609 5.79301437 1.88418671 6.64350861 1.88647461 7.51977539 C1.88655014 8.48069595 1.88662567 9.44161652 1.88670349 10.43165588 C1.89186478 11.476436 1.89702606 12.52121613 1.90234375 13.59765625 C1.9037587 14.66165146 1.90517365 15.72564667 1.90663147 16.82188416 C1.91224936 20.23545083 1.92480489 23.648953 1.9375 27.0625 C1.94251269 29.37044176 1.947076 31.67838455 1.95117188 33.98632812 C1.9622246 39.65757426 1.97898013 45.32878253 2 51 C3.98 51 5.96 51 8 51 C8 34.83 8 18.66 8 2 C6.35 2 4.7 2 3 2 Z " fill="#F7CDBF" transform="translate(185,442)"/>
<path d="M0 0 C-4.11769903 2.96871815 -7.61006743 4.75920747 -12.5625 6.125 C-13.65691406 6.43695313 -14.75132812 6.74890625 -15.87890625 7.0703125 C-17.24932531 7.39440044 -18.62353877 7.70261829 -20 8 C-20.83708496 8.18240234 -21.67416992 8.36480469 -22.53662109 8.55273438 C-32.75331394 10.44739908 -42.98994585 10.30272002 -53.34716797 10.26074219 C-56.49336011 10.25002262 -59.63898142 10.26068605 -62.78515625 10.2734375 C-73.03607368 10.2795132 -82.93212322 10.13930199 -93 8 C-93 7.01 -93 6.02 -93 5 C-91.24967156 5.14183696 -89.49974466 5.28863429 -87.75 5.4375 C-86.28820312 5.55931641 -86.28820312 5.55931641 -84.796875 5.68359375 C-82 6 -82 6 -80.07017517 6.51069641 C-76.54050414 7.34496432 -72.9258755 7.16303134 -69.31640625 7.16796875 C-68.465056 7.17129715 -67.61370575 7.17462555 -66.73655701 7.17805481 C-64.93188007 7.18311478 -63.12719379 7.18546342 -61.32250977 7.18530273 C-58.60351385 7.18746735 -55.88493861 7.20557172 -53.16601562 7.22460938 C-43.66260838 7.25524056 -34.30337753 7.21655248 -25 5 C-24.67 4.67 -24.34 4.34 -24 4 C-20.72950877 3.33986624 -17.45376717 2.75876888 -14.16601562 2.19335938 C-10.84263647 1.60110436 -7.81364685 0.93630968 -4.60546875 -0.16015625 C-2 -1 -2 -1 0 0 Z " fill="#DA4423" transform="translate(378,352)"/>
<path d="M0 0 C0.33 0 0.66 0 1 0 C1 19.47 1 38.94 1 59 C4.3 59 7.6 59 11 59 C11 48.11 11 37.22 11 26 C12.65 26.66 14.3 27.32 16 28 C18.66201747 29.01277453 21.33129263 30.00488878 24 31 C20.59442327 31.98754464 18.46257778 31.74866547 15 31 C13.16780354 32.83219646 13.76098672 35.75713741 13.68359375 38.22265625 C13.64169922 39.48271484 13.59980469 40.74277344 13.55664062 42.04101562 C13.51682404 43.38150736 13.47711186 44.7220022 13.4375 46.0625 C13.39431958 47.40691523 13.35070544 48.7513166 13.30664062 50.09570312 C13.20014642 53.3970234 13.0981354 56.69842236 13 60 C10.49860398 61.25069801 8.72607309 61.13302467 5.9375 61.125 C4.58978516 61.12886719 4.58978516 61.12886719 3.21484375 61.1328125 C1 61 1 61 0 60 C-0.08758003 58.00035018 -0.10696576 55.9976389 -0.09765625 53.99609375 C-0.09443359 52.78115234 -0.09121094 51.56621094 -0.08789062 50.31445312 C-0.07951172 49.03505859 -0.07113281 47.75566406 -0.0625 46.4375 C-0.05798828 45.15423828 -0.05347656 43.87097656 -0.04882812 42.54882812 C-0.03699555 39.3658658 -0.01905944 36.18292726 0 33 C-4.95 33 -9.9 33 -15 33 C-14.67 32.01 -14.34 31.02 -14 30 C-10.7 30.33 -7.4 30.66 -4 31 C-4.66 29.35 -5.32 27.7 -6 26 C-5.34 26 -4.68 26 -4 26 C-3.34 26.66 -2.68 27.32 -2 28 C-1.67 28 -1.34 28 -1 28 C-0.67 18.76 -0.34 9.52 0 0 Z " fill="#D74123" transform="translate(313,463)"/>
<path d="M0 0 C0.66 0 1.32 0 2 0 C2.33 1.051875 2.66 2.10375 3 3.1875 C4.96416126 7.90148703 8.61292137 9.73872669 13 12 C11 14 11 14 8.125 15.125 C3.95548433 17.6267094 2.77623536 20.60120537 1 25 C0.67 25 0.34 25 0 25 C-0.20625 24.113125 -0.4125 23.22625 -0.625 22.3125 C-2.77953659 17.12202549 -6.88525324 14.16393132 -12 12 C-10.6696875 11.443125 -10.6696875 11.443125 -9.3125 10.875 C-4.66530833 8.24451415 -1.7267191 5.18015731 0 0 Z " fill="#FCF7F2" transform="translate(189,413)"/>
<path d="M0 0 C0.99 0 1.98 0 3 0 C3.1938211 2.97888126 3.38035102 5.95790246 3.5625 8.9375 C3.64661133 10.21270508 3.64661133 10.21270508 3.73242188 11.51367188 C3.78076172 12.32255859 3.82910156 13.13144531 3.87890625 13.96484375 C3.9260376 14.7137085 3.97316895 15.46257324 4.02172852 16.23413086 C4 18 4 18 3 19 C0.04294679 19.08868299 -2.89065056 19.11520296 -5.84765625 19.09765625 C-7.17729652 19.09553383 -7.17729652 19.09553383 -8.53379822 19.09336853 C-11.37673254 19.08775215 -14.21958931 19.07519691 -17.0625 19.0625 C-18.98502491 19.05748711 -20.90755104 19.05292384 -22.83007812 19.04882812 C-27.55341549 19.03777741 -32.27669458 19.02050183 -37 19 C-35.47444034 23.81122847 -35.47444034 23.81122847 -32 27 C-32.33 27.66 -32.66 28.32 -33 29 C-38.57142857 23.85714286 -38.57142857 23.85714286 -39 20 C-39.66 20 -40.32 20 -41 20 C-41 19.01 -41 18.02 -41 17 C-26.81 17 -12.62 17 2 17 C1.32257631 8.45445363 1.32257631 8.45445363 0 0 Z " fill="#DD5E40" transform="translate(457,455)"/>
<path d="M0 0 C0.90492188 0.02320313 1.80984375 0.04640625 2.7421875 0.0703125 C4.10730469 0.09738281 4.10730469 0.09738281 5.5 0.125 C6.19867187 0.14820313 6.89734375 0.17140625 7.6171875 0.1953125 C7.6171875 0.8553125 7.6171875 1.5153125 7.6171875 2.1953125 C8.9371875 2.5253125 10.2571875 2.8553125 11.6171875 3.1953125 C11.6171875 3.8553125 11.6171875 4.5153125 11.6171875 5.1953125 C12.9371875 5.1953125 14.2571875 5.1953125 15.6171875 5.1953125 C15.6171875 7.5053125 15.6171875 9.8153125 15.6171875 12.1953125 C14.6271875 12.5253125 13.6371875 12.8553125 12.6171875 13.1953125 C9.9296875 11.4453125 9.9296875 11.4453125 7.6171875 9.1953125 C7.6171875 8.2053125 7.6171875 7.2153125 7.6171875 6.1953125 C2.9971875 6.1953125 -1.6228125 6.1953125 -6.3828125 6.1953125 C-3.42554754 0.28078259 -3.42554754 0.28078259 0 0 Z " fill="#FCF6F1" transform="translate(528.3828125,440.8046875)"/>
<path d="M0 0 C0.33 0 0.66 0 1 0 C1.22162329 1.62324086 1.42689803 3.248721 1.625 4.875 C1.79902344 6.23238281 1.79902344 6.23238281 1.9765625 7.6171875 C1.98429687 8.40351563 1.99203125 9.18984375 2 10 C-0.77082834 12.77082834 -3.18070857 12.53096421 -7 13 C-10.08091355 13.65504271 -10.08091355 13.65504271 -11.0625 15.875 C-11.371875 16.57625 -11.68125 17.2775 -12 18 C-12.66 18.99 -13.32 19.98 -14 21 C-14.66 21 -15.32 21 -16 21 C-16.33 32.22 -16.66 43.44 -17 55 C-20.63 55 -24.26 55 -28 55 C-28 54.67 -28 54.34 -28 54 C-25.03 54 -22.06 54 -19 54 C-19.02094727 53.16863525 -19.04189453 52.33727051 -19.06347656 51.48071289 C-19.1322107 48.35526734 -19.1820689 45.23021079 -19.21972656 42.10424805 C-19.24940781 40.10243949 -19.30027058 38.10098081 -19.3515625 36.09960938 C-19.44544487 26.78178399 -18.25205268 20.5911332 -12.875 13 C-8.64470883 10.05718875 -5.11298934 10.20451957 0 10 C0 6.7 0 3.4 0 0 Z " fill="#DF6246" transform="translate(405,440)"/>
<path d="M0 0 C0.578125 1.87890625 0.578125 1.87890625 1 4 C-0.25 5.9375 -0.25 5.9375 -2 8 C-2.45117188 8.77472656 -2.90234375 9.54945313 -3.3671875 10.34765625 C-7.21884604 16.60429775 -12.75611674 21.89784332 -18 27 C-18.825 27.86625 -19.65 28.7325 -20.5 29.625 C-22.8943847 31.89966547 -25.03357146 33.5568726 -28 35 C-28.66 34.67 -29.32 34.34 -30 34 C-26.82393426 30.73936446 -23.71468211 27.55931644 -20.125 24.75 C-11.99493151 18.13350809 -6.01662622 8.47573775 0 0 Z " fill="#F7D8CB" transform="translate(439,265)"/>
<path d="M0 0 C0.33 0 0.66 0 1 0 C1 24.42 1 48.84 1 74 C0.67 74 0.34 74 0 74 C-0.33 51.89 -0.66 29.78 -1 7 C-3.64 7.33 -6.28 7.66 -9 8 C-8.01 7.01 -7.02 6.02 -6 5 C-7.65 4.01 -9.3 3.02 -11 2 C-8.83032311 1.04534217 -7.43671207 0.85598788 -5.17578125 1.6015625 C-3.4315257 2.35870385 -1.71372869 3.17609198 0 4 C0 2.68 0 1.36 0 0 Z " fill="#D2330E" transform="translate(206,420)"/>
<path d="M0 0 C3.04376178 2.02917452 3.74810874 2.72582285 5 6 C5 7.32 5 8.64 5 10 C6.65 10 8.3 10 10 10 C10 27.82 10 45.64 10 64 C6.37 64 2.74 64 -1 64 C-1 63.67 -1 63.34 -1 63 C2.3 63 5.6 63 9 63 C9 45.84 9 28.68 9 11 C5.7 11 2.4 11 -1 11 C-0.01 10.67 0.98 10.34 2 10 C1.54177532 6.53058454 1.10868317 3.32604951 0 0 Z " fill="#DC4A29" transform="translate(186,431)"/>
<path d="M0 0 C0.33 0.66 0.66 1.32 1 2 C-0.24716797 2.09087891 -0.24716797 2.09087891 -1.51953125 2.18359375 C-3.14955078 2.30927734 -3.14955078 2.30927734 -4.8125 2.4375 C-6.43091797 2.55931641 -6.43091797 2.55931641 -8.08203125 2.68359375 C-11.05989905 2.90212461 -11.05989905 2.90212461 -14 4 C-15.03789581 5.64333504 -16.03567924 7.31243867 -17 9 C-18.5625 10.8125 -18.5625 10.8125 -20 12 C-20.66 12 -21.32 12 -22 12 C-22 12.66 -22 13.32 -22 14 C-11.44 14 -0.88 14 10 14 C10 14.33 10 14.66 10 15 C-0.89 15 -11.78 15 -23 15 C-21.78254247 8.91271236 -19.48260343 6.12993483 -15 2 C-10.19160001 -0.50873043 -5.30407936 -0.21216317 0 0 Z " fill="#DE7256" transform="translate(439,449)"/>
<path d="M0 0 C1.75032844 0.14183696 3.50025534 0.28863429 5.25 0.4375 C6.71179688 0.55931641 6.71179688 0.55931641 8.203125 0.68359375 C11 1 11 1 12.93988037 1.50694275 C16.33171174 2.31872427 19.79379705 2.24073844 23.265625 2.31640625 C24.45572174 2.3475779 24.45572174 2.3475779 25.66986084 2.37937927 C28.19648844 2.44459973 30.72321721 2.50363144 33.25 2.5625 C34.96615616 2.6057114 36.68230222 2.64932653 38.3984375 2.69335938 C42.59885546 2.80025283 46.79937489 2.90159729 51 3 C51 3.33 51 3.66 51 4 C14.71016331 5.77831078 14.71016331 5.77831078 0 3 C0 2.01 0 1.02 0 0 Z " fill="#E16B4F" transform="translate(285,357)"/>
<path d="M0 0 C0.93423645 3.01031744 1.04449911 3.86650268 0 7 C6.6 6.67 13.2 6.34 20 6 C20.33 4.68 20.66 3.36 21 2 C23 5 23 5 23 9 C14.75 9 6.5 9 -2 9 C-1 2 -1 2 0 0 Z " fill="#D74F35" transform="translate(114,458)"/>
<path d="M0 0 C4 0 4 0 5.75 1.5 C6.1625 1.995 6.575 2.49 7 3 C6.67 3.66 6.34 4.32 6 5 C5.01 4.34 4.02 3.68 3 3 C-0.14221967 3.31506627 -0.14221967 3.31506627 -3 4 C-3 4.66 -3 5.32 -3 6 C-6.48027742 7.16009247 -9.33321643 7.20416521 -13 7.25 C-14.2375 7.27578125 -15.475 7.3015625 -16.75 7.328125 C-20 7 -20 7 -23 4 C-18.05 4.33 -13.1 4.66 -8 5 C-8 4.34 -8 3.68 -8 3 C-6.865625 2.690625 -5.73125 2.38125 -4.5625 2.0625 C-1.21224901 1.37075469 -1.21224901 1.37075469 0 0 Z " fill="#E06E54" transform="translate(448,480)"/>
<path d="M0 0 C2.5009699 2.26650398 3.84956608 4.14798485 4.44140625 7.5 C4.73387613 14.29284888 3.49577717 18.8652881 -1 24 C-2.92423312 25.84762431 -4.85257348 27.40191515 -7 29 C-7.66 28.67 -8.32 28.34 -9 28 C-8.67 27.34 -8.34 26.68 -8 26 C-7.34 26 -6.68 26 -6 26 C-6 25.34 -6 24.68 -6 24 C-5.01 24 -4.02 24 -3 24 C-3 23.01 -3 22.02 -3 21 C-2.01 21 -1.02 21 0 21 C0.66 15.39 1.32 9.78 2 4 C1.34 4 0.68 4 0 4 C0 2.68 0 1.36 0 0 Z " fill="#DC5538" transform="translate(357,457)"/>
<path d="M0 0 C1.50820312 0.65162109 1.50820312 0.65162109 3.046875 1.31640625 C12.90280338 5.53860673 22.89127545 9.42726991 33 13 C25.63880687 15.45373104 15.764783 9.89684138 9 7 C5.92852289 5.44310802 2.9430354 3.78711452 0 2 C0 1.34 0 0.68 0 0 Z " fill="#D94626" transform="translate(240,341)"/>
<path d="M0 0 C1.17046875 0.01804687 2.3409375 0.03609375 3.546875 0.0546875 C4.88492187 0.08949219 4.88492187 0.08949219 6.25 0.125 C6.25 0.455 6.25 0.785 6.25 1.125 C5.39535156 1.17398437 4.54070312 1.22296875 3.66015625 1.2734375 C2.55542969 1.34820312 1.45070313 1.42296875 0.3125 1.5 C-0.78964844 1.56960938 -1.89179688 1.63921875 -3.02734375 1.7109375 C-3.92582031 1.84757812 -4.82429688 1.98421875 -5.75 2.125 C-6.08 2.785 -6.41 3.445 -6.75 4.125 C-7.74 4.434375 -8.73 4.74375 -9.75 5.0625 C-11.235 5.5884375 -11.235 5.5884375 -12.75 6.125 C-13.08 7.115 -13.41 8.105 -13.75 9.125 C-15.07 9.455 -16.39 9.785 -17.75 10.125 C-17.09 14.085 -16.43 18.045 -15.75 22.125 C-16.41 22.455 -17.07 22.785 -17.75 23.125 C-19.89455861 18.83588279 -19.58199729 13.74524027 -18.75 9.125 C-16.53390432 6.05615491 -13.96561686 4.08488327 -10.75 2.125 C-9.83734375 1.54492188 -9.83734375 1.54492188 -8.90625 0.953125 C-5.88324715 -0.20788334 -3.22383194 -0.06447664 0 0 Z " fill="#F5C4B4" transform="translate(483.75,439.875)"/>
<path d="M0 0 C-7.059811 5.04272214 -12.91070143 6.30100771 -21.375 6.625 C-22.20644531 6.66367187 -23.03789062 6.70234375 -23.89453125 6.7421875 C-25.92935156 6.83574246 -27.96464416 6.91892713 -30 7 C-30 6.67 -30 6.34 -30 6 C-24.72765501 4.08877494 -19.42489394 3.08583712 -13.921875 2.14453125 C-10.71104688 1.57467053 -7.7143307 0.90213181 -4.625 -0.15625 C-2 -1 -2 -1 0 0 Z " fill="#DA492C" transform="translate(378,352)"/>
<path d="M0 0 C0.33 0.66 0.66 1.32 1 2 C-0.90718514 5.81437028 -3.39850752 8.72271413 -6.375 11.75 C-7.12523437 12.52859375 -7.87546875 13.3071875 -8.6484375 14.109375 C-11.18457162 16.14839313 -12.80227089 16.66101812 -16 17 C-11.01595832 10.96668638 -5.58084697 5.4815829 0 0 Z " fill="#DD4C2E" transform="translate(448,303)"/>
<path d="M0 0 C0.33 0.66 0.66 1.32 1 2 C0.69578125 2.73476563 0.3915625 3.46953125 0.078125 4.2265625 C-2.65983418 11.26986329 -1.59611631 20.02293741 1 27 C-3.71243799 23.25536128 -3.71243799 23.25536128 -4.44482422 20.05810547 C-4.56398058 17.83300098 -4.53494677 15.66348997 -4.4375 13.4375 C-4.43169922 12.68275391 -4.42589844 11.92800781 -4.41992188 11.15039062 C-4.33643807 7.36022567 -4.24993552 4.14670697 -2 1 C-1.34 0.67 -0.68 0.34 0 0 Z " fill="#DA5032" transform="translate(409,454)"/>
<path d="M0 0 C0.33 0 0.66 0 1 0 C1.22162329 1.62324086 1.42689803 3.248721 1.625 4.875 C1.79902344 6.23238281 1.79902344 6.23238281 1.9765625 7.6171875 C1.98429687 8.40351563 1.99203125 9.18984375 2 10 C-0.77082834 12.77082834 -3.18070857 12.53096421 -7 13 C-10.08091355 13.65504271 -10.08091355 13.65504271 -11.0625 15.875 C-11.371875 16.57625 -11.68125 17.2775 -12 18 C-12.66 18.99 -13.32 19.98 -14 21 C-14.66 21 -15.32 21 -16 21 C-15.71697192 17.69800569 -14.98952988 15.98513919 -13.0625 13.25 C-8.70357834 10.04752694 -5.36178843 10.21447154 0 10 C0 6.7 0 3.4 0 0 Z " fill="#DB4527" transform="translate(405,440)"/>
<path d="M0 0 C0.66 0 1.32 0 2 0 C1.10570912 8.34671491 0.05248577 16.67207858 -1 25 C-1.66 25 -2.32 25 -3 25 C-3.55353075 8.29157175 -3.55353075 8.29157175 0 0 Z " fill="#F87811" transform="translate(3,163)"/>
<path d="M0 0 C0.33 0 0.66 0 1 0 C1.10546143 0.54301758 1.21092285 1.08603516 1.31958008 1.64550781 C3.305559 11.83078875 5.30981545 21.97294851 8 32 C7.34 32 6.68 32 6 32 C6 31.01 6 30.02 6 29 C5.34 29 4.68 29 4 29 C3.51774669 26.8131784 3.03934417 24.62550745 2.5625 22.4375 C2.29566406 21.21933594 2.02882812 20.00117188 1.75390625 18.74609375 C0.47455571 12.38911362 -0.11329009 6.45753504 0 0 Z " fill="#F2C0B1" transform="translate(182,208)"/>
<path d="M0 0 C1.8871875 0.0309375 1.8871875 0.0309375 3.8125 0.0625 C4.1425 0.7225 4.4725 1.3825 4.8125 2.0625 C3.90757812 2.15337891 3.90757812 2.15337891 2.984375 2.24609375 C1.78554688 2.37177734 1.78554688 2.37177734 0.5625 2.5 C-0.22640625 2.58121094 -1.0153125 2.66242188 -1.828125 2.74609375 C-4.01114639 3.03884993 -6.0648182 3.48314419 -8.1875 4.0625 C-7.8575 6.0425 -7.5275 8.0225 -7.1875 10.0625 C-5.5375 10.3925 -3.8875 10.7225 -2.1875 11.0625 C-1.8575 12.0525 -1.5275 13.0425 -1.1875 14.0625 C-4.9470188 13.54034461 -7.55521463 12.88976947 -10.1875 10.0625 C-10.66100184 6.81563026 -10.83326592 4.95427198 -8.875 2.25 C-5.97070998 0.20624036 -3.43654977 -0.05633688 0 0 Z " fill="#D75336" transform="translate(484.1875,447.9375)"/>
<path d="M0 0 C0.33 0 0.66 0 1 0 C1.48828125 5.95703125 1.48828125 5.95703125 1 8 C-2.57576291 10.89838706 -5.46975013 11.40967028 -10 11.375 C-11.010625 11.38273437 -12.02125 11.39046875 -13.0625 11.3984375 C-16.36244598 10.95083844 -18.28725269 9.88496045 -21 8 C-14.66666667 8 -8.33333333 8 -2 8 C-2 6.68 -2 5.36 -2 4 C-1.34 4 -0.68 4 0 4 C0 2.68 0 1.36 0 0 Z " fill="#D85032" transform="translate(539,476)"/>
<path d="M0 0 C0.99 0.33 1.98 0.66 3 1 C1.83364831 7.49166797 -0.19279995 13.05195728 -3 19 C-3.67834587 20.66194738 -4.35199575 22.32598903 -5 24 C-5.33 24 -5.66 24 -6 24 C-6 21.69 -6 19.38 -6 17 C-5.34 17 -4.68 17 -4 17 C-3.87882812 16.35933594 -3.75765625 15.71867187 -3.6328125 15.05859375 C-2.64320773 9.95071067 -1.51489049 4.97749731 0 0 Z " fill="#DB5435" transform="translate(115,423)"/>
<path d="M0 0 C0.8971875 0.309375 0.8971875 0.309375 1.8125 0.625 C-0.28708993 2.4430472 -2.39178727 4.25450034 -4.5 6.0625 C-5.39235352 6.8369043 -5.39235352 6.8369043 -6.30273438 7.62695312 C-7.16801758 8.36655273 -7.16801758 8.36655273 -8.05078125 9.12109375 C-8.57969971 9.57669678 -9.10861816 10.0322998 -9.65356445 10.50170898 C-11.1875 11.625 -11.1875 11.625 -14.1875 12.625 C-12.83300885 7.50803343 -5.81268421 -0.99646015 0 0 Z " fill="#F9DBD0" transform="translate(424.1875,442.375)"/>
<path d="M0 0 C0.9283895 2.52568075 1.10091513 3.70578971 0.21484375 6.2890625 C-3.26535992 12.65347166 -3.26535992 12.65347166 -7.3125 14.5625 C-8.199375 14.706875 -9.08625 14.85125 -10 15 C-10 15.66 -10 16.32 -10 17 C-10.66 16.67 -11.32 16.34 -12 16 C-11.30132812 15.09636719 -10.60265625 14.19273437 -9.8828125 13.26171875 C-8.96349026 12.07035217 -8.04422226 10.87894373 -7.125 9.6875 C-6.66480469 9.09259766 -6.20460938 8.49769531 -5.73046875 7.88476562 C-3.73752851 5.29971995 -1.81133955 2.71700932 0 0 Z " fill="#DE4227" transform="translate(461,286)"/>
<path d="M0 0 C0.33 0 0.66 0 1 0 C1.10957031 0.90621094 1.21914062 1.81242188 1.33203125 2.74609375 C2.25371556 9.8273269 3.41879731 16.34104625 6 23 C8.4 29.36 8.4 29.36 7 33 C6.67 31.02 6.34 29.04 6 27 C5.34 27 4.68 27 4 27 C1.37255093 17.86176517 -0.19432483 9.52191667 0 0 Z " fill="#D4573E" transform="translate(152,213)"/>
<path d="M0 0 C0.66 0.33 1.32 0.66 2 1 C-1.07424671 4.54720774 -3.40065568 6.01442622 -8 7 C-12.00623807 7.153692 -15.99319094 7.11670318 -20 7 C-20 6.34 -20 5.68 -20 5 C-19.31035156 4.97421875 -18.62070312 4.9484375 -17.91015625 4.921875 C-11.82858771 4.55481188 -7.18630008 3.57871071 -1.77734375 0.7421875 C-1.19082031 0.49726563 -0.60429687 0.25234375 0 0 Z " fill="#DB6043" transform="translate(358,490)"/>
<path d="M0 0 C4.95 0 9.9 0 15 0 C15 0.66 15 1.32 15 2 C16.0828125 2.37125 16.0828125 2.37125 17.1875 2.75 C20.27606582 4.12269592 22.51011418 5.72353296 25 8 C25 8.66 25 9.32 25 10 C23.02 10.99 23.02 10.99 21 12 C21 10.02 21 8.04 21 6 C19.68 6 18.36 6 17 6 C17 5.34 17 4.68 17 4 C15.68 3.67 14.36 3.34 13 3 C13 2.34 13 1.68 13 1 C8.71 1 4.42 1 0 1 C0 0.67 0 0.34 0 0 Z " fill="#F5C4B4" transform="translate(523,440)"/>
<path d="M0 0 C0.66 0 1.32 0 2 0 C2.66 2.31 3.32 4.62 4 7 C3.01 6.67 2.02 6.34 1 6 C-1.66735273 8.48952921 -3.55746343 10.63408134 -5 14 C-8.10551666 14 -9.35261084 13.4606285 -12 12 C-10.6696875 11.443125 -10.6696875 11.443125 -9.3125 10.875 C-4.66530833 8.24451415 -1.7267191 5.18015731 0 0 Z " fill="#F3BFB0" transform="translate(189,413)"/>
<path d="M0 0 C0.99 0.33 1.98 0.66 3 1 C3.73046875 3.06640625 3.73046875 3.06640625 4.1875 5.5625 C4.34605469 6.38878906 4.50460938 7.21507812 4.66796875 8.06640625 C4.77753906 8.70449219 4.88710937 9.34257812 5 10 C4.39671875 9.78472656 3.7934375 9.56945312 3.171875 9.34765625 C2.45515625 9.23292969 1.7384375 9.11820312 1 9 C-1.77122275 11.35426499 -1.77122275 11.35426499 -4 14 C-3.79503906 13.32453125 -3.59007813 12.6490625 -3.37890625 11.953125 C-3.10949219 11.06109375 -2.84007813 10.1690625 -2.5625 9.25 C-2.16224609 7.92742187 -2.16224609 7.92742187 -1.75390625 6.578125 C-1.11531506 4.39434165 -0.53224167 2.21164502 0 0 Z " fill="#D94E32" transform="translate(123,433)"/>
<path d="M0 0 C0.66 0 1.32 0 2 0 C2.66 0.66 3.32 1.32 4 2 C4.66 2.33 5.32 2.66 6 3 C6 4.32 6 5.64 6 7 C1.05 7 -3.9 7 -9 7 C-8.67 6.01 -8.34 5.02 -8 4 C-4.7 4.33 -1.4 4.66 2 5 C1.34 3.35 0.68 1.7 0 0 Z " fill="#DB4C29" transform="translate(307,489)"/>
<path d="M0 0 C1.010625 0.7425 2.02125 1.485 3.0625 2.25 C7.74649301 5.23456594 12.62899992 6.4307749 17.98266602 7.65527344 C19.66840167 8.05060557 21.33650144 8.51962021 23 9 C23.33 9.66 23.66 10.32 24 11 C22.02 11 20.04 11 18 11 C18 10.34 18 9.68 18 9 C17.07316406 8.87882812 16.14632812 8.75765625 15.19140625 8.6328125 C13.39509766 8.38144531 13.39509766 8.38144531 11.5625 8.125 C10.36753906 7.96257812 9.17257812 7.80015625 7.94140625 7.6328125 C6.97074219 7.42398437 6.00007812 7.21515625 5 7 C4.67 6.34 4.34 5.68 4 5 C3.01 4.67 2.02 4.34 1 4 C0.3125 1.9375 0.3125 1.9375 0 0 Z " fill="#DF684B" transform="translate(512,463)"/>
<path d="M0 0 C1.28197266 -0.03867187 1.28197266 -0.03867187 2.58984375 -0.078125 C5.52394478 0.31123438 6.86950201 1.31649829 9.0625 3.25 C8.31226563 3.21519531 7.56203125 3.18039062 6.7890625 3.14453125 C-0.36493651 2.95531969 -6.22885319 3.75652065 -12.9375 6.25 C-8.66814695 1.74987111 -6.19208518 0.11173688 0 0 Z " fill="#D85534" transform="translate(341.9375,448.75)"/>
<path d="M0 0 C4.29 0 8.58 0 13 0 C13.33 1.32 13.66 2.64 14 4 C13.34 3.67 12.68 3.34 12 3 C10.29636178 2.77377919 8.58671299 2.59111527 6.875 2.4375 C5.96492188 2.35371094 5.05484375 2.26992188 4.1171875 2.18359375 C3.41851562 2.12300781 2.71984375 2.06242187 2 2 C2.99 3.32 3.98 4.64 5 6 C4.67 6.66 4.34 7.32 4 8 C3.01 7.67 2.02 7.34 1 7 C0.67 4.69 0.34 2.38 0 0 Z " fill="#DB5E3E" transform="translate(258,440)"/>
<path d="M0 0 C0.33 0 0.66 0 1 0 C1 2.31 1 4.62 1 7 C0.34 7 -0.32 7 -1 7 C-0.979375 7.969375 -0.95875 8.93875 -0.9375 9.9375 C-1 13 -1 13 -2 14 C-4.01964199 14.07244053 -6.04167124 14.08377188 -8.0625 14.0625 C-9.16722656 14.05347656 -10.27195312 14.04445313 -11.41015625 14.03515625 C-12.69212891 14.01775391 -12.69212891 14.01775391 -14 14 C-14 12.02 -14 10.04 -14 8 C-13.34 8 -12.68 8 -12 8 C-12.33 9.65 -12.66 11.3 -13 13 C-10.03 13 -7.06 13 -4 13 C-3.79503906 12.31292969 -3.59007813 11.62585938 -3.37890625 10.91796875 C-3.10949219 10.01691406 -2.84007813 9.11585938 -2.5625 8.1875 C-2.29566406 7.29417969 -2.02882813 6.40085937 -1.75390625 5.48046875 C-1.19612127 3.64526945 -0.60655425 1.81966274 0 0 Z " fill="#DB5334" transform="translate(105,481)"/>
<path d="M0 0 C2.49005677 2.49005677 2.29703766 3.37470732 2.3125 6.8125 C2.22761545 11.01428533 1.78894269 13.69458644 -1 17 C-1.99 17.66 -2.98 18.32 -4 19 C-4.99 18.67 -5.98 18.34 -7 18 C-6.34 18 -5.68 18 -5 18 C-5 17.34 -5 16.68 -5 16 C-4.34 16 -3.68 16 -3 16 C-1.35199144 12.33552568 -0.66419027 9.18796534 -0.375 5.1875 C-0.26285156 3.72376953 -0.26285156 3.72376953 -0.1484375 2.23046875 C-0.09945312 1.49441406 -0.05046875 0.75835937 0 0 Z " fill="#DD6D53" transform="translate(549,474)"/>
<path d="M0 0 C1.12148438 0.08701172 1.12148438 0.08701172 2.265625 0.17578125 C1.605625 1.49578125 0.945625 2.81578125 0.265625 4.17578125 C-0.064375 3.51578125 -0.394375 2.85578125 -0.734375 2.17578125 C-5.75702857 3.35758209 -8.8292901 4.62570407 -12.734375 8.17578125 C-12.734375 5.17578125 -12.734375 5.17578125 -11.421875 2.48828125 C-7.67476951 -0.73597232 -4.79024133 -0.21944823 0 0 Z " fill="#F4BFAD" transform="translate(307.734375,440.82421875)"/>
<path d="M0 0 C8.57629923 -0.6587769 14.59224275 -0.75663842 21.5234375 4.6875 C22.25433594 5.3371875 22.25433594 5.3371875 23 6 C22.67 6.99 22.34 7.98 22 9 C21.50113281 8.59007812 21.00226563 8.18015625 20.48828125 7.7578125 C13.98275973 2.87575147 8.01341208 1.71835842 0 1 C0 0.67 0 0.34 0 0 Z " fill="#DB4F2F" transform="translate(430,439)"/>
<path d="M0 0 C0.33 0 0.66 0 1 0 C1.28875 0.94875 1.5775 1.8975 1.875 2.875 C2.76825109 6.05211578 2.76825109 6.05211578 5 8 C4.67 9.32 4.34 10.64 4 12 C0.04 12 -3.92 12 -8 12 C-8.33 10.35 -8.66 8.7 -9 7 C-8.01 8.485 -8.01 8.485 -7 10 C-5.03638136 10.57748803 -5.03638136 10.57748803 -2.875 10.6875 C-1.59625 10.790625 -0.3175 10.89375 1 11 C0.84402344 10.28972656 0.68804687 9.57945312 0.52734375 8.84765625 C0.23537109 7.46900391 0.23537109 7.46900391 -0.0625 6.0625 C-0.25972656 5.14597656 -0.45695313 4.22945313 -0.66015625 3.28515625 C-0.77230469 2.53105469 -0.88445312 1.77695312 -1 1 C-0.67 0.67 -0.34 0.34 0 0 Z " fill="#DE5336" transform="translate(155,483)"/>
<path d="M0 0 C0.33 0.99 0.66 1.98 1 3 C-3.75 7 -3.75 7 -6 7 C-6.4125 7.639375 -6.825 8.27875 -7.25 8.9375 C-9.59697894 11.70358232 -11.48008781 11.68711892 -15 12 C-11.99764638 8.82608332 -8.80246358 6.28747399 -5.25 3.75 C-4.26515625 3.04359375 -3.2803125 2.3371875 -2.265625 1.609375 C-1.51796875 1.07828125 -0.7703125 0.5471875 0 0 Z " fill="#DD6042" transform="translate(431,320)"/>
<path d="M0 0 C1 2 1 2 0.3125 4.5 C-1.20787371 7.39594993 -2.14041682 7.65957039 -5 9 C-6.16666667 10.91666667 -6.16666667 10.91666667 -7 13 C-7.66 13.99 -8.32 14.98 -9 16 C-9.33 15.01 -9.66 14.02 -10 13 C-8.61328962 10.82256966 -7.22663098 8.88180548 -5.625 6.875 C-5.19960938 6.32457031 -4.77421875 5.77414062 -4.3359375 5.20703125 C-1.31104052 1.31104052 -1.31104052 1.31104052 0 0 Z " fill="#DA5D3F" transform="translate(300,454)"/>
<path d="M0 0 C-1.44077046 3.36179774 -3.24750021 5.59156268 -6 8 C-6.66 8 -7.32 8 -8 8 C-7.67 11.96 -7.34 15.92 -7 20 C-7.66 19.67 -8.32 19.34 -9 19 C-9.86105208 7.17488474 -9.86105208 7.17488474 -6.625 3.3125 C-2.86486486 0 -2.86486486 0 0 0 Z " fill="#EFB29D" transform="translate(519,443)"/>
<path d="M0 0 C0.66 0.33 1.32 0.66 2 1 C0.7260411 3.03833424 -0.61061923 5.03852126 -2 7 C-2.66 7 -3.32 7 -4 7 C-4 14.26 -4 21.52 -4 29 C-4.33 29 -4.66 29 -5 29 C-5.14592789 25.29208456 -5.23427895 21.58491274 -5.3125 17.875 C-5.3753418 16.30492187 -5.3753418 16.30492187 -5.43945312 14.703125 C-5.57756696 5.97433036 -5.57756696 5.97433036 -2.48046875 2.2578125 C-1.66191406 1.51273438 -0.84335938 0.76765625 0 0 Z " fill="#DFA89B" transform="translate(156,179)"/>
<path d="M0 0 C2.22855574 -0.0814222 4.45797655 -0.13938079 6.6875 -0.1875 C8.54955078 -0.23970703 8.54955078 -0.23970703 10.44921875 -0.29296875 C14.22192032 0.01831026 16.05343883 0.66913818 19 3 C19.8125 5.6875 19.8125 5.6875 20 8 C19.56171875 7.566875 19.1234375 7.13375 18.671875 6.6875 C13.31048847 1.9799411 9.39298213 1.42264202 2.34375 1.7890625 C1.5703125 1.85867187 0.796875 1.92828125 0 2 C0 1.34 0 0.68 0 0 Z " fill="#B13E27" transform="translate(469,175)"/>
<path d="M0 0 C2.9375 0.8125 2.9375 0.8125 6 2 C6.33 2.99 6.66 3.98 7 5 C12.32212148 5.79265639 17.6496441 6.42978066 23 7 C23 7.33 23 7.66 23 8 C15.5027982 8.44983211 9.22890701 8.62094355 3 4 C1 1.75 1 1.75 0 0 Z " fill="#F1BCA8" transform="translate(465,488)"/>
<path d="M0 0 C0.33 0.99 0.66 1.98 1 3 C-6.09145057 7.72763371 -12.71965219 8.29989187 -21 8 C-21 7.67 -21 7.34 -21 7 C-19.700625 6.9175 -18.40125 6.835 -17.0625 6.75 C-10.65263776 6.05129464 -5.32583024 3.55055349 0 0 Z " fill="#D85F40" transform="translate(500,489)"/>
<path d="M0 0 C0.33 1.32 0.66 2.64 1 4 C-2.52679099 6.35119399 -4.02879485 6.21443452 -8.1875 6.125 C-9.27417969 6.10695313 -10.36085938 6.08890625 -11.48046875 6.0703125 C-12.72763672 6.03550781 -12.72763672 6.03550781 -14 6 C-13.67 5.01 -13.34 4.02 -13 3 C-12.22914063 3.03480469 -11.45828125 3.06960938 -10.6640625 3.10546875 C-9.15972656 3.14607422 -9.15972656 3.14607422 -7.625 3.1875 C-6.62726563 3.22230469 -5.62953125 3.25710938 -4.6015625 3.29296875 C-3.31378906 3.14794922 -3.31378906 3.14794922 -2 3 C-1.34 2.01 -0.68 1.02 0 0 Z " fill="#DB5232" transform="translate(272,490)"/>
<path d="M0 0 C0.66 0.33 1.32 0.66 2 1 C0.56974806 2.65213589 -0.86945545 4.29652589 -2.3125 5.9375 C-3.11300781 6.85402344 -3.91351563 7.77054687 -4.73828125 8.71484375 C-7 11 -7 11 -10 12 C-8.62968895 6.34746692 -4.32310587 3.4886459 0 0 Z " fill="#FAD9D1" transform="translate(328,443)"/>
<path d="M0 0 C2.0625 1.75 2.0625 1.75 4 4 C3.63273998 7.14426121 2.35131974 9.23134408 0.5 11.75 C-0.16515625 12.67039062 -0.16515625 12.67039062 -0.84375 13.609375 C-1.2253125 14.06828125 -1.606875 14.5271875 -2 15 C-2.33 15 -2.66 15 -3 15 C-3 13.35 -3 11.7 -3 10 C-1.68 9.67 -0.36 9.34 1 9 C0.67 6.03 0.34 3.06 0 0 Z " fill="#D74C2F" transform="translate(274,462)"/>
<path d="M0 0 C1.51400391 0.01740234 1.51400391 0.01740234 3.05859375 0.03515625 C4.07050781 0.04417969 5.08242187 0.05320312 6.125 0.0625 C7.29869141 0.07990234 7.29869141 0.07990234 8.49609375 0.09765625 C8.16609375 1.41765625 7.83609375 2.73765625 7.49609375 4.09765625 C7.16609375 3.76765625 6.83609375 3.43765625 6.49609375 3.09765625 C2.46466635 2.76629481 2.46466635 2.76629481 -1.50390625 3.09765625 C-3.55661088 4.93954237 -3.55661088 4.93954237 -4.50390625 7.09765625 C-3.46694712 0.13521635 -3.46694712 0.13521635 0 0 Z " fill="#F8D0BF" transform="translate(121.50390625,420.90234375)"/>
<path d="M0 0 C1.26328125 0.01804688 2.5265625 0.03609375 3.828125 0.0546875 C4.79234375 0.07789063 5.7565625 0.10109375 6.75 0.125 C6.75 0.785 6.75 1.445 6.75 2.125 C7.41 2.125 8.07 2.125 8.75 2.125 C8.42 2.785 8.09 3.445 7.75 4.125 C6.76 3.795 5.77 3.465 4.75 3.125 C4.75 2.465 4.75 1.805 4.75 1.125 C2.83210287 1.40846278 0.91570817 1.7021028 -1 2 C-2.60101563 2.24363281 -2.60101563 2.24363281 -4.234375 2.4921875 C-6.92708871 3.05723882 -8.88572439 3.75922914 -11.25 5.125 C-11.25 4.135 -11.25 3.145 -11.25 2.125 C-7.54583874 -0.25090142 -4.32015427 -0.08000286 0 0 Z " fill="#B84730" transform="translate(166.25,174.875)"/>
<path d="M0 0 C6.40353322 -0.2361959 11.84629161 0.176679 18 2 C18 2.66 18 3.32 18 4 C11.85845775 3.41509121 5.99320151 2.45933748 0 1 C0 0.67 0 0.34 0 0 Z " fill="#F87B0C" transform="translate(543,82)"/>
<path d="M0 0 C-1.38188453 3.21043882 -2.92421903 5.04936365 -5.625 7.25 C-6.57246094 8.03117187 -6.57246094 8.03117187 -7.5390625 8.828125 C-8.02117187 9.21484375 -8.50328125 9.6015625 -9 10 C-8.69121904 6.39755548 -8.00552268 5.00654002 -5.625 2.1875 C-3 0 -3 0 0 0 Z " fill="#FCEBE0" transform="translate(450,300)"/>
<path d="M0 0 C-2.67894284 1.78596189 -4.0031669 2.39169178 -7.01171875 3.0703125 C-7.76904297 3.24433594 -8.52636719 3.41835937 -9.30664062 3.59765625 C-10.48516602 3.85869141 -10.48516602 3.85869141 -11.6875 4.125 C-12.48478516 4.30675781 -13.28207031 4.48851563 -14.10351562 4.67578125 C-16.06775651 5.12273427 -18.03372014 5.56210416 -20 6 C-20 5.34 -20 4.68 -20 4 C-13.16088115 1.44672896 -7.33813334 -0.5644718 0 0 Z " fill="#F77E0A" transform="translate(89,84)"/>
<path d="M0 0 C0.33 0 0.66 0 1 0 C1.33 2.31 1.66 4.62 2 7 C3.32 7.33 4.64 7.66 6 8 C6 8.66 6 9.32 6 10 C7.65 10.33 9.3 10.66 11 11 C9.375 11.6875 9.375 11.6875 7 12 C3.79033355 10.65194009 1.46598569 9.46598569 -1 7 C-1.1875 3.9375 -1.1875 3.9375 -1 1 C-0.67 0.67 -0.34 0.34 0 0 Z " fill="#DD715A" transform="translate(520,451)"/>
<path d="M0 0 C4.67615869 0.44963064 7.39116278 1.01337609 11 4 C13.14733927 4.70514846 13.14733927 4.70514846 15 5 C15 5.66 15 6.32 15 7 C15.99 7.33 16.98 7.66 18 8 C11.56321215 6.9942519 5.37777244 4.69721855 0 1 C0 0.67 0 0.34 0 0 Z " fill="#F4C3B2" transform="translate(240,340)"/>
<path d="M0 0 C0.5625 1.9375 0.5625 1.9375 1 4 C0.67 4.33 0.34 4.66 0 5 C2.64 4.67 5.28 4.34 8 4 C7.67 4.99 7.34 5.98 7 7 C3.37 7 -0.26 7 -4 7 C-2 3 -2 3 0 0 Z " fill="#F9D1C0" transform="translate(263,487)"/>
<path d="M0 0 C1.37562854 1.28965176 2.70766393 2.62689293 4 4 C4 4.66 4 5.32 4 6 C0.7 6 -2.6 6 -6 6 C-6.33 5.34 -6.66 4.68 -7 4 C-5.824375 3.8453125 -5.824375 3.8453125 -4.625 3.6875 C-1.66954819 3.22404978 -1.66954819 3.22404978 0 0 Z " fill="#FBE0CF" transform="translate(305,488)"/>
<path d="M0 0 C0 0.66 0 1.32 0 2 C-0.66 2 -1.32 2 -2 2 C-2.33 2.99 -2.66 3.98 -3 5 C-6.80269732 6.6900877 -9.05272168 7.19873962 -13 6 C-11.21118264 4.99491199 -9.41885304 3.99607264 -7.625 3 C-6.62726563 2.443125 -5.62953125 1.88625 -4.6015625 1.3125 C-2 0 -2 0 0 0 Z " fill="#DE6A4D" transform="translate(408,337)"/>
<path d="M0 0 C1.32 0.33 2.64 0.66 4 1 C4.33 3.97 4.66 6.94 5 10 C5.66 10 6.32 10 7 10 C7 11.65 7 13.3 7 15 C3.30094662 10.46025266 1.79562412 5.51513124 0 0 Z " fill="#F6C9BA" transform="translate(164,256)"/>
<path d="M0 0 C5.42096702 1.35524176 10.0778687 3.36634013 15 6 C12.2780754 7.3609623 10.8168043 6.70366248 7.875 6.0625 C6.96492188 5.86785156 6.05484375 5.67320312 5.1171875 5.47265625 C4.06917969 5.23869141 4.06917969 5.23869141 3 5 C3 4.34 3 3.68 3 3 C2.34 3 1.68 3 1 3 C0.67 2.01 0.34 1.02 0 0 Z " fill="#F3C0B1" transform="translate(256,315)"/>
<path d="M0 0 C0.66 0 1.32 0 2 0 C1.71382812 0.52078125 1.42765625 1.0415625 1.1328125 1.578125 C-0.26436641 4.56519716 -1.17764986 7.59216619 -2.125 10.75 C-2.47820313 11.92046875 -2.83140625 13.0909375 -3.1953125 14.296875 C-3.46085938 15.18890625 -3.72640625 16.0809375 -4 17 C-4.33 17 -4.66 17 -5 17 C-4.69343615 10.37822074 -3.25711277 5.77874846 0 0 Z " fill="#F9800D" transform="translate(10,146)"/>
<path d="M0 0 C2.6015625 -0.29296875 2.6015625 -0.29296875 5.625 -0.1875 C7.12933594 -0.14689453 7.12933594 -0.14689453 8.6640625 -0.10546875 C9.43492187 -0.07066406 10.20578125 -0.03585937 11 0 C11.33 0.99 11.66 1.98 12 3 C7.38 3 2.76 3 -2 3 C-1.34 2.01 -0.68 1.02 0 0 Z " fill="#FBE1D5" transform="translate(337,447)"/>
<path d="M0 0 C3.04376178 2.02917452 3.74810874 2.72582285 5 6 C5 7.32 5 8.64 5 10 C5.99 10.33 6.98 10.66 8 11 C5.03 11 2.06 11 -1 11 C-0.01 10.67 0.98 10.34 2 10 C1.54177532 6.53058454 1.10868317 3.32604951 0 0 Z " fill="#DF6646" transform="translate(186,431)"/>
<path d="M0 0 C0.33 0 0.66 0 1 0 C1 1.65 1 3.3 1 5 C1.66 5 2.32 5 3 5 C4.80230168 8.82989106 5.19622241 11.78121808 5 16 C3.57082045 13.16104152 2.16143499 10.31555263 0.8125 7.4375 C0.44769531 6.67308594 0.08289063 5.90867187 -0.29296875 5.12109375 C-1 3 -1 3 0 0 Z " fill="#DA5839" transform="translate(134,430)"/>
<path d="M0 0 C1.32 0.33 2.64 0.66 4 1 C-0.29 3.64 -4.58 6.28 -9 9 C-9.33 8.34 -9.66 7.68 -10 7 C-9.34 7 -8.68 7 -8 7 C-8 6.01 -8 5.02 -8 4 C-6.35 4 -4.7 4 -3 4 C-3 3.34 -3 2.68 -3 2 C-2.01 2 -1.02 2 0 2 C0 1.34 0 0.68 0 0 Z " fill="#D7462A" transform="translate(397,305)"/>
<path d="M0 0 C1.10844919 3.32534757 0.84454356 5.62182575 0 9 C1.98 9 3.96 9 6 9 C6 9.66 6 10.32 6 11 C3.03 11 0.06 11 -3 11 C-2.32829194 7.1936543 -1.27253436 3.64793184 0 0 Z " fill="#FBD7C7" transform="translate(95,483)"/>
<path d="M0 0 C0.33 0.66 0.66 1.32 1 2 C0.00390625 4.6015625 0.00390625 4.6015625 -1.4375 7.625 C-1.91058594 8.62789063 -2.38367188 9.63078125 -2.87109375 10.6640625 C-3.24363281 11.43492187 -3.61617188 12.20578125 -4 13 C-5.53445094 9.93109813 -4.54984289 7.29905734 -4 4 C-3.34 4 -2.68 4 -2 4 C-2 3.01 -2 2.02 -2 1 C-1.34 0.67 -0.68 0.34 0 0 Z " fill="#F5CDBB" transform="translate(477,255)"/>
<path d="M0 0 C4 5 4 5 8 10 C6.68 10 5.36 10 4 10 C3.34 8.68 2.68 7.36 2 6 C0.68 6 -0.64 6 -2 6 C-1.34 4.02 -0.68 2.04 0 0 Z " fill="#F6D9CB" transform="translate(417,475)"/>
<path d="M0 0 C3.34373475 0.55728913 6.03312999 1.35173889 9 3 C9 3.99 9 4.98 9 6 C6.69 6.33 4.38 6.66 2 7 C2.99 6.01 3.98 5.02 5 4 C4.175 3.525625 3.35 3.05125 2.5 2.5625 C1.675 2.046875 0.85 1.53125 0 1 C0 0.67 0 0.34 0 0 Z " fill="#DD5F3F" transform="translate(195,421)"/>
<path d="M0 0 C1.32 0 2.64 0 4 0 C4.99 3.3 5.98 6.6 7 10 C5 8.25 5 8.25 3 6 C3 4.68 3 3.36 3 2 C2.34 2 1.68 2 1 2 C0.67 2.99 0.34 3.98 0 5 C0 3.35 0 1.7 0 0 Z " fill="#DD5335" transform="translate(188,411)"/>
<path d="M0 0 C0.33 0.99 0.66 1.98 1 3 C1.66 3 2.32 3 3 3 C3.99 6.63 4.98 10.26 6 14 C2.69354394 10.69354394 1.0518131 8.17690524 -1 4 C-0.75 1.5625 -0.75 1.5625 0 0 Z " fill="#D84727" transform="translate(195,247)"/>
<path d="M0 0 C-0.95712891 0.19916016 -0.95712891 0.19916016 -1.93359375 0.40234375 C-3.17302734 0.66724609 -3.17302734 0.66724609 -4.4375 0.9375 C-5.26121094 1.11152344 -6.08492188 1.28554688 -6.93359375 1.46484375 C-8.97661204 1.80752994 -8.97661204 1.80752994 -10 3 C-12.67058851 3.14115161 -15.32432238 3.04247107 -18 3 C-18 2.67 -18 2.34 -18 2 C-12.10607219 -0.21022293 -6.18900519 -1.82919487 0 0 Z " fill="#E3846C" transform="translate(366,356)"/>
<path d="M0 0 C0.66 0 1.32 0 2 0 C2.53341184 1.57914015 3.05125763 3.16354387 3.5625 4.75 C3.85253906 5.63171875 4.14257812 6.5134375 4.44140625 7.421875 C5.01697435 10.07834316 4.89248371 11.47031106 4 14 C3.67 12.02 3.34 10.04 3 8 C2.34 8 1.68 8 1 8 C0.67 5.36 0.34 2.72 0 0 Z " fill="#DF6E53" transform="translate(155,232)"/>
<path d="M0 0 C2.31 0.33 4.62 0.66 7 1 C7 1.66 7 2.32 7 3 C10.3 3 13.6 3 17 3 C17 3.33 17 3.66 17 4 C15.10489301 4.08160748 13.20875496 4.13946459 11.3125 4.1875 C9.72888672 4.23970703 9.72888672 4.23970703 8.11328125 4.29296875 C4.63392401 3.96555119 2.7919812 3.05643142 0 1 C0 0.67 0 0.34 0 0 Z " fill="#DF7256" transform="translate(331,483)"/>
<path d="M0 0 C3.19199167 2.41556126 5.74716687 4.68003538 8 8 C7.67 8.66 7.34 9.32 7 10 C4.0625 8.375 4.0625 8.375 1 6 C0.125 2.75 0.125 2.75 0 0 Z " fill="#F7D3C2" transform="translate(290,469)"/>
<path d="M0 0 C3.35997759 5.03996638 4.29282455 9.99709677 4 16 C3.690625 15.360625 3.38125 14.72125 3.0625 14.0625 C2.1654837 12.06389179 2.1654837 12.06389179 1 11 C0.76636119 9.15108054 0.58696365 7.29511969 0.4375 5.4375 C0.35371094 4.42558594 0.26992187 3.41367188 0.18359375 2.37109375 C0.12300781 1.58863281 0.06242188 0.80617187 0 0 Z " fill="#F6CBBE" transform="translate(153,216)"/>
<path d="M0 0 C0.33 0 0.66 0 1 0 C1.33 4.62 1.66 9.24 2 14 C0.35 14.33 -1.3 14.66 -3 15 C-2.690625 14.38125 -2.38125 13.7625 -2.0625 13.125 C-0.5960722 8.81197706 -0.33380974 4.5240004 0 0 Z " fill="#DA5330" transform="translate(504,474)"/>
<path d="M0 0 C3.3 0 6.6 0 10 0 C10 0.33 10 0.66 10 1 C8.02 1 6.04 1 4 1 C4.33 2.98 4.66 4.96 5 7 C3.29115995 5.37660195 1.62553283 3.70680947 0 2 C0 1.34 0 0.68 0 0 Z " fill="#FDE0D4" transform="translate(260,442)"/>
<path d="M0 0 C0 3.28176588 -0.47835901 5.10888212 -2 8 C-4.125 8.8125 -4.125 8.8125 -6 9 C-6 9.66 -6 10.32 -6 11 C-6.66 10.67 -7.32 10.34 -8 10 C-5.36 6.7 -2.72 3.4 0 0 Z " fill="#DB5C47" transform="translate(457,292)"/>
<path d="M0 0 C0.33 0 0.66 0 1 0 C1 2.97 1 5.94 1 9 C0.34 9 -0.32 9 -1 9 C-1.33 9.99 -1.66 10.98 -2 12 C-3.12377697 8.69564916 -2.89554742 6.9493138 -1.5625 3.75 C-1.27503906 3.04359375 -0.98757813 2.3371875 -0.69140625 1.609375 C-0.46324219 1.07828125 -0.23507812 0.5471875 0 0 Z " fill="#DB4023" transform="translate(487,228)"/>
<path d="M0 0 C0.99 0.33 1.98 0.66 3 1 C2.67 1.99 2.34 2.98 2 4 C0.35 4 -1.3 4 -3 4 C-3 4.99 -3 5.98 -3 7 C-3.66 7 -4.32 7 -5 7 C-4.6189482 4.23737447 -4.16402868 3.15856106 -2.125 1.1875 C-1.42375 0.795625 -0.7225 0.40375 0 0 Z " fill="#F7CBBA" transform="translate(468,481)"/>
<path d="M0 0 C0.66 0.33 1.32 0.66 2 1 C0.25 3.5 0.25 3.5 -2 6 C-3.32 6 -4.64 6 -6 6 C-6.33 4.68 -6.66 3.36 -7 2 C-6.01 2.33 -5.02 2.66 -4 3 C-1.80961577 1.62831762 -1.80961577 1.62831762 0 0 Z " fill="#DD4D32" transform="translate(546,450)"/>
<path d="M0 0 C-2.22825644 2.22825644 -3.65761628 2.69239369 -6.625 3.625 C-7.44226563 3.88539063 -8.25953125 4.14578125 -9.1015625 4.4140625 C-9.72804688 4.60742188 -10.35453125 4.80078125 -11 5 C-10.67 3.68 -10.34 2.36 -10 1 C-6.59437148 0.22157062 -3.49234244 -0.09978121 0 0 Z " fill="#D74728" transform="translate(398,440)"/>
<path d="M0 0 C0.66 0.33 1.32 0.66 2 1 C0.55746343 4.36591866 -1.33264727 6.51047079 -4 9 C-3.38461538 3.46153846 -3.38461538 3.46153846 -1.4375 1.125 C-0.963125 0.75375 -0.48875 0.3825 0 0 Z " fill="#DF6044" transform="translate(195,428)"/>
<path d="M0 0 C3.181798 1.06059933 6.0173094 2.47551369 9 4 C8.01 4.66 7.02 5.32 6 6 C6 5.34 6 4.68 6 4 C4.02 4 2.04 4 0 4 C0 2.68 0 1.36 0 0 Z " fill="#DC5131" transform="translate(175,424)"/>
<path d="M0 0 C3.465 1.485 3.465 1.485 7 3 C4.8614515 5.1385485 3.86724686 5.42655063 1 6 C0.67 4.02 0.34 2.04 0 0 Z " fill="#FADACA" transform="translate(195,422)"/>
<path d="M0 0 C-0.99 1.485 -0.99 1.485 -2 3 C-4.1640625 3.29296875 -4.1640625 3.29296875 -6.625 3.1875 C-7.44226563 3.16042969 -8.25953125 3.13335937 -9.1015625 3.10546875 C-10.04128906 3.05326172 -10.04128906 3.05326172 -11 3 C-3.71428571 -1.85714286 -3.71428571 -1.85714286 0 0 Z " fill="#DC5A3E" transform="translate(389,348)"/>
<path d="M0 0 C1.21236328 0.04060547 1.21236328 0.04060547 2.44921875 0.08203125 C3.06410156 0.11683594 3.67898438 0.15164063 4.3125 0.1875 C1.27724514 2.21100324 0.11823798 2.50874018 -3.375 2.8125 C-4.18324219 2.88726562 -4.99148438 2.96203125 -5.82421875 3.0390625 C-6.43910156 3.08804687 -7.05398438 3.13703125 -7.6875 3.1875 C-5.26849268 0.20484049 -3.789448 -0.16475861 0 0 Z " fill="#D94626" transform="translate(353.6875,324.8125)"/>
<path d="M0 0 C0.33 0.99 0.66 1.98 1 3 C-1.3125 5.0625 -1.3125 5.0625 -4 7 C-4.99 6.67 -5.98 6.34 -7 6 C-6.34 6 -5.68 6 -5 6 C-5 5.34 -5 4.68 -5 4 C-4.34 4 -3.68 4 -3 4 C-2.67 3.01 -2.34 2.02 -2 1 C-1.34 0.67 -0.68 0.34 0 0 Z " fill="#D95237" transform="translate(549,486)"/>
<path d="M0 0 C0.99 0 1.98 0 3 0 C3.33 0.99 3.66 1.98 4 3 C1.35261084 4.4606285 0.10551666 5 -3 5 C-1.125 1.125 -1.125 1.125 0 0 Z " fill="#DA5339" transform="translate(283,476)"/>
<path d="M0 0 C0.99 0.33 1.98 0.66 3 1 C-0.625 5.875 -0.625 5.875 -4 7 C-2.92598892 4.08482708 -2.22189824 2.22189824 0 0 Z " fill="#F7CEBE" transform="translate(414,448)"/>
<path d="M0 0 C2.96404505 2.80804268 5.44499019 5.18315774 7 9 C6.34 9 5.68 9 5 9 C4.67 8.34 4.34 7.68 4 7 C3.01 6.67 2.02 6.34 1 6 C0.67 4.02 0.34 2.04 0 0 Z " fill="#F6CFC0" transform="translate(270,443)"/>
<path d="M0 0 C-0.99 0.495 -0.99 0.495 -2 1 C-2 1.99 -2 2.98 -2 4 C-4.31 3.34 -6.62 2.68 -9 2 C-8 0 -8 0 -6.1875 -0.6875 C-3.81180233 -1.02688538 -2.26664171 -0.72856341 0 0 Z " fill="#F9D0C0" transform="translate(186,424)"/>
<path d="M0 0 C2.25245881 2.68841859 3.88213958 4.64641875 5 8 C3.68 8.33 2.36 8.66 1 9 C0.67 6.03 0.34 3.06 0 0 Z " fill="#D84B2B" transform="translate(176,280)"/>
<path d="M0 0 C0.33 0 0.66 0 1 0 C1.390625 5.95703125 1.390625 5.95703125 1 8 C-0.32 8.99 -1.64 9.98 -3 11 C-2.01 7.37 -1.02 3.74 0 0 Z " fill="#D74B29" transform="translate(481,246)"/>
<path d="M0 0 C0.66 0.33 1.32 0.66 2 1 C0.4375 3 0.4375 3 -2 5 C-5.75 5.25 -5.75 5.25 -9 5 C-6.06626269 3.04417512 -3.21783702 1.43775696 0 0 Z " fill="#E1674A" transform="translate(358,490)"/>
<path d="M0 0 C4.875 4.75 4.875 4.75 6 7 C4.02 6.34 2.04 5.68 0 5 C0 3.35 0 1.7 0 0 Z " fill="#D95134" transform="translate(265,451)"/>
<path d="M0 0 C-0.1875 1.8125 -0.1875 1.8125 -1 4 C-3.90696599 6.14197494 -5.35521088 7 -9 7 C-7.66666667 5.66666667 -6.33333333 4.33333333 -5 3 C-4.46375 2.4225 -3.9275 1.845 -3.375 1.25 C-2 0 -2 0 0 0 Z " fill="#DB4D27" transform="translate(504,448)"/>
<path d="M0 0 C1.32 0 2.64 0 4 0 C4 0.66 4 1.32 4 2 C4.99 2 5.98 2 7 2 C7.33 3.65 7.66 5.3 8 7 C6.66382648 6.02471263 5.3311249 5.04466681 4 4.0625 C3.2575 3.51722656 2.515 2.97195313 1.75 2.41015625 C1.1725 1.94480469 0.595 1.47945313 0 1 C0 0.67 0 0.34 0 0 Z " fill="#D84F33" transform="translate(357,444)"/>
<path d="M0 0 C0.33 0.99 0.66 1.98 1 3 C-0.65 4.32 -2.3 5.64 -4 7 C-4.33 6.34 -4.66 5.68 -5 5 C-3.35 3.35 -1.7 1.7 0 0 Z " fill="#D64827" transform="translate(431,320)"/>
<path d="M0 0 C1.98 0 3.96 0 6 0 C2.57653445 3.14958831 -0.44262737 3.56179109 -5 4 C-5 3.34 -5 2.68 -5 2 C-3.35 2 -1.7 2 0 2 C0 1.34 0 0.68 0 0 Z " fill="#D94728" transform="translate(364,321)"/>
<path d="M0 0 C0.66 0.33 1.32 0.66 2 1 C0.02 5.455 0.02 5.455 -2 10 C-2.33 10 -2.66 10 -3 10 C-2.88637738 8.5199159 -2.75877092 7.04089926 -2.625 5.5625 C-2.55539062 4.73878906 -2.48578125 3.91507813 -2.4140625 3.06640625 C-2.27742187 2.38449219 -2.14078125 1.70257813 -2 1 C-1.34 0.67 -0.68 0.34 0 0 Z " fill="#FA830B" transform="translate(15,136)"/>
<path d="M0 0 C0.66 0 1.32 0 2 0 C0.79618552 2.49361571 -0.45428722 4.68143083 -2 7 C-2.99 6.67 -3.98 6.34 -5 6 C-3.38405168 3.95880212 -1.7143618 1.95927063 0 0 Z " fill="#DE4102" transform="translate(27,122)"/>
<path d="M0 0 C0.99 0 1.98 0 3 0 C2.01 2.97 1.02 5.94 0 9 C-1.15941038 5.52176885 -0.70820884 3.54104422 0 0 Z " fill="#D84B2C" transform="translate(99,465)"/>
<path d="M0 0 C0.66 0 1.32 0 2 0 C3.80230168 3.82989106 4.19622241 6.78121808 4 11 C3.33333333 9.66666667 2.66666667 8.33333333 2 7 C1.62875 6.319375 1.2575 5.63875 0.875 4.9375 C0 3 0 3 0 0 Z " fill="#F9D7C8" transform="translate(129,443)"/>
<path d="M0 0 C1.98 0.66 3.96 1.32 6 2 C5.34 3.98 4.68 5.96 4 8 C3.67 8 3.34 8 3 8 C2.690625 7.05125 2.38125 6.1025 2.0625 5.125 C1.12605258 2.13919592 1.12605258 2.13919592 0 0 Z " fill="#FAD4C4" transform="translate(186,430)"/>
<path d="M0 0 C2.64 0 5.28 0 8 0 C8 0.66 8 1.32 8 2 C8.66 2.33 9.32 2.66 10 3 C2.25 2.25 2.25 2.25 0 0 Z " fill="#D73B1A" transform="translate(286,325)"/>
<path d="M0 0 C1 2 1 2 0.375 4.0625 C-1 6 -1 6 -3.625 6.75 C-4.800625 6.87375 -4.800625 6.87375 -6 7 C-4.02 4.69 -2.04 2.38 0 0 Z " fill="#DC5C3B" transform="translate(448,303)"/>
<path d="M0 0 C0.66 0.33 1.32 0.66 2 1 C0.68 2.65 -0.64 4.3 -2 6 C-3.32 5.67 -4.64 5.34 -6 5 C-4.02 3.35 -2.04 1.7 0 0 Z " fill="#F7CCC3" transform="translate(407,300)"/>
<path d="M0 0 C2.475 0.495 2.475 0.495 5 1 C5.33 2.32 5.66 3.64 6 5 C6.66 5 7.32 5 8 5 C7.67 5.66 7.34 6.32 7 7 C5.83040013 6.02433888 4.66438823 5.044375 3.5 4.0625 C2.8503125 3.51722656 2.200625 2.97195313 1.53125 2.41015625 C1.0259375 1.94480469 0.520625 1.47945313 0 1 C0 0.67 0 0.34 0 0 Z " fill="#DA5335" transform="translate(225,292)"/>
<path d="M0 0 C0.6875 1.75 0.6875 1.75 1 4 C-0.3125 6.25 -0.3125 6.25 -2 8 C-2.66 8 -3.32 8 -4 8 C-2.87548273 5.0280615 -1.77706209 2.66559313 0 0 Z " fill="#DD6A52" transform="translate(469,273)"/>
<path d="M0 0 C1 2 1 2 0.44140625 4.1640625 C0.15136719 4.97617188 -0.13867188 5.78828125 -0.4375 6.625 C-0.72496094 7.44226563 -1.01242187 8.25953125 -1.30859375 9.1015625 C-1.53675781 9.72804687 -1.76492188 10.35453125 -2 11 C-2.33 11 -2.66 11 -3 11 C-3.32613618 6.32538149 -2.70582788 3.83325617 0 0 Z " fill="#F8D0C3" transform="translate(483,238)"/>
<path d="M0 0 C3.375 0.3125 3.375 0.3125 7 1 C7.66 1.99 8.32 2.98 9 4 C5.17902761 3.46930939 2.93828597 2.50298434 0 0 Z " fill="#F87E09" transform="translate(569,89)"/>
<path d="M0 0 C2.5 2.3125 2.5 2.3125 5 5 C5 5.99 5 6.98 5 8 C2.21611025 6.29374499 1.14615794 5.52373261 0.25 2.3125 C0.1675 1.549375 0.085 0.78625 0 0 Z " fill="#D95B3F" transform="translate(290,483)"/>
<path d="M0 0 C0 3.51716303 -0.82445585 4.37121748 -3 7 C-4.32 6.67 -5.64 6.34 -7 6 C-4.69 4.02 -2.38 2.04 0 0 Z " fill="#F6CCBE" transform="translate(357,479)"/>
<path d="M0 0 C2.475 0.495 2.475 0.495 5 1 C5 2.32 5 3.64 5 5 C5.66 5.33 6.32 5.66 7 6 C6.01 6 5.02 6 4 6 C1.8125 3 1.8125 3 0 0 Z " fill="#FBE3D9" transform="translate(269,455)"/>
<path d="M0 0 C2.5625 2.25 2.5625 2.25 5 5 C4.8125 7.3125 4.8125 7.3125 4 9 C4 8.01 4 7.02 4 6 C3.01 6 2.02 6 1 6 C0.67 4.02 0.34 2.04 0 0 Z " fill="#F7CFBB" transform="translate(452,448)"/>
<path d="M0 0 C0.66 0.33 1.32 0.66 2 1 C0.68 2.65 -0.64 4.3 -2 6 C-3.32 5.67 -4.64 5.34 -6 5 C-4.02 3.35 -2.04 1.7 0 0 Z " fill="#F6CCBA" transform="translate(328,443)"/>
<path d="M0 0 C-2.25 1.625 -2.25 1.625 -5 3 C-7.3125 2.1875 -7.3125 2.1875 -9 1 C-5.57367167 -0.61798838 -3.61944899 -1.34053666 0 0 Z " fill="#F8D6C9" transform="translate(400,442)"/>
<path d="M0 0 C0.66 0.33 1.32 0.66 2 1 C0.25 3.0625 0.25 3.0625 -2 5 C-4.25 4.75 -4.25 4.75 -6 4 C-4.02 2.68 -2.04 1.36 0 0 Z " fill="#DD6E57" transform="translate(414,332)"/>
<path d="M0 0 C0.66 0 1.32 0 2 0 C2 0.66 2 1.32 2 2 C2.99 2 3.98 2 5 2 C5.33 3.98 5.66 5.96 6 8 C1.125 3.375 1.125 3.375 0 0 Z " fill="#DA4225" transform="translate(211,276)"/>
<path d="M0 0 C-3.96 1.98 -3.96 1.98 -8 4 C-8 3.01 -8 2.02 -8 1 C-4.59449725 -1.06762667 -4.18836538 -1.04709135 0 0 Z " fill="#AB361D" transform="translate(163,176)"/>
</svg>
