<svg xmlns="http://www.w3.org/2000/svg" version="1.1" width="600px" height="600px" viewBox="0 0 200 200" style="overflow:hidden!important;"><defs id="SvgjsDefs54106"><linearGradient id="SvgjsLinearGradient54825" x1="77.6751" y1="125.4186" x2="77.6751" y2="98.8032" gradientTransform="matrix(1 0 0 -1 0 202)" gradientUnits="userSpaceOnUse" class="svga-on-canvas-glasses-gradient-single-0-null"><stop id="SvgjsStop54826" stop-opacity="1" stop-color="#3d2d1c" offset="0.0208" ></stop><stop id="SvgjsStop54827" stop-opacity="0.6291" stop-color="#402e1c" offset="0.3825" ></stop><stop id="SvgjsStop54828" stop-opacity="0.3897" stop-color="#48321d" offset="0.6159" ></stop><stop id="SvgjsStop54829" stop-opacity="0.1881" stop-color="#57381f" offset="0.8124" ></stop><stop id="SvgjsStop54830" stop-opacity="7.593334e-03" stop-color="#6c4221" offset="0.9884" ></stop><stop id="SvgjsStop54831" stop-opacity="0" stop-color="#6d4221" offset="0.9958" ></stop></linearGradient><linearGradient id="SvgjsLinearGradient54833" x1="-1739.8073" y1="125.8666" x2="-1739.8073" y2="98.8005" gradientTransform="matrix(-1 0 0 -1 -1618 202)" gradientUnits="userSpaceOnUse" class="svga-on-canvas-glasses-gradient-single-1-null"><stop id="SvgjsStop54834" stop-opacity="1" stop-color="#3d2d1c" offset="0.0208" ></stop><stop id="SvgjsStop54835" stop-opacity="0.6291" stop-color="#402e1c" offset="0.3825" ></stop><stop id="SvgjsStop54836" stop-opacity="0.3897" stop-color="#48321d" offset="0.6159" ></stop><stop id="SvgjsStop54837" stop-opacity="0.1881" stop-color="#57381f" offset="0.8124" ></stop><stop id="SvgjsStop54838" stop-opacity="7.593334e-03" stop-color="#6c4221" offset="0.9884" ></stop><stop id="SvgjsStop54839" stop-opacity="0" stop-color="#6d4221" offset="0.9958" ></stop></linearGradient><linearGradient id="SvgjsLinearGradient55202" x1="80.8483" y1="78.7842" x2="80.8483" y2="101.3287" gradientUnits="userSpaceOnUse" class="svga-on-canvas-glasses-gradient-single-0-null"><stop id="SvgjsStop55203" stop-opacity="1" stop-color="#9bc2cf" offset="0" ></stop><stop id="SvgjsStop55204" stop-opacity="0" stop-color="#6086c4" offset="1" ></stop></linearGradient><linearGradient id="SvgjsLinearGradient55206" x1="-19.4949" y1="78.7842" x2="-19.4949" y2="101.3287" gradientTransform="matrix(-1 0 0 1 100 0)" gradientUnits="userSpaceOnUse" class="svga-on-canvas-glasses-gradient-single-1-null"><stop id="SvgjsStop55207" stop-opacity="1" stop-color="#9bc2cf" offset="0" ></stop><stop id="SvgjsStop55208" stop-opacity="0" stop-color="#6086c4" offset="1" ></stop></linearGradient><linearGradient id="SvgjsLinearGradient55255" x1="79.1" y1="71.7" x2="79.1" y2="105.64" gradientUnits="userSpaceOnUse" class="svga-on-canvas-glasses-gradient-single-0-null"><stop id="SvgjsStop55256" stop-opacity="1" stop-color="#b4c0cf" offset="0" ></stop><stop id="SvgjsStop55257" stop-opacity="0.9374" stop-color="#abbace" offset="0.0626" ></stop><stop id="SvgjsStop55258" stop-opacity="0.679" stop-color="#8aa3ca" offset="0.321" ></stop><stop id="SvgjsStop55259" stop-opacity="0.4305" stop-color="#7393c6" offset="0.5695" ></stop><stop id="SvgjsStop55260" stop-opacity="0.1987" stop-color="#6589c5" offset="0.8013" ></stop><stop id="SvgjsStop55261" stop-opacity="0" stop-color="#6086c4" offset="1" ></stop></linearGradient><linearGradient id="SvgjsLinearGradient55263" x1="121.5" y1="71.7" x2="121.5" y2="105.64" gradientUnits="userSpaceOnUse" class="svga-on-canvas-glasses-gradient-single-1-null"><stop id="SvgjsStop55264" stop-opacity="1" stop-color="#b4c0cf" offset="0" ></stop><stop id="SvgjsStop55265" stop-opacity="0.9374" stop-color="#abbace" offset="0.0626" ></stop><stop id="SvgjsStop55266" stop-opacity="0.679" stop-color="#8aa3ca" offset="0.321" ></stop><stop id="SvgjsStop55267" stop-opacity="0.4305" stop-color="#7393c6" offset="0.5695" ></stop><stop id="SvgjsStop55268" stop-opacity="0.1987" stop-color="#6589c5" offset="0.8013" ></stop><stop id="SvgjsStop55269" stop-opacity="0" stop-color="#6086c4" offset="1" ></stop></linearGradient><linearGradient id="SvgjsLinearGradient55337" x1="87.7268" y1="112.9923" x2="87.7268" y2="86.5667" gradientTransform="matrix(0.9926 -1.200000e-02 0 -1 -5.897 192.4354)" gradientUnits="userSpaceOnUse" class="svga-on-canvas-glasses-gradient-single-0-null"><stop id="SvgjsStop55338" stop-opacity="1" stop-color="#3d2d1c" offset="0.0208" ></stop><stop id="SvgjsStop55339" stop-opacity="0.6291" stop-color="#402e1c" offset="0.3825" ></stop><stop id="SvgjsStop55340" stop-opacity="0.3897" stop-color="#48321d" offset="0.6159" ></stop><stop id="SvgjsStop55341" stop-opacity="0.1881" stop-color="#57381f" offset="0.8124" ></stop><stop id="SvgjsStop55342" stop-opacity="7.593334e-03" stop-color="#6c4221" offset="0.9884" ></stop><stop id="SvgjsStop55343" stop-opacity="0" stop-color="#6d4221" offset="0.9958" ></stop></linearGradient><linearGradient id="SvgjsLinearGradient55345" x1="-1744.0752" y1="112.7015" x2="-1744.0752" y2="87.2129" gradientTransform="matrix(-0.9926 1.200000e-02 0 -1 -1611.6344 211.8458)" gradientUnits="userSpaceOnUse" class="svga-on-canvas-glasses-gradient-single-1-null"><stop id="SvgjsStop55346" stop-opacity="1" stop-color="#3d2d1c" offset="0.0208" ></stop><stop id="SvgjsStop55347" stop-opacity="0.6291" stop-color="#402e1c" offset="0.3825" ></stop><stop id="SvgjsStop55348" stop-opacity="0.3897" stop-color="#48321d" offset="0.6159" ></stop><stop id="SvgjsStop55349" stop-opacity="0.1881" stop-color="#57381f" offset="0.8124" ></stop><stop id="SvgjsStop55350" stop-opacity="7.593334e-03" stop-color="#6c4221" offset="0.9884" ></stop><stop id="SvgjsStop55351" stop-opacity="0" stop-color="#6d4221" offset="0.9958" ></stop></linearGradient></defs><g id="svga-group-wrapper"><g id="svga-group-backs-single"><path id="SvgjsPath55422" d="M0 0h200v200H0V0z" fill="#9de0ad" stroke-width="none" opacity="1" stroke="none"></path></g><g id="svga-group-humanwrap-move" transform="matrix(1,0,0,1,0,0)"><g id="svga-group-humanwrap" transform="matrix(1,0,0,1,0,0)"><g id="svga-group-hair-back-move" transform="matrix(1,0,0,1,0,0)"><g id="svga-group-hair-back" transform="matrix(1,0,0,1,0,0)"></g></g><g id="svga-group-humanbody-back"><path id="SvgjsPath54505" d="M180.8 184.9c-2.3-3.4-38.9-17.8-38.9-17.8l-13.4-5.2-5.6-68.8H76.8L71.3 162l-13.4 5.2S21.4 181.6 19 185c-2.3 3.4-3.3 14.9-3.3 14.9V219h168.5v-19.2c-.1.1-1-11.5-3.4-14.9z" fill="#f9d8bd" stroke-width="none" opacity="1" stroke="none"></path></g><g id="svga-group-chinshadow-single"><path id="SvgjsPath54741" d="M74.72 148.31c2.3 3.7 4.08 7.78 6.37 12.59 1.85 3.82 9.93 3.51 12.23.91 2.4-2.6 2.74-2.22 5.04.38 2.4 2.6 10.28 2.62 12.66-1.12 1.42-2.24 3.83-9.05 6.13-12.75 1.25-1.92 5.5-5.97 9.47-10.04l-3.68-45.18H76.82l-4.19 52.64c.94 1.04 1.68 1.93 2.09 2.57z" fill="#daa57a" stroke-width="none" opacity="1" stroke="none"></path></g><g id="svga-group-humanbody-front"><path id="SvgjsPath54506" d="M184.5 219c-.1-6.4-.1-12.8-.1-19.2l-.3-.1s.1-.1.2 0c.1 0 .1.1.1.1v-.4l-.1-.5-.1-.9-.2-1.9c-.2-1.3-.4-2.5-.6-3.8-.2-1.3-.5-2.5-.9-3.8-.4-1.2-.8-2.5-1.5-3.6-.8-.9-1.9-1.5-2.9-2.1-1-.6-2.1-1.1-3.2-1.7-2.1-1.1-4.3-2.1-6.5-3.1-4.4-2-8.7-3.9-13.1-5.7-4.4-1.9-8.8-3.7-13.2-5.5l-13-5.2-1.2-16.9c-.4-5.7-.9-11.5-1.3-17.2l-1.3-17.2-1.5-17.3-.1-.8h-.8c-7.7 0-15.4.1-23.1.1l-23.1.2h-.5v.5L75 110.2l-1.3 17.2c-.8 11.4-1.8 22.8-2.8 34.2-5.6 2.1-11.2 4.2-16.7 6.4-5.6 2.2-11.2 4.5-16.8 6.9-2.8 1.2-5.6 2.4-8.3 3.6-2.8 1.3-5.5 2.5-8.2 4.1-.7.4-1.3.8-2 1.4-.2.1-.4.4-.5.6l-.3.6c-.2.4-.4.7-.5 1.1-.6 1.5-1 3-1.3 4.5-.6 3-1.1 6-1.4 9.1l-.1 19.1v.9h.9l42.1.1H100c14 0 28.1-.1 42.1-.2l42.1-.5h.3v-.3zm-84.5-1-42.1-.1-41.2.1-.1-18.1c.3-3 .6-5.9 1.2-8.9.3-1.4.6-2.9 1.1-4.2.1-.3.3-.7.4-.9l.2-.4.3-.3c.5-.4 1.1-.8 1.8-1.2 2.5-1.5 5.3-2.8 8-4.1 2.7-1.3 5.5-2.5 8.2-3.7 5.5-2.4 11.1-4.8 16.7-7.1s11.2-4.5 16.9-6.7l.2-.1v-.2c.9-11.5 1.7-23 2.7-34.4l1.4-17.2 1.5-16.7 22.6.2c7.4.1 14.8.1 22.3.1l1.3 16.4 1.5 17.2c.5 5.7 1 11.5 1.5 17.2l1.6 17.2v.3l.3.1 13.4 5c4.4 1.7 8.9 3.4 13.3 5.2 4.4 1.8 8.8 3.7 13.2 5.6 2.2 1 4.3 2 6.5 3 1.1.5 2.1 1.1 3.2 1.6 1 .6 2.1 1.2 2.9 2 .7 1.1 1.1 2.3 1.4 3.5.3 1.2.6 2.5.8 3.7.2 1.3.4 2.5.6 3.8l.2 1.9.1.9.1.5v.4c0 6.3 0 12.6-.1 18.9l-41.8-.5c-14 .1-28.1 0-42.1 0z" fill="#cb8f5d" stroke-width="none" opacity="1" stroke="none"></path><path id="SvgjsPath54507" d="M125.1 142.4s-1.8 23-9.1 32.9c0 0 7.9-25 9.1-32.9zm-34.5 16s5 7.9 11.5 10.1c0 0-9.5 2.2-11.5-10.1zM73.4 140c6.7 25.6 6.7 25.6 8.5 30.7 0 0 .4-12.6-8.5-30.7z" fill="#daa57a" stroke-width="none" opacity="1" stroke="none"></path></g><g id="svga-group-clothes-single"><path id="SvgjsPath54638" d="M10.9 220c0-15.2 1.2-32.2 2.3-34.1 1-1.9 5-3.3 5-3.3s3.5-2.9 7.1-4.8c3.5-1.9 15.7-3.9 15.7-3.9s0-1 .4-1.9 1.9-1.2 5-5.2 2.1-4.8 2.7-6.7c.6-1.9 4.4-1.5 4.4-1.5s.4-6 4.8-10c4.4-3.9 13.6-6.6 13.6-6.6s-.1 6.9-.1 11.3-1.3 4.6 5.1 12.6c6.5 7.9 12.4 15.1 15.4 17 3.1 1.9 7.2 4 9.1 9.5 0 0 1.7-4.4 3.7-5.9s6.2-6 7.9-7.7c1.7-1.7 5.3-8.1 7.5-9.5 2.2-1.5 7.4-6.5 8.3-7.9s-.9-21.7-.9-21.7 6.9 3.7 9.4 5.4c2.5 1.7 4.9 9.5 4.9 9.5s2.4 2.1 5.1 4.1 4.7 2.9 6.2 5.7c1.5 2.8.8 5.3 1.4 6.5.6 1.1 1.2 2 1.6 2.6 0 0 17.1 5.1 20 6.4s5.7 4 5.7 4 3.1 1.9 3.9 9.8 1.8 26.4 1.8 26.4l-177-.1z" fill="#152c5e" stroke-width="none" opacity="1"></path><path id="SvgjsPath54639" d="m188.6 219.9-1.2-18.6c-.2-3.1-.4-6.2-.9-9.3-.2-1.6-.6-3.2-1.2-4.7-.3-.8-.7-1.5-1.1-2.2-.2-.4-.5-.7-.8-1-.3-.3-.5-.6-.9-.9-1.5-1.4-3.1-2.6-4.9-3.6-.9-.5-1.9-.9-2.8-1.2l-2.8-1.1-15.3-4.3c-.5-.8-1.1-1.6-1.4-2.4-.1-.3-.2-.8-.2-1.3s-.1-1-.1-1.6c-.2-2.2-1.2-4.3-2.7-5.9-1.6-1.6-3.4-2.6-5.1-3.8-1.6-1.1-3.2-2.4-4.7-3.7-.6-1.7-1.2-3.3-1.9-4.9-.4-.8-.8-1.6-1.3-2.4-.5-.8-1-1.6-1.9-2.2-1.5-1-3.1-1.9-4.7-2.8-1.6-.9-3.2-1.7-4.8-2.6l-.7-.4s.7 11.7 1 17.3c0 1.4.4 3 .3 4.3 0 .2 0 .3-.1.5 0 .1 0 .1-.1.2l-.1.2c-.2.3-.4.5-.6.8-.4.5-.9 1-1.4 1.5-2 2-4 3.9-6.2 5.6-1.1.9-2 2.1-2.8 3.2-.8 1.1-1.6 2.3-2.4 3.4-.4.6-.8 1.1-1.2 1.7-.4.6-.8 1.1-1.4 1.5-1.1.8-3.5 4.2-6.3 6.5-.6.4-1.2.7-1.8 1.3-.5.5-.9 1.1-1.3 1.7-.6.9-1.1 1.8-1.5 2.8-.9-2.2-2.5-4.3-4.4-5.8-1.1-.9-2.2-1.6-3.4-2.4-1.2-.7-2.1-1.7-3.2-2.5-4.4-4-4.4-6-8.3-9.7-1.9-1.9-3.6-4.1-5.2-6.2-.8-1.1-1.7-2.1-2.4-3.2-.8-1.1-1.4-2.2-1.8-3.4-.4-1.1-.2-2.4-.1-3.8l.1-4.1.1-8.1v-1.2l-1.2.3c-2.2.6-4.3 1.4-6.3 2.3-2.1.9-4.1 1.9-6 3.2-1.9 1.3-3.6 3.1-4.6 5.2-1 1.8-1.6 3.8-1.9 5.8-.7 0-1.4.1-2.2.2-.5.1-1 .3-1.5.7-.2.2-.5.5-.6.8-.2.3-.2.6-.3.8-.1.5-.2 1-.2 1.4 0 .4-.1.8-.2 1.1-.2.7-.7 1.5-1.1 2.2-1 1.4-2.1 2.8-3.3 4-.6.6-1.2 1.1-2 1.8-.2.2-.4.4-.6.7-.2.3-.2.5-.3.8-.1.3-.2.6-.2 1-1.5.4-7.5.9-9 1.4-1.6.6-3.2 1.1-4.8 1.8-1.6.7-3.1 1.6-4.5 2.6-1.4.9-2.7 1.9-4 3-1.6.7-3.1 1.4-4.4 2.6-.3.3-.6.7-.9 1.2-.2.5-.2.9-.3 1.3-.2.9-.3 1.7-.4 2.5-.4 3.4-.6 6.7-.8 10.1-.2 3.4-.3 6.7-.3 10.1 0 1.7-.1 3.4-.1 5 0 1.7 0 3.3.1 5.1l43.9.4 44.2.3c14.7.1 29.5.1 44.3.2 14.8 0 29.6.1 44.4 0h1.1l-.1-1.1zm-85-30.9c.4-.6.8-1.1 1.2-1.6.4-.5 1-.8 1.6-1.2 2.4-1.4 3.4-4.9 12.8-9.5 3.2-1.6 6-3.6 8.7-5.7 1.4-1.1 2.7-2.2 4-3.3.6-.6 1.3-1.2 1.8-2s.9-1.6 1.3-2.4c.7-1.7 1.1-3.4 1.2-5.2 0-.4 0-.9-.1-1.4-.1-.4-.2-.9-.4-1.3-.3-.8-.7-1.6-1.2-2.3.3.8.5 1.6.7 2.5.1.8.2 1.6 0 2.4-.3 1.6-.9 3.2-1.7 4.6-.4.7-.8 1.4-1.3 2-.5.6-1.1 1.1-1.7 1.7-1.3 1.1-2.6 2.1-3.9 3.2-1.3 1.1-2.7 2.1-4.1 3.1l-2.1 1.5c-.7.5-1.4.9-2.1 1.4-1.5.9-2.9 1.9-4.4 2.9.1-.1.1-.2.2-.2.4-.6.8-1.1 1.2-1.7.8-1.1 1.6-2.3 2.4-3.4.8-1.1 1.7-2.3 2.7-3.1 2.3-1.6 4.3-3.6 6.3-5.6l1.5-1.5c.2-.3.5-.5.7-.8 0 0 2-2.5 2.4-3.6.5-1.3.8-2.7.7-4.2-.2-1.4-.9-5.1-1.6-6.4-.5-1.1-2-4.9-2.2-7.2 1.4.8 2.7 1.5 4.1 2.3 1.6.9 3.1 1.8 4.6 2.8.6.4 1.1 1.2 1.6 1.9.4.8.8 1.5 1.2 2.4.7 1.6 1.3 3.3 1.9 5l.1.1.1.1c.1 0 .1.1.1.1v.1c0 1.1-.1 2.3-.3 3.4-.3 2.2-1 4.4-1.8 6.5-1.5 4.2-3.9 8.1-7.5 10.4-.9.6-1.8 1.1-2.9 1.7l-3 1.8-5.8 3.6c-1 .6-1.9 1.1-2.9 1.6-.5.2-1 .5-1.5.6-.5.2-1.1.3-1.6.4-2.2.6-4.4 1.2-6.6 1.9 2.3-.3 4.6-.6 6.8-.9.6-.1 1.1-.1 1.7-.3.6-.1 1.2-.3 1.7-.6 1.1-.4 2.1-1 3.2-1.5 2.1-1.1 4-2.3 6-3.4 1-.6 2-1.1 3-1.7 1-.5 2.1-1.1 3-1.8 2-1.4 3.7-3.1 5-5.1 1.3-2 2.2-4.2 2.9-6.5.7-2.2 1.1-4.5 1.2-6.9 0-1 0-2.1-.1-3.1 1.3 1.2 2.7 2.3 4.1 3.3 1.7 1.2 3.5 2.2 4.8 3.6 1.3 1.4 2.1 3.2 2.3 5.2.1.5.1 1 .1 1.5s0 1 .3 1.7c-.8.9-1.6 1.9-2.3 2.8-.9 1.2-1.9 2.3-2.8 3.4-1.9 2.1-4.2 4.2-6.1 6.6 1.5-.6 2.8-1.4 4.1-2.2 1.3-.9 2.5-1.9 3.5-3 1.1-1.2 1.9-2.5 2.6-3.9.5-1 1-2 1.3-3.1.4.8.9 1.6 1.4 2.2l.1.2h.1c-1.5 2.2-3 4.4-4.7 6.6-1.8 2.3-3.7 4.6-5.9 6.4-2.3 1.8-4.8 3.2-7.5 4.3-2.7 1.1-5.4 2.1-8.2 2.9-2.8.8-5.7 1.3-8.6 1.8-2.9.5-5.7 1.2-8.6 1.6-3.4.6-4.8.5-5.1.5 0-1.1-.1-2.1-.3-2.8.6-.3 1.4-.9.1-1.4-1.6-.5-3.1.2-3.1.9-.1.6.5.7 1.1.7.2.6.2 1.3.2 2.1-.3-.1-.6-.3-.8-.5-.5-.4-.9-.8-1.3-1.3-.3-.5-.7-1.1-.8-1.6l-.6-2.1c.6-.9 1.1-2 1.8-3zm-61.9-14.6v-.6c0-.3.1-.8.2-1.1 0-.2.1-.4.2-.4 0-.1.1-.2.3-.3.6-.5 1.4-1.1 2-1.8 1.3-1.3 2.5-2.7 3.5-4.2.5-.8 1-1.6 1.3-2.6.3-1 .3-2 .5-2.7 0-1.1 1.6-1.3 3.1-1.3 0 .6.1 1.1.1 1.7.4 3.3 1.5 6.6 3.1 9.6 1.7 2.9 3.9 5.6 6.5 7.6 2.6 2.1 5.6 3.7 8.7 4.7-2.8-1.8-5.4-3.7-7.7-5.9s-4.3-4.7-5.8-7.4c-.8-1.4-1.4-2.8-2-4.3-.6-1.5-1-3-1.3-4.5-.1-.5-.2-1.1-.3-1.6l.1-.6c.2-2 .9-4.1 1.9-5.9 1-1.9 2.4-3.4 4.1-4.6 1.7-1.2 3.7-2.1 5.7-3 1.6-.7 3.3-1.3 5-1.9 0 0-1.7 4.2-2.2 5.1-.7 1.1-1 2.6-.7 3.9.1.7.3 1.3.6 1.8.2.6.5 1.1.8 1.6.4.7 3 5.6 3.8 6.8.8 1.1 1.7 2.2 2.5 3.3 1.7 2.1 3.6 4.9 5.6 6.8 4.1 4 3.8 6.3 8.3 9.4 1.1.8 2.3 1.5 3.5 2.2 1.2.7 2.3 1.4 3.3 2.2 2.1 1.6 3.7 3.8 4.6 6.3l.1.3-.4 1.1c-.2.6-.5 1.3-.9 1.8-.4.6-.8 1-1.2 1.1-.1 0-.2.1-.4.1h-1.3c0-.1.1-.2.1-.3.3-.6.6-1.2.8-1.5.4.1.9 0 1-.3.2-.5-.6-2.1-1.6-2-.9 0-1.3.3-.5 1.4-.6.6-1.3 1.5-1.8 2.8h-.6c-3.1-.1-6.1-.4-9.2-.7-3.1-.4-6.1-.7-9-1.5-2.9-.8-15.6-7.5-21.2-10-2.8-1.2-5.7-2.4-8.3-4.1-1.3-.9-2.5-1.8-3.5-3-.8-.9-1.6-2.1-1.9-3.3l.5-.2zm102 44.6c-14.7 0-29.3.1-44 .2l-44.2.3-44.5.4c.1-1.6.1-3.3.2-5l.2-5c.1-3.4.3-6.7.6-10.1.2-3.3.6-6.7 1-10 .1-.8.2-1.6.4-2.4.1-.4.2-.8.3-1.1.1-.3.4-.6.6-.8 1.1-1 2.7-1.8 4.2-2.4h.1l.1-.1c1.3-1 2.7-2 4.1-2.9 1.4-.9 2.8-1.8 4.3-2.4 3-1.3 10.9-2.2 14.1-3.1.3 1.3 1 2.4 1.8 3.5 1 1.2 2.2 2.3 3.4 3.2 2.5 1.9 5.4 3.2 8.2 4.5 5.6 2.7 18.2 9.9 21.2 10.8 1.5.4 3.1.8 4.6 1s3.1.5 4.6.7c3.1.4 6.2.6 9.3.8h.2v.1c-.3 2.9 1.6 8.7 2 12.1s-1 6.8-.3 7 2.5.9 2.8-.2c.3-1.1.6-10.9-.9-13.9-.9-1.8-1.3-3.6-1.3-5.1H98.5c.2 0 .5-.1.8-.1 1.1-.3 1.8-1.2 2.3-1.9.1-.1.1-.2.2-.3 0 .1.1.1.1.2.5.7 1.1 1.3 1.8 1.8.6.4 1.2.7 1.8.9-.1.5-.1.9-.2 1.3-.4 1.9-2 3.1-1.2 7.2s3.1 6.1 3.4 7.7c.3 1.6.4 2.9 1 2.9s2.4-.7 2.7-1.6-.8-3.5-2.3-5.4c-1.5-1.9-2.8-4.6-2.8-6.1 0-1.3.9-3.7 1.3-5.7 6.7-.6 11.3-1.8 14.2-2.3s5.8-1.2 8.6-2c2.9-.9 5.6-1.9 8.3-3.2 2.7-1.3 5.3-2.8 7.6-4.8 2.2-2 4.1-4.4 5.8-6.8 1.6-2.2 3-4.5 4.3-6.9h.1l15.4 4.5 2.7 1.1c.9.4 1.8.8 2.6 1.2 1.6.9 3.2 2.1 4.6 3.4l.1.1.6.6.6.9c.4.6.7 1.3.9 1.9.5 1.4.9 2.8 1.1 4.3.4 3 .6 6.1.8 9.2.4 5.8.7 11.7 1.1 17.5-14.5.2-28.8.2-43.1.3zM32.8 203.3c-.3-1.8-1-3.3-1.7-4.7-1.5-2.9-3.2-5.6-5.1-8.2-1-1.3-1.9-2.6-3.1-3.7-1.2-1.1-2.5-2.1-4.1-2.6 1.4.8 2.5 2 3.4 3.2.9 1.2 1.7 2.6 2.6 3.9 1.6 2.7 3.2 5.4 4.6 8.2.7 1.4 1.4 2.8 1.6 4.1.3 1.5.4 3.1.6 4.6.3 3.1.6 6.3 1.1 9.5.4-3.2.5-6.4.4-9.6 0-1.4-.1-3-.3-4.7zm142.4-17.5c-.9.2-1.8.7-2.4 1.4-.6.7-1.1 1.5-1.5 2.2-1.8 2.8-3.6 5.7-5.2 8.7-.4.8-.7 1.6-1.1 2.4-.2.4-.3.8-.4 1.3-.1.4-.2.9-.3 1.3-.2 1.7-.4 3.4-.4 5.1-.1 3.4-.1 6.8.1 10.1.6-3.3 1-6.7 1.5-10 .2-1.6.4-3.3.7-4.9.3-1.5 1-3 1.7-4.4 1.5-3 3.2-5.8 4.7-8.9.4-.8.7-1.5 1.1-2.1.4-.6 1-1 1.7-1.3.7-.3 1.6-.4 2.4-.8.8-.3 1.6-.8 2.2-1.3-.8.4-1.6.6-2.4.8-.7.2-1.5.2-2.4.4z" fill="#01153f" stroke-width="none" opacity="1"></path><path id="SvgjsPath54640" d="M173.1 180.5c-3.5-1.5-13.8-3-16.4-4.8 0 0 11.8 6.1 15.9 7.4 4.1 1.3 7.2.9 7.2.9s-3.2-2-6.7-3.5zm-32.6-24.6c0-3.2-2.4-7.4-4.1-9.5s-5.4-3.2-6.9-4.3c0 0 .9.9 2.6 2.8 1.7 1.9 5 6.7 5.6 10.6.6 3.9-2.6 11.3-4.8 14.1s-10.8 7.2-14.8 9.5c-3.9 2.4-7.5 5.6-12.1 8.2s-3 6.9-3 6.9.7-2.6 2.2-4.6 7.3-6.1 11.6-7.4c4.3-1.3 14.3-7.4 18.2-11.1 3.9-3.4 5.5-11.9 5.5-15.2zm3.2 2.2s1.9 3 3.2 4.8c1.3 1.7 2.4 5.9-1.5 12.4s-15 13.2-15 13.2 9.5-4.3 12.6-6.5c3-2.2 8.9-9.5 9.3-11.3.4-1.7-.2-4.8-1.5-6.9-1.2-2.2-6.2-4.8-7.1-5.7zm-59.3 22.6c-3.9-3-11.4-13.2-14.4-17.1-3-3.9-3.2-8-3.5-10.8 0 0-2.4 2.6-2.8 4.8s-.4 5.9 3.2 8.9c3.7 3 17.5 18 22.7 20.4 5.2 2.4 9.3 5.9 9.3 5.9s-1.1-2.6-2.4-3.9c-1.3-1.5-8.2-5.2-12.1-8.2zM60 185.4c3.9 1.5 14.5 6.3 17.3 7.4s15.1 3 15.1 3-11.8-3.9-15.8-5.6c-3.8-1.7-16.6-4.8-16.6-4.8z" fill="#233b6d" stroke-width="none" opacity="1"></path></g><g id="svga-group-head" transform="matrix(1,0,0,1,0,0)"><g id="svga-group-ears-left-move" transform="matrix(1,0,0,1,0,0)"><g id="svga-group-ears-left" transform="matrix(1,0,0,1,0,0)"><path id="SvgjsPath54653" d="M68.53 80.36s-11.15-9.8-12.94-9.96c-1.54-.14-5.36 8.01-7.05 13.16-.45 1.36-.34 2.88.25 4.2 1.62 3.57 5.21 11.04 8.43 14.78 0 0 2.72.59 3.58.33.86-.25 7.58-5.67 8.27-7.77s.83-11.3-.54-14.74z" fill="#f9d8bd" stroke-width="none" opacity="1" stroke="none"></path><path id="SvgjsPath54654" d="M69.49 84.19c.18 1.31.28 2.64.33 3.96.05 1.32.06 2.65-.01 3.98a26.7 26.7 0 0 1-.17 1.99c-.05.34-.1.67-.2 1.02s-.28.7-.46.96c-.72 1.11-1.6 1.95-2.47 2.8-.88.84-1.78 1.63-2.71 2.4-.47.38-.93.75-1.42 1.11-.24.18-.49.35-.74.52l-.4.24c-.16.08-.35.17-.53.19-.67.08-1.23-.01-1.82-.09-.58-.08-1.15-.19-1.73-.32l-.13-.03-.08-.1c-1.45-1.74-2.63-3.68-3.74-5.65-1.1-1.98-2.1-4.03-3.06-6.1l-1.41-3.11c-.5-1.05-.71-2.29-.54-3.46.06-.59.26-1.14.44-1.67.18-.54.37-1.07.56-1.6.4-1.05.79-2.11 1.22-3.15.86-2.07 1.76-4.13 2.94-6.02.3-.47.62-.93 1-1.36.19-.21.4-.42.67-.59.13-.08.3-.16.52-.16.19.01.32.07.47.12 1.06.47 1.87 1.14 2.75 1.76 1.72 1.29 3.37 2.66 5 4.09 1.64 1.41 3.22 2.86 4.81 4.38.49 1.27.72 2.58.91 3.89zM58.4 72.51c-.85-.59-1.75-1.26-2.59-1.61-.09-.02-.2-.08-.26-.08-.04 0-.12.02-.2.07-.17.1-.35.25-.51.44-.34.36-.65.8-.94 1.24-1.16 1.8-2.18 3.77-3.11 5.77-.46 1.01-.92 2.02-1.32 3.06-.2.52-.4 1.04-.59 1.57-.19.53-.38 1.05-.45 1.6-.15 1.11.06 2.27.55 3.26.47 1.03.98 2.05 1.49 3.05 1.02 2.02 2.12 3.99 3.26 5.91 1.15 1.91 2.36 3.79 3.76 5.42l-.21-.13c1.09.2 2.3.43 3.29.33.11-.01.18-.06.28-.11l.35-.22.7-.5c.47-.34.93-.71 1.39-1.08.92-.74 1.81-1.52 2.68-2.34.85-.82 1.73-1.66 2.39-2.61.17-.25.29-.46.38-.72.08-.27.14-.58.19-.89.09-.63.17-1.27.21-1.91.1-1.29.14-2.6.15-3.9.01-1.31-.04-2.62-.15-3.92-.11-1.3-.27-2.62-.66-3.84-3.33-2.62-6.67-5.35-10.08-7.86z" fill="#eabe9a" stroke-width="none" opacity="1" stroke="none"></path><path id="SvgjsPath54655" d="M68.79 88.66S58.04 75.08 56.02 76.21c-2.01 1.12-5.19 7.53-5.18 9.67.02 3.14 3.34 8.38 5.01 9.96s3.68 2.55 6.35 1.94c2.66-.61 6.59-9.12 6.59-9.12z" fill="#eabe9a" stroke-width="none" opacity="1" stroke="none"></path><path id="SvgjsPath54656" d="M60.61 88.64c-.45-1.26-.95-2.5-1.45-3.74a49.61 49.61 0 0 0-1.66-3.64c-.61-1.18-1.22-2.36-1.97-3.45l-.08-.12-.08.12c-.75 1.18-1.45 2.38-2.12 3.62-.33.62-.66 1.25-.96 1.89-.31.64-.57 1.31-.84 1.98l-.04.1.04.12c.46 1.41.96 2.79 1.47 4.18.25.69.54 1.37.83 2.05.3.68.59 1.35.99 2.01l.19.31.25-.23c.34-.31.6-.65.87-1.02.26-.37.49-.76.69-1.17.4-.82.63-1.78.6-2.74v-.06l-.02-.04c-.5-.99-1.03-1.96-1.55-2.94l-.05.03c.42 1.01.83 2.03 1.26 3.03-.04.86-.3 1.68-.68 2.41-.33.62-.77 1.17-1.24 1.65-.26-.49-.5-1.02-.73-1.56l-.81-2.03c-.53-1.32-1.03-2.66-1.52-3.99.45-1.3.94-2.59 1.52-3.82.57-1.23 1.22-2.41 1.96-3.51.67 1.04 1.17 2.23 1.68 3.39l1.54 3.67 1.56 3.67c.52 1.22 1.05 2.45 1.6 3.66l.06-.03c-.41-1.27-.85-2.54-1.31-3.8z" fill="#cb8f5d" stroke-width="none" opacity="1" stroke="none"></path></g></g><g id="svga-group-ears-right-move" transform="matrix(1,0,0,1,0,0)"><g id="svga-group-ears-right" transform="matrix(1,0,0,1,0,0)"><path id="SvgjsPath54657" d="M131.47 80.36s11.15-9.8 12.94-9.96c1.54-.14 5.36 8.01 7.05 13.16.45 1.36.34 2.88-.25 4.2-1.62 3.57-5.21 11.04-8.43 14.78 0 0-2.72.59-3.58.33-.86-.25-7.58-5.67-8.27-7.77s-.83-11.3.54-14.74z" fill="#f9d8bd" stroke-width="none" opacity="1" stroke="none"></path><path id="SvgjsPath54658" d="M131.44 80.33c1.58-1.52 3.17-2.97 4.81-4.38 1.62-1.42 3.28-2.8 5-4.09.88-.63 1.69-1.29 2.75-1.76.16-.04.28-.11.47-.12.21 0 .38.08.52.16.28.17.49.37.67.59.38.43.7.89 1 1.36 1.18 1.89 2.07 3.96 2.94 6.02.43 1.04.82 2.09 1.22 3.15.19.53.38 1.06.56 1.6.18.53.37 1.08.44 1.67.17 1.17-.04 2.41-.54 3.46l-1.41 3.11c-.97 2.06-1.96 4.11-3.06 6.1-1.11 1.98-2.29 3.92-3.74 5.65l-.08.1-.13.03c-.58.13-1.15.23-1.73.32-.59.07-1.16.16-1.82.09-.18-.02-.37-.11-.53-.19l-.4-.24c-.25-.17-.5-.34-.74-.52-.48-.36-.95-.73-1.42-1.11-.93-.76-1.83-1.56-2.71-2.4-.87-.86-1.75-1.69-2.47-2.8a3.42 3.42 0 0 1-.46-.96c-.1-.35-.14-.69-.2-1.02-.08-.67-.14-1.33-.17-1.99-.07-1.33-.07-2.65-.01-3.98.06-1.32.15-2.65.33-3.96.17-1.34.4-2.65.91-3.89zm.06.06c-.4 1.21-.56 2.54-.66 3.84-.1 1.3-.15 2.61-.15 3.92.01 1.31.06 2.61.15 3.9.05.65.12 1.29.21 1.91.06.31.11.62.19.89.09.26.2.47.38.72.66.94 1.54 1.79 2.39 2.61.86.81 1.76 1.59 2.68 2.34.46.37.92.73 1.39 1.08l.7.5.35.22c.1.05.17.1.28.11.99.1 2.2-.13 3.29-.33l-.21.13c1.4-1.63 2.61-3.51 3.76-5.42 1.14-1.92 2.24-3.89 3.26-5.91.51-1.01 1.02-2.02 1.49-3.05.49-.99.7-2.15.55-3.26-.07-.56-.26-1.07-.45-1.6s-.38-1.05-.59-1.57c-.4-1.04-.86-2.06-1.32-3.06-.93-2.01-1.95-3.97-3.11-5.77-.29-.44-.6-.88-.94-1.24-.17-.18-.35-.34-.51-.44a.431.431 0 0 0-.2-.07c-.06 0-.17.06-.26.08-.84.35-1.74 1.02-2.59 1.61-3.39 2.49-6.73 5.22-10.08 7.86z" fill="#eabe9a" stroke-width="none" opacity="1" stroke="none"></path><path id="SvgjsPath54659" d="M131.21 88.66s10.75-13.58 12.77-12.45c2.01 1.12 5.19 7.53 5.18 9.67-.02 3.14-3.34 8.38-5.01 9.96s-3.68 2.55-6.35 1.94c-2.66-.61-6.59-9.12-6.59-9.12z" fill="#eabe9a" stroke-width="none" opacity="1" stroke="none"></path><path id="SvgjsPath54660" d="M148.54 85.31c-.26-.67-.52-1.34-.84-1.98-.3-.64-.62-1.27-.96-1.89-.67-1.24-1.38-2.44-2.12-3.62l-.08-.12-.08.12c-.74 1.1-1.36 2.27-1.97 3.45-.6 1.18-1.14 2.4-1.66 3.64-.49 1.24-1 2.48-1.45 3.74-.46 1.26-.9 2.53-1.28 3.81l.06.03c.55-1.21 1.07-2.44 1.6-3.66l1.56-3.67 1.54-3.67c.51-1.16 1.01-2.35 1.68-3.39.74 1.1 1.39 2.29 1.96 3.51.58 1.24 1.08 2.52 1.52 3.82-.5 1.34-.99 2.67-1.52 3.99l-.81 2.03c-.23.53-.47 1.07-.73 1.56-.47-.48-.91-1.03-1.24-1.65-.39-.73-.64-1.55-.68-2.41.43-1 .84-2.02 1.26-3.03l-.05-.03c-.52.98-1.05 1.95-1.55 2.94l-.02.04v.06c-.03.96.2 1.92.6 2.74.2.41.43.81.69 1.17.26.36.53.71.87 1.02l.25.23.19-.31c.4-.67.69-1.34.99-2.01.29-.68.57-1.36.83-2.05.51-1.38 1.01-2.77 1.47-4.18l.04-.12-.07-.11z" fill="#cb8f5d" stroke-width="none" opacity="1" stroke="none"></path></g></g><g id="svga-group-faceshape-wrap" transform="matrix(1,0,0,1,0,0)"><g id="svga-group-faceshape-single"><path id="SvgjsPath54729" d="M140.2 95.5c0-10.4.1-27 .1-27s.67-9.34-.23-13.44c-2.2-10-6.31-15.62-15.21-20.42-9.3-5-24.98-4.91-24.98-4.91S84 29.39 74.7 34.39c-8.7 4.8-12.71 10.55-14.91 20.55-.9 4 .02 13.59.02 13.59s.48 16.68.27 27.04c-.21 10.4.56 18.42 1.86 22.82s14.38 16.22 16.78 19.92c2.3 3.7 4.08 7.78 6.37 12.59 1.85 3.82 9.93 3.51 12.23.91 2.4-2.6 2.74-2.22 5.04.38 2.4 2.6 10.28 2.62 12.66-1.12 1.42-2.24 3.83-9.05 6.13-12.75 2.4-3.7 15.9-15.24 17.2-19.74 1.5-4.38 1.85-12.68 1.85-23.08z" fill="#f9d8bd" stroke-width="none" opacity="1" stroke="none"></path><path id="SvgjsPath54730" d="M100 148.3s1.4-6.2 3.6-9.2c0 0-3.3 1.4-4.6 4s1 5.2 1 5.2z" fill="#daa57a" stroke-width="none" opacity="1" stroke="none"></path><path id="SvgjsPath54731" d="M140.07 55.06c-2.2-10-6.31-15.62-15.21-20.42-9.3-5-24.98-4.91-24.98-4.91S84 29.39 74.7 34.39c-8.7 4.8-12.71 10.55-14.91 20.55-.9 4 .02 13.59.02 13.59s.48 16.68.27 27.04c-.21 10.4.56 18.42 1.86 22.82s14.38 16.22 16.78 19.92c2.3 3.7 4.08 7.78 6.37 12.59 1.85 3.82 9.93 3.51 12.23.91 2.4-2.6 2.74-2.22 5.04.38 2.4 2.6 10.28 2.62 12.66-1.12 1.42-2.24 3.83-9.05 6.13-12.75 2.4-3.7 15.9-15.24 17.2-19.74 1.5-4.38 1.85-12.68 1.85-23.08s.1-27 .1-27 .67-9.34-.23-13.44zm-.25 51.26c-.24 3.59-.47 7.22-1.38 10.67-.21.87-.52 1.71-.9 2.45-.44.75-.96 1.46-1.51 2.16-1.12 1.38-2.36 2.68-3.6 3.98-2.51 2.57-5.15 5.03-7.74 7.55-1.3 1.28-2.6 2.51-3.82 3.99-1.24 1.59-1.97 3.23-2.8 4.87-.79 1.64-1.53 3.3-2.28 4.93-.37.82-.74 1.63-1.13 2.4-.19.39-.4.75-.6 1.08-.22.27-.39.54-.68.76-.52.46-1.19.84-1.94 1.07-.73.26-1.53.42-2.34.48-1.6.15-3.32-.05-4.66-.65-.34-.14-.63-.33-.86-.52l-.8-.85c-.31-.35-.63-.7-1.05-1.08a3.59 3.59 0 0 0-.8-.57c-.33-.18-.83-.34-1.34-.31-1.03.11-1.52.59-1.95.92-.4.35-.75.69-1.08 1.05-.08.08-1.55 1.09-1.74 1.14-1.42.53-3.12.69-4.69.5-1.55-.19-3.09-.8-3.68-1.8-.14-.16-.36-.69-.55-1.06l-.58-1.22-1.16-2.45c-.78-1.64-1.58-3.27-2.45-4.89-.44-.81-.89-1.61-1.36-2.41-.25-.4-.46-.79-.78-1.21-.3-.43-.6-.8-.91-1.15-1.22-1.43-2.47-2.73-3.72-4.05-2.5-2.61-5.04-5.18-7.41-7.84-1.19-1.33-2.35-2.68-3.33-4.09-.5-.69-.91-1.42-1.16-2.06-.25-.8-.46-1.65-.64-2.51-.7-3.44-1.03-7.02-1.24-10.59-.2-3.58-.23-7.15-.22-10.77 0-3.62-.08-7.24-.17-10.85l-.33-10.83-.1-2.71-.19-2.72c-.14-1.79-.26-3.59-.3-5.38s-.06-3.59.12-5.35c.07-.88.29-1.72.49-2.61.2-.87.45-1.73.7-2.59 1.02-3.42 2.62-6.68 4.87-9.42 2.29-2.72 5.19-4.88 8.31-6.59.77-.46 1.59-.77 2.38-1.16.84-.29 1.64-.65 2.5-.89 1.69-.55 3.43-.94 5.18-1.28a78.219 78.219 0 0 1 21.33-.82c3.55.32 7.08.87 10.52 1.68 3.47.81 6.7 2.03 9.73 3.82 3.01 1.8 5.82 3.92 7.96 6.65 2.13 2.72 3.66 5.92 4.67 9.32.27.84.48 1.71.71 2.57.2.83.33 1.69.41 2.57.18 1.76.22 3.56.23 5.35.01 1.8-.03 3.59-.11 5.39l.09 5.43c.13 7.23.13 14.45.12 21.67-.01 3.62-.05 7.23-.24 10.83z" fill="#cb8f5d" stroke-width="none" opacity="1" stroke="none"></path></g></g><g id="svga-group-mouth-single-move" transform="matrix(1,0,0,1,0,0)"><g id="svga-group-mouth-single" transform="matrix(1,0,0,1,0,0)"><path id="SvgjsPath54815" d="M119.9 121.9c-.2-.3-.6-.6-.9-.8-.3-.1-.8-.1-.8.4 0 .3.2.6.5.8-.66 1.22-2.4 1.46-3.8 1.56-1.5.1-2.71.22-4.49-.17-3.42-.92-6.52-1.82-9.62-1.62-2.9.1-5.13.98-7.93 1.78-3.3.9-7.66 2.74-9.96-.66.3-.2.6-.4.8-.7.4-.4 0-1-.5-.9-1 .3-2.3 1.6-2.2 2.7 0 .2.3.4.5.3.4-.3.7-.7 1-1 .9 1.7 2.7 2.5 4.7 2.7 2 .1 3.9-.5 5.9-.9 2.2-.5 4.4-.7 6.6-.8 4.1-.1 8.1.2 12.2.4 2.4.1 5.7.4 7.5-1.5.1.3.2.6.5.8.1.1.3 0 .4-.1.7-.59 0-1.69-.4-2.29z" fill="#ff5027" stroke-width="none" opacity="1" stroke="none"></path><path id="SvgjsPath54816" d="M105.6 128.4c-3.4.2-6.6.7-10 .5-.3 0-.3.4-.1.4 3.2.7 7 .9 10.2-.2.4-.1.4-.7-.1-.7z" fill="#daa57a" stroke-width="none" opacity="1" stroke="none"></path></g></g><g id="svga-group-eyes-left-move" transform="matrix(1,0,0,1,0,0)"><g id="svga-group-eyes-left" transform="matrix(1,0,0,1,0,0)"><g id="svga-group-eyesback-left"><path id="SvgjsPath54687" d="M80.2 74.2c7.5 0 13.5 5.8 13.5 13s-6 13-13.5 13-13.5-5.8-13.5-13 6-13 13.5-13z" fill="#ffffff" stroke-width="none" opacity="1"></path></g><g id="svga-group-eyesiriswrapper-left" transform="matrix(1,0,0,1,0,0)"><g id="svga-group-eyesiriscontrol-left" transform="matrix(1,0,0,1,0,0)"><g id="svga-group-eyesiris-left" transform="matrix(1,0,0,1,0,0)"><path id="SvgjsPath54745" d="M80.2 81.9c2.9 0 5.3 2.4 5.3 5.3s-2.4 5.3-5.3 5.3-5.3-2.4-5.3-5.3 2.4-5.3 5.3-5.3z" fill="#ddb332" stroke-width="none" opacity="1"></path><path id="SvgjsPath54746" d="M80.2 92.8c-3.1 0-5.6-2.5-5.6-5.6s2.5-5.6 5.6-5.6 5.6 2.5 5.6 5.6c0 3.1-2.5 5.6-5.6 5.6zm0-10.6c-2.8 0-5.1 2.3-5.1 5.1s2.3 5.1 5.1 5.1 5.1-2.3 5.1-5.1c-.1-2.9-2.3-5.1-5.1-5.1z" fill="#be9105" stroke-width="none" opacity="1"></path><path id="SvgjsPath54747" d="M80.2 84.3c1.6 0 2.9 1.3 2.9 2.9s-1.3 2.9-2.9 2.9-2.9-1.3-2.9-2.9 1.3-2.9 2.9-2.9z" fill="#000000" stroke-width="none" opacity="1"></path><path id="SvgjsPath54748" d="M78.9 84.3c.5 0 1 .4 1 1s-.4 1-1 1-1-.4-1-1 .5-1 1-1zm3.3 4.6c.2 0 .4.2.4.4s-.2.4-.4.4-.4-.2-.4-.4.2-.4.4-.4z" fill="#ffffff" stroke-width="none" opacity="1"></path></g></g></g><g id="svga-group-eyesfront-left"><path id="SvgjsPath54695" d="M80.2 73.7c-7.8 0-14.1 6.1-14.1 13.6s6.3 13.6 14.1 13.6 14.1-6.1 14.1-13.6S88 73.7 80.2 73.7zm7 20.8c-2.8 3.7-12.1 3-14 1.9-1.8-1.1-4.5-5.7-4.1-9.1 4.2-2.7 12.6-3.6 14.8-3.4 1.6.1 4.7 1.1 6.5 1.7-.3 2.3-1.2 6.4-3.2 8.9z" fill="#f9d8bd" stroke-width="none" opacity="1" stroke="none"></path><path id="SvgjsPath54696" d="M91.8 86c-1.9-.7-3.9-1.4-5.9-1.9l-1.5-.3c-.5-.1-1.1-.1-1.6-.1-1 0-2.1.1-3.1.2-2.1.2-4.1.6-6.1 1.2-1.8.6-3.7 1.2-5.3 2.4-.2-1.4-.3-2.8-.2-4.2 0-.4.1-.8.1-1.1.1-.3.2-.7.4-1 .4-.7.9-1.2 1.4-1.8 1-1.1 2.2-2.2 3.5-3 .2-.1.3-.2.5-.3.2-.1.3-.1.5-.2.4-.1.7-.1 1.1-.1.8 0 1.5.1 2.3.2 1.5.2 3.1.5 4.6.9 1.5.4 3 .8 4.4 1.6.7.4 1.3.9 1.8 1.4.6.5 1.1 1.1 1.5 1.8 1 1.2 1.5 2.7 1.6 4.3-.1-1.6-.5-3.1-1.3-4.5s-2-2.5-3.3-3.3c-1.4-.8-2.9-1.2-4.4-1.7-1.5-.4-3.1-.7-4.6-.9-.8-.1-1.6-.2-2.4-.2-.4 0-.8 0-1.2.1-.2 0-.4.1-.6.2-.2.1-.4.2-.5.3-1.4.8-2.6 1.9-3.7 3.1-.5.6-1.1 1.2-1.5 1.9-.2.3-.4.8-.5 1.2-.1.4-.1.8-.2 1.2-.1 1.6.1 3.2.3 4.8l.1.5.4-.3c.2-.1.3-.2.5-.4v.1c0 .7.1 1.3.3 1.9.3 1.2.8 2.4 1.5 3.5s1.4 2.2 2.5 2.9c.6.4 1.2.5 1.8.7.3.1.6.1.9.2l.9.1c2.5.2 5.1.2 7.6-.6 1.2-.4 2.4-1.1 3.2-2.2.8-1.1 1.3-2.2 1.7-3.4.6-1.8 1-3.6 1.2-5.5.5 0 .9.2 1.3.3zm-3 4.9c-.4 1.2-1 2.3-1.7 3.3s-1.8 1.6-3 2c-1.2.4-2.4.7-3.6.8-1.2.1-2.5.2-3.8.1-.6-.1-1.2-.1-1.9-.3-.6-.1-1.2-.3-1.7-.7-1-.7-1.7-1.8-2.3-2.9-.6-1.1-1-2.3-1.3-3.5-.1-.6-.2-1.2-.2-1.8v-.5c1.3-.8 2.9-1.4 4.4-1.9 2-.6 4-1 6-1.3 2-.2 4.1-.6 6.1 0 1.5.3 3 .8 4.4 1.2-.2 1.9-.7 3.8-1.4 5.5z" fill="#09152e" stroke-width="none" opacity="1" stroke="none"></path></g></g></g><g id="svga-group-eyes-right-move" transform="matrix(1,0,0,1,0,0)"><g id="svga-group-eyes-right" transform="matrix(1,0,0,1,0,0)"><g id="svga-group-eyesback-right"><path id="SvgjsPath54688" d="M119.8 74.2c7.5 0 13.5 5.8 13.5 13s-6 13-13.5 13-13.5-5.8-13.5-13 6-13 13.5-13z" fill="#ffffff" stroke-width="none" opacity="1"></path></g><g id="svga-group-eyesiriswrapper-right" transform="matrix(1,0,0,1,0,0)"><g id="svga-group-eyesiriscontrol-right" transform="matrix(1,0,0,1,0,0)"><g id="svga-group-eyesiris-right" transform="matrix(1,0,0,1,0,0)"><path id="SvgjsPath54749" d="M119.8 82.5c2.6 0 4.7 2.1 4.7 4.7s-2.1 4.7-4.7 4.7-4.7-2.1-4.7-4.7 2.1-4.7 4.7-4.7z" fill="#ddb332" stroke-width="none" opacity="1"></path><path id="SvgjsPath54750" d="M119.8 92.1c-2.7 0-4.9-2.2-4.9-4.9s2.2-4.9 4.9-4.9 4.9 2.2 4.9 4.9-2.2 4.9-4.9 4.9zm0-9.3c-2.4 0-4.4 2-4.4 4.4s2 4.4 4.4 4.4 4.4-2 4.4-4.4c0-2.4-2-4.4-4.4-4.4z" fill="#be9105" stroke-width="none" opacity="1"></path><path id="SvgjsPath54751" d="M119.8 84.7c1.4 0 2.5 1.1 2.5 2.5s-1.1 2.5-2.5 2.5-2.5-1.1-2.5-2.5 1.1-2.5 2.5-2.5z" fill="#000000" stroke-width="none" opacity="1"></path><path id="SvgjsPath54752" d="M118.7 84.7c.5 0 .9.4.9.9s-.4.9-.9.9-.9-.4-.9-.9.4-.9.9-.9zm2.9 4c.2 0 .3.2.3.3s-.2.3-.3.3-.3-.2-.3-.3.1-.3.3-.3z" fill="#ffffff" stroke-width="none" opacity="1"></path></g></g></g><g id="svga-group-eyesfront-right"><path id="SvgjsPath54697" d="M119.8 73.7c-7.8 0-14.1 6.1-14.1 13.6s6.3 13.6 14.1 13.6 14.1-6.1 14.1-13.6-6.3-13.6-14.1-13.6zm5.8 21.6c-1.8.9-10 .5-12.1-2.9-1.5-2.5-1.9-6.4-1.9-8.4 1.6.2 4.4.4 5.9.5 1.9.1 8.7 1.8 12.6 3.1.1 2.9-2.8 6.8-4.5 7.7z" fill="#f9d8bd" stroke-width="none" opacity="1" stroke="none"></path><path id="SvgjsPath54700" d="M131.6 86c0-.7-.2-1.3-.4-2-.5-1.2-1.2-2.3-2-3.4-.4-.5-.8-1-1.3-1.5-.2-.2-.5-.4-.8-.6s-.6-.3-.9-.4c-1.2-.5-2.4-.9-3.7-1.3-1.3-.3-2.6-.6-3.9-.6-.7 0-1.3.1-2 .4-.6.3-1.1.7-1.6 1.1-1 .8-2 1.7-2.8 2.7-.8 1-1.5 2.2-1.7 3.4.3-1.3 1-2.4 1.8-3.3.8-1 1.8-1.8 2.9-2.6.5-.4 1.1-.7 1.6-1 .6-.2 1.2-.3 1.8-.3 1.3 0 2.5.3 3.8.6 1.2.3 2.4.8 3.6 1.3.3.1.6.3.8.4.3.2.5.3.7.6.4.4.9.9 1.2 1.4.8 1 1.4 2.1 1.9 3.3.4 1 .5 2.2.4 3.3-1.6-.6-3.2-1-4.8-1.5-1.7-.5-3.4-.9-5.2-1.3-.9-.2-1.7-.4-2.6-.5-.9-.1-1.8-.1-2.7-.2-1.8-.1-3.5-.2-5.3-.4.3.1.7.1 1 .1 0 1.8.2 3.5.6 5.3.3 1.1.6 2.2 1.2 3.2.6 1.1 1.6 1.7 2.6 2.2 2.1.9 4.4 1.2 6.6 1.2h.8c.3 0 .6 0 .8-.1.6-.1 1.1-.1 1.7-.4 1-.6 1.8-1.4 2.4-2.3.7-.9 1.2-1.9 1.6-2.9.2-.5.4-1.1.4-1.7v-.4c.3.1.5.2.8.3l.3.1.1-.3c.3-.6.3-1.3.3-1.9zm-1.8 2.3c0 .5-.2 1.1-.4 1.6-.4 1-.8 2-1.5 2.9-.6.9-1.3 1.8-2.3 2.3-.5.2-1 .3-1.6.4-.6.1-1.1.1-1.7.1-1.1 0-2.2-.2-3.3-.4-1.1-.2-2.1-.6-3.1-1.1-1-.5-1.9-1.1-2.4-2-.6-.9-.9-2-1.2-3-.4-1.7-.7-3.4-.8-5.1 1.4.2 2.7.3 4.1.5.9.1 1.8.1 2.6.3.9.2 1.7.3 2.6.6 1.7.4 3.4.9 5.1 1.4 1.2.4 2.5.7 3.7 1.2.2-.1.2.1.2.3z" fill="#09152e" stroke-width="none" opacity="1" stroke="none"></path></g></g></g><g id="svga-group-facehighlight-single"></g><g id="svga-group-eyebrows-left-move" transform="matrix(1,0,0,1,0,0)"><g id="svga-group-eyebrows-left-rotate" transform="matrix(1,0,0,1,0,0)"><g id="svga-group-eyebrows-left" transform="matrix(1,0,0,1,0,0)"><path id="SvgjsPath54618" d="M63.94 82.86s3.31-9.13 13.8-14.49c5.23-2.67 11.76-1.67 12.42.29s-2.6 4.77-4.27 4.45c-1.67-.31-8.07-1.38-9.51-.78-4.09 1.74-6.96 3.54-12.44 10.53z" fill="#4e4341" stroke-width="none" opacity="1"></path><path id="SvgjsPath54619" d="M63.92 82.9c.18-.76.49-1.33.78-1.98.3-.63.63-1.25.99-1.85.73-1.19 1.5-2.37 2.42-3.43.89-1.09 1.88-2.09 2.9-3.05 1.07-.92 2.17-1.79 3.35-2.54 1.18-.76 2.42-1.41 3.69-2.02 1.29-.56 2.64-.97 4.03-1.18 1.38-.2 2.79-.3 4.19-.14.7.08 1.4.19 2.07.41.66.23 1.37.5 1.85 1.15.47.7.3 1.57-.01 2.22-.32.67-.79 1.24-1.33 1.74-.54.49-1.16.9-1.89 1.15-.36.12-.79.19-1.2.11l-1.02-.17c-1.37-.22-2.74-.41-4.11-.55-.69-.07-1.37-.14-2.05-.17-.67-.03-1.39-.04-1.95.09-2.48.98-4.92 2.38-6.95 4.22-2.07 1.8-3.85 3.87-5.76 5.99zm.04-.07c1.53-2.24 3.32-4.46 5.33-6.4 1.02-.97 2.12-1.86 3.32-2.62 1.23-.75 2.44-1.35 3.82-1.9.79-.19 1.49-.15 2.2-.13.71.03 1.41.09 2.1.17 1.39.16 2.77.37 4.15.61l1.03.19c.27.06.55.03.86-.06.6-.18 1.17-.54 1.68-.95.51-.42.97-.92 1.27-1.49.3-.55.45-1.25.13-1.75-.33-.51-.99-.82-1.61-1.06-.64-.23-1.31-.38-1.99-.46-1.36-.16-2.76-.13-4.12.11-1.36.24-2.69.64-3.91 1.26-1.21.66-2.39 1.37-3.51 2.18-4.52 3.13-8.3 7.4-10.75 12.3z" fill="#3f312e" stroke-width="none" opacity="1"></path></g></g></g><g id="svga-group-eyebrows-right-move" transform="matrix(1,0,0,1,0,0)"><g id="svga-group-eyebrows-right-rotate" transform="matrix(1,0,0,1,0,0)"><g id="svga-group-eyebrows-right" transform="matrix(1,0,0,1,0,0)"><path id="SvgjsPath54620" d="M132.69 80.18s-4.22-7.77-13.45-10.59c-4.6-1.41-8.47.91-8.65 2.85s4.62 2.9 5.89 2.26c1.27-.63 3.29-1.99 4.53-1.72 3.53.76 6.12 1.84 11.68 7.2z" fill="#4e4341" stroke-width="none" opacity="1"></path><path id="SvgjsPath54621" d="M132.67 80.15c-1.26-1.74-2.74-3.46-4.37-4.92a27.997 27.997 0 0 0-5.37-3.79c-.47-.28-.97-.52-1.47-.75-.49-.25-1-.45-1.52-.64-1.02-.44-2.08-.71-3.18-.76-1.1-.07-2.2.11-3.22.5-.51.19-1 .45-1.43.78-.43.32-.82.71-1.06 1.16-.25.46-.33.97-.03 1.33.27.38.74.65 1.21.87.97.4 2.07.61 3.11.61 1.87-.02 3.71-2.63 6.33-1.8 1.09.26 2.19.6 3.22 1.1 1.03.49 1.99 1.11 2.89 1.78 1.79 1.34 3.45 2.91 4.89 4.53zm.04.06c-1.79-1.45-3.41-2.89-5.26-4.12a16.578 16.578 0 0 0-5.95-2.6c-.25-.05-.57-.14-.75-.15-.22-.01-.46.03-.7.09-.49.14-.98.36-1.47.59-.49.24-.97.5-1.47.77-.25.13-.49.27-.85.37-.31.07-.62.09-.91.09a8.145 8.145 0 0 1-3.37-.77c-.52-.26-1.05-.58-1.4-1.13-.1-.12-.13-.3-.19-.45-.03-.16-.03-.34-.03-.5.05-.31.17-.6.32-.86.31-.52.75-.91 1.23-1.22.48-.32.99-.57 1.52-.76 1.07-.38 2.2-.54 3.33-.52 1.12.04 2.26.26 3.31.63.54.16 1.07.33 1.59.56.52.21 1.05.41 1.55.68 2.02 1 3.85 2.36 5.47 3.92 1.6 1.58 3.04 3.28 4.03 5.38z" fill="#3f312e" stroke-width="none" opacity="1"></path></g></g></g><g id="svga-group-beardwrap" transform="matrix(1,0,0,1,0,0)"><g id="svga-group-beard-single-move" transform="matrix(1,0,0,1,0,0)"><g id="svga-group-beard-single" transform="matrix(1,0,0,1,0,0)"></g></g></g><g id="svga-group-mustache-single-move" transform="matrix(1,0,0,1,0,0)"><g id="svga-group-mustache-single" transform="matrix(1,0,0,1,0,0)"></g></g><g id="svga-group-nose-single-move" transform="matrix(1,0,0,1,0,0)"><g id="svga-group-nose-single" transform="matrix(1,0,0,1,0,0)"><path id="SvgjsPath54803" d="M91.34 109.69s-1.67 3.06.49 3.96c2.15.9 2.71-.76 3.47-1.32s1.74.21 2.36 1.81c.63 1.6 4.58 1.67 5.21.83.63-.83.9-1.94 1.94-2.29 1.04-.35 1.53 1.53 2.43 1.74.9.21 3.2-.21 1.53-4.79-1.67-4.58-5.35-9.1-8.2-9.03-2.84.06-6.87 4.58-9.23 9.09z" fill="#f1cbab" stroke-width="none" opacity="1" stroke="none"></path><path id="SvgjsPath54804" d="M91.38 109.72c-.26.52-.46 1.08-.54 1.65-.06.56-.04 1.19.32 1.61.34.43.91.61 1.44.69.27.02.53.02.77-.06s.45-.22.64-.4c.19-.18.36-.4.55-.63.19-.23.38-.5.76-.69.19-.09.41-.13.62-.12.21.02.41.08.57.17.34.18.58.43.79.69.2.26.37.53.51.82.07.14.13.29.19.43l.04.11.04.07.07.13c.26.33.74.59 1.26.74.52.15 1.08.24 1.63.25.28 0 .56-.01.82-.05.26-.04.53-.12.7-.23.06-.04.16-.15.24-.27.08-.11.16-.23.24-.36.16-.24.31-.5.49-.75.35-.49.84-.99 1.56-1.01.37.02.64.26.85.48.21.23.38.47.57.69.18.22.38.43.6.55.21.11.52.11.77.07.54-.07.97-.47 1.12-.98.17-.51.13-1.08.04-1.63-.21-1.11-.68-2.18-1.17-3.23-.5-1.04-1.09-2.04-1.73-2.99-.65-.94-1.39-1.84-2.21-2.6-.82-.75-1.75-1.45-2.74-1.67-.95-.26-2 .2-2.94.8-.94.61-1.83 1.35-2.66 2.16-1.65 1.6-3.11 3.48-4.21 5.56zm-.08-.05c1.1-2.08 2.32-4.11 3.83-5.96.76-.92 1.6-1.79 2.61-2.5.5-.36 1.06-.66 1.67-.88.6-.23 1.34-.29 2-.14 1.32.31 2.33 1.11 3.21 1.95.87.86 1.62 1.82 2.27 2.82.66 1.01 1.21 2.07 1.68 3.18.46 1.1.84 2.25.99 3.46.06.6.07 1.24-.17 1.85-.22.61-.82 1.09-1.46 1.15-.32.03-.63.04-.96-.12-.3-.16-.5-.41-.69-.64-.19-.23-.36-.47-.56-.67-.19-.2-.41-.37-.65-.37-.22-.01-.49.14-.69.3a2.5 2.5 0 0 0-.53.63c-.15.24-.27.5-.41.76-.07.13-.14.26-.22.4-.08.13-.15.26-.32.41-.3.24-.61.33-.92.41-.31.07-.62.11-.93.13-.62.03-1.24 0-1.86-.15-.6-.16-1.26-.4-1.74-1-.05-.08-.1-.17-.15-.25l-.07-.13-.04-.09c-.05-.13-.11-.25-.17-.37-.12-.24-.25-.48-.41-.68-.31-.41-.72-.7-1.01-.56-.16.05-.36.26-.56.46-.2.21-.42.44-.68.63-.26.2-.56.36-.9.43-.33.07-.66.04-.98-.02-.31-.08-.59-.18-.87-.33-.14-.08-.28-.15-.39-.27l-.17-.16-.14-.2c-.36-.54-.35-1.2-.25-1.78.16-.61.36-1.17.64-1.7z" fill="#cb8f5d" stroke-width="none" opacity="1" stroke="none"></path></g></g><g id="svga-group-hair-front" transform="matrix(1,0,0,1,0,0)"><path id="SvgjsPath55124" d="M142.42 55.29c-.13-2.39-.71-9.41-1.25-10.76-.54-1.35-1.92-4.55-4.99-7.22-3.07-2.66-4.92-4.05-4.92-4.05s.57-3.64-.47-5.23c-1.05-1.58-2.29-4.15-5.53-5.56s-8.16-2.87-8.3-2.87-4.62-1.48-6.71-1.92c-2.09-.44-9.91-1.62-11.77-1.99-1.85-.37-4.22-1.01-5.02-1.89-.81-.88-2.6-3.24-3.2-5.09 0 0-.1 2.09.4 4.25.51 2.16 1.38 3.74 2.36 4.55l-8.38-2.28c-7.75-3.21-9.69-8.54-9.69-8.54.96 4.08 2.58 7.37 5.53 9.99l-.08.03-.4-.1s-1.79-.61-3.47-2.26c-1.69-1.65-3.04-3.78-3.04-3.78s.3 2.46.78 3.74c.47 1.28.88 3.17.88 3.17s-1.85-2.87-2.43-3.57c-.57-.71-2.16-3.1-2.16-3.1s.13 2.26.03 3.74c-.1 1.48-.57 3.54-.57 3.54s-1.55 2.43-2.09 3.34c-.54.91-2.29 3.78-2.56 5.97s-.2 3.37.24 4.35c.44.98 1.01 2.9 1.01 2.9s-2.06 1.32-3.37 2.66c-1.32 1.35-3.27 3.17-4.42 6.27s-1.28 7.89-1.35 9.58-.24 8.26.13 10.32c.37 2.06 1.72 10.76 1.89 11.94.17 1.18 1.35 9.54 1.35 9.54l.95 4.44s-1.04-13.9 2.66-19.46c0 0 .69-13.32 1.85-16.56s1.74-7.3 6.83-11.58c0 0 4.75 3.01 10.31 2.55 0 0 6.14 4.29 9.5 2.66 0 0 3.65 2.73 7.44 1.41 1.44 1.38 2.75 1.65 2.75 1.65s1.73.41 3.34-.91l.13.05s2.08.58 4.63-.93c0 0 .95.9 5.51-1.23l8.23-5.94s2.6.51 6.54 6.68c0 0 1.55 3.88 2.19 7.12.64 3.24 1.18 8.06 1.35 10.18.17 2.12.2 5.02.2 5.02s1.72 3.34 2.23 5.94.71 10.05.71 10.05 1.18-4.15 1.18-4.25c0-.1 1.18-8.84 1.18-8.84l1.45-9.04c0 .02.54-6.28.41-8.68z" fill="#4e4341" stroke-width="none" opacity="1"></path><path id="SvgjsPath55125" d="M141.44 44.31c-.76-2.57-2.5-4.66-4.32-6.46-1.71-1.67-3.61-3.1-5.6-4.39.22-.75.35-1.53.35-2.32-.02-2.53-1.23-4.89-2.95-6.63-1.75-1.77-4.04-2.77-6.26-3.55-2.23-.8-4.52-1.4-6.58-2.44-1.02-.51-1.95-1.25-2.49-2.26-.54-1.01-.59-2.27-.15-3.36-.54 1.05-.6 2.36-.09 3.48.36.82.98 1.5 1.69 2.05-.92-.33-1.85-.59-2.77-.8-2.85-.68-5.73-1.07-8.6-1.47-1.43-.2-2.86-.4-4.28-.64-1.41-.26-2.83-.5-4.12-1.01-.32-.13-.63-.28-.9-.46-.27-.2-.56-.4-.81-.64a9.41 9.41 0 0 1-1.38-1.57c-.8-1.15-1.43-2.46-1.82-3.81l-.54-1.85.04 1.91c.04 1.74.27 3.45.72 5.12.4 1.41.99 2.83 2 3.9-1.53-.41-3.06-.79-4.58-1.17-2.64-.7-5.22-1.73-7.5-3.26-1.14-.76-2.18-1.66-3.12-2.67-.93-1-1.75-2.14-2.28-3.38l-.33.1c.55 2.23 1.33 4.42 2.52 6.4.81 1.36 1.85 2.57 3.01 3.63-1.45-.71-2.78-1.65-3.9-2.8-.57-.57-1.09-1.19-1.57-1.84-.47-.65-.92-1.33-1.27-2.03l-.78-1.54.24 1.71c.31 2.14.81 4.24 1.59 6.27.07.19.17.37.25.56-.57-1.02-1.16-2.03-1.78-3.02-.85-1.36-1.72-2.7-2.65-4.01l-.82-1.16.32 1.43c.38 1.66.28 3.41.16 5.16-.01-.03-.01-.06-.02-.08-.27-.91-.85-1.67-1.52-2.28.59.69 1.07 1.49 1.26 2.35.19.87.05 1.76-.26 2.58-.32.82-.77 1.59-1.28 2.33-.52.76-1.02 1.53-1.47 2.34-.92 1.61-1.6 3.39-1.88 5.27-.31 1.88.08 3.88.78 5.59.16.41.35.8.54 1.19-1.92 1.25-3.7 2.75-5.17 4.54-.79.97-1.5 2.01-2.07 3.14-.58 1.14-.92 2.36-1.21 3.58-1.09 4.9-1.15 9.89-.94 14.85.1 2.5.57 4.95.95 7.38l1.23 7.29c.42 2.41.65 4.88 1.12 7.31.44 2.43.92 4.85 1.42 7.27l.4-.05c-.12-1.71-.16-3.42-.19-5.14-.03-1.71 0-3.43.12-5.14.11-1.71.31-3.39.89-5.01.52-1.61 1.14-3.24 1.95-4.68l.04-.08v-.09c.13-2.53.31-5.06.56-7.58.28-2.52.56-5.03 1.04-7.51.24-1.24.52-2.47.88-3.67.36-1.2.75-2.4 1.34-3.49.57-1.07 1.39-2.09 2.12-3.11.38-.5.77-1.01 1.18-1.48.33-.36.68-.77 1.07-1.04 1.5 1.07 3.26 1.66 5.01 2 1.71.29 3.44.4 5.15.3 1.18.8 2.41 1.54 3.72 2.11.96.4 1.96.73 2.99.89.98.14 2.03.14 2.93-.28.4.37.85.69 1.33.92 1.98.96 4.24.99 6.29.54.77.72 1.67 1.29 2.71 1.58 1.25.26 2.57-.15 3.53-.97 1.32.45 2.85.24 4.06-.5.16-.1.3-.22.45-.33 1.11.34 2.32.14 3.41-.19 1.14-.36 2.21-.91 3.22-1.53 2-1.26 3.94-2.61 5.82-4.05.54-.41 1.07-.84 1.59-1.28.98.58 1.83 1.36 2.62 2.18.92.97 1.76 2.02 2.53 3.11.78 1.06 1.28 2.29 1.71 3.55.42 1.26.76 2.55 1.03 3.86.56 2.62.88 5.29 1.18 7.96.28 2.67.48 5.36.61 8.04v.09l.04.08c.81 1.44 1.43 3.06 1.95 4.68.58 1.62.77 3.3.89 5.01.11 1.71.15 3.42.12 5.14-.03 1.71-.08 3.43-.19 5.14l.4.05c.53-2.51 1.02-5.03 1.48-7.56.22-1.26.43-2.54.59-3.81.16-1.26.37-2.52.58-3.78l1.28-7.58c.21-1.27.41-2.54.58-3.82.17-1.29.23-2.59.28-3.88.16-5.17.07-10.39-1.42-15.43zm-69.72-1.39c-.46.45-.89.92-1.32 1.4-.82.98-1.66 1.93-2.33 3.08-1.29 2.28-1.93 4.81-2.47 7.3-.51 2.51-.9 5.04-1.12 7.59-.23 2.52-.37 5.04-.38 7.58-.79 1.56-1.31 3.16-1.77 4.79-.5 1.66-.69 3.42-.77 5.13-.08 1.72-.08 3.44-.09 5.16 0 .75.01 1.51.03 2.26-.24-1.48-.48-2.96-.69-4.45-.36-2.43-.55-4.88-.91-7.34-.34-2.45-.75-4.88-1.12-7.31-.36-2.44-.74-4.86-.88-7.29-.13-2.44-.15-4.9-.05-7.34.12-2.44.27-4.89.77-7.27.76-4.63 3.96-8.46 7.69-11.32.64 1.24 1.44 2.41 2.37 3.44 1.26 1.38 2.68 2.59 4.18 3.65-.44.25-.78.62-1.14.94zm6.39.68c-1.74-.44-3.44-1.1-4.79-2.23-2.83-2.23-5.42-4.83-6.69-8.16-.68-1.65-1.01-3.35-.77-5.1.2-1.74.83-3.43 1.62-5.03.4-.8.84-1.59 1.32-2.36.4-.65.77-1.34 1.05-2.06-.09 1.28-.17 2.57-.2 3.87-.04 2.07.06 4.17.54 6.24.46 2.08 1.42 4 2.58 5.74 2.35 3.49 5.51 6.28 8.81 8.74.5.37 1.01.73 1.52 1.08-1.69-.09-3.37-.31-4.99-.73zm11.8 3.53c-.99-.21-1.94-.6-2.84-1.05-1.82-.91-3.46-2.11-5.05-3.39-3.15-2.58-6.26-5.31-8.45-8.7-1.1-1.68-1.94-3.52-2.41-5.45-.48-1.94-.6-3.97-.59-6 0-2.03.18-4.07.27-6.13.05-1.03.08-2.06.05-3.11-.02-.61-.06-1.23-.14-1.85 1.51 2.03 2.99 4.08 4.37 6.21.29.62.61 1.23 1 1.81.6.91 1.41 1.79 2.33 2.39 1.75 1.26 3.59 2.34 5.17 3.69 1.57 1.34 2.86 2.98 3.64 4.91 1.68 3.84 1.84 8.19 3.2 12.31.35 1.03.76 2.03 1.29 2.99.28.49.64.94 1.05 1.32-.94.33-1.95.24-2.89.05zm4.42.52a5.585 5.585 0 0 1-2.1-2.16c-.46-.92-.84-1.91-1.14-2.92-1.14-4.03-1.28-8.41-2.98-12.48a13.2 13.2 0 0 0-3.87-5.29c-1.69-1.41-3.55-2.47-5.28-3.68-1.73-1.09-2.77-2.97-3.6-4.87-.62-1.47-1.11-3.01-1.46-4.57.67.93 1.43 1.78 2.28 2.55.61.56 1.27 1.06 1.97 1.49.68.45 1.42.77 2.17 1.08.54.49 1.09.96 1.69 1.39 1.85 1.39 4.04 2.32 6.09 3.21 1.98.98 3.56 2.63 4.66 4.55 2.18 3.91 3.03 8.46 3.7 12.94.28 2.25.72 4.59 1.75 6.66.57 1.1 1.3 2.15 2.22 3-2.09.27-4.31.12-6.1-.9zm8.83 2.38c-2.19-.67-3.8-2.56-4.69-4.61-.42-1.05-.77-2.12-.95-3.24-.21-1.11-.28-2.23-.41-3.38-.22-2.28-.59-4.56-1.12-6.81-.53-2.24-1.29-4.47-2.49-6.49-1.17-2.02-2.91-3.82-5.09-4.78-2.16-.86-4.25-1.65-6.12-2.95-1.89-1.23-3.5-2.88-4.7-4.81-.94-1.49-1.59-3.13-2.07-4.82 1.17 1.98 2.83 3.64 4.68 5 2.29 1.65 4.9 2.82 7.6 3.59 2.69.76 5.36 1.43 7.97 2.34 2.6.89 5.12 2.02 7.33 3.58 2.2 1.55 3.96 3.7 4.89 6.22.97 2.52 1.42 5.26 1.51 8 .1 2.74-.13 5.52-.87 8.17-.38 1.31-.87 2.65-1.77 3.67-.92 1.01-2.35 1.57-3.7 1.32zm7.44-1.58c-1.13.75-2.58 1.06-3.93.69.11-.09.22-.19.32-.3.95-1.06 1.51-2.38 1.96-3.71.87-2.67 1.25-5.48 1.3-8.29.01-2.81-.36-5.65-1.34-8.34-.99-2.71-2.89-5.06-5.22-6.72-2.32-1.69-4.98-2.75-7.63-3.64a60.4 60.4 0 0 0-3.41-1.02c-.96-1.12-1.47-2.57-1.81-3.99-.25-1.12-.39-2.26-.45-3.4.34.86.76 1.68 1.26 2.46.4.62.89 1.2 1.43 1.72.27.27.57.5.87.73.33.23.67.4 1.02.56 1.4.58 2.83.89 4.27 1.15 1.43.26 2.87.47 4.3.68 2.86.42 5.72.84 8.49 1.53 2.76.68 5.52 1.64 7.37 3.71 1.9 2.02 2.37 5.02 1.86 7.75-.29 1.32-.88 2.66-1.45 3.96-.6 1.3-1.24 2.59-1.93 3.86a83.922 83.922 0 0 1-4.46 7.4c-.84 1.18-1.63 2.43-2.82 3.21zm12.57-6.48c-1.79 1.51-3.69 2.89-5.6 4.27-.95.67-1.97 1.25-3.06 1.67-1.05.38-2.21.66-3.33.41 1.03-.77 1.8-1.82 2.58-2.81 1.74-2.33 3.27-4.8 4.72-7.32.73-1.26 1.41-2.54 2.05-3.85.63-1.32 1.24-2.64 1.59-4.14.26-1.47.33-2.99.01-4.48-.29-1.49-1-2.91-2.01-4.05a9.366 9.366 0 0 0-1.63-1.46c1.3.52 2.62.99 3.9 1.51 2.16.88 4.32 1.81 5.88 3.46 1.57 1.61 2.6 3.78 2.61 5.99.02 1.1-.23 2.2-.71 3.21-.46 1.01-1.19 1.89-1.96 2.77-1.53 1.73-3.26 3.3-5.04 4.82zm18.68 17.7c-.08 2.55-.42 5.04-.8 7.58l-1.17 7.6c-.39 2.55-.59 5.11-.95 7.63-.22 1.58-.47 3.15-.73 4.73.02-.75.03-1.5.03-2.25-.01-1.72-.01-3.44-.09-5.16-.09-1.71-.27-3.47-.77-5.13-.46-1.63-.98-3.23-1.77-4.79-.01-2.69-.17-5.37-.43-8.05-.26-2.7-.68-5.38-1.27-8.04-.62-2.63-1.37-5.34-3.07-7.58-.83-1.08-1.73-2.11-2.73-3.04-.84-.77-1.74-1.5-2.77-2.02 1.25-1.06 2.45-2.2 3.55-3.43.78-.88 1.6-1.83 2.14-2.96.18-.37.33-.77.46-1.17 1.89 1.38 3.67 2.93 5.28 4.62 1.74 1.84 3.27 3.92 3.93 6.33.68 2.42.95 4.96 1.09 7.49.15 2.55.17 5.1.07 7.64z" fill="#3f312e" stroke-width="none" opacity="1"></path></g><g id="svga-group-glasses-single-move" transform="matrix(1,0,0,1,0,0)"><g id="svga-group-glasses-single" transform="matrix(1,0,0,1,0,0)"><path id="SvgjsPath55336" d="M81.4 78.5c-5.8-.2-13.3.2-15.5 3.1-2.2 2.9-2.2 14.3.2 18.9 2.4 4.6 13.6 5.6 21.6 2.9 7.9-2.7 11-19.5 10.3-21.4-.6-1.9-8.5-3.2-16.6-3.5z" fill="url(#SvgjsLinearGradient55337)" opacity="1"></path><path id="SvgjsPath55344" d="M119.7 78.3c5.4-.3 12.2 0 14.3 2.8 2 2.7 2.1 13.4 0 17.8s-12.3 6-19.9 3.8c-7.7-2.2-10.9-18.8-10.3-20.7.5-2 8.2-3.4 15.9-3.7z" fill="url(#SvgjsLinearGradient55345)" opacity="1"></path><path id="SvgjsPath55352" d="M135.8 78.3c-2.2-1.2-10.1-1.7-16.1-1.4-8.3.3-15.3.9-18.9.9-3.7 0-10.8-.5-19.6-.7-6.4-.2-15.2.4-17.6 1.7-2.4 1.3-1.9 3.9-.9 11.5 1 7.6 1.3 14.6 9.7 15.3 8.3.7 14.5.2 18.2-2.8 3.6-3 7.2-12.2 8.1-13.7.8-1.3 1.5-1.7 2.1-1.8.6.1 1.3.5 2.1 1.8.9 1.5 4.6 10.5 8.1 13.3 3.6 2.8 9.4 3 17.1 1.8 7.6-1.1 7.8-7.7 8.6-14.9.8-7.4 1.3-9.8-.9-11zM93.7 94.9c-3.9 7.9-6.4 8.6-16.2 9.1-10 .5-11.2-5.5-11.5-9.7-.3-4.2-.9-8.7 1.6-11.8 2.2-2.8 10-2.7 15.2-2.3 4.2.4 8.2.8 10.7 2.2 2.9 1.5 4.1 4.6.2 12.5zm40.2-1.9c-.2 4-1.2 9.7-10.3 9.7-9.2 0-11.6-.5-15.5-8.1-3.9-7.7-2.8-10.9-.1-12.4 2.5-1.4 6.2-1.9 10.3-2.3 4.9-.5 12-.7 14.1 1.9 2.2 3 1.7 7.2 1.5 11.2z" fill="#e05f48" stroke-width="none" opacity="1"></path><path id="SvgjsPath55353" d="M135.8 78.3c-1.2-.6-2.6-.8-4-.9-1.4-.2-2.7-.3-4.1-.3-2.8-.1-5.6-.1-8.4 0-5.7.2-11.3.7-17.1.9-2.9.1-5.8-.1-8.8-.2l-8.9-.4c-3-.1-6-.2-9-.1s-6.1.3-9.1.8c-.8.2-1.5.3-2.2.6-.7.2-1.4.7-1.8 1.3-.4.6-.5 1.4-.5 2.2 0 .8 0 1.6.1 2.3.3 3.1.8 6.2 1.2 9.3.2 1.5.5 3.1.9 4.6.4 1.5 1 2.9 1.9 4.1.9 1.2 2.2 2 3.7 2.5 1.4.5 2.9.6 4.4.7 3 .2 6 .2 8.9-.2 2.9-.4 5.9-1.3 8-3.4 2-2.2 3.4-4.9 4.8-7.6.7-1.3 1.3-2.7 1.9-4.1.3-.7.6-1.4 1.1-2 .4-.6 1.1-1.2 1.9-1.4.8.1 1.4.7 1.8 1.3.5.6.8 1.3 1.1 1.9.6 1.3 1.2 2.6 1.9 3.8 1.3 2.5 2.7 5 4.5 7.1 1.8 2.1 4.5 2.9 7.1 3.2 2.6.3 5.3.2 8 0 1.3-.2 2.7-.3 3.9-.6 1.3-.3 2.5-.8 3.5-1.7 1-.9 1.8-2.1 2.3-3.4s.8-2.7 1-4.1c.4-2.8.7-5.6 1-8.4.1-1.4.3-2.8.3-4.2 0-.7 0-1.4-.3-2.1.1-.7-.4-1.2-1-1.5zm0-.1c.6.3 1.1.8 1.3 1.5.2.7.3 1.4.3 2.1 0 1.4-.2 2.8-.3 4.2-.3 2.8-.5 5.6-.9 8.4-.2 1.4-.5 2.8-1 4.1-.5 1.3-1.2 2.6-2.3 3.5-1.1.9-2.3 1.5-3.6 1.8-1.3.3-2.6.4-4 .6-2.7.3-5.4.5-8.1.1-1.3-.2-2.7-.5-4-1s-2.5-1.3-3.4-2.4c-1.9-2.1-3.2-4.7-4.6-7.2-.7-1.3-1.3-2.6-1.9-3.8-.3-.7-.6-1.3-1-1.8s-.9-1-1.5-1.1h.1c-.6.1-1.2.6-1.6 1.2-.4.6-.7 1.3-1 1.9-.6 1.4-1.3 2.8-1.9 4.1-.7 1.4-1.4 2.7-2.2 4-.8 1.3-1.7 2.6-2.7 3.7-2.2 2.2-5.3 3.1-8.2 3.4-3 .4-6 .3-9 .1-1.5-.1-3-.2-4.5-.7-1.5-.5-2.8-1.4-3.8-2.6-1-1.2-1.6-2.7-2-4.2-.4-1.5-.6-3.1-.8-4.6l-.6-4.6c-.2-1.6-.4-3.1-.6-4.7-.1-.8-.1-1.6-.1-2.4 0-.8.1-1.6.5-2.3.4-.7 1.1-1.2 1.9-1.4.7-.3 1.5-.4 2.2-.6 6.1-1 12.1-1 18.1-.8l8.9.3c2.9.1 5.8.3 8.7.2 5.8-.2 11.4-.6 17.1-.8 2.8-.1 5.6-.1 8.4.1 1.4.1 2.8.2 4.1.4 1.4.6 2.8.7 4 1.3zM93.7 94.9c-.8 1.7-1.7 3.4-2.9 4.8-.6.7-1.3 1.4-2 2-.8.5-1.6 1-2.5 1.3-1.8.6-3.7.8-5.5 1-1.9.2-3.7.3-5.6.2-1.9-.1-3.8-.6-5.4-1.7-1.6-1.1-2.7-2.8-3.2-4.7-.6-1.8-.6-3.8-.8-5.7-.1-1.9-.3-3.9.1-5.8.2-1 .4-1.9.9-2.8.4-.9 1.1-1.7 2-2.2 1.7-1 3.7-1.2 5.6-1.4 3.8-.3 7.5-.1 11.2.3 1.8.2 3.7.4 5.5.9.9.3 1.8.6 2.6 1s1.6 1.1 2.1 1.9c.5.8.7 1.8.6 2.8 0 1-.2 1.9-.5 2.8-.6 1.9-1.3 3.6-2.2 5.3zm0 0c.8-1.7 1.6-3.4 2-5.3.4-1.8.7-3.8-.3-5.4-.9-1.6-2.8-2.2-4.5-2.7-1.8-.4-3.6-.7-5.4-.9-3.7-.4-7.4-.7-11.1-.3-1.8.2-3.8.4-5.4 1.3-.8.4-1.4 1.1-1.9 2-.5.8-.8 1.7-.9 2.7-.3 1.9-.3 3.8-.1 5.8.1 1.9.2 3.9.7 5.7.5 1.8 1.6 3.5 3.2 4.5s3.4 1.4 5.3 1.5c1.8.1 3.7-.1 5.6-.2 1.8-.1 3.7-.3 5.4-.8.9-.2 1.7-.7 2.5-1.1.8-.5 1.4-1.2 2.1-1.9 1-1.5 1.9-3.2 2.8-4.9zm40.2-1.9c-.1 1.8-.3 3.7-1.2 5.3-.8 1.7-2.2 2.9-3.9 3.6-1.6.7-3.4.9-5.1 1s-3.5 0-5.2-.1c-1.7-.2-3.5-.4-5.1-1.3-1.6-.8-2.8-2.3-3.8-3.9s-1.8-3.2-2.6-4.9c-.8-1.7-1.4-3.4-1.7-5.3-.1-.9-.1-1.9.3-2.8s1-1.7 1.7-2.2c1.6-1.1 3.3-1.5 5.1-1.9 1.8-.3 3.5-.5 5.3-.7 1.7-.2 3.5-.3 5.2-.3 1.7 0 3.5 0 5.2.4.9.2 1.7.4 2.5.8s1.6.9 2 1.8c1 1.6 1.3 3.5 1.4 5.3.2 1.6 0 3.4-.1 5.2zm0 0c.1-1.8.2-3.7.1-5.5-.1-1.8-.5-3.7-1.5-5.1-1-1.5-2.8-1.9-4.4-2.2-1.7-.2-3.4-.3-5.1-.3-1.7 0-3.5.2-5.2.3-1.8.2-3.5.4-5.2.7-1.7.3-3.5.8-4.9 1.7-.7.5-1.3 1.2-1.6 2-.3.8-.4 1.8-.3 2.7.2 1.8.8 3.6 1.6 5.3.8 1.7 1.6 3.3 2.6 4.8s2.2 2.9 3.7 3.7c1.5.8 3.3 1 5 1.2 1.7.1 3.5.1 5.2.1 1.7 0 3.4-.2 5-.8 1.6-.6 3-1.8 3.9-3.4.7-1.5 1-3.4 1.1-5.2z" fill="#c13117" stroke-width="none" opacity="1"></path></g></g></g></g></g><rect id="svga-credit-rect" width="200" height="15" x="0" y="185" fill="#ecf0f1" opacity="0.5" style="display: none;"></rect><text id="svga-credit-text" font-family="Avenir Next, Roboto, Helvetica, Arial, sans-serif" font-size="10px" text-anchor="start" font-weight="400" size="10px" anchor="start" weight="400" fill="#333333" x="33.40447998046875" y="182.60824704170227" style="display: none;"><tspan id="SvgjsTspan54159" dy="13" x="33.40447998046875">Created on AvatarMaker.com</tspan></text></g></svg>