<svg xmlns="http://www.w3.org/2000/svg" version="1.1" width="600px" height="600px" viewBox="0 0 200 200" style="overflow:hidden!important;"><defs id="SvgjsDefs43398"></defs><g id="svga-group-wrapper"><g id="svga-group-backs-single"><path id="SvgjsPath44481" d="M0 0h200v200H0V0z" fill="#f1d4af" stroke-width="none" opacity="1" stroke="none"></path></g><g id="svga-group-humanwrap-move" transform="matrix(1,0,0,1,0,0)"><g id="svga-group-humanwrap" transform="matrix(1,0,0,1,0,0)"><g id="svga-group-hair-back-move" transform="matrix(1,0,0,1,0,0)"><g id="svga-group-hair-back" transform="matrix(1,0,0,1,0,0)"></g></g><g id="svga-group-humanbody-back"><path id="SvgjsPath43797" d="M180.8 184.9c-2.3-3.4-38.9-17.8-38.9-17.8l-13.4-5.2-5.6-68.8H76.8L71.3 162l-13.4 5.2S21.4 181.6 19 185c-2.3 3.4-3.3 14.9-3.3 14.9V219h168.5v-19.2c-.1.1-1-11.5-3.4-14.9z" fill="#ebaa82" stroke-width="none" opacity="1" stroke="none"></path></g><g id="svga-group-chinshadow-single"><path id="SvgjsPath44041" d="m76.82 93.1-3.58 45.07c7.72 10.37 15.12 20.14 15.87 20.73 1.4 1.1 9.2 1.1 10.6 0 1.02-.76 16.06-21.1 25.8-34.27l-2.57-31.53H76.82z" fill="#cc7b48" stroke-width="none" opacity="1" stroke="none"></path></g><g id="svga-group-humanbody-front"><path id="SvgjsPath43798" d="M184.5 219c-.1-6.4-.1-12.8-.1-19.2l-.3-.1s.1-.1.2 0c.1 0 .1.1.1.1v-.4l-.1-.5-.1-.9-.2-1.9c-.2-1.3-.4-2.5-.6-3.8-.2-1.3-.5-2.5-.9-3.8-.4-1.2-.8-2.5-1.5-3.6-.8-.9-1.9-1.5-2.9-2.1-1-.6-2.1-1.1-3.2-1.7-2.1-1.1-4.3-2.1-6.5-3.1-4.4-2-8.7-3.9-13.1-5.7-4.4-1.9-8.8-3.7-13.2-5.5l-13-5.2-1.2-16.9c-.4-5.7-.9-11.5-1.3-17.2l-1.3-17.2-1.5-17.3-.1-.8h-.8c-7.7 0-15.4.1-23.1.1l-23.1.2h-.5v.5L75 110.2l-1.3 17.2c-.8 11.4-1.8 22.8-2.8 34.2-5.6 2.1-11.2 4.2-16.7 6.4-5.6 2.2-11.2 4.5-16.8 6.9-2.8 1.2-5.6 2.4-8.3 3.6-2.8 1.3-5.5 2.5-8.2 4.1-.7.4-1.3.8-2 1.4-.2.1-.4.4-.5.6l-.3.6c-.2.4-.4.7-.5 1.1-.6 1.5-1 3-1.3 4.5-.6 3-1.1 6-1.4 9.1l-.1 19.1v.9h.9l42.1.1H100c14 0 28.1-.1 42.1-.2l42.1-.5h.3v-.3zm-84.5-1-42.1-.1-41.2.1-.1-18.1c.3-3 .6-5.9 1.2-8.9.3-1.4.6-2.9 1.1-4.2.1-.3.3-.7.4-.9l.2-.4.3-.3c.5-.4 1.1-.8 1.8-1.2 2.5-1.5 5.3-2.8 8-4.1 2.7-1.3 5.5-2.5 8.2-3.7 5.5-2.4 11.1-4.8 16.7-7.1s11.2-4.5 16.9-6.7l.2-.1v-.2c.9-11.5 1.7-23 2.7-34.4l1.4-17.2 1.5-16.7 22.6.2c7.4.1 14.8.1 22.3.1l1.3 16.4 1.5 17.2c.5 5.7 1 11.5 1.5 17.2l1.6 17.2v.3l.3.1 13.4 5c4.4 1.7 8.9 3.4 13.3 5.2 4.4 1.8 8.8 3.7 13.2 5.6 2.2 1 4.3 2 6.5 3 1.1.5 2.1 1.1 3.2 1.6 1 .6 2.1 1.2 2.9 2 .7 1.1 1.1 2.3 1.4 3.5.3 1.2.6 2.5.8 3.7.2 1.3.4 2.5.6 3.8l.2 1.9.1.9.1.5v.4c0 6.3 0 12.6-.1 18.9l-41.8-.5c-14 .1-28.1 0-42.1 0z" fill="#bd6630" stroke-width="none" opacity="1" stroke="none"></path><path id="SvgjsPath43799" d="M125.1 142.4s-1.8 23-9.1 32.9c0 0 7.9-25 9.1-32.9zm-34.5 16s5 7.9 11.5 10.1c0 0-9.5 2.2-11.5-10.1zM73.4 140c6.7 25.6 6.7 25.6 8.5 30.7 0 0 .4-12.6-8.5-30.7z" fill="#cc7b48" stroke-width="none" opacity="1" stroke="none"></path></g><g id="svga-group-clothes-single"><path id="SvgjsPath44444" d="m71.9 145.1-6.2 2.5-.7 14.1v20.2L79 220h42l10.7-34.3 3.4-25.5-1.7-14.2-5.4-.8-.3 9.2s-26.2 22.2-26.6 22.7-29.2-22.8-29.2-22.8v-9.2z" fill="#eaeaea" stroke-width="none" opacity="1"></path><path id="SvgjsPath44445" d="m127.8 155.4.8-.3 4.9-9-5.5-.9-.2 10.2zm-56.3-1.6h-.4l-5.2-6.1 6.3-2.6-.7 8.7z" fill="#c9c9c9" stroke-width="none" opacity="1"></path><path id="SvgjsPath44446" d="m44.6 168 1.1 1.7s-24.9 7.2-29 9c0 0-4.4-3.1-6 3.4-1.6 6.5-3.8 30.8-3.8 37.9h72s-8.7-29-14.1-59.9L44.6 168zm144.6 14.1c-1.6-6.5-6-3.4-6-3.4-4.1-1.9-29-9-29-9l1.1-1.7-20.3-7.8c-5.3 30.8-14 59.8-14 59.8h72c.1-7.2-2.2-31.4-3.8-37.9z" fill="#3e3e3e" stroke-width="none" opacity="1" stroke="none"></path><path id="SvgjsPath44447" d="M89 180.6s4.9 12.4 6.4 15.4c0 0-2.8 17.1-2.9 23.8h18s-2.5-20-3.1-24.1c0 0 4.4-11 5.7-13.9 0 0-2.7-3.4-3.8-3.6-1.1-.2-8.7-.8-8.7-.8s-7.3.9-8.7 1.4c-1.4.4-2.9 1.8-2.9 1.8z" fill="#222222" stroke-width="none" opacity="1"></path><path id="SvgjsPath44448" d="M106.9 196c-1.1.5-3.8 1.9-5.2 2.1h-.5c-1.6-.1-4.2-1.3-5.3-1.8v-.2c.6.1 1.6.2 2.9.5 1.7.4 6.5-.4 8.1-.7m-5.5 17.2c1.2 1.5 3.4 2.7 3.1 1-.2-1.7-3.3-15.8-3.4-16-.1.7-.9 13.5.3 15zm-2.8-17.3s-.1-8.9-.6-9.8c-.5-.9-1.7-.1-2.1 1.8-.5 2 2.3 7.6 2.7 8zm-1.8 15.8c.5 2.7 1.9-.4 2.1-3.6.2-3.2-1.1-10.6-1.1-10.6-.2.5-1.5 11.4-1 14.2zm7.4-27.7c-1-1.1-2.5 1.9-2.8 4-.4 2.1-.2 6.3-.2 7.8-.1 0 3.9-10.7 3-11.8zm3.2 6.8c.6-1.2-.6-2.2-1.5-1.7s-1.7 5.3-2.1 7.2c0 0 3-4.2 3.6-5.5zm-2.4 18.4c.5 1 1.9 2.2 2.1 1.5.2-.7-2.7-12.5-2.7-12.5s.1 10 .6 11z" fill="#000000" stroke-width="none" opacity="1"></path><path id="SvgjsPath44449" d="m192.7 208.3-.9-11.6c-.3-3.9-.7-7.8-1.3-11.6-.2-1-.3-1.9-.5-2.9s-.5-2-1.1-3c-.5-1-1.6-1.9-2.9-2.1-.6-.1-1.2 0-1.8.1-.4.1-.8.3-1.2.5-2.3-.9-4.6-1.6-6.8-2.4l-7.3-2.2c-4.6-1.4-9.1-2.7-13.7-3.9l.6-.9.5-.7-.8-.3c-3.5-1.3-7-2.5-10.4-3.8l-9.2-3.2c0-.1 0-.2.1-.4l-2.2-14.2-6-1.4s-.5 4.6-.5 9.7l-13.8 11c-2.2 1.9-4.5 3.8-6.7 5.8l-3.3 2.9-1.7 1.5-.8.8c-2.3-1.6-4.6-3.4-6.9-5.1l-7.1-5.4-14.6-11.4.1-9.8c-.5.5-6.2 2.5-6.8 3v.1l-.6 8.6-.3 4-10 3.5c-3.4 1.2-6.9 2.5-10.4 3.8l-.8.3.5.7.6.9c-4.6 1.2-9.2 2.5-13.7 3.9l-7.3 2.2c-2.3.8-4.5 1.4-6.9 2.4-.4-.2-.7-.4-1.1-.5-.6-.2-1.2-.2-1.8-.1-1.3.2-2.3 1.1-2.8 2-.6 1-.9 2-1.1 3-.2 1-.3 2-.5 2.9-.5 3.9-.9 7.8-1.3 11.6l-.9 11.6c-.3 3.9-.6 7.8-.7 11.7v.3h.3c6 0 12 .1 18 .2l18 .3 18.1.3h78l18-.1c6-.1 12-.1 18-.3 6-.1 12-.2 18-.2h.4v-.4c-.1-3.9-.4-7.8-.7-11.7zm-88.1-33 3.4-2.9 6.8-5.7 13.6-11.5.2-.2-.4-9.6c1.8.4 3.6.8 5 1.1l1.1 13.6-1.1 8.5-1.4 6.4c-1.1 5-2.4 10-3.6 14.9-.7 2.9-1.5 5.9-2.3 8.8-.3-.8-.6-1.6-1-2.4-.3-.7-.6-1.4-1-2.1-.3-.7-.8-1.4-1.2-2-1.8-2.6-3.6-5-5.5-7.4-1-1.2-2-2.4-3-3.5-1.1-1.1-2.1-2.3-3.5-3.3-.3-.2-.7-.5-1.1-.7-.2-.1-.5-.2-.8-.3-.3-.1-.4 0-.6-.1l-2.3-.3-2.5-.3 1.2-1zm-38.8-19.1.2-8.5 5.7-2.1-.6 8.2 1.4 1.6h.1c4.5 3.8 9.1 7.6 13.7 11.3 2.3 1.9 4.6 3.7 6.9 5.6 1.8 1.4 3.5 2.8 5.4 4.2l-2.1.3c-.8.1-1.5.2-2.3.4l-1.2.2c-.2.1-.3.1-.6.1-.3.1-.5.2-.7.3-1.6.9-2.7 2-3.8 3.1-1.1 1.1-2.1 2.3-3.2 3.5-2 2.4-3.9 4.9-5.7 7.4-.9 1.3-1.8 2.6-2.6 3.9-.7 1.1-1.4 2.2-2 3.3-.8-2.9-1.5-5.9-2.3-8.8-1.2-5-2.5-9.9-3.6-14.9l-1.7-7.5-1-4.7c-.2-2.4-.1-4.8 0-6.9zM7.3 219.6c0-3.8.3-7.5.6-11.3.3-3.9.7-7.7 1.2-11.6.5-3.9 1-7.7 1.7-11.5.4-1.9.7-3.9 1.6-5.3.5-.7 1-1.2 1.7-1.2.7-.1 1.5.2 2.1.6l.4.3.4-.2c.6 1.4 1.1 2.7 1.6 4.1.6 1.7 1.1 3.4 1.3 5.1.5 3.5.8 7 1.2 10.5l1.2 10.5.7 5.3.6 4.5c-5.3.1-10.8.2-16.3.2zM61 219l-18 .1c-6 .1-12 .1-18 .3h-1.1c-.1-3.3-.4-6.5-.6-9.8-.3-3.5-.6-7-1-10.6-.4-3.5-.8-7-1.5-10.5-.7-3.2-2-6.3-3.5-9.1 2.2-.9 4.6-1.6 7-2.4l7.2-2.3 14.5-4.5h.1c.3.3.5.6.8.9.8.8 1.6 1.6 2.5 2.3-1.2.6-2.5 1.2-3.7 1.9l-.7.3.3.7c1.6 3.7 3.3 7.4 5 11 1.7 3.7 3.5 7.3 5.2 10.9l5.4 10.8c1.7 3.3 3.4 6.5 5.2 9.7-1.7.3-3.4.3-5.1.3zm5.3 0c-1.3-3.5-2.8-6.9-4.2-10.3-1.6-3.7-3.2-7.4-4.9-11.1-1.7-3.7-3.4-7.3-5.1-11-1.6-3.4-3.3-6.8-5-10.2 2.3-1.4 4.6-2.7 6.9-4.1l7.5-4.7c-1.4.6-2.7 1.2-4 1.8l-4 1.9c-1.3.7-2.7 1.4-4 2-.6-1-1.3-1.9-2-2.8-.5-.7-1.1-1.3-1.6-2l-.3-.4c3-1.2 6.1-2.5 9.1-3.8l10-4.2c0 .5.4 2.5.7 3.7l.3 1.8.3 1.9c.4 2.5.8 5.1 1.3 7.6 1 5 1.9 10.1 3.1 15.1 2.1 9.6 4.5 19.1 7.2 28.5-3.8.2-7.5.3-11.3.3zm13.6.2c-1.4-4.7-2.7-9.5-4-14.3-.5-2-1.1-3.9-1.6-5.9 1.7-2.3 3.5-4.5 5.3-6.7 2-2.4 4-4.7 6.1-7 1-1.1 2.1-2.2 3.2-3.3l.1-.1c1.2 3.1 4.6 11.4 5.9 14.1-.3 1.7-2.7 16.8-2.9 23.3l-12.1-.1zm13.1.1c.2-6.6 2.7-21.7 2.9-23.2v-.1l-.1-.1c-1.2-2.5-4.9-11.7-6-14.5.8-.7 1.7-1.4 2.5-1.8.1-.1.3-.1.4-.1.1 0 .3-.1.5-.1l1.1-.2c.8-.1 1.5-.2 2.3-.3 1.5-.2 3-.3 4.5-.5l4.5.5 2.3.2c.2 0 .4 0 .5.1.1 0 .2 0 .3.1.3.1.5.3.8.5 1 .7 1.9 1.6 2.8 2.5-1.5 3.5-5.4 13.3-5.5 13.4v.2c.6 4 2.7 20.3 3.1 23.5l-16.9-.1zm18 .3c-.2-1.5-2.5-19.7-3.1-23.9.4-1.1 3.8-9.4 5.2-12.9 1 1 1.9 2 2.8 3 2 2.3 4 4.6 5.9 7 .5.6 1 1.2 1.4 1.8.4.6.8 1.3 1.1 2l1.3 2.5-1.5 5.7c-1.3 4.9-2.7 9.9-4.2 14.8-2.9.1-5.9.1-8.9 0zm11.4-.7c2.7-9.4 5.1-18.9 7.2-28.5 1.1-5 2.1-10.1 3.1-15.1.4-2 .7-4.1 1.1-6.1 1-2.8 1.8-5.7 2.2-8.7l9.3 3.9c3.1 1.3 6.1 2.5 9.1 3.8l-.3.4c-.6.6-1.1 1.3-1.6 2-.7.9-1.3 1.8-1.9 2.8-1.3-.7-2.7-1.4-4-2l-4-1.9c-1.3-.6-2.7-1.3-4-1.8l7.5 4.7c2.3 1.4 4.6 2.8 6.9 4.1-1.7 3.4-3.4 6.8-5 10.2-1.8 3.6-3.4 7.3-5.1 11-1.7 3.7-3.3 7.4-4.9 11.1-1.5 3.4-2.9 6.8-4.2 10.3-3.9-.1-7.6-.2-11.4-.2zm52.6.5-18-.3-18-.1h-5.2c1.8-3.2 3.5-6.5 5.2-9.7 1.9-3.6 3.7-7.2 5.4-10.8 1.8-3.6 3.5-7.3 5.2-10.9 1.7-3.7 3.4-7.3 5-11l.3-.7-.7-.3c-1.2-.6-2.5-1.3-3.7-1.9.9-.7 1.7-1.5 2.5-2.3.3-.3.5-.6.8-.9h.1l14.5 4.5 7.2 2.3c2.4.8 4.8 1.5 7 2.4-1.6 2.8-2.9 5.9-3.5 9.1-.7 3.5-1.1 7-1.5 10.5-.4 3.5-.8 7-1 10.6-.2 3.3-.5 6.5-.6 9.8-.2-.3-.6-.3-1-.3zm1.2 0 .6-4.5.7-5.3c.5-3.5.8-7 1.2-10.5l1.2-10.5c.2-1.7.7-3.4 1.3-5.1.5-1.4 1-2.8 1.6-4.1l.4.2.4-.3c.6-.4 1.5-.7 2.1-.6.7.1 1.3.5 1.7 1.2.9 1.4 1.2 3.4 1.6 5.3.7 3.8 1.2 7.6 1.7 11.5.5 3.8.9 7.7 1.2 11.6.3 3.8.6 7.5.6 11.3-5.3 0-10.8-.1-16.3-.2z" fill="#1f1f1f" stroke-width="none" opacity="1" stroke="none"></path><path id="SvgjsPath44450" d="M111 174.5c3.5.2 9.7 9.1 9.7 9.1s8.9-15.3 9.7-19c.8-3.6 2-14.2 2-14.2s-3 9.7-3.8 11.1-17.6 13-17.6 13zm-33.5 15c2-3.5 8.4-11.7 9.9-12.5 1.5-.8 7.6-1.6 7.6-1.6l-15-10.9s2.1 8.2 2.1 10.1-4.6 14.9-4.6 14.9z" fill="#ffffff" stroke-width="none" opacity="1"></path><path id="SvgjsPath44451" d="M184.7 180.9c2.3.8 3.3 6.6 4.1 9.7.8 3.1 2.3 25.1 2.3 25.1s-3.1-25.1-4.6-28.7c-1.5-3.6-1.8-6.1-1.8-6.1zM155 172c1.5-.2 21.9 5.8 25.7 8.2 0 0-10.6-2.3-15.3-3.6-4.8-1.3-10.4-4.6-10.4-4.6zm-16.3-2.6c1 .5 13 7.8 13 7.8s-11.7 24.1-12.9 27.1-5.4 11.7-5.4 11.7 6.1-16.8 7.8-22.6c1.6-5.8 6.1-15.7 6.1-15.7l-8.6-8.3zm-74.2-2.8c.5 5.3 7.8 40.6 10.9 47.8 0 0-6.6-15.3-9.7-29.5-3.2-14.2-1.2-18.3-1.2-18.3z" fill="#4d4d4d" stroke-width="none" opacity="1" stroke="none"></path></g><g id="svga-group-head" transform="matrix(1,0,0,1,0,0)"><g id="svga-group-ears-left-move" transform="matrix(1,0,0,1,0,0)"><g id="svga-group-ears-left" transform="matrix(1,0,0,1,0,0)"><path id="SvgjsPath43951" d="M68.41 84.17s-2.58-5.02-4.51-7.21-6.82-5.79-7.98-5.54-6.31 14.04-6.82 16.1c-.52 2.06 6.18 8.63 6.82 9.79.64 1.16.52 3.99.39 4.76s5.15 2.83 7.85 2.19c2.71-.65 10.05-9.54 4.25-20.09z" fill="#ebaa82" stroke-width="none" opacity="1" stroke="none"></path><path id="SvgjsPath43952" d="M68.03 90.6s-5.92-8.11-9.91-10.82c-3.99-2.7-5.67 7.73-5.41 8.76s4.64 6.31 6.31 7.08 7.33-.64 9.01-5.02z" fill="#dc9164" stroke-width="none" opacity="1" stroke="none"></path><path id="SvgjsPath43953" d="M49.09 87.02c-.06.22-.14.41-.16.67 0 .24.03.48.11.7.29.87.78 1.62 1.26 2.35.49.73 1.03 1.43 1.58 2.12 1.09 1.38 2.25 2.71 3.34 4.05.13.17.27.34.36.49.09.15.15.33.21.52.11.38.16.8.19 1.22.06.84.05 1.71-.04 2.55l-.04.31c-.02.4.16.52.24.63.21.22.41.34.61.47.41.25.82.44 1.24.61.84.35 1.69.62 2.57.82.88.2 1.78.33 2.72.29.47-.02.95-.08 1.43-.3.26-.08.43-.23.64-.35.21-.12.39-.27.57-.42 2.81-2.39 4.39-5.88 4.78-9.42.13-.89.07-1.78.07-2.67-.12-.88-.17-1.77-.43-2.62-.36-1.73-1.1-3.35-1.9-4.91-.79-1.57-1.65-3.09-2.54-4.6-.45-.76-.92-1.5-1.44-2.22-.53-.72-1.15-1.36-1.79-1.97a28.138 28.138 0 0 0-4.17-3.28c-.38-.24-.76-.48-1.18-.67-.2-.1-.43-.18-.65-.27-.24-.06-.49-.15-.87-.07-.46.23-.48.42-.65.62-.13.2-.25.39-.36.59-.22.39-.42.79-.61 1.19-1.46 3.22-2.59 6.54-3.8 9.83l-.87 2.48-.42 1.26zm.13.69c.01-.17.09-.4.14-.6l.4-1.25c.28-.83.59-1.65.9-2.47.61-1.64 1.28-3.26 1.97-4.86.69-1.6 1.41-3.2 2.19-4.75.19-.39.39-.77.6-1.14.11-.18.22-.36.33-.53.06-.09.12-.15.17-.23.03-.04.08-.07.09-.08.03 0 .08 0 .14.01.09.02.17.04.26.07.18.07.37.14.56.24.37.18.75.39 1.12.6 1.47.89 2.86 1.95 4.2 3.05.66.56 1.3 1.14 1.85 1.8.55.66 1.06 1.38 1.55 2.1.97 1.45 1.83 2.98 2.66 4.52 1.61 3.08 2.43 6.67 1.76 10.07-.3 1.69-.84 3.33-1.65 4.84-.81 1.49-1.83 2.91-3.12 3.96-.16.14-.32.26-.49.36-.17.09-.34.24-.51.28-.31.16-.72.21-1.12.22-.81.03-1.66-.09-2.49-.26-.83-.18-1.65-.42-2.44-.73a9.77 9.77 0 0 1-1.13-.53c-.17-.1-.34-.22-.44-.31l-.03-.03.03-.26c.07-.91.08-1.8-.01-2.7a7.4 7.4 0 0 0-.26-1.36c-.08-.23-.16-.46-.31-.69a5 5 0 0 0-.43-.55c-1.16-1.35-2.37-2.59-3.51-3.92-.57-.66-1.12-1.33-1.64-2.03-.51-.7-1.01-1.43-1.28-2.23-.03-.22-.06-.42-.06-.61z" fill="#dc9164" stroke-width="none" opacity="1" stroke="none"></path><path id="SvgjsPath43954" d="M54.5 82.01c.34-.68.71-1.4 1.37-1.89.31-.25.82-.37 1.21-.16.39.19.65.53.87.83.92 1.24 1.7 2.57 2.38 3.94 1.31 2.76 2.4 5.61 3.21 8.56l-.08.03c-1.35-2.74-2.56-5.51-3.83-8.25-.62-1.37-1.2-2.78-1.98-4.06-.19-.33-.41-.61-.7-.78-.29-.16-.64-.09-.93.11-.56.44-.91 1.14-1.21 1.81-.55 1.39-.85 2.89-.94 4.35-.02.36-.02.73.04 1.06.02.17.06.31.11.43.09.16.16.32.26.47.37.63.8 1.24 1.25 1.84.45.6.9 1.2 1.38 1.78l.71.87c.06.07.12.13.18.2.2-.53.34-1.18.48-1.78l.43-2.13c-.6-.94-1.19-1.89-1.75-2.86l.07-.05c.75.89 1.48 1.79 2.19 2.7l.06.07-.01.12A29.5 29.5 0 0 1 59 91.5c-.14.77-.2 1.49-.53 2.33-.04.07-.05.11-.12.2-.03.04-.05.07-.13.13-.03.03-.07.05-.1.07-.06.03-.14.05-.21.05-.13.02-.29-.07-.35-.11l-.07-.06a.769.769 0 0 1-.13-.12c-.15-.15-.28-.29-.41-.43-.26-.29-.51-.58-.76-.88-.48-.6-.96-1.2-1.39-1.84-.44-.63-.86-1.28-1.24-1.97-.1-.17-.18-.36-.27-.54-.09-.24-.14-.46-.16-.67-.04-.42-.01-.82.03-1.21.18-1.57.68-3.04 1.34-4.44z" fill="#bd6630" stroke-width="none" opacity="1" stroke="none"></path></g></g><g id="svga-group-ears-right-move" transform="matrix(1,0,0,1,0,0)"><g id="svga-group-ears-right" transform="matrix(1,0,0,1,0,0)"><path id="SvgjsPath43955" d="M131.59 84.17s2.58-5.02 4.51-7.21 6.82-5.79 7.98-5.54 6.31 14.04 6.82 16.1c.52 2.06-6.18 8.63-6.82 9.79-.64 1.16-.52 3.99-.39 4.76.13.77-5.15 2.83-7.85 2.19-2.71-.65-10.05-9.54-4.25-20.09z" fill="#ebaa82" stroke-width="none" opacity="1" stroke="none"></path><path id="SvgjsPath43956" d="M131.97 90.6s5.92-8.11 9.91-10.82c3.99-2.7 5.67 7.73 5.41 8.76-.26 1.03-4.64 6.31-6.31 7.08s-7.33-.64-9.01-5.02z" fill="#dc9164" stroke-width="none" opacity="1" stroke="none"></path><path id="SvgjsPath43957" d="m150.49 85.77-.87-2.48c-1.22-3.29-2.34-6.61-3.8-9.83-.19-.4-.39-.8-.61-1.19-.11-.2-.22-.39-.36-.59-.17-.2-.19-.39-.65-.62-.38-.08-.63.01-.87.07-.23.08-.45.16-.65.27-.42.19-.8.43-1.18.67-1.5.97-2.89 2.06-4.17 3.28-.64.61-1.26 1.25-1.79 1.97-.53.71-.99 1.46-1.44 2.22-.89 1.51-1.76 3.04-2.54 4.6-.8 1.56-1.54 3.17-1.9 4.91-.26.85-.3 1.74-.43 2.62 0 .89-.06 1.78.07 2.67.38 3.54 1.96 7.03 4.78 9.42.17.15.36.3.57.42.21.12.38.27.64.35.49.23.96.28 1.43.3.94.04 1.84-.09 2.72-.29.88-.2 1.74-.47 2.57-.82.42-.18.83-.37 1.24-.61.2-.13.4-.25.61-.47.08-.12.26-.23.24-.63l-.04-.31c-.09-.84-.09-1.71-.04-2.55.03-.42.09-.84.19-1.22.06-.19.12-.37.21-.52.1-.15.23-.33.36-.49 1.1-1.34 2.26-2.67 3.34-4.05.55-.69 1.08-1.39 1.58-2.12.49-.74.97-1.48 1.26-2.35.07-.22.11-.45.11-.7-.02-.27-.1-.45-.16-.67l-.42-1.26zm.19 2.53c-.27.8-.77 1.53-1.28 2.23s-1.07 1.37-1.64 2.03c-1.14 1.33-2.36 2.57-3.51 3.92-.14.17-.29.34-.43.55-.14.23-.23.46-.31.69a7.4 7.4 0 0 0-.26 1.36c-.09.9-.09 1.79-.01 2.7l.03.26c-.01.01-.01.02-.03.03-.1.1-.27.22-.44.31-.35.2-.73.38-1.13.53-.79.31-1.61.55-2.44.73-.83.17-1.67.29-2.49.26-.4-.01-.81-.07-1.12-.22-.17-.04-.34-.18-.51-.28-.17-.09-.33-.22-.49-.36-1.29-1.05-2.31-2.47-3.12-3.96-.81-1.5-1.35-3.15-1.65-4.84-.67-3.4.14-6.99 1.76-10.07.83-1.54 1.69-3.07 2.66-4.52.49-.72 1-1.43 1.55-2.1.55-.66 1.19-1.24 1.85-1.8 1.34-1.1 2.73-2.16 4.2-3.05.37-.22.74-.43 1.12-.6.19-.1.37-.17.56-.24.09-.03.17-.04.26-.07.07-.01.11-.01.14-.01.01.01.06.05.09.08.06.08.12.14.17.23.12.16.22.35.33.53.21.37.41.75.6 1.14.78 1.55 1.5 3.15 2.19 4.75.7 1.6 1.36 3.22 1.97 4.86.31.82.62 1.64.9 2.47l.4 1.25c.06.2.13.43.14.6.04.21.01.41-.06.61z" fill="#dc9164" stroke-width="none" opacity="1" stroke="none"></path><path id="SvgjsPath43958" d="M145.5 82.01c-.34-.68-.71-1.4-1.37-1.89-.31-.25-.82-.37-1.21-.16-.39.19-.65.53-.87.83-.92 1.24-1.7 2.57-2.38 3.94-1.31 2.76-2.4 5.61-3.21 8.56l.08.03c1.35-2.74 2.56-5.51 3.83-8.25.62-1.37 1.2-2.78 1.98-4.06.19-.33.41-.61.7-.78.29-.16.64-.09.93.11.56.44.91 1.14 1.21 1.81.55 1.39.85 2.89.94 4.35.02.36.01.73-.04 1.06-.02.17-.06.31-.11.43-.09.16-.16.32-.26.47-.37.63-.8 1.24-1.25 1.84-.45.6-.9 1.2-1.38 1.78l-.71.87c-.06.07-.12.13-.18.2-.2-.53-.34-1.18-.48-1.78l-.43-2.13c.6-.94 1.19-1.89 1.75-2.86l-.07-.05c-.75.89-1.48 1.79-2.19 2.7l-.06.07.01.12c.06.76.15 1.52.27 2.28.14.77.2 1.49.53 2.33.04.07.05.11.12.2.03.04.05.07.13.13.03.03.07.05.1.07.06.03.14.05.21.05.13.02.29-.07.35-.11l.07-.06c.05-.04.1-.08.13-.12.15-.15.28-.29.41-.43.26-.29.51-.58.76-.88.48-.6.96-1.2 1.39-1.84.44-.63.86-1.28 1.24-1.97.1-.17.18-.36.27-.54.09-.24.14-.46.16-.67.04-.42.01-.82-.03-1.21-.18-1.57-.68-3.04-1.34-4.44z" fill="#bd6630" stroke-width="none" opacity="1" stroke="none"></path></g></g><g id="svga-group-faceshape-wrap" transform="matrix(1,0,0,1,0,0)"><g id="svga-group-faceshape-single"><path id="SvgjsPath44031" d="M140.23 54.83c-2.2-10-6.4-15.85-15.3-20.65-9.3-5-24.9-4.73-24.9-4.73s-15.93-.18-25.23 4.82c-8.8 4.8-12.86 10.64-15.06 20.64-.9 4 .02 13.62.02 13.62s1 9.87.7 16.37c-.3 6.6-1.06 19.94.34 21.94s32.47 42.97 33.97 44.17c1.4 1.1 8.83 1.18 10.23.08s32.45-42.47 33.95-44.47c1.4-2 .69-14.44.39-21.04s.47-15.29.47-15.29 1.32-11.46.42-15.46z" fill="#ebaa82" stroke-width="none" opacity="1" stroke="none"></path><path id="SvgjsPath44032" d="M139.64 84.83c-.3-6.6.66-16.33.66-16.33s1.02-9.58.12-13.68c-2.2-10-6.42-15.92-15.32-20.72-9.3-5-25.2-4.8-25.2-4.8s-15.9-.2-25.2 4.8C66 38.9 61.8 44.9 59.6 54.9c-.9 4 0 13.6 0 13.6s1.1 9.9.8 16.4c-.3 6.6-1.1 20 .3 22 1.4 2 32.5 43.2 34 44.4 1.4 1.1 9.2 1.1 10.6 0s32.5-42.4 34-44.4c1.4-2 .64-15.47.34-22.07zM84.2 31.8c3.1-.6 6.3-1.1 9.5-1.3 1.6-.1 3.2-.25 4.8-.3 1.6-.05 3.2 0 4.8 0 3.2.1 6.4.3 9.6.8s6.1 1.32 9.1 2.42c1.03.3 10.98 5.34 14.33 12.04 1.46 2.92 2.63 6.19 3.33 9.29.89 3.46.44 8.95.34 10.05-.1 1.1-.2 2.3-.3 3.4-.2 1.6-.47 3.17-.57 4.87-.2 1.6-.23 3.23-.33 4.93-.1 1.6.2 8.3.2 10 .1 3.2.2 10.5.1 13.7 0 .8.02 2.48-.4 3.5-.53 1.19-1.6 2.7-1.6 2.7l-1.5 1.9c-4 5.2-7.9 9.4-11.8 14.6l-5.9 7.8-5.8 7.8-5.9 7.8c-.5.6-1 1.3-1.5 1.9-1.49.94-2.7.9-3.5 1s-3.8-.1-4.6-.2c-.4-.1-1.02-.11-1.6-.5-.24-.16-1.5-1.8-1.5-1.8l-1.5-1.9c-2-2.6-4-5.1-5.9-7.7l-11.8-15.5c-4-5.2-7.9-9.3-11.8-14.5l-1.5-1.9s-.74-1.21-.9-6.8c0-3.2.28-10.47.48-13.67.3-6.5-.25-13.11-.75-19.51-.2-3.2-.33-6.48-.03-9.68 0-.4.6-4.04.8-4.74.4-1.5 1-3 1.6-4.5s1.4-2.8 2.3-4.1c.9-1.3 1.9-2.5 3-3.6.5-.6 1.2-1 1.8-1.6.6-.5 1.2-1 1.9-1.4 1.3-.9 2.9-1.71 4.3-2.41 2.8-1.4 5.6-2.29 8.7-2.89" fill="#bd6630" stroke-width="none" opacity="1" stroke="none"></path></g></g><g id="svga-group-mouth-single-move" transform="matrix(1,0,0,1,0,0)"><g id="svga-group-mouth-single" transform="matrix(1,0,0,1,0,0)"><path id="SvgjsPath44269" d="M81.92 117.96s.27 1.88 3.14 5.11 7.53 10.04 8.79 10.67 14.26.99 14.88.99c.63 0 3.68-6.81 4.3-8.88.63-2.06 2.24-6.37 2.06-6.99 0 0-4.66 1.26-7.53 2.06-2.87.81-8.34 1.52-9.24 1.52-.79 0-9.76-2.06-16.4-4.48z" fill="#000000" stroke-width="none" opacity="1"></path><path id="SvgjsPath44270" d="M107.66 120.83c-2.87.81-8.34 1.52-9.24 1.52s-9.86-1.97-16.5-4.39c0 0 .27 1.88 3.14 5.11.72.81 1.61 1.88 2.51 3.05 2.51.63 6.64 1.61 8.88 1.97 0 0 .45-1.26.63-1.34.18-.09.18 1.43.18 1.43s4.12.9 6.55.72c0 0 .63-.45 1.43-.09 0 0 3.95-.54 7.26-1.17.27-.72.54-1.34.63-1.7.63-2.06 2.24-6.37 2.06-6.99 0-.1-4.66 1.07-7.53 1.88z" fill="#ffffff" stroke-width="none" opacity="1"></path><path id="SvgjsPath44271" d="M116.89 118.41c-.54-.54-1.26-1.17-2.24-1.17-.36 0-.54.18-.36.36.09.09.18.27.27.36-2.42.72-4.84 1.34-7.35 1.88-2.78.63-6.01 1.79-8.97 1.79-2.6 0-5.65-.99-8.16-1.61-2.42-.63-4.84-1.43-7.26-2.24.18-.09.36-.09.54-.18.36-.18.45-.54-.09-.63-.72-.18-1.43.09-1.97.36s-.99.72-.72 1.26c.09.18.36.18.54.18.09 0 .09 0 .18-.09.45 1.88 2.51 3.68 3.77 5.38 1.97 2.51 4.03 5.02 5.83 7.62.63.9 1.17 2.24 2.24 2.87.9.54 2.24.54 3.41.63 4.03.27 8.07.45 12.19.45.54 0 .9-.18 1.08-.45 2.87-5.02 4.75-10.31 6.1-15.69.18.36.36.72.81.99.27.18.72.18.9-.09.43-.73-.29-1.54-.74-1.98zm-8.69 15.6c-2.96 0-5.83-.09-8.79-.27-1.34-.09-3.77 0-4.84-.54-.99-.54-1.97-2.15-2.69-2.87-1.7-1.97-3.32-3.95-4.93-5.92-1.43-1.7-3.86-3.95-4.39-5.92 2.24.99 4.66 1.79 7.17 2.51 2.69.81 6.01 1.88 8.88 2.15 2.6.27 5.92-.9 8.25-1.52 2.69-.72 5.38-1.61 7.89-2.6-1.35 5.2-3.68 10.22-6.55 14.98z" fill="#a06b59" stroke-width="none" opacity="1"></path><path id="SvgjsPath44272" d="M116.36 115.54c-.27-.09-.63.09-.36.27.81.54 1.61 1.08 2.24 1.7s.9 1.26 1.43 1.88c.09.18.54.09.54-.09-.09-1.43-1.97-3.05-3.85-3.76z" fill="#e39d72" stroke-width="none" opacity="1"></path></g></g><g id="svga-group-eyes-left-move" transform="matrix(1,0,0,1,0,0)"><g id="svga-group-eyes-left" transform="matrix(1,0,0,1,0,0)"><g id="svga-group-eyesback-left"><path id="SvgjsPath44286" d="M80.2 74.2c7.5 0 13.5 5.8 13.5 13s-6 13-13.5 13-13.5-5.8-13.5-13 6-13 13.5-13z" fill="#ffffff" stroke-width="none" opacity="1"></path></g><g id="svga-group-eyesiriswrapper-left" transform="matrix(1,0,0,1,0,0)"><g id="svga-group-eyesiriscontrol-left" transform="matrix(1,0,0,1,0,0)"><g id="svga-group-eyesiris-left" transform="matrix(1,0,0,1,0,0)"><path id="SvgjsPath44404" d="M80.2 81.6c3.1 0 5.6 2.5 5.6 5.6s-2.5 5.6-5.6 5.6-5.6-2.5-5.6-5.6 2.5-5.6 5.6-5.6z" fill="#595a54" stroke-width="none" opacity="1" stroke="none"></path><path id="SvgjsPath44405" d="M80.2 84.2c1.7 0 3 1.3 3 3s-1.3 3-3 3-3-1.3-3-3 1.3-3 3-3z" fill="#000000" stroke-width="none" opacity="1"></path><path id="SvgjsPath44406" d="m79.5 84.8-.6-.6c-.2-.2-.5-.3-.8-.3s-.6.1-.8.3c-.2.2-.3.5-.3.8s.1.6.3.8l.6.6c.2.2.5.3.7.3.3 0 .6-.1.7-.3.6-.6.6-1.2.2-1.6zm2.7 5.1c1 0 1-1.5 0-1.5-.9 0-.9 1.5 0 1.5z" fill="#ffffff" stroke-width="none" opacity="1"></path></g></g></g><g id="svga-group-eyesfront-left"><path id="SvgjsPath44294" d="M80.2 73.7c-7.8 0-14.1 6.1-14.1 13.6s6.3 13.6 14.1 13.6 14.1-6.1 14.1-13.6S88 73.7 80.2 73.7zm-4.9 20.2c-4.8-1.7-6.4-6.7-7.2-10.1-.9-3.5 13.8-3.5 17.5-.4 3.8 3 5.3 7.3 5.5 9.6.1-.1-11 2.6-15.8.9z" fill="#ebaa82" stroke-width="none" opacity="1" stroke="none"></path><path id="SvgjsPath44295" d="M91.1 92.5c-.1-.5-.1-1-.3-1.4l-.3-.9c-.5-1.9-1.5-4.5-3-6.2-1.2-1.3-4.1-4.4-9-4.4s-8.2 1.6-8.8 1.9c-.2.1-.5.3-.7.5-.4.2-.8.5-1.1 1-.1.2-.1.3-.1.5-.1.1-.1.2-.1.2h.1c0 .1 0 .3.1.4.1.3.2.6.2.9l.6 1.8c.4 1.2.9 2.3 1.6 3.4.7 1.1 1.5 2 2.5 2.8s2.2 1.3 3.4 1.6c2.5.5 5 .3 7.5 0s4.9-.8 7.3-1.5c.2-.2.2-.4.1-.6zm0 .4c-2.4.4-4.9.8-7.3 1.1-1.2.1-2.5.2-3.7.2-1.2 0-2.5 0-3.7-.2-2.4-.4-4.6-1.9-5.8-4-.7-1-1.2-2.2-1.6-3.3-.2-.6-.4-1.2-.5-1.8-.1-.3-.2-.6-.2-.9 0-.2-.1-.3-.1-.4 1.4-.4 6.6-1.9 10.5-1.9 4.5.1 7.9 3.6 9.3 5.1 1.2 1.1 3 5.1 3.1 6.1z" fill="#000000" stroke-width="none" opacity="1" stroke="none"></path></g></g></g><g id="svga-group-eyes-right-move" transform="matrix(1,0,0,1,0,0)"><g id="svga-group-eyes-right" transform="matrix(1,0,0,1,0,0)"><g id="svga-group-eyesback-right"><path id="SvgjsPath44287" d="M119.8 74.2c7.5 0 13.5 5.8 13.5 13s-6 13-13.5 13-13.5-5.8-13.5-13 6-13 13.5-13z" fill="#ffffff" stroke-width="none" opacity="1"></path></g><g id="svga-group-eyesiriswrapper-right" transform="matrix(1,0,0,1,0,0)"><g id="svga-group-eyesiriscontrol-right" transform="matrix(1,0,0,1,0,0)"><g id="svga-group-eyesiris-right" transform="matrix(1,0,0,1,0,0)"><path id="SvgjsPath44407" d="M119.8 82.3c2.7 0 4.9 2.2 4.9 4.9s-2.2 4.9-4.9 4.9-4.9-2.2-4.9-4.9 2.2-4.9 4.9-4.9z" fill="#595a54" stroke-width="none" opacity="1" stroke="none"></path><path id="SvgjsPath44408" d="M119.8 84.6c1.4 0 2.6 1.2 2.6 2.6s-1.2 2.6-2.6 2.6-2.6-1.2-2.6-2.6 1.2-2.6 2.6-2.6z" fill="#000000" stroke-width="none" opacity="1"></path><path id="SvgjsPath44409" d="M119.2 85.1c-.2-.2-.3-.4-.5-.5-.2-.2-.4-.3-.7-.3-.2 0-.5.1-.7.3-.2.2-.3.4-.3.7 0 .2.1.5.3.7.2.2.4.3.5.5.2.2.4.3.7.3.2 0 .5-.1.7-.3.3-.5.3-1.1 0-1.4zm2.4 4.5c.8 0 .9-1.3 0-1.3-.8-.1-.8 1.3 0 1.3z" fill="#ffffff" stroke-width="none" opacity="1"></path></g></g></g><g id="svga-group-eyesfront-right"><path id="SvgjsPath44296" d="M119.8 73.7c-7.8 0-14.1 6.1-14.1 13.6s6.3 13.6 14.1 13.6 14.1-6.1 14.1-13.6-6.3-13.6-14.1-13.6zm5.3 19.5c-4.4 1.8-15 .1-15 .1.1-1.9 1.3-5.8 4.7-8.7 3.4-2.9 17.2-3.8 16.6-.7-.7 3.1-1.9 7.6-6.3 9.3z" fill="#ebaa82" stroke-width="none" opacity="1" stroke="none"></path><path id="SvgjsPath44299" d="M131.6 84.1s0-1.3-.9-1.7c-.6-.2-4.4-1-9.1-.7-2.6.2-4.6 1.1-6.1 2.1-.3.2-.6.3-.8.5-.9.8-1.7 1.6-2.4 2.6-1.3 1.9-2.3 4.1-2.3 6.4 0 .3.1.8.1.8s.1-.3.2-.7c2.2.4 4.3.7 6.6.8 1.2.1 2.3.1 3.4.1 1.2 0 2.3-.2 3.4-.4s2.2-.8 3.2-1.4c.9-.7 1.7-1.6 2.4-2.5.6-1 1.1-2 1.5-3.1.2-.5.3-1.1.5-1.7l.2-.8c0-.1 0-.1.1-.2v-.1zm-.4.1-.2.8c-.1.6-.3 1.1-.4 1.7-.4 1.1-.8 2.1-1.4 3.1-1.2 1.9-3.3 3.2-5.5 3.6-.6.1-1.1.2-1.7.3-.6 0-1.1.1-1.7.1-1.1.1-2.3.1-3.4 0-2.2-.1-4.4-.2-6.6-.4.4-1.5 1.5-4.6 2.4-5.7 1.2-1.5 4.2-4.5 8.5-4.9 3.6-.3 8.6.8 10 1.2v.2z" fill="#000000" stroke-width="none" opacity="1" stroke="none"></path></g></g></g><g id="svga-group-facehighlight-single"></g><g id="svga-group-eyebrows-left-move" transform="matrix(1,0,0,1,0,0)"><g id="svga-group-eyebrows-left-rotate" transform="matrix(1,0,0,1,0,0)"><g id="svga-group-eyebrows-left" transform="matrix(1,0,0,1,0,0)"><path id="SvgjsPath43915" d="M70.6 73.3s14.8.81 17.93.06c0 0 .82-2.14-.31-3.91s-19.1 2.72-19.1 2.72.24.93 1.48 1.13z" fill="#4e4341" stroke-width="none" opacity="1"></path><path id="SvgjsPath43916" d="M88.99 71.22c-.04-.43-.13-.85-.27-1.24-.08-.18-.15-.38-.25-.53-.05-.08-.08-.16-.15-.25-.09-.12-.16-.16-.23-.21-.27-.15-.51-.19-.75-.22s-.47-.05-.7-.05c-.47-.01-.92.02-1.38.05-1.83.16-3.63.49-5.43.86-1.8.37-3.58.78-5.37 1.22l-5.35 1.33h-.01v.01c.07.21.18.38.3.51.12.14.25.24.38.32.13.09.27.14.4.19.14.05.27.08.41.1-.14-.03-.27-.06-.41-.11-.14-.05-.27-.11-.4-.2-.13-.08-.26-.19-.38-.32-.11-.13-.22-.3-.29-.5.89-.22 1.78-.42 2.68-.61.9-.2 1.79-.38 2.69-.55 1.8-.35 3.6-.67 5.4-.95.9-.14 1.81-.27 2.71-.38.9-.12 1.81-.21 2.72-.27.45-.03.91-.05 1.36-.04.23 0 .45.02.68.05.22.03.45.08.63.18.04.03.08.06.09.07.03.04.07.12.11.18.08.12.13.28.2.42.11.3.18.62.21.96.06.63-.04 1.29-.21 1.83-.33.06-.66.13-1 .16l-.55.06-.56.04c-.74.05-1.48.09-2.23.12-1.49.06-2.98.07-4.48.08-1.49 0-2.99 0-4.49-.04-1.5-.03-3-.1-4.49-.17l9 .47c1.5.06 3 .12 4.49.14 1.5.01 2.99.03 4.49-.23l.08-.01.04-.11c.13-.36.21-.71.26-1.1.07-.41.09-.83.05-1.26z" fill="#3f312e" stroke-width="none" opacity="1"></path></g></g></g><g id="svga-group-eyebrows-right-move" transform="matrix(1,0,0,1,0,0)"><g id="svga-group-eyebrows-right-rotate" transform="matrix(1,0,0,1,0,0)"><g id="svga-group-eyebrows-right" transform="matrix(1,0,0,1,0,0)"><path id="SvgjsPath43917" d="M129.93 70.64s-13.82 1.75-16.83 1.43c0 0-.98-1.53-.09-2.95.89-1.41 18.2.55 18.2.55s-.14.72-1.28.97z" fill="#4e4341" stroke-width="none" opacity="1"></path><path id="SvgjsPath43918" d="m131.22 69.67-5.15-.58c-1.72-.19-3.44-.36-5.16-.49-1.72-.14-3.45-.25-5.18-.22-.43.01-.87.03-1.3.07-.22.02-.44.05-.66.09-.22.05-.44.09-.68.22-.06.04-.12.08-.19.17-.05.08-.08.13-.11.2-.08.12-.12.28-.18.42-.09.3-.14.63-.14.95a3.593 3.593 0 0 0 .5 1.72l.05.08h.07c1.43.07 2.83-.05 4.24-.18 1.4-.13 2.81-.29 4.21-.45l8.4-1.05c-1.4.17-2.8.33-4.2.47-1.4.15-2.81.26-4.21.38-1.4.11-2.81.22-4.21.29-.7.04-1.4.07-2.1.09l-.53.02h-.52c-.32.01-.64-.02-.96-.04-.21-.39-.37-.88-.37-1.35 0-.25.03-.5.11-.73.05-.11.08-.23.15-.33.03-.05.06-.12.08-.14.01-.01.04-.04.08-.06.16-.09.37-.15.58-.19.21-.04.42-.07.63-.09.42-.05.85-.06 1.28-.08.86-.03 1.72-.02 2.58-.01.86.02 1.72.04 2.58.08 1.72.07 3.45.17 5.17.29.86.06 1.72.12 2.58.2.86.07 1.72.16 2.57.25-.04.16-.13.29-.22.39-.1.11-.21.2-.32.27-.11.08-.24.13-.36.18-.12.05-.25.08-.37.11.13-.03.25-.06.37-.11s.24-.1.36-.18c.12-.07.23-.16.33-.27.06-.09.15-.22.2-.39z" fill="#3f312e" stroke-width="none" opacity="1"></path></g></g></g><g id="svga-group-beardwrap" transform="matrix(1,0,0,1,0,0)"><g id="svga-group-beard-single-move" transform="matrix(1,0,0,1,0,0)"><g id="svga-group-beard-single" transform="matrix(1,0,0,1,0,0)"><path id="SvgjsPath43905" d="M142.1 91.3c-2-4.1-3.8-7.2-4.9-6.9s-1.6 9.7-1.8 12.8-8.1 18.9-10.9 18.9c-3 0-4.2-1.7-5.6-2.6-4.4-2.8-10.6.5-18.5.2-4.6-.2-15-2.8-19.2-.2-2 1.2-3.1 3-6.5 1.8-3.1-1.5-10-13-10.3-17.3s-.8-10.7-1.6-12.5-3 3.6-4.8 7.2c-1.8 3.6-2.6 11.2-3 16.9s-.2 20 14.8 34.3c15 14.3 43.2 12.5 52.9 6.9 11.7-6.8 15.5-12.5 20-25.2 4.6-12.4 1.3-30.2-.6-34.3zm-28.3 44c-2.7 4-14.8 4.4-23.1 1.9-8.3-2.4-9.9-14.3-8.7-17.1 1.2-2.8 13.3-.1 17.9.1 6.6.3 17.1-1.7 17.9 1.4.9 3.2-1.4 9.7-4 13.7z" fill="#4e4341" stroke-width="none" opacity="1"></path><path id="SvgjsPath43906" d="M145.2 111.3c0-.1 0-.1 0 0v-1.4l.3 1.2c0-1.6-.2-3.2-.4-4.9 0-.4-.1-.9-.1-1.3-.2-2.3-.5-4.6-.9-6.9-.4-2.3-.9-4.6-1.9-6.7-.9-1.8-1.7-3.6-2.9-5.3l-.9-1.2c-.2-.2-.4-.3-.6-.4-.2-.1-.6-.2-.8.1-.3.4-.4.9-.5 1.4l-.3 1.5c-.3 2-.4 4-.6 6l-.2 3c0 .5 0 1-.2 1.5-.1.5-.3.9-.4 1.4-1.4 3.7-3.2 7.3-5.3 10.7-1 1.7-2.1 3.4-3.5 4.8-.3.3-.7.7-1.1.9-.1 0-.2.1-.3.1h-.3c-.2 0-.5 0-.7-.1-.9-.1-1.8-.5-2.6-1s-1.5-1.3-2.5-1.8c-.9-.5-2-.8-3-.9-2.1-.2-4.1.1-6.1.4-3.9.6-7.9 1.2-11.8.6-3.9-.5-7.9-1.2-12-1-1 .1-2 .2-3 .5s-2 .8-2.8 1.4c-.8.6-1.6 1.2-2.5 1.4-.9.2-1.8 0-2.8-.2-.9-.5-1.7-1.4-2.5-2.2-.8-.9-1.4-1.8-2.1-2.8-1.3-1.9-2.5-3.9-3.5-6s-2-4.2-2.2-6.5l-.6-6.9c-.1-1.2-.3-2.3-.5-3.5-.1-.6-.2-1.2-.5-1.7-.1-.1-.2-.3-.3-.4-.2-.1-.4 0-.6.1-.3.2-.5.4-.6.7-1.3 2-2.2 4.1-3.2 6.2-1.1 2.1-1.7 4.4-2.1 6.7-.1.3-.1.7-.2 1-.3.8-.6 1.7-.8 2.6.2-.2.3-.5.5-.7-.1.6-.2 1.2-.2 1.8-.1.4-.2.8-.3 1.1-.5 1.9-.8 3.9-.7 5.9.2-.8.4-1.7.6-2.5-.1 1.6-.2 3.1-.2 4.7v1.5c0 .8.1 1.5.2 2.2 0 .2 0 .3.1.5.1.6.2 1.3.3 1.9 0 .2 0 .3.1.4 0 .1 0 .2.1.4.1.4.2.9.3 1.3 0 .2.1.4.1.6.1.5.2.9.4 1.4v.2c.2 2.4.8 4.8 1.8 7-.2-1.1-.5-2.3-.6-3.4.6 1.5 1.2 3 2 4.4.5 1 1.1 2 1.7 3 .2.6.5 1.1.8 1.6.7 1.2 1.4 2.4 2.2 3.4-.3-.6-.6-1.2-.8-1.8.3.4.5.7.8 1 .1.1.1.2.2.3.7.8 1.3 1.6 2 2.4l.2.2c.6.6 1.1 1.2 1.7 1.8l.7.7c.1.1.3.2.4.4.3.2.5.5.8.7.2.2.4.3.6.5.5.4 1 .9 1.6 1.4.6.6 1.4 1 2.1 1.5.7.4 1.4 1 2.2 1.4.7.4 1.4.7 2.1 1.1.9.6 1.8 1.1 2.7 1.6 1.3.6 2.7 1.2 4.1 1.5-.9-.4-1.8-.9-2.6-1.4l2.7.9c.2.1.4.1.6.2.3.1.6.2.9.2.6.1 1.1.3 1.6.4.1 0 .2 0 .3.1.1 0 .2 0 .3.1.6.1 1.1.3 1.7.4l1.6.2.9.1c.4.1.8.1 1.3.2l1.3.1 2.5.2 2.5.1h2.6c.8 0 1.7 0 2.5-.1 1.7-.1 3.4-.2 5.1-.5 3.3-.5 6.7-1.2 9.9-2.5.8-.4 1.6-.8 2.3-1.1l2.2-1.3h.1c-.2.2-.5.5-.8.7 1.3-.8 2.4-1.6 3.6-2.6l.1-.1 1.2-.9c.2-.2.4-.3.6-.5.3-.2.6-.4.8-.7.3-.2.6-.5.8-.7l.6-.6.9-.9c.2-.2.4-.5.7-.7.2-.2.4-.4.6-.7.2-.2.3-.4.5-.6.3-.3.5-.7.8-1 .1-.1.2-.3.3-.4-.1.1-.1.2-.1.3-.7 1.4-1.4 2.7-2.2 4.1 1-1.2 1.9-2.5 2.7-3.8.8-1.3 1.5-2.7 2.1-4.2.1-.3.2-.7.4-1 .6-1.2 1.2-2.4 1.7-3.6.1-.3.2-.6.4-.9.1-.1.1-.2.2-.4s.2-.5.3-.7c-.2.7-.5 1.5-.8 2.2.7-1.1 1.3-2.3 1.8-3.5.5-1.2.9-2.5 1.2-3.8.2-1 .4-1.9.4-2.9.1-.3.1-.6.2-.9 0-.1 0-.2.1-.3 0-.1 0-.2.1-.2-.1 1.8-.3 3.6-.4 5.4.7-2.3 1.1-4.6 1.2-7 .1-1.5 0-3-.1-4.5-.5-1.2-.4-2.3-.4-3.4zM58.4 92.2c1-2.1 1.9-4.3 3.1-6.2.3-.4.8-1 1-.4.2.5.3 1.1.5 1.6.2 1.1.3 2.3.5 3.4l.6 6.9c.2 2.4 1.2 4.5 2.2 6.6 1 2.1 2.2 4.1 3.5 6.1.7 1 1.3 1.9 2.1 2.8.8.9 1.5 1.8 2.6 2.4 1 .3 2 .6 3.1.3 1.1-.2 1.9-.9 2.8-1.5.8-.6 1.6-1.1 2.5-1.3.9-.2 1.9-.4 2.9-.4 3.9-.1 7.9.6 11.8 1.1 4 .6 8.1.1 12-.6 2-.3 3.9-.6 5.9-.4 1 .1 1.9.3 2.7.8.8.4 1.5 1.1 2.4 1.7.8.6 1.9 1 2.9 1.1h.8c.1 0 .3 0 .5-.1.1-.1.3-.1.4-.2.5-.3.9-.7 1.2-1 1.4-1.5 2.4-3.2 3.5-5 2-3.5 3.8-7.1 5.1-10.9.2-.5.3-1 .4-1.5.1-.5.1-1 .1-1.5l.1-3c.1-2 .3-4 .6-6 .1-.5.1-1 .3-1.5.1-.5.2-1 .5-1.4.1-.2.4-.1.6-.1.2.1.4.2.6.4.4.3.7.7.9 1.1 1.1 1.7 2 3.4 2.9 5.2.9 2.1 1.4 4.4 1.8 6.7.4 2 .6 4 .8 6v.3c0-.2-.1-.3-.1-.5-.1-.3-.2-.6-.2-.9-.6-2.2-1.3-4.4-2.4-6.4.6 2.4 1.2 4.8 1.8 7.3.4 1.6.8 3.3 1.1 4.9v2.5c0 .5 0 1-.1 1.5-.1-.2-.1-.5-.1-.8v1.2c-.1-1.5-.3-3-.7-4.5-.1 2.1 0 4.1-.1 6.1 0 1.3 0 2.6-.1 3.9l-.3 2.4c-.1.8-.3 1.6-.4 2.4-.2.7-.4 1.3-.6 2-.7 1.9-1.4 3.8-2.2 5.6.2-1.1.4-2.2.5-3.3h-.1c-.4 1.5-.8 3-1.3 4.4-.3 1-.7 1.9-1 2.9-1.4 2.6-3.1 5.1-5.1 7.3l.6-.9c.8-1.2 1.5-2.5 2.1-3.9-.9 1.2-1.7 2.4-2.6 3.6-.9 1.1-1.8 2.3-2.8 3.4-.4.4-.8.9-1.2 1.3-.8.6-1.6 1.2-2.5 1.8-.9.7-1.9 1.3-2.9 1.9l-1.5.9c-.5.3-1 .5-1.5.8l-.8.4-.8.3-1.6.6c-1.1.3-2.2.7-3.3.9-2.2.5-4.5.8-6.8 1-4.4.4-8.9.3-13.4-.2-.3 0-.6-.1-.9-.1-.2 0-.5-.1-.7-.1-.3-.1-.7-.1-1.1-.2-.7-.1-1.3-.2-1.9-.4-1.2-.2-2.3-.5-3.5-.8-.1 0-.2-.1-.4-.1-.1-.1-.3-.1-.4-.2-2.2-1-4.4-2.1-6.5-3.4.8.8 1.7 1.4 2.6 2.1-.3-.1-.6-.2-.9-.4-.5-.2-1.1-.4-1.6-.7-.1-.1-.2-.1-.4-.2-.9-.7-1.9-1.4-2.8-2.2-1.1-.9-2.1-1.8-3.1-2.8-.4-.5-.8-.9-1.3-1.4.1.1.2.3.2.4-.9-.9-1.8-1.8-2.6-2.8-1-1.2-2-2.4-3-3.7.7 1.4 1.6 2.8 2.6 4 .9 1.3 2 2.5 3.2 3.6.7.6 1.3 1.2 2 1.8 0 .1.1.1.1.1l.4.4c-1.2-.8-2.4-1.7-3.6-2.7.4.3.9.7 1.4 1-1.7-1.8-3.3-3.5-4.9-5.3-.9-1-1.7-2.1-2.6-3.2-1-1.9-1.9-3.9-2.7-5.9 0 .2.1.4.1.6 0 1.4.4 2.8.8 4.1-.7-.9-1.3-1.8-1.8-2.8-.2-.5-.4-1-.5-1.4v-.1l.6.9c-.8-2.2-1.5-4.3-2.1-6.4-.6-2.2-1.1-4.4-1.6-6.6-.1 2.3.3 4.6.9 6.8.2.5.3 1 .5 1.5v.3c.1.6.2 1.1.4 1.6v-.1c-.7-1.5-1.4-3-1.9-4.6v-.1c-.1-.4-.3-.8-.4-1.2 0-.1-.1-.3-.1-.4v-.2c-.2-2.4-.2-4.7-.1-7.2-.4 1.4-.6 2.8-.7 4.3-.6-2.8-.9-5.8-.9-8.7.1-2.2.2-4.4.4-6.6.5-1.9 1.1-3.7 1.7-5.6-.5.8-1 1.6-1.3 2.4 0-.4.1-.7.2-1.1.3-.5.5-1.1.8-1.6.5-1.2 1-2.4 1.2-3.7-.6.8-1.1 1.8-1.6 2.7 0-.1.1-.3.1-.4.5-1.1 1-2.9 1.9-4.6zm26.4 26.4c-.5.1-1 .1-1.5.3-.5.2-1 .4-1.4.9-.3.5-.3 1-.4 1.5-.1.5-.1 1-.1 1.5 0 .8.1 1.6.2 2.3-.1-.6-.3-1.1-.4-1.7 0 .4 0 .8.1 1.3-.2-.5-.4-1-.6-1.6.1 1.2.4 2.5.8 3.7.1.3.1.7.2 1 .3 1.4.8 2.8 1.4 4.2.6 1.4 1.3 2.6 2.2 3.9.8 1.2 1.8 2.3 2.9 3.3-.9-1.2-1.7-2.4-2.4-3.6-.6-1.1-1.2-2.2-1.7-3.3.4.6.8 1.3 1.3 1.9.3.3.6.7.9 1 .1.1.1.1.1.2 1 1.1 2.2 2.1 3.4 3-.5-.5-1-1.1-1.5-1.6.7.4 1.4.7 2.1.9 3.9 1.2 8 1.6 12.1 1.4 2-.1 4.1-.4 6-.9 1-.3 1.9-.6 2.9-1 .9-.5 1.8-1 2.4-1.9 1.1-1.7 2-3.5 2.8-5.4.8-1.9 1.4-3.8 1.7-5.8.1-.5.1-1 .1-1.6 0-.3 0-.5-.1-.8 0-.2-.2-.6-.3-.8-.4-.5-.9-.8-1.4-1-.5-.2-1-.3-1.6-.4-2.1-.3-4.1-.2-6.1-.1l-4.1.2c.1-.6.1-1.2-.1-1.8-.2-.7-.6-1.4-1.2-1.8.1.8.3 1.4.5 2 .2.5.3 1 .6 1.6l-1.7.1c-1 0-2 .1-3 0-.5 0-1-.1-1.5-.1.5-.8.8-1.6.9-2.4.2-.9.2-1.8 0-2.8-.4.9-.5 1.8-.7 2.7-.2.8-.3 1.7-.3 2.6-.4-.1-.9-.1-1.3-.2-2-.2-4-.5-6-.7s-4.2-.4-6.2-.2zm24.1 1.8c2-.1 4-.2 5.9 0 .9.1 2 .3 2.4.9.2.3.3.8.3 1.2v1.5c-.3 3.9-1.8 7.8-3.9 11.2-1.2 1.6-3.3 2.3-5.2 2.7-2 .4-4 .5-6 .5-4-.1-8-.6-11.8-1.6-1.5-.4-2.9-1.2-4.1-2.2-.8-1.1-1.6-2.1-2.3-3.3-.7-1.1-1.3-2.3-1.9-3.6-.5-1.6-.7-3.2-.8-4.9 0-1 .1-2 .5-2.8.2-.3.7-.5 1.2-.7.5-.1.9-.2 1.4-.2 2-.1 4 .2 5.9.4 2 .2 4 .6 6 .8 4.3.8 8.4.4 12.4.1zm-52.2-18.6c-.7 1.3-1 2.8-1.2 4.3-.2 1.5-.2 3 .2 4.4.2-1.5.4-2.9.5-4.3.2-1.5.4-2.9.5-4.4zm21.8 45.8c1.1.9 2.2 1.6 3.3 2.3 1.2.7 2.4 1.3 3.6 1.9s2.5 1 3.8 1.3l-3.6-1.8c-1.2-.6-2.4-1.3-3.5-2-1.2-.7-2.3-1.4-3.4-2.1-1.1-.8-2.2-1.5-3.3-2.3 1 .9 2 1.8 3.1 2.7zM61 126.4c.5 1.3 1 2.5 1.7 3.7.7 1.2 1.4 2.4 2.2 3.4-.6-1.2-1.2-2.4-1.7-3.7-.5-1.2-1-2.5-1.5-3.7-.5-1.3-.9-2.5-1.2-3.8-.4-1.3-.7-2.6-1-3.9 0 1.4.2 2.7.5 4.1.1 1.3.5 2.6 1 3.9zm5.9 8.8c-.6-1.5-1.3-3-1.9-4.5-.6-1.5-1.1-3-1.8-4.6 0 1.7.5 3.3 1.1 4.9.6 1.5 1.4 2.9 2.6 4.2zm3.2 2.3c.5 1.3 1 2.5 1.7 3.7.7 1.2 1.4 2.4 2.2 3.4-.6-1.2-1.2-2.4-1.7-3.7-.5-1.2-1-2.5-1.5-3.7-.5-1.3-.9-2.5-1.2-3.8-.4-1.3-.7-2.6-1-3.9 0 1.4.2 2.7.5 4.1.2 1.3.6 2.6 1 3.9zm5.9 8.7c-.6-1.5-1.3-3-1.9-4.5-.6-1.5-1.1-3-1.8-4.6 0 1.7.4 3.3 1.1 4.9.7 1.5 1.5 3 2.6 4.2zm-20-35.4c0 .7 0 1.5.2 2.2.4-.7.5-1.4.6-2.1 0-.7 0-1.5-.2-2.2-.4.7-.5 1.4-.6 2.1zm27.7 5c1.6-.9 3.4-1.2 5.2-1.8-1.9-.1-3.8.2-5.6 1.1-.9.5-1.6 1.1-2.2 1.9-.6.8-.9 1.8-.9 2.7.2-.9.7-1.7 1.3-2.3.7-.6 1.4-1.2 2.2-1.6zM85 118c1.5-.8 3-1.7 4.5-2.4s3.1-1.3 4.7-2c-1.7.1-3.4.6-5 1.3-1.6.8-3 1.8-4.2 3.1zm6.9.6c.8-.7 1.4-1.3 2.2-1.9.7-.6 1.4-1.2 2.2-1.9-1 .1-1.9.6-2.7 1.3-.8.6-1.4 1.5-1.7 2.5zm25.9-.3c1 1.7 1.6 3.6 1.8 5.6.4-2-.1-4.2-1.1-6-1-1.8-2.6-3.3-4.5-4.1 1.6 1.3 2.8 2.8 3.8 4.5zm4.3 3.4c0-1.5-.4-2.9-1.1-4.2-.7-1.3-1.6-2.5-2.8-3.4.8 1.3 1.5 2.4 2.1 3.7.7 1.2 1.2 2.5 1.8 3.9zm-43.9-1.9c.3-1.5.8-2.9 1.4-4.3-1.1 1.1-1.8 2.6-2.2 4.2-.3 1.6-.2 3.2.4 4.7.1-1.6.1-3.1.4-4.6z" fill="#3f312e" stroke-width="none" opacity="1"></path></g></g></g><g id="svga-group-mustache-single-move" transform="matrix(1,0,0,1,0,0)"><g id="svga-group-mustache-single" transform="matrix(1,0,0,1,0,0)"></g></g><g id="svga-group-nose-single-move" transform="matrix(1,0,0,1,0,0)"><g id="svga-group-nose-single" transform="matrix(1,0,0,1,0,0)"><path id="SvgjsPath44115" d="M109.17 110.81c-.53.26-3.47.14-4.2-.24 0 0 .03 2.05-.87 2.91-.9.87-3.09 1.28-4.65 1.28-1.56 0-3.99-.31-4.47-1.21-.49-.9-.59-2.81-.59-2.81s-1.8.28-2.5.1c-.69-.17-2.67-.83-3.02-3.05-.35-2.22.42-3.99 1.94-5.06 1.53-1.07 5.51-1.94 10.68-1.66s6.93 1.32 7.97 1.98c1.04.66 1.53 3.22 1.11 4.82s-.63 2.56-1.4 2.94z" fill="#ebaa82" stroke-width="none" opacity="1" stroke="none"></path><path id="SvgjsPath44116" d="M93.99 90.35c.55.63.95 1.39 1.25 2.17.3.79.49 1.62.55 2.47.08.85-.01 1.71-.22 2.53-.19.83-.59 1.6-1.08 2.27.16-.83.35-1.59.4-2.39.07-.78.08-1.57.01-2.35-.06-.78-.17-1.56-.33-2.34-.16-.78-.35-1.56-.58-2.36z" fill="#bd6630" stroke-width="none" opacity="1" stroke="none"></path><path id="SvgjsPath44117" d="M105.98 110.78c.88.1 1.8.14 2.62-.08.1-.03.2-.06.29-.1.09-.03.14-.08.22-.14.14-.12.27-.28.38-.45.23-.34.4-.74.55-1.14.56-1.61.54-3.45-.32-4.88-.22-.37-.44-.67-.77-.92-.32-.26-.7-.46-1.1-.65-.8-.36-1.66-.62-2.53-.79-1.75-.35-3.56-.42-5.35-.37-1.79.06-3.58.19-5.33.43-.88.12-1.69.32-2.44.71-.75.38-1.44.88-2.01 1.49-.57.6-1 1.34-1.17 2.12-.08.39-.09.79-.01 1.18.08.42.2.83.36 1.22.32.77.83 1.49 1.56 1.92.37.21.77.36 1.2.44.43.08.87.07 1.32.04l.02.09c-.87.23-1.86.23-2.74-.18-.88-.4-1.55-1.17-1.98-2.02-.21-.43-.37-.88-.49-1.34-.13-.48-.14-1.01-.07-1.5.15-1 .67-1.88 1.31-2.6a7.198 7.198 0 0 1 3.66-2.17c.47-.11.93-.17 1.39-.23 1.82-.2 3.64-.19 5.44-.08 1.81.11 3.6.28 5.39.55.89.14 1.79.3 2.67.59.44.15.88.34 1.29.6.21.13.4.29.59.47.18.2.31.38.45.59.54.81.81 1.79.83 2.74.03.96-.16 1.91-.52 2.78-.18.44-.41.86-.71 1.24-.15.19-.32.38-.53.53-.1.08-.24.15-.37.19-.12.03-.24.07-.36.08-.48.09-.95.05-1.4 0-.46-.06-.9-.15-1.34-.29v-.07z" fill="#bd6630" stroke-width="none" opacity="1" stroke="none"></path><path id="SvgjsPath44118" d="M91.77 110.11c.15-.48.59-.89 1.13-.97.26-.04.54-.05.82.07.28.12.49.36.61.6.25.5.32 1.02.42 1.51.09.49.16.98.3 1.42.14.44.36.81.67 1.01.14.1.38.17.59.25.22.07.45.13.68.18.93.19 1.9.27 2.86.22.96-.03 1.92-.17 2.79-.5.43-.16.81-.39 1.11-.7.3-.31.51-.7.65-1.14.14-.44.2-.92.27-1.41.04-.25.06-.5.14-.78.04-.14.1-.28.21-.43.06-.06.13-.12.19-.17.07-.04.14-.07.21-.1.27-.1.54-.12.81-.12s.53.04.78.12c.25.08.5.21.67.43.17.23.13.53.02.75.08-.24.05-.51-.12-.66-.16-.16-.39-.24-.62-.28-.46-.08-.97-.03-1.35.16-.2.1-.24.2-.29.42-.04.21-.05.46-.06.71-.02.5-.05 1.02-.18 1.55-.12.52-.36 1.05-.75 1.48-.38.43-.87.74-1.36.95-1 .41-2.04.57-3.07.61-1.03.03-2.07-.05-3.09-.29-.25-.06-.51-.14-.76-.23-.25-.1-.5-.19-.77-.37-.53-.37-.77-.95-.9-1.47-.13-.53-.17-1.04-.21-1.53-.04-.49-.08-.99-.24-1.4-.08-.21-.2-.38-.37-.48-.17-.11-.41-.13-.64-.13-.45-.01-.91.28-1.15.72z" fill="#bd6630" stroke-width="none" opacity="1" stroke="none"></path><path id="SvgjsPath44119" d="M107.55 103.22c-1.63-1.1-3.85-1.18-5.75-1.28-2.45-.13-5.23-.3-7.55.58-.1.04-.08.17.02.18 2.66.27 5.36-.21 8.06.06 2.11.21 4.28.38 5.6 2.32 1.15 1.68.54 3.21.3 4.98-.03.22.19.37.37.22 2.19-1.85 1.09-5.61-1.05-7.06z" fill="#f3b792" stroke-width="none" opacity="1" stroke="none"></path></g></g><g id="svga-group-hair-front" transform="matrix(1,0,0,1,0,0)"><path id="SvgjsPath44165" d="M138 82.9s1.2-14.5-3.7-27.5c0 0-4.4-6.6-9.6-10.3s-10.6.2-24.3-.5-22.1-3.2-24.8-3.2-7.9 2-5.9 8.6c0 0 1.6 2.5 4.8 6.1s2.7 7.1 2.2 8.6-1.1 6.3-5.5 7c0 0-7.1 3.2-10.4 4.8-3.3 1.6-4.4 4.9-3.9 7 .5 2.1 2.7 2.5 4.8 3.2 2.1.7 4 3.1 1.1 6.5-3 3.4-5.9 4.3-4.7 8.5 0 0-4.7-4.7-1.7-9.1 3-4.4-1.5-7.5-4.5-8.1-3.1-.6-9.7-2.8-8.1-9.3 1.6-6.5 7.7-10.8 9.3-13.6s2.8-6.8-.7-12.2c-3.6-5.4-4.7-10.1-3-17S56 19.1 61.8 14.7 81.6 4.6 89.6 4s16.3-2.2 28.1.6 15.2 6.8 19 11.3c3.8 4.6 5.3 9.6 4.8 15.4 0 0 1.4 4.8 1 9s-.9 5.5-.9 5.5 1.2 3.4 1.4 5.7c.1 2.2.7 13.4-.4 18.9-1.1 5.5-2.8 11.1-4.6 12.5z" fill="#4e4341" stroke-width="none" opacity="1" stroke="none"></path><path id="SvgjsPath44166" d="M125.6 42.9c1.7-3.3 2-7.2 1.2-10.8-.8-3.6-2.6-7-5.2-9.7-2.6-2.7-5.8-4.7-9.3-6.1-1.7-.7-3.5-1.2-5.3-1.7-.9-.2-1.8-.4-2.8-.5l-1.4-.2-1.4-.1c-7.4-.6-15 1-21.7 4.4-6.7 3.3-12.5 8.4-16.4 14.9-1.9 3.3-3.2 7-3.2 10.9-.1 3.8 1 7.8 3.6 10.8 2.5 3 5.6 5 7.3 7.9.9 1.5 1.4 3.1 1.2 4.7-.1 1.6-1.1 3-2.5 4-2.6 2.1-6.4 2.6-9.7 4.6-.8.5-1.6 1.1-2.2 1.9-.6.8-1.1 1.7-1.3 2.7-.2 1-.3 2 0 3 .2 1 .9 1.9 1.8 2.5.9.6 1.8.8 2.7 1 .9.2 1.7.5 2.3 1.1.6.6.8 1.4.7 2.2-.1.8-.5 1.6-1 2.4-.5.7-1.1 1.4-1.8 2-.7.6-1.3 1.3-1.9 2-.5.7-1 1.6-1.3 2.4-.1.4-.2.9-.1 1.4.1.5.3.9.5 1.3-.2-.4-.4-.8-.4-1.3 0-.4 0-.9.2-1.3.3-.8.8-1.6 1.4-2.3.6-.7 1.2-1.3 1.9-1.9.7-.6 1.4-1.3 1.9-2 .5-.8 1-1.6 1.2-2.6.2-1 0-2.1-.8-2.8-.7-.8-1.7-1.1-2.6-1.4-.9-.3-1.7-.5-2.4-1-.7-.4-1.1-1.1-1.3-1.9-.2-.8-.1-1.6.1-2.4s.6-1.6 1.2-2.2c.5-.6 1.2-1.2 2-1.6 3-1.8 6.9-2.1 10.1-4.4 1.6-1.1 3-2.9 3.2-5 .3-2.1-.4-4.1-1.4-5.8-1-1.7-2.3-3.1-3.6-4.4-1.3-1.3-2.7-2.5-3.8-3.8C63 51 62 47.5 62.1 44c.1-3.5 1.3-6.9 3.1-9.9C68.7 28 74.3 23 80.6 19.8c1.3-.7 2.6-1.2 4-1.8 2.2-.1 4.5.1 6.6.6 2.9.7 5.7 1.9 8.1 3.6 2.4 1.7 4.4 4 6.1 6.5 1.6 2.5 2.7 5.4 3.4 8.5.2-3.1-.6-6.4-2-9.2-1.4-2.9-3.6-5.4-6.2-7.4-2.7-1.9-5.8-3.1-9-3.5-1.3-.2-2.6-.2-3.8-.2 4.4-1.3 9.1-1.9 13.7-1.6l1.3.1 1.3.2c.9.1 1.8.2 2.7.4 1.8.4 3.5.8 5.2 1.5 3.3 1.2 6.5 3.1 9.1 5.6 2.6 2.5 4.5 5.6 5.4 9.2.7 3.4.6 7.2-.9 10.6zM87 32c-2-1.5-4.4-2.5-6.9-2.9-2.5-.4-5.1-.3-7.5.4-2.4.7-4.7 1.9-6.4 3.6 2.2-1 4.5-1.7 6.8-2.1 2.3-.3 4.6-.3 6.8.1s4.4 1.2 6.5 2.3c2 1.1 3.9 2.5 5.7 4.2-1.3-2.3-3-4.2-5-5.6zM74 54c-1.3-1.2-2.5-2.1-3.2-3.4-.7-1.2-.9-2.8-.7-4.2.5-2.9 3.6-5.2 6.9-5-1.6-.5-3.5-.3-5.1.5-1.6.8-2.9 2.3-3.4 4.2-.5 1.8-.3 3.8.5 5.5.9 1.7 2.4 2.8 3.5 3.9 2.3 2 3.6 5.1 3.5 8.2-.1 3.1-1.7 6.2-4.3 8.2 3.1-1.4 5.4-4.5 5.9-8.1.2-1.8 0-3.6-.6-5.3-.6-1.8-1.7-3.3-3-4.5zm70.1 2.8c-.3-3.4-1-6.8-2-10 .4-1.2.8-2.4 1-3.7.4-2.6.4-5.2 0-7.7-.2-1.8-.6-3.6-1.1-5.4.1-1 .1-1.9 0-2.9-.4-4.8-2.6-9.4-5.7-13.1-3.1-3.7-7.3-6.4-11.7-8.3-4.4-1.9-9.2-2.9-13.9-3.4-4.8-.5-9.5-.6-14.3-.2-9.5.7-18.9 3.1-27.6 7.3-4.3 2.1-8.4 4.8-11.8 8.2-1.7 1.7-3.3 3.6-4.6 5.6-1.3 2-2.4 4.3-3.1 6.6-1.5 4.6-1.8 9.7-.5 14.5.3 1.2.8 2.3 1.3 3.4s1.2 2.2 1.9 3.1c.6 1 1.2 1.9 1.6 2.9.3 1 .4 2.1.3 3.2-.3 2.2-1.4 4.2-2.8 6-1.4 1.8-3 3.5-4.5 5.4-.7.9-1.4 1.9-2 3-.6 1.1-1 2.3-1.2 3.5-.2 1.2-.2 2.5.1 3.7.3 1.2.9 2.4 1.8 3.3.9.9 2.1 1.4 3.2 1.8 1.1.4 2.3.7 3.4 1 1.1.3 2.2.8 3.1 1.4.9.7 1.7 1.5 2 2.6.7 2.3-1.7 4.2-1.7 6.6-.2 1.2.1 2.4.8 3.4.6 1 1.4 1.9 2.1 2.8-.7-.9-1.5-1.9-2-2.9-.6-1-.8-2.2-.7-3.4.1-.6.2-1.2.4-1.7s.5-1 .8-1.6c.6-1 1-2.3.8-3.5-.3-1.2-1.2-2.2-2.1-3-1-.8-2.1-1.3-3.2-1.6-2.2-.7-4.6-1.2-6.2-2.8-1.5-1.6-1.9-4-1.5-6.2.4-2.2 1.6-4.2 3.1-6 1.5-1.8 3.2-3.4 4.6-5.4 1.5-1.9 2.8-4.1 3.2-6.7.2-1.3.2-2.6-.2-3.8-.4-1.2-1-2.3-1.7-3.3s-1.2-2-1.7-3-.9-2.1-1.2-3.2c-1.2-4.4-.9-9.1.6-13.4.7-2.2 1.7-4.2 3-6.1 1.3-1.9 2.8-3.7 4.4-5.3 3.3-3.2 7.2-5.8 11.4-7.8 8-3.6 17.2-6 26.5-6.8 4.7-.4 9.3-.3 14 .1 4.6.5 9.2 1.4 13.5 3.1 4.3 1.7 8.3 4.2 11.3 7.7 3.1 3.4 5.2 7.8 5.7 12.3.2 2.3.1 4.6-.7 6.8-.7 2.2-1.9 4.2-3.5 5.9-1.6 1.7-3.5 3.1-5.6 4.1-2.1.9-4.5 1.3-6.9 1.1 2.3.4 4.8.1 7-.8s4.2-2.3 5.9-4c1.6-1.7 3-3.8 3.8-6 .2-.4.3-.9.4-1.3 0 .8.1 1.7.1 2.5 0 2.5 0 4.9-.4 7.3-.4 2.4-1.1 4.7-2.2 6.8-1.1 2.1-2.7 4-4.7 5.5 2.4-.7 4.6-2.5 6.1-4.7.7-1 1.3-2.2 1.8-3.4.3 3.3.5 6.6.6 9.8 0 3.5-.2 7-.6 10.4-.4 3.5-1 6.9-1.9 10.3-.4 1.7-.9 3.4-1.4 5.1.1-.9.3-1.8.4-2.8.2-2.7.2-5.5 0-8.2-.3-2.7-.8-5.4-1.5-8-.7-2.6-1.7-5.2-3.1-7.6.5 2.7 1.1 5.3 1.5 7.9.4 2.6.8 5.2 1 7.9.3 2.6.4 5.3.5 7.9.1 2.2 0 4.3 0 6.5-.1.4-.3.9-.4 1.3.1-.2.3-.5.4-.7v.9c.2-.6.4-1.2.5-1.8 1.5-2.5 2.6-5.2 3.6-8 1.1-3.4 1.9-6.9 2.4-10.5.2-3.3.3-7 0-10.5z" fill="#3f312e" stroke-width="none" opacity="1" stroke="none"></path></g><g id="svga-group-glasses-single-move" transform="matrix(1,0,0,1,0,0)"><g id="svga-group-glasses-single" transform="matrix(1,0,0,1,0,0)"></g></g></g></g></g><rect id="svga-credit-rect" width="200" height="15" x="0" y="185" fill="#ecf0f1" opacity="0.5" style="display: none;"></rect><text id="svga-credit-text" font-family="Avenir Next, Roboto, Helvetica, Arial, sans-serif" font-size="10px" text-anchor="start" font-weight="400" size="10px" anchor="start" weight="400" fill="#333333" x="33.40447998046875" y="182.60824704170227" style="display: none;"><tspan id="SvgjsTspan43451" dy="13" x="33.40447998046875">Created on AvatarMaker.com</tspan></text></g></svg>