<svg id="svg" version="1.1" xmlns="http://www.w3.org/2000/svg" xmlns:xlink="http://www.w3.org/1999/xlink" width="400" height="55.735180908391065" viewBox="0, 0, 400,55.735180908391065"><g id="svgg"><path id="path0" d="M18.750 1.167 C 18.693 1.258,18.164 1.333,17.573 1.333 C 16.969 1.333,16.500 1.406,16.500 1.500 C 16.500 1.592,16.237 1.667,15.917 1.667 C 15.596 1.667,15.333 1.742,15.333 1.833 C 15.333 1.925,15.108 2.000,14.833 2.000 C 14.558 2.000,14.333 2.075,14.333 2.167 C 14.333 2.258,14.108 2.333,13.833 2.333 C 13.558 2.333,13.333 2.408,13.333 2.500 C 13.333 2.592,13.221 2.667,13.083 2.667 C 12.946 2.667,12.833 2.742,12.833 2.833 C 12.833 2.925,12.639 3.000,12.401 3.000 C 11.949 3.000,11.000 3.476,11.000 3.703 C 11.000 3.775,10.850 3.833,10.667 3.833 C 10.483 3.833,10.333 3.908,10.333 4.000 C 10.333 4.092,10.200 4.167,10.037 4.167 C 9.874 4.167,9.632 4.317,9.500 4.500 C 9.368 4.683,9.179 4.833,9.081 4.833 C 8.983 4.833,8.624 5.096,8.284 5.417 C 7.944 5.737,7.632 6.000,7.591 6.000 C 7.447 6.000,5.667 7.741,5.667 7.882 C 5.667 7.960,5.573 8.121,5.458 8.240 C 4.966 8.750,4.500 9.345,4.500 9.464 C 4.500 9.535,4.350 9.701,4.167 9.833 C 3.983 9.965,3.833 10.207,3.833 10.370 C 3.833 10.533,3.775 10.667,3.704 10.667 C 3.633 10.667,3.427 11.003,3.246 11.415 C 3.065 11.827,2.860 12.164,2.792 12.165 C 2.723 12.166,2.667 12.317,2.667 12.500 C 2.667 12.683,2.592 12.833,2.500 12.833 C 2.408 12.833,2.333 13.021,2.333 13.250 C 2.333 13.479,2.258 13.667,2.167 13.667 C 2.075 13.667,2.000 13.892,2.000 14.167 C 2.000 14.442,1.925 14.667,1.833 14.667 C 1.742 14.667,1.667 14.854,1.667 15.083 C 1.667 15.313,1.592 15.500,1.500 15.500 C 1.408 15.500,1.333 15.796,1.333 16.157 C 1.333 16.518,1.256 16.861,1.162 16.919 C 1.068 16.978,0.990 17.263,0.990 17.554 C 0.989 17.845,0.948 19.058,0.899 20.250 C 0.782 23.084,1.326 26.833,1.853 26.833 C 1.934 26.833,2.000 27.058,2.000 27.333 C 2.000 27.608,2.075 27.833,2.167 27.833 C 2.258 27.833,2.333 27.983,2.333 28.167 C 2.333 28.350,2.408 28.500,2.500 28.500 C 2.592 28.500,2.667 28.613,2.667 28.750 C 2.667 28.887,2.742 29.000,2.833 29.000 C 2.925 29.000,3.000 29.110,3.000 29.244 C 3.000 29.583,3.532 30.667,3.698 30.667 C 3.772 30.667,3.833 30.763,3.833 30.880 C 3.833 30.997,3.983 31.201,4.167 31.333 C 4.350 31.465,4.500 31.673,4.500 31.794 C 4.500 31.916,4.688 32.203,4.917 32.432 C 5.146 32.661,5.333 32.912,5.333 32.991 C 5.333 33.069,5.708 33.516,6.167 33.984 C 6.625 34.452,7.000 34.872,7.000 34.916 C 7.000 35.050,7.711 35.858,8.310 36.405 C 8.617 36.686,8.955 37.013,9.060 37.130 C 9.837 38.003,10.500 38.678,10.500 38.598 C 10.500 38.545,11.020 39.008,11.656 39.626 C 12.292 40.244,13.718 41.612,14.824 42.667 C 17.436 45.156,17.997 45.723,17.999 45.875 C 17.999 45.944,18.111 46.000,18.247 46.000 C 18.383 46.000,19.424 46.919,20.561 48.042 C 22.729 50.183,23.789 51.167,23.927 51.167 C 23.973 51.167,24.827 51.992,25.826 53.000 C 26.825 54.008,27.760 54.833,27.904 54.833 C 28.049 54.833,28.167 54.908,28.167 55.000 C 28.167 55.092,28.504 55.167,28.917 55.167 C 29.329 55.167,29.667 55.092,29.667 55.000 C 29.667 54.908,29.762 54.833,29.880 54.833 C 30.646 54.833,30.667 54.617,30.667 46.665 C 30.667 41.777,30.725 39.167,30.833 39.167 C 30.925 39.167,31.000 39.050,31.000 38.906 C 31.000 38.470,31.529 37.000,31.686 37.000 C 31.767 37.000,31.836 36.906,31.838 36.792 C 31.844 36.538,32.767 35.500,32.986 35.500 C 33.073 35.500,33.187 35.364,33.240 35.198 C 33.330 34.914,34.382 34.333,34.806 34.333 C 34.913 34.333,35.000 34.258,35.000 34.167 C 35.000 34.075,35.188 34.000,35.417 34.000 C 35.646 34.000,35.833 33.925,35.833 33.833 C 35.833 33.735,36.417 33.667,37.250 33.667 C 38.083 33.667,38.667 33.735,38.667 33.833 C 38.667 33.925,38.802 34.000,38.967 34.000 C 39.339 34.000,40.164 34.373,40.165 34.542 C 40.166 34.610,40.313 34.667,40.491 34.667 C 40.900 34.667,43.000 36.761,43.000 37.169 C 43.000 37.259,43.066 37.333,43.148 37.333 C 43.306 37.333,43.513 38.173,43.507 38.792 C 43.505 38.998,43.578 39.167,43.669 39.167 C 43.775 39.167,43.833 41.863,43.833 46.750 C 43.833 51.694,43.891 54.333,44.000 54.333 C 44.092 54.333,44.167 54.446,44.167 54.583 C 44.167 54.722,44.315 54.833,44.500 54.833 C 44.683 54.833,44.833 54.908,44.833 55.000 C 44.833 55.092,45.171 55.167,45.583 55.167 C 45.996 55.167,46.333 55.092,46.333 55.000 C 46.333 54.908,46.456 54.833,46.606 54.833 C 46.757 54.833,47.620 54.083,48.524 53.167 C 49.429 52.250,50.235 51.500,50.316 51.500 C 50.397 51.500,51.639 50.337,53.075 48.917 C 54.512 47.496,55.744 46.333,55.812 46.333 C 55.880 46.333,57.156 45.133,58.646 43.667 C 60.136 42.200,61.390 41.000,61.432 41.000 C 61.732 41.000,67.833 34.883,67.833 34.583 C 67.833 34.538,68.204 34.123,68.658 33.659 C 69.112 33.196,69.529 32.671,69.586 32.492 C 69.643 32.313,69.759 32.167,69.845 32.167 C 69.930 32.167,70.000 32.033,70.000 31.870 C 70.000 31.707,70.150 31.465,70.333 31.333 C 70.517 31.201,70.667 30.997,70.667 30.880 C 70.667 30.763,70.733 30.667,70.814 30.667 C 70.974 30.667,71.833 29.003,71.833 28.692 C 71.833 28.586,71.908 28.500,72.000 28.500 C 72.092 28.500,72.167 28.350,72.167 28.167 C 72.167 27.983,72.242 27.833,72.333 27.833 C 72.425 27.833,72.500 27.720,72.500 27.581 C 72.500 27.442,72.575 27.180,72.667 26.998 C 72.758 26.816,72.908 26.518,73.000 26.336 C 73.092 26.154,73.167 25.785,73.167 25.516 C 73.167 25.248,73.260 24.997,73.375 24.958 C 73.534 24.905,73.583 23.946,73.583 20.917 C 73.583 17.887,73.534 16.928,73.375 16.875 C 73.256 16.835,73.167 16.527,73.167 16.153 C 73.167 15.794,73.092 15.500,73.000 15.500 C 72.908 15.500,72.833 15.237,72.833 14.917 C 72.833 14.596,72.758 14.333,72.667 14.333 C 72.575 14.333,72.500 14.183,72.500 14.000 C 72.500 13.817,72.425 13.667,72.333 13.667 C 72.242 13.667,72.167 13.479,72.167 13.250 C 72.167 13.021,72.092 12.833,72.000 12.833 C 71.908 12.833,71.833 12.713,71.833 12.567 C 71.833 12.196,71.381 11.281,70.992 10.863 C 70.813 10.671,70.667 10.415,70.667 10.294 C 70.667 10.173,70.517 9.965,70.333 9.833 C 70.150 9.701,70.000 9.529,70.000 9.451 C 70.000 9.373,69.906 9.212,69.792 9.092 C 69.677 8.972,69.471 8.698,69.333 8.483 C 69.023 7.998,67.096 6.000,66.938 6.000 C 66.874 6.000,66.560 5.737,66.239 5.417 C 65.918 5.096,65.562 4.833,65.448 4.833 C 65.334 4.833,65.132 4.683,65.000 4.500 C 64.868 4.317,64.626 4.167,64.463 4.167 C 64.300 4.167,64.167 4.106,64.167 4.033 C 64.167 3.858,62.576 3.000,62.251 3.000 C 62.113 3.000,62.000 2.925,62.000 2.833 C 62.000 2.742,61.813 2.667,61.583 2.667 C 61.354 2.667,61.167 2.592,61.167 2.500 C 61.167 2.408,60.942 2.333,60.667 2.333 C 60.392 2.333,60.167 2.258,60.167 2.167 C 60.167 2.075,59.984 2.000,59.760 2.000 C 59.536 2.000,59.307 1.925,59.250 1.833 C 59.193 1.742,58.889 1.667,58.573 1.667 C 58.258 1.667,58.000 1.592,58.000 1.500 C 58.000 1.406,57.531 1.333,56.927 1.333 C 56.336 1.333,55.807 1.258,55.750 1.167 C 55.691 1.071,54.835 1.000,53.750 1.000 C 52.665 1.000,51.809 1.071,51.750 1.167 C 51.693 1.258,51.164 1.333,50.573 1.333 C 49.969 1.333,49.500 1.406,49.500 1.500 C 49.500 1.592,49.242 1.667,48.927 1.667 C 48.611 1.667,48.307 1.742,48.250 1.833 C 48.193 1.925,47.964 2.000,47.740 2.000 C 47.516 2.000,47.333 2.075,47.333 2.167 C 47.333 2.258,47.108 2.333,46.833 2.333 C 46.558 2.333,46.333 2.408,46.333 2.500 C 46.333 2.592,46.183 2.667,46.000 2.667 C 45.817 2.667,45.667 2.738,45.667 2.826 C 45.667 2.913,45.404 3.034,45.083 3.094 C 44.762 3.155,44.500 3.270,44.500 3.352 C 44.500 3.433,44.350 3.500,44.167 3.500 C 43.983 3.500,43.833 3.575,43.833 3.667 C 43.833 3.758,43.721 3.833,43.583 3.833 C 43.446 3.833,43.333 3.908,43.333 4.000 C 43.333 4.092,43.217 4.167,43.076 4.167 C 42.934 4.167,42.631 4.354,42.402 4.583 C 42.172 4.813,41.922 5.000,41.846 5.000 C 41.769 5.000,41.398 5.300,41.020 5.667 C 40.642 6.033,40.267 6.333,40.186 6.333 C 39.985 6.333,38.667 7.666,38.667 7.869 C 38.667 7.959,38.454 8.232,38.194 8.475 C 37.935 8.718,37.622 9.104,37.500 9.333 C 37.336 9.640,37.258 9.684,37.202 9.500 C 37.161 9.362,36.836 8.977,36.480 8.644 C 36.124 8.311,35.833 7.958,35.833 7.859 C 35.833 7.659,34.158 6.000,33.955 6.000 C 33.885 6.000,33.573 5.737,33.261 5.417 C 32.949 5.096,32.610 4.833,32.507 4.833 C 32.404 4.833,32.158 4.683,31.962 4.500 C 31.765 4.317,31.393 4.074,31.135 3.959 C 30.878 3.845,30.667 3.695,30.667 3.626 C 30.667 3.557,30.517 3.500,30.333 3.500 C 30.150 3.500,30.000 3.433,30.000 3.352 C 30.000 3.270,29.738 3.155,29.417 3.094 C 29.096 3.034,28.833 2.913,28.833 2.826 C 28.833 2.738,28.683 2.667,28.500 2.667 C 28.317 2.667,28.167 2.592,28.167 2.500 C 28.167 2.408,27.984 2.333,27.760 2.333 C 27.536 2.333,27.307 2.258,27.250 2.167 C 27.193 2.075,26.964 2.000,26.740 2.000 C 26.516 2.000,26.333 1.925,26.333 1.833 C 26.333 1.742,26.033 1.667,25.667 1.667 C 25.300 1.667,25.000 1.592,25.000 1.500 C 25.000 1.408,24.559 1.333,24.010 1.333 C 23.465 1.333,22.973 1.258,22.917 1.167 C 22.780 0.946,18.886 0.946,18.750 1.167 M16.758 8.242 C 17.172 8.657,17.306 9.167,17.000 9.167 C 16.908 9.167,16.833 9.279,16.833 9.417 C 16.833 9.554,16.713 9.667,16.567 9.667 C 16.420 9.667,16.090 9.892,15.833 10.167 C 15.576 10.442,15.322 10.667,15.268 10.667 C 15.097 10.667,14.333 11.386,14.333 11.547 C 14.333 11.631,14.119 11.900,13.857 12.145 C 13.595 12.390,13.327 12.757,13.262 12.962 C 13.197 13.166,13.074 13.333,12.989 13.333 C 12.903 13.333,12.833 13.483,12.833 13.667 C 12.833 13.850,12.758 14.000,12.667 14.000 C 12.575 14.000,12.500 14.150,12.500 14.333 C 12.500 14.517,12.444 14.667,12.375 14.668 C 12.206 14.670,11.833 15.494,11.833 15.867 C 11.833 16.032,11.767 16.167,11.686 16.167 C 11.125 16.167,10.805 23.090,11.349 23.427 C 11.432 23.478,11.500 23.778,11.500 24.093 C 11.500 24.409,11.575 24.667,11.667 24.667 C 11.758 24.667,11.833 24.817,11.833 25.000 C 11.833 25.183,11.908 25.333,12.000 25.333 C 12.092 25.333,12.167 25.558,12.167 25.833 C 12.167 26.108,12.242 26.333,12.333 26.333 C 12.425 26.333,12.500 26.446,12.500 26.583 C 12.500 26.721,12.575 26.833,12.667 26.833 C 12.758 26.833,12.833 26.983,12.833 27.167 C 12.833 27.350,12.908 27.500,13.000 27.500 C 13.092 27.500,13.167 27.618,13.167 27.761 C 13.167 28.017,13.962 29.196,14.208 29.306 C 14.277 29.336,14.333 29.457,14.333 29.574 C 14.333 29.691,14.596 30.065,14.917 30.405 C 15.237 30.745,15.500 31.087,15.500 31.164 C 15.500 31.242,16.362 32.169,17.417 33.225 C 18.471 34.281,19.333 35.244,19.333 35.364 C 19.333 35.656,18.598 36.500,18.344 36.500 C 18.050 36.500,13.333 31.739,13.333 31.443 C 13.333 31.304,13.146 31.043,12.917 30.863 C 12.688 30.683,12.500 30.442,12.500 30.329 C 12.500 30.215,12.368 30.001,12.207 29.853 C 12.046 29.705,11.802 29.358,11.666 29.083 C 11.529 28.808,11.323 28.484,11.208 28.363 C 11.094 28.242,11.000 27.998,11.000 27.821 C 11.000 27.645,10.943 27.500,10.874 27.500 C 10.805 27.500,10.650 27.256,10.530 26.958 C 10.410 26.660,10.241 26.286,10.156 26.127 C 10.070 25.968,10.000 25.724,10.000 25.586 C 10.000 25.447,9.925 25.333,9.833 25.333 C 9.742 25.333,9.667 25.152,9.667 24.931 C 9.667 24.709,9.592 24.503,9.501 24.472 C 9.410 24.442,9.286 23.610,9.226 22.625 C 9.165 21.640,9.052 20.833,8.975 20.833 C 8.790 20.833,8.790 19.880,8.975 19.766 C 9.052 19.718,9.165 18.982,9.226 18.131 C 9.286 17.280,9.410 16.558,9.501 16.528 C 9.592 16.497,9.667 16.253,9.667 15.986 C 9.667 15.719,9.742 15.500,9.833 15.500 C 9.925 15.500,10.000 15.313,10.000 15.083 C 10.000 14.854,10.075 14.667,10.167 14.667 C 10.258 14.667,10.333 14.517,10.333 14.333 C 10.333 14.150,10.408 14.000,10.500 14.000 C 10.592 14.000,10.667 13.850,10.667 13.667 C 10.667 13.483,10.734 13.333,10.815 13.333 C 10.897 13.333,11.011 13.146,11.068 12.917 C 11.126 12.688,11.247 12.500,11.337 12.500 C 11.426 12.500,11.500 12.367,11.500 12.203 C 11.500 12.040,11.650 11.799,11.833 11.667 C 12.017 11.535,12.167 11.370,12.167 11.302 C 12.167 10.978,14.633 8.500,14.956 8.500 C 15.031 8.500,15.201 8.350,15.333 8.167 C 15.659 7.715,16.262 7.747,16.758 8.242 M59.000 7.964 C 59.000 8.036,59.230 8.231,59.511 8.396 C 60.129 8.762,62.092 10.739,62.468 11.375 C 62.617 11.627,62.797 11.833,62.869 11.833 C 62.941 11.833,63.000 11.988,63.000 12.177 C 63.000 12.365,63.075 12.473,63.167 12.417 C 63.258 12.360,63.333 12.431,63.333 12.573 C 63.333 12.716,63.402 12.833,63.487 12.833 C 63.571 12.833,63.689 13.057,63.750 13.331 C 63.810 13.605,63.928 13.872,64.013 13.925 C 64.097 13.977,64.167 14.165,64.167 14.343 C 64.167 14.521,64.242 14.667,64.333 14.667 C 64.425 14.667,64.500 14.854,64.500 15.083 C 64.500 15.313,64.575 15.500,64.667 15.500 C 64.758 15.500,64.833 15.683,64.833 15.907 C 64.833 16.131,64.908 16.360,65.000 16.417 C 65.092 16.473,65.167 16.725,65.167 16.977 C 65.167 17.228,65.255 17.521,65.362 17.629 C 65.626 17.893,65.618 22.948,65.353 23.213 C 65.251 23.316,65.167 23.648,65.167 23.950 C 65.167 24.253,65.092 24.500,65.000 24.500 C 64.908 24.500,64.833 24.635,64.833 24.800 C 64.833 25.173,64.461 25.997,64.292 25.999 C 64.223 25.999,64.167 26.141,64.167 26.314 C 64.167 26.487,64.055 26.843,63.918 27.106 C 63.781 27.369,63.668 27.715,63.668 27.875 C 63.667 28.035,63.592 28.167,63.500 28.167 C 63.408 28.167,63.333 28.299,63.333 28.460 C 63.333 28.621,63.183 28.847,63.000 28.961 C 62.817 29.076,62.667 29.281,62.667 29.418 C 62.667 29.555,62.604 29.667,62.528 29.667 C 62.452 29.667,62.283 29.873,62.153 30.125 C 62.023 30.377,61.748 30.770,61.542 30.998 C 61.335 31.227,61.167 31.476,61.167 31.552 C 61.167 31.628,60.679 32.176,60.083 32.768 C 59.487 33.361,59.000 33.939,59.000 34.053 C 59.000 34.167,58.838 34.370,58.639 34.505 C 58.441 34.640,58.141 34.881,57.973 35.042 C 57.804 35.202,57.667 35.299,57.667 35.257 C 57.667 35.214,57.373 35.477,57.013 35.840 C 56.263 36.597,56.076 36.638,55.645 36.141 C 55.264 35.703,55.240 34.923,55.597 34.632 C 56.264 34.088,59.000 31.302,59.000 31.167 C 59.000 31.084,59.262 30.761,59.583 30.450 C 59.904 30.138,60.167 29.776,60.167 29.645 C 60.167 29.514,60.317 29.299,60.500 29.167 C 60.683 29.035,60.833 28.830,60.833 28.713 C 60.833 28.596,60.894 28.500,60.969 28.500 C 61.135 28.500,61.667 27.416,61.667 27.078 C 61.667 26.943,61.728 26.833,61.802 26.833 C 61.877 26.833,62.041 26.571,62.167 26.250 C 62.293 25.929,62.457 25.667,62.531 25.667 C 62.606 25.667,62.667 25.484,62.667 25.260 C 62.667 25.036,62.742 24.807,62.833 24.750 C 62.925 24.693,63.000 24.389,63.000 24.073 C 63.000 23.758,63.075 23.500,63.167 23.500 C 63.258 23.500,63.333 23.167,63.333 22.760 C 63.333 22.353,63.408 21.973,63.500 21.917 C 63.592 21.860,63.667 21.148,63.667 20.333 C 63.667 19.519,63.592 18.807,63.500 18.750 C 63.408 18.693,63.333 18.318,63.333 17.917 C 63.333 17.515,63.258 17.140,63.167 17.083 C 63.075 17.027,63.000 16.797,63.000 16.573 C 63.000 16.350,62.925 16.167,62.833 16.167 C 62.742 16.167,62.667 15.942,62.667 15.667 C 62.667 15.392,62.592 15.167,62.500 15.167 C 62.408 15.167,62.333 15.054,62.333 14.917 C 62.333 14.779,62.258 14.667,62.167 14.667 C 62.075 14.667,62.000 14.517,62.000 14.333 C 62.000 14.150,61.925 14.000,61.833 14.000 C 61.742 14.000,61.667 13.859,61.667 13.687 C 61.667 13.515,61.554 13.281,61.417 13.167 C 61.279 13.053,61.167 12.886,61.167 12.796 C 61.167 12.707,60.942 12.424,60.667 12.167 C 60.392 11.910,60.166 11.636,60.165 11.558 C 60.163 11.385,59.097 10.333,58.924 10.333 C 58.856 10.333,58.583 10.100,58.317 9.816 C 58.051 9.531,57.832 9.362,57.831 9.441 C 57.826 9.694,57.505 9.092,57.503 8.826 C 57.498 8.373,58.059 7.838,58.542 7.836 C 58.794 7.834,59.000 7.892,59.000 7.964 M26.333 11.333 C 26.333 11.425,26.483 11.500,26.667 11.500 C 26.884 11.500,27.000 11.611,27.000 11.819 C 27.000 11.995,27.094 12.183,27.208 12.236 C 27.375 12.314,27.375 12.353,27.208 12.431 C 27.094 12.484,27.000 12.625,27.000 12.744 C 27.000 12.862,26.775 13.053,26.500 13.167 C 26.225 13.281,26.000 13.440,26.000 13.520 C 26.000 13.601,25.912 13.667,25.805 13.667 C 25.697 13.667,25.288 13.985,24.895 14.375 C 24.502 14.765,23.990 15.255,23.757 15.464 C 23.524 15.674,23.333 15.992,23.333 16.173 C 23.333 16.353,23.277 16.501,23.208 16.501 C 23.039 16.503,22.667 17.327,22.667 17.700 C 22.667 17.865,22.592 18.000,22.500 18.000 C 22.408 18.000,22.333 18.262,22.333 18.583 C 22.333 18.904,22.258 19.167,22.167 19.167 C 22.067 19.167,22.000 19.830,22.000 20.823 C 22.000 21.748,22.074 22.526,22.167 22.583 C 22.258 22.640,22.333 22.944,22.333 23.260 C 22.333 23.575,22.408 23.833,22.500 23.833 C 22.592 23.833,22.667 23.983,22.667 24.167 C 22.667 24.350,22.742 24.500,22.833 24.500 C 22.925 24.500,23.000 24.688,23.000 24.917 C 23.000 25.146,23.074 25.333,23.163 25.333 C 23.253 25.333,23.376 25.527,23.435 25.764 C 23.495 26.001,23.702 26.368,23.897 26.580 C 24.091 26.792,24.662 27.423,25.167 27.982 C 25.671 28.541,26.198 28.999,26.338 28.999 C 26.478 29.000,26.701 29.150,26.833 29.333 C 26.965 29.517,27.137 29.667,27.215 29.667 C 27.416 29.667,27.833 30.109,27.833 30.321 C 27.833 30.420,27.927 30.506,28.042 30.513 C 28.208 30.524,28.208 30.543,28.042 30.610 C 27.927 30.657,27.833 30.769,27.833 30.859 C 27.833 32.220,25.293 31.017,23.272 28.700 C 23.168 28.581,22.915 28.303,22.708 28.083 C 22.502 27.862,22.333 27.615,22.333 27.533 C 22.333 27.452,22.183 27.249,22.000 27.083 C 21.817 26.917,21.667 26.681,21.667 26.558 C 21.667 26.434,21.592 26.333,21.500 26.333 C 21.408 26.333,21.333 26.223,21.333 26.089 C 21.333 25.788,20.796 24.604,20.625 24.528 C 20.556 24.497,20.500 24.253,20.500 23.986 C 20.500 23.719,20.425 23.500,20.333 23.500 C 20.242 23.500,20.167 23.087,20.167 22.583 C 20.167 22.079,20.092 21.667,20.000 21.667 C 19.908 21.667,19.833 21.254,19.833 20.750 C 19.833 20.246,19.908 19.833,20.000 19.833 C 20.092 19.833,20.167 19.496,20.167 19.083 C 20.167 18.671,20.242 18.333,20.333 18.333 C 20.425 18.333,20.500 18.108,20.500 17.833 C 20.500 17.558,20.563 17.333,20.639 17.333 C 20.715 17.333,20.778 17.237,20.778 17.119 C 20.778 16.791,21.380 15.500,21.532 15.500 C 21.606 15.500,21.667 15.368,21.667 15.207 C 21.667 15.045,21.817 14.820,22.000 14.705 C 22.183 14.591,22.333 14.419,22.333 14.324 C 22.333 14.229,22.502 13.971,22.708 13.750 C 22.915 13.530,23.167 13.252,23.269 13.133 C 23.372 13.014,23.624 12.804,23.830 12.667 C 24.037 12.529,24.377 12.285,24.587 12.125 C 24.797 11.965,25.035 11.833,25.114 11.833 C 25.194 11.833,25.368 11.683,25.500 11.500 C 25.748 11.156,26.333 11.039,26.333 11.333 M48.861 11.292 C 48.932 11.451,50.280 12.500,50.414 12.500 C 50.507 12.500,50.716 12.656,51.214 13.096 C 51.326 13.194,51.604 13.524,51.833 13.828 C 52.063 14.132,52.456 14.593,52.708 14.852 C 52.960 15.110,53.167 15.437,53.167 15.578 C 53.167 15.718,53.235 15.833,53.319 15.833 C 53.402 15.833,53.521 16.133,53.583 16.499 C 53.645 16.865,53.764 17.207,53.848 17.259 C 53.932 17.311,54.000 17.532,54.000 17.750 C 54.000 17.968,54.075 18.193,54.167 18.250 C 54.258 18.307,54.333 18.611,54.333 18.927 C 54.333 19.242,54.408 19.500,54.500 19.500 C 54.596 19.500,54.667 20.028,54.667 20.750 C 54.667 21.472,54.596 22.000,54.500 22.000 C 54.408 22.000,54.333 22.333,54.333 22.740 C 54.333 23.147,54.258 23.527,54.167 23.583 C 54.075 23.640,54.000 23.869,54.000 24.093 C 54.000 24.317,53.925 24.500,53.833 24.500 C 53.742 24.500,53.667 24.620,53.667 24.766 C 53.667 25.030,53.187 26.172,53.008 26.333 C 52.958 26.379,52.804 26.640,52.666 26.913 C 52.529 27.186,52.173 27.670,51.875 27.989 C 51.577 28.308,51.333 28.632,51.333 28.709 C 51.333 28.901,50.552 29.667,50.356 29.667 C 50.268 29.667,50.020 29.876,49.805 30.132 C 49.041 31.039,47.344 31.701,46.905 31.262 C 46.474 30.831,46.733 29.667,47.260 29.667 C 47.325 29.667,47.499 29.527,47.647 29.357 C 47.795 29.187,48.080 28.996,48.279 28.933 C 48.599 28.832,49.674 27.739,50.916 26.250 C 51.146 25.975,51.379 25.506,51.435 25.208 C 51.491 24.910,51.604 24.667,51.685 24.667 C 51.767 24.667,51.833 24.479,51.833 24.250 C 51.833 24.021,51.908 23.833,52.000 23.833 C 52.092 23.833,52.167 23.571,52.167 23.250 C 52.167 22.929,52.242 22.667,52.333 22.667 C 52.434 22.667,52.500 21.944,52.500 20.833 C 52.500 19.722,52.434 19.000,52.333 19.000 C 52.242 19.000,52.167 18.742,52.167 18.427 C 52.167 18.111,52.092 17.807,52.000 17.750 C 51.908 17.693,51.833 17.501,51.833 17.323 C 51.833 17.146,51.764 17.000,51.680 17.000 C 51.596 17.000,51.478 16.781,51.420 16.514 C 51.314 16.030,50.710 15.305,50.025 14.838 C 49.827 14.703,49.627 14.471,49.580 14.323 C 49.533 14.175,49.289 13.948,49.039 13.818 C 48.788 13.689,48.441 13.455,48.266 13.297 C 48.092 13.140,47.886 13.051,47.808 13.099 C 47.593 13.232,47.355 12.460,47.453 11.950 C 47.510 11.651,47.644 11.500,47.853 11.500 C 48.025 11.500,48.167 11.425,48.167 11.333 C 48.167 11.141,48.778 11.104,48.861 11.292 M38.127 16.317 C 38.286 16.400,38.745 16.565,39.147 16.684 C 39.549 16.804,39.975 16.998,40.093 17.117 C 40.212 17.236,40.393 17.333,40.496 17.333 C 40.748 17.333,41.362 17.965,41.752 18.625 C 41.928 18.923,42.131 19.167,42.203 19.167 C 42.275 19.167,42.333 19.392,42.333 19.667 C 42.333 19.942,42.408 20.167,42.500 20.167 C 42.592 20.167,42.667 20.354,42.667 20.583 C 42.667 20.813,42.742 21.000,42.833 21.000 C 42.925 21.000,43.000 21.375,43.000 21.833 C 43.000 22.292,42.925 22.667,42.833 22.667 C 42.742 22.667,42.667 22.850,42.667 23.073 C 42.667 23.297,42.592 23.527,42.500 23.583 C 42.408 23.640,42.333 23.869,42.333 24.093 C 42.333 24.317,42.275 24.500,42.203 24.500 C 42.131 24.500,41.928 24.744,41.752 25.042 C 41.325 25.765,40.740 26.333,40.424 26.333 C 40.283 26.333,40.167 26.408,40.167 26.500 C 40.167 26.592,40.054 26.667,39.917 26.667 C 39.779 26.667,39.667 26.729,39.667 26.806 C 39.667 26.882,39.573 26.958,39.458 26.975 C 39.344 26.992,38.931 27.049,38.541 27.104 C 38.150 27.158,37.790 27.269,37.739 27.351 C 37.614 27.553,36.878 27.540,36.750 27.333 C 36.693 27.242,36.403 27.167,36.105 27.167 C 35.807 27.167,35.418 27.057,35.240 26.922 C 35.062 26.787,34.802 26.675,34.662 26.672 C 34.522 26.669,34.299 26.517,34.167 26.333 C 34.035 26.150,33.798 26.000,33.641 26.000 C 33.484 26.000,33.312 25.863,33.259 25.696 C 33.206 25.529,33.032 25.248,32.873 25.071 C 32.389 24.534,31.833 23.331,31.833 22.818 C 31.833 22.551,31.758 22.333,31.667 22.333 C 31.575 22.333,31.500 22.108,31.500 21.833 C 31.500 21.558,31.575 21.333,31.667 21.333 C 31.758 21.333,31.833 21.071,31.833 20.750 C 31.833 20.429,31.908 20.167,32.000 20.167 C 32.092 20.167,32.167 20.017,32.167 19.833 C 32.167 19.650,32.242 19.500,32.333 19.500 C 32.425 19.500,32.500 19.350,32.500 19.167 C 32.500 18.983,32.575 18.833,32.667 18.833 C 32.758 18.833,32.833 18.753,32.833 18.655 C 32.833 18.557,32.927 18.378,33.042 18.259 C 33.156 18.139,33.360 17.882,33.495 17.687 C 33.630 17.493,33.842 17.333,33.965 17.333 C 34.089 17.333,34.303 17.221,34.440 17.083 C 34.578 16.946,34.831 16.833,35.002 16.833 C 35.173 16.833,35.360 16.758,35.417 16.667 C 35.473 16.575,35.698 16.500,35.917 16.500 C 36.135 16.500,36.360 16.425,36.417 16.333 C 36.545 16.126,37.737 16.114,38.127 16.317 " stroke="none" fill="#c4042c" fill-rule="evenodd"></path><path id="path1" d="M290.083 13.500 C 290.027 13.592,289.760 13.667,289.490 13.667 C 289.221 13.667,289.000 13.742,289.000 13.833 C 289.000 13.925,288.899 14.000,288.776 14.000 C 288.461 14.000,288.047 14.499,287.912 15.042 C 287.849 15.294,287.730 15.500,287.649 15.500 C 287.567 15.500,287.500 15.650,287.500 15.833 C 287.500 16.017,287.425 16.167,287.333 16.167 C 287.242 16.167,287.167 16.310,287.167 16.486 C 287.167 16.662,287.110 16.831,287.042 16.861 C 286.814 16.962,285.667 19.499,285.667 19.900 C 285.667 20.047,285.592 20.167,285.500 20.167 C 285.408 20.167,285.333 20.317,285.333 20.500 C 285.333 20.683,285.258 20.833,285.167 20.833 C 285.075 20.833,285.000 20.946,285.000 21.083 C 285.000 21.221,284.939 21.333,284.863 21.333 C 284.788 21.333,284.625 21.708,284.500 22.167 C 284.375 22.625,284.215 23.000,284.144 23.000 C 284.073 23.000,283.966 23.262,283.906 23.583 C 283.845 23.904,283.730 24.167,283.648 24.167 C 283.567 24.167,283.500 24.317,283.500 24.500 C 283.500 24.683,283.425 24.833,283.333 24.833 C 283.242 24.833,283.167 24.983,283.167 25.167 C 283.167 25.350,283.092 25.500,283.000 25.500 C 282.908 25.500,282.833 25.577,282.833 25.671 C 282.833 25.766,282.571 26.396,282.250 27.072 C 281.929 27.748,281.667 28.421,281.667 28.567 C 281.667 28.714,281.592 28.833,281.500 28.833 C 281.408 28.833,281.333 28.983,281.333 29.167 C 281.333 29.350,281.258 29.500,281.167 29.500 C 281.075 29.500,281.000 29.681,281.000 29.903 C 281.000 30.124,280.941 30.331,280.868 30.361 C 280.694 30.435,279.833 32.277,279.833 32.578 C 279.833 32.708,279.758 32.860,279.667 32.917 C 279.575 32.973,279.500 33.165,279.500 33.343 C 279.500 33.521,279.425 33.667,279.333 33.667 C 279.242 33.667,279.167 33.810,279.167 33.986 C 279.167 34.162,279.108 34.331,279.036 34.361 C 278.851 34.440,277.832 36.632,277.719 37.195 C 277.667 37.454,277.559 37.667,277.479 37.667 C 277.399 37.667,277.333 37.817,277.333 38.000 C 277.333 38.183,277.272 38.333,277.198 38.333 C 277.123 38.333,276.959 38.596,276.833 38.917 C 276.707 39.237,276.543 39.500,276.469 39.500 C 276.394 39.500,276.333 39.646,276.333 39.823 C 276.333 40.001,276.268 40.187,276.189 40.236 C 276.109 40.286,275.996 40.628,275.937 40.996 C 275.878 41.365,275.755 41.667,275.665 41.667 C 275.574 41.667,275.500 41.817,275.500 42.000 C 275.500 42.183,275.443 42.333,275.374 42.333 C 275.305 42.333,275.150 42.577,275.030 42.875 C 274.910 43.173,274.741 43.547,274.656 43.706 C 274.570 43.865,274.500 44.109,274.500 44.248 C 274.500 44.386,274.443 44.500,274.373 44.500 C 274.218 44.500,273.667 45.737,273.667 46.084 C 273.667 46.221,273.592 46.333,273.500 46.333 C 273.408 46.333,273.333 46.483,273.333 46.667 C 273.333 46.850,273.258 47.000,273.167 47.000 C 273.071 47.000,273.000 47.500,273.000 48.167 C 273.000 48.833,273.071 49.333,273.167 49.333 C 273.258 49.333,273.333 49.475,273.333 49.647 C 273.333 50.064,275.085 50.815,275.377 50.523 C 275.481 50.419,275.704 50.333,275.872 50.333 C 276.541 50.333,277.557 48.897,277.788 47.625 C 277.834 47.373,277.938 47.167,278.019 47.167 C 278.100 47.167,278.167 47.054,278.167 46.917 C 278.167 46.779,278.242 46.667,278.333 46.667 C 278.425 46.667,278.500 46.517,278.500 46.333 C 278.500 46.150,278.575 46.000,278.667 46.000 C 278.758 46.000,278.833 45.899,278.833 45.776 C 278.833 45.652,278.939 45.333,279.067 45.067 C 279.196 44.801,279.462 44.208,279.658 43.750 C 279.855 43.292,280.162 42.628,280.341 42.276 C 280.520 41.924,280.667 41.500,280.667 41.335 C 280.667 40.842,280.837 40.833,290.596 40.833 L 299.998 40.833 300.366 41.625 C 300.569 42.060,300.794 42.442,300.867 42.472 C 300.940 42.503,301.000 42.672,301.000 42.847 C 301.000 43.023,301.075 43.167,301.167 43.167 C 301.258 43.167,301.333 43.354,301.333 43.583 C 301.333 43.813,301.408 44.000,301.500 44.000 C 301.592 44.000,301.667 44.150,301.667 44.333 C 301.667 44.517,301.742 44.667,301.833 44.667 C 301.925 44.667,302.000 44.783,302.000 44.926 C 302.000 45.329,303.473 48.542,303.702 48.639 C 303.774 48.669,303.833 48.824,303.833 48.982 C 303.833 49.407,304.811 50.333,305.260 50.333 C 305.473 50.333,305.689 50.402,305.741 50.485 C 305.844 50.652,306.258 50.631,306.440 50.449 C 306.503 50.386,306.682 50.333,306.837 50.333 C 307.280 50.333,308.000 49.565,308.000 49.091 C 308.000 48.858,308.075 48.667,308.167 48.667 C 308.258 48.667,308.333 48.479,308.333 48.250 C 308.333 48.021,308.258 47.833,308.167 47.833 C 308.075 47.833,308.000 47.611,308.000 47.339 C 308.000 46.843,307.526 45.632,307.292 45.528 C 307.223 45.497,307.167 45.328,307.167 45.153 C 307.167 44.977,307.092 44.833,307.000 44.833 C 306.908 44.833,306.833 44.683,306.833 44.500 C 306.833 44.317,306.758 44.167,306.667 44.167 C 306.575 44.167,306.500 44.017,306.500 43.833 C 306.500 43.650,306.425 43.500,306.333 43.500 C 306.242 43.500,306.167 43.352,306.167 43.170 C 306.167 42.811,305.328 40.951,305.125 40.861 C 305.056 40.831,305.000 40.662,305.000 40.486 C 305.000 40.310,304.925 40.167,304.833 40.167 C 304.742 40.167,304.665 39.998,304.663 39.792 C 304.661 39.585,304.513 39.229,304.333 39.000 C 304.154 38.771,304.006 38.490,304.004 38.376 C 303.998 38.054,303.437 36.833,303.294 36.833 C 303.224 36.833,303.167 36.683,303.167 36.500 C 303.167 36.317,303.092 36.167,303.000 36.167 C 302.908 36.167,302.833 36.032,302.833 35.867 C 302.833 35.494,302.461 34.670,302.292 34.668 C 302.223 34.667,302.167 34.555,302.167 34.418 C 302.167 34.070,301.615 32.833,301.461 32.833 C 301.391 32.833,301.333 32.720,301.333 32.582 C 301.333 32.266,300.646 30.769,300.466 30.694 C 300.393 30.664,300.333 30.495,300.333 30.319 C 300.333 30.144,300.267 30.000,300.185 30.000 C 300.104 30.000,299.988 29.738,299.928 29.417 C 299.867 29.096,299.763 28.833,299.696 28.833 C 299.628 28.833,299.473 28.496,299.351 28.083 C 299.230 27.671,299.063 27.333,298.982 27.333 C 298.900 27.333,298.833 27.183,298.833 27.000 C 298.833 26.817,298.758 26.667,298.667 26.667 C 298.575 26.667,298.500 26.517,298.500 26.333 C 298.500 26.150,298.425 26.000,298.333 26.000 C 298.242 26.000,298.166 25.869,298.166 25.708 C 298.166 25.548,297.978 25.048,297.749 24.597 C 297.521 24.146,297.333 23.677,297.333 23.555 C 297.333 23.433,297.258 23.333,297.167 23.333 C 297.075 23.333,297.000 23.183,297.000 23.000 C 297.000 22.817,296.925 22.667,296.833 22.667 C 296.742 22.667,296.667 22.517,296.667 22.333 C 296.667 22.150,296.592 22.000,296.500 22.000 C 296.408 22.000,296.333 21.850,296.333 21.667 C 296.333 21.483,296.258 21.333,296.167 21.333 C 296.075 21.333,296.000 21.185,296.000 21.005 C 296.000 20.635,295.169 18.780,294.965 18.694 C 294.893 18.664,294.833 18.495,294.833 18.319 C 294.833 18.144,294.758 18.000,294.667 18.000 C 294.575 18.000,294.500 17.813,294.500 17.583 C 294.500 17.354,294.425 17.167,294.333 17.167 C 294.242 17.167,294.167 17.056,294.167 16.921 C 294.167 15.846,292.477 13.667,291.644 13.667 C 291.392 13.667,291.140 13.592,291.083 13.500 C 291.027 13.408,290.802 13.333,290.583 13.333 C 290.365 13.333,290.140 13.408,290.083 13.500 M377.833 13.500 C 377.833 13.592,377.454 13.667,376.990 13.667 C 376.470 13.667,376.187 13.731,376.250 13.833 C 376.310 13.930,376.144 14.000,375.853 14.000 C 375.578 14.000,375.307 14.075,375.250 14.167 C 375.193 14.258,374.964 14.333,374.740 14.333 C 374.516 14.333,374.333 14.408,374.333 14.500 C 374.333 14.592,374.182 14.667,373.998 14.667 C 373.813 14.667,373.532 14.736,373.373 14.820 C 372.532 15.265,371.667 15.652,371.667 15.582 C 371.667 15.505,371.173 15.884,370.743 16.292 C 370.623 16.406,370.440 16.500,370.338 16.500 C 369.906 16.500,366.000 20.405,366.000 20.836 C 366.000 20.926,365.938 21.000,365.861 21.000 C 365.785 21.000,365.619 21.206,365.491 21.458 C 365.363 21.710,365.131 22.089,364.974 22.299 C 364.818 22.510,364.641 22.904,364.581 23.176 C 364.522 23.447,364.404 23.627,364.320 23.575 C 364.236 23.523,364.167 23.710,364.167 23.990 C 364.167 24.271,364.110 24.501,364.042 24.501 C 363.875 24.503,363.500 25.325,363.500 25.690 C 363.500 25.850,363.425 26.027,363.333 26.083 C 363.242 26.140,363.167 26.392,363.167 26.643 C 363.167 26.894,363.073 27.194,362.958 27.308 C 362.802 27.465,362.750 28.652,362.750 32.083 C 362.750 35.514,362.802 36.702,362.958 36.858 C 363.073 36.973,363.167 37.310,363.167 37.607 C 363.167 37.904,363.242 38.193,363.333 38.250 C 363.425 38.307,363.500 38.536,363.500 38.760 C 363.500 38.984,363.575 39.167,363.667 39.167 C 363.758 39.167,363.833 39.317,363.833 39.500 C 363.833 39.683,363.908 39.833,364.000 39.833 C 364.092 39.833,364.167 40.021,364.167 40.250 C 364.167 40.479,364.242 40.667,364.333 40.667 C 364.425 40.667,364.500 40.811,364.500 40.988 C 364.500 41.165,364.594 41.409,364.708 41.530 C 364.823 41.651,365.029 41.975,365.166 42.250 C 365.302 42.525,365.546 42.871,365.707 43.020 C 365.868 43.168,366.000 43.368,366.000 43.466 C 366.000 43.707,369.406 47.167,369.643 47.167 C 369.748 47.167,369.833 47.242,369.833 47.333 C 369.833 47.425,369.940 47.500,370.069 47.500 C 370.199 47.500,370.331 47.556,370.361 47.625 C 370.478 47.887,371.519 48.512,371.998 48.608 C 372.274 48.663,372.500 48.774,372.500 48.854 C 372.500 48.934,372.613 49.000,372.750 49.000 C 372.887 49.000,373.000 49.075,373.000 49.167 C 373.000 49.258,373.146 49.333,373.323 49.333 C 373.501 49.333,373.693 49.408,373.750 49.500 C 373.807 49.592,374.036 49.667,374.260 49.667 C 374.484 49.667,374.667 49.733,374.667 49.814 C 374.667 49.896,374.910 50.011,375.208 50.071 C 375.506 50.130,375.975 50.223,376.250 50.277 C 376.525 50.331,376.825 50.429,376.917 50.495 C 377.344 50.804,384.583 50.817,384.889 50.511 C 384.987 50.413,385.310 50.333,385.607 50.333 C 385.904 50.333,386.193 50.258,386.250 50.167 C 386.307 50.075,386.536 50.000,386.760 50.000 C 386.984 50.000,387.167 49.925,387.167 49.833 C 387.167 49.742,387.392 49.667,387.667 49.667 C 387.942 49.667,388.167 49.592,388.167 49.500 C 388.167 49.408,388.317 49.333,388.500 49.333 C 388.683 49.333,388.833 49.258,388.833 49.167 C 388.833 49.075,388.926 49.000,389.039 49.000 C 389.341 49.000,390.937 48.167,391.322 47.808 C 391.504 47.639,391.720 47.500,391.803 47.500 C 391.886 47.500,392.232 47.237,392.572 46.917 C 392.912 46.596,393.241 46.333,393.304 46.333 C 393.409 46.332,394.227 45.470,395.587 43.926 C 395.906 43.564,396.167 43.170,396.167 43.051 C 396.167 42.931,396.223 42.833,396.292 42.832 C 396.459 42.831,397.000 41.867,397.000 41.570 C 397.000 41.440,397.075 41.333,397.167 41.333 C 397.258 41.333,397.333 41.221,397.333 41.083 C 397.333 40.946,397.408 40.833,397.500 40.833 C 397.592 40.833,397.667 40.683,397.667 40.500 C 397.667 40.317,397.742 40.167,397.833 40.167 C 397.925 40.167,398.000 40.053,398.000 39.915 C 398.000 39.776,398.138 39.345,398.306 38.957 C 398.881 37.626,399.021 37.082,399.118 35.792 C 399.171 35.081,399.279 34.500,399.357 34.500 C 399.436 34.500,399.500 33.412,399.500 32.083 C 399.500 30.754,399.436 29.667,399.358 29.667 C 399.280 29.667,399.168 29.048,399.110 28.292 C 399.016 27.079,398.426 24.871,398.113 24.557 C 398.051 24.495,398.000 24.307,398.000 24.139 C 398.000 23.971,397.939 23.833,397.864 23.833 C 397.790 23.833,397.626 23.571,397.500 23.250 C 397.374 22.929,397.210 22.667,397.136 22.667 C 397.061 22.667,397.000 22.553,397.000 22.413 C 397.000 22.080,396.209 20.833,395.998 20.833 C 395.907 20.833,395.833 20.717,395.833 20.576 C 395.833 20.434,395.665 20.146,395.458 19.935 C 395.252 19.724,394.859 19.277,394.584 18.942 C 394.310 18.607,394.027 18.333,393.955 18.333 C 393.883 18.333,393.487 17.996,393.075 17.583 C 392.662 17.171,392.231 16.833,392.116 16.833 C 392.001 16.833,391.799 16.683,391.667 16.500 C 391.535 16.317,391.321 16.167,391.191 16.167 C 391.062 16.167,390.834 16.035,390.686 15.874 C 390.380 15.543,389.279 15.000,388.911 15.000 C 388.777 15.000,388.667 14.925,388.667 14.833 C 388.667 14.742,388.479 14.667,388.250 14.667 C 388.021 14.667,387.833 14.592,387.833 14.500 C 387.833 14.408,387.608 14.333,387.333 14.333 C 387.058 14.333,386.833 14.267,386.833 14.186 C 386.833 14.026,386.191 13.864,385.000 13.723 C 384.587 13.674,384.179 13.567,384.092 13.484 C 383.869 13.272,377.833 13.288,377.833 13.500 M352.416 14.224 C 352.141 14.531,351.823 14.943,351.708 15.139 C 351.441 15.597,351.399 49.000,351.667 49.000 C 351.758 49.000,351.833 49.132,351.833 49.294 C 351.833 49.885,353.829 50.904,354.220 50.513 C 354.319 50.414,354.544 50.333,354.719 50.333 C 354.895 50.333,355.292 50.056,355.603 49.717 L 356.167 49.102 356.167 32.123 C 356.167 19.579,356.116 15.051,355.974 14.784 C 355.698 14.269,355.397 14.000,355.095 14.000 C 354.951 14.000,354.833 13.925,354.833 13.833 C 354.833 13.353,352.918 13.662,352.416 14.224 M241.207 14.589 C 240.910 14.913,240.667 15.325,240.667 15.506 C 240.667 15.686,240.592 15.833,240.500 15.833 C 240.390 15.833,240.333 21.386,240.333 32.157 C 240.333 42.859,240.391 48.516,240.500 48.583 C 240.592 48.640,240.667 48.832,240.667 49.010 C 240.667 49.188,240.733 49.333,240.814 49.333 C 240.895 49.333,240.997 49.470,241.041 49.637 C 241.310 50.668,243.449 50.748,244.424 49.763 C 245.274 48.905,245.333 48.410,245.333 42.189 L 245.333 36.500 250.076 36.500 L 254.818 36.500 255.201 36.894 C 255.411 37.110,255.696 37.461,255.833 37.674 C 255.971 37.887,256.290 38.270,256.542 38.525 C 256.794 38.780,257.000 39.052,257.000 39.130 C 257.000 39.207,257.131 39.416,257.292 39.594 C 257.452 39.771,257.804 40.217,258.075 40.583 C 258.345 40.950,258.701 41.371,258.866 41.520 C 259.032 41.668,259.167 41.863,259.167 41.954 C 259.167 42.044,259.354 42.320,259.583 42.568 C 259.813 42.815,260.000 43.070,260.001 43.134 C 260.001 43.198,260.226 43.490,260.501 43.783 C 260.775 44.076,261.000 44.360,261.000 44.415 C 261.000 44.470,261.169 44.690,261.375 44.903 C 261.581 45.117,261.900 45.502,262.083 45.759 C 262.267 46.016,262.585 46.397,262.792 46.606 C 262.998 46.814,263.167 47.038,263.167 47.102 C 263.167 47.598,265.687 50.333,266.144 50.333 C 266.329 50.333,266.519 50.396,266.566 50.473 C 266.666 50.634,267.272 50.617,267.441 50.448 C 267.504 50.385,267.686 50.333,267.844 50.333 C 269.151 50.333,269.851 47.757,268.833 46.693 C 268.558 46.405,268.333 46.113,268.333 46.043 C 268.333 45.974,268.146 45.699,267.916 45.432 C 267.687 45.166,267.500 44.903,267.500 44.848 C 267.500 44.793,267.200 44.430,266.833 44.040 C 266.467 43.651,266.167 43.258,266.167 43.166 C 266.167 43.075,266.110 43.000,266.041 43.000 C 265.971 43.000,265.615 42.552,265.249 42.003 C 264.883 41.455,264.452 40.963,264.292 40.909 C 264.131 40.855,264.000 40.666,264.000 40.489 C 264.000 40.312,263.944 40.166,263.875 40.166 C 263.806 40.165,263.563 39.887,263.333 39.549 C 263.104 39.210,262.673 38.688,262.375 38.389 C 262.077 38.089,261.833 37.764,261.833 37.665 C 261.833 37.566,261.644 37.296,261.413 37.064 C 261.182 36.833,260.975 36.555,260.955 36.447 C 260.934 36.339,260.777 36.122,260.607 35.965 C 260.196 35.587,260.573 35.167,261.321 35.167 C 261.603 35.167,261.833 35.092,261.833 35.000 C 261.833 34.908,261.984 34.833,262.169 34.833 C 262.591 34.833,265.000 33.684,265.000 33.483 C 265.000 33.401,265.078 33.333,265.174 33.333 C 265.602 33.333,267.445 31.461,267.782 30.685 C 267.945 30.308,268.136 30.000,268.206 30.000 C 268.276 30.000,268.333 29.850,268.333 29.667 C 268.333 29.483,268.408 29.333,268.500 29.333 C 268.592 29.333,268.667 29.188,268.667 29.010 C 268.667 28.832,268.742 28.640,268.833 28.583 C 268.925 28.527,269.000 28.264,269.000 28.000 C 269.000 27.736,269.075 27.473,269.167 27.417 C 269.265 27.356,269.333 26.335,269.333 24.917 C 269.333 23.498,269.265 22.478,269.167 22.417 C 269.075 22.360,269.000 22.098,269.000 21.833 C 269.000 21.569,268.925 21.307,268.833 21.250 C 268.742 21.193,268.667 21.001,268.667 20.823 C 268.667 20.646,268.592 20.500,268.500 20.500 C 268.408 20.500,268.333 20.350,268.333 20.167 C 268.333 19.983,268.258 19.833,268.167 19.833 C 268.075 19.833,268.000 19.683,268.000 19.500 C 268.000 19.317,267.925 19.167,267.833 19.167 C 267.742 19.167,267.667 19.056,267.667 18.920 C 267.667 18.557,265.206 16.167,264.832 16.167 C 264.741 16.167,264.667 16.092,264.667 16.000 C 264.667 15.908,264.517 15.833,264.333 15.833 C 264.150 15.833,264.000 15.776,264.000 15.706 C 264.000 15.515,262.724 15.000,262.249 15.000 C 262.020 15.000,261.833 14.925,261.833 14.833 C 261.833 14.742,261.650 14.667,261.427 14.667 C 261.203 14.667,260.973 14.592,260.917 14.500 C 260.860 14.408,260.481 14.333,260.073 14.333 C 259.666 14.333,259.333 14.258,259.333 14.167 C 259.333 14.058,256.291 14.000,250.541 14.000 L 241.748 14.000 241.207 14.589 M314.424 14.218 C 313.889 14.543,313.667 14.794,313.667 15.071 C 313.667 15.215,313.592 15.333,313.500 15.333 C 313.390 15.333,313.333 21.000,313.333 32.000 C 313.333 43.000,313.390 48.667,313.500 48.667 C 313.592 48.667,313.667 48.782,313.667 48.924 C 313.667 49.250,314.175 49.799,314.756 50.100 C 315.309 50.387,327.741 50.450,327.917 50.167 C 327.973 50.075,328.578 50.000,329.260 50.000 C 329.976 50.000,330.500 49.930,330.500 49.833 C 330.500 49.742,330.758 49.667,331.073 49.667 C 331.389 49.667,331.693 49.592,331.750 49.500 C 331.807 49.408,332.069 49.333,332.333 49.333 C 332.598 49.333,332.860 49.258,332.917 49.167 C 332.973 49.075,333.203 49.000,333.427 49.000 C 333.650 49.000,333.833 48.932,333.833 48.848 C 333.833 48.764,334.133 48.645,334.500 48.583 C 334.867 48.521,335.167 48.416,335.167 48.350 C 335.167 48.283,335.429 48.126,335.750 48.000 C 336.071 47.874,336.333 47.710,336.333 47.636 C 336.333 47.561,336.483 47.500,336.667 47.500 C 336.850 47.500,337.000 47.425,337.000 47.333 C 337.000 47.242,337.096 47.167,337.213 47.167 C 337.330 47.167,337.672 46.942,337.973 46.667 C 338.274 46.392,338.591 46.167,338.676 46.167 C 338.881 46.167,341.667 43.353,341.667 43.146 C 341.667 43.058,341.854 42.783,342.083 42.536 C 342.313 42.289,342.500 41.992,342.500 41.877 C 342.500 41.761,342.575 41.667,342.667 41.667 C 342.758 41.667,342.833 41.517,342.833 41.333 C 342.833 41.150,342.894 41.000,342.969 41.000 C 343.140 41.000,343.833 39.716,343.833 39.401 C 343.833 39.272,343.908 39.167,344.000 39.167 C 344.092 39.167,344.167 39.021,344.167 38.843 C 344.167 38.665,344.236 38.477,344.322 38.424 C 344.407 38.371,344.528 37.916,344.591 37.412 C 344.654 36.908,344.772 36.455,344.853 36.405 C 344.934 36.355,345.000 35.906,345.000 35.407 C 345.000 34.908,345.075 34.500,345.167 34.500 C 345.270 34.500,345.333 33.583,345.333 32.083 C 345.333 30.583,345.270 29.667,345.167 29.667 C 345.072 29.667,345.000 29.191,345.000 28.573 C 345.000 27.972,344.934 27.521,344.854 27.570 C 344.774 27.620,344.658 27.280,344.597 26.816 C 344.535 26.351,344.413 25.827,344.326 25.652 C 344.238 25.477,344.092 25.184,344.000 25.002 C 343.908 24.820,343.833 24.558,343.833 24.419 C 343.833 24.280,343.758 24.167,343.667 24.167 C 343.575 24.167,343.500 24.017,343.500 23.833 C 343.500 23.650,343.425 23.500,343.333 23.500 C 343.242 23.500,343.167 23.387,343.167 23.250 C 343.167 23.113,343.092 23.000,343.000 23.000 C 342.908 23.000,342.833 22.850,342.833 22.667 C 342.833 22.483,342.760 22.333,342.670 22.333 C 342.580 22.333,342.459 22.146,342.402 21.916 C 342.344 21.687,342.080 21.317,341.815 21.094 C 341.550 20.871,341.333 20.623,341.333 20.544 C 341.333 20.349,339.677 18.667,339.485 18.667 C 339.402 18.667,339.333 18.592,339.333 18.500 C 339.333 18.408,339.240 18.333,339.125 18.332 C 339.010 18.331,338.739 18.106,338.523 17.832 C 338.306 17.558,338.057 17.333,337.969 17.333 C 337.881 17.333,337.697 17.221,337.560 17.083 C 337.422 16.946,337.165 16.833,336.988 16.833 C 336.811 16.833,336.667 16.758,336.667 16.667 C 336.667 16.575,336.554 16.500,336.417 16.500 C 336.279 16.500,336.167 16.425,336.167 16.333 C 336.167 16.242,336.054 16.167,335.917 16.167 C 335.779 16.167,335.667 16.092,335.667 16.000 C 335.667 15.908,335.479 15.833,335.250 15.833 C 335.021 15.833,334.833 15.777,334.833 15.707 C 334.833 15.504,333.967 15.179,333.119 15.062 C 332.687 15.003,332.333 14.890,332.333 14.811 C 332.333 14.731,332.071 14.667,331.750 14.667 C 331.429 14.667,331.167 14.592,331.167 14.500 C 331.167 14.408,330.792 14.333,330.333 14.333 C 329.875 14.333,329.500 14.258,329.500 14.167 C 329.500 13.911,314.847 13.961,314.424 14.218 M383.000 17.833 C 383.000 17.925,383.337 18.000,383.750 18.000 C 384.162 18.000,384.500 18.075,384.500 18.167 C 384.500 18.258,384.683 18.333,384.907 18.333 C 385.131 18.333,385.360 18.408,385.417 18.500 C 385.473 18.592,385.673 18.667,385.860 18.667 C 386.284 18.667,387.311 19.142,387.740 19.536 C 387.917 19.700,388.161 19.833,388.281 19.833 C 388.402 19.833,388.500 19.903,388.500 19.989 C 388.500 20.074,388.645 20.190,388.822 20.246 C 389.241 20.379,391.621 22.759,391.754 23.178 C 391.810 23.355,391.926 23.500,392.011 23.500 C 392.097 23.500,392.167 23.613,392.167 23.750 C 392.167 23.887,392.242 24.000,392.333 24.000 C 392.425 24.000,392.500 24.113,392.500 24.250 C 392.500 24.387,392.569 24.500,392.653 24.500 C 392.738 24.500,392.856 24.724,392.916 24.998 C 392.976 25.272,393.095 25.539,393.179 25.591 C 393.264 25.644,393.333 25.832,393.333 26.010 C 393.333 26.188,393.408 26.333,393.500 26.333 C 393.592 26.333,393.667 26.521,393.667 26.750 C 393.667 26.979,393.742 27.167,393.833 27.167 C 393.925 27.167,394.000 27.350,394.000 27.573 C 394.000 27.797,394.075 28.027,394.167 28.083 C 394.258 28.140,394.333 28.477,394.333 28.833 C 394.333 29.189,394.408 29.527,394.500 29.583 C 394.599 29.645,394.667 30.696,394.667 32.177 C 394.667 33.726,394.604 34.667,394.500 34.667 C 394.408 34.667,394.333 35.004,394.333 35.417 C 394.333 35.829,394.258 36.167,394.167 36.167 C 394.075 36.167,394.000 36.392,394.000 36.667 C 394.000 36.942,393.925 37.167,393.833 37.167 C 393.742 37.167,393.667 37.302,393.667 37.467 C 393.667 37.831,393.296 38.664,393.133 38.665 C 393.068 38.666,392.966 38.929,392.906 39.250 C 392.845 39.571,392.742 39.833,392.676 39.833 C 392.610 39.833,392.450 40.038,392.320 40.289 C 392.190 40.539,391.877 40.963,391.625 41.230 C 391.373 41.497,391.167 41.777,391.167 41.850 C 391.167 42.003,390.646 42.516,389.746 43.250 C 389.409 43.525,389.033 43.844,388.912 43.958 C 388.790 44.073,388.589 44.167,388.465 44.167 C 388.342 44.167,388.132 44.316,388.001 44.499 C 387.869 44.682,387.515 44.878,387.214 44.934 C 386.913 44.991,386.667 45.104,386.667 45.185 C 386.667 45.267,386.517 45.333,386.333 45.333 C 386.150 45.333,386.000 45.408,386.000 45.500 C 386.000 45.592,385.817 45.667,385.593 45.667 C 385.369 45.667,385.140 45.742,385.083 45.833 C 385.027 45.925,384.722 46.000,384.407 46.000 C 384.091 46.000,383.833 46.075,383.833 46.167 C 383.833 46.261,383.361 46.333,382.750 46.333 C 382.139 46.333,381.667 46.406,381.667 46.500 C 381.667 46.592,381.409 46.667,381.093 46.667 C 380.778 46.667,380.473 46.592,380.417 46.500 C 380.360 46.408,379.868 46.333,379.323 46.333 C 378.774 46.333,378.333 46.259,378.333 46.167 C 378.333 46.075,378.033 46.000,377.667 46.000 C 377.300 46.000,377.000 45.925,377.000 45.833 C 377.000 45.742,376.849 45.667,376.664 45.667 C 376.345 45.667,375.678 45.368,375.500 45.146 C 375.454 45.089,375.173 44.989,374.875 44.924 C 374.577 44.860,374.333 44.738,374.333 44.653 C 374.333 44.569,374.217 44.500,374.076 44.500 C 373.934 44.500,373.646 44.331,373.435 44.125 C 373.224 43.919,372.762 43.525,372.409 43.250 C 371.588 42.610,370.667 41.695,370.667 41.519 C 370.667 41.444,370.460 41.165,370.208 40.899 C 369.956 40.632,369.569 40.059,369.349 39.624 C 369.128 39.189,368.893 38.833,368.826 38.833 C 368.759 38.833,368.653 38.562,368.590 38.229 C 368.528 37.897,368.416 37.504,368.341 37.354 C 367.868 36.410,367.681 35.712,367.552 34.417 C 367.507 33.958,367.401 33.512,367.318 33.425 C 367.109 33.206,367.123 30.500,367.333 30.500 C 367.425 30.500,367.500 30.087,367.500 29.583 C 367.500 29.079,367.575 28.667,367.667 28.667 C 367.758 28.667,367.833 28.441,367.833 28.164 C 367.833 27.888,367.920 27.494,368.026 27.289 C 368.384 26.598,368.457 26.407,368.575 25.870 C 368.640 25.575,368.762 25.333,368.847 25.333 C 368.931 25.333,369.000 25.183,369.000 25.000 C 369.000 24.817,369.075 24.667,369.167 24.667 C 369.258 24.667,369.333 24.554,369.333 24.417 C 369.333 24.279,369.408 24.167,369.500 24.167 C 369.592 24.167,369.667 24.050,369.667 23.908 C 369.667 23.765,369.891 23.409,370.166 23.116 C 370.440 22.823,370.665 22.529,370.666 22.463 C 370.667 22.305,372.139 20.834,372.296 20.833 C 372.362 20.832,372.642 20.626,372.917 20.374 C 373.192 20.123,373.642 19.805,373.917 19.668 C 374.192 19.531,374.530 19.297,374.668 19.148 C 374.806 18.998,375.236 18.823,375.625 18.757 C 376.014 18.691,376.374 18.569,376.426 18.485 C 376.477 18.402,376.703 18.333,376.927 18.333 C 377.150 18.333,377.333 18.258,377.333 18.167 C 377.333 18.075,377.671 18.000,378.083 18.000 C 378.496 18.000,378.833 17.925,378.833 17.833 C 378.833 17.731,379.639 17.667,380.917 17.667 C 382.194 17.667,383.000 17.731,383.000 17.833 M259.208 18.658 C 259.827 18.775,260.333 18.937,260.333 19.018 C 260.333 19.100,260.483 19.167,260.667 19.167 C 260.850 19.167,261.000 19.242,261.000 19.333 C 261.000 19.425,261.150 19.500,261.333 19.500 C 261.517 19.500,261.667 19.575,261.667 19.667 C 261.667 19.758,261.752 19.833,261.857 19.833 C 261.962 19.833,262.262 20.058,262.524 20.332 C 262.786 20.606,263.000 20.788,263.000 20.737 C 263.000 20.506,263.456 21.163,263.878 22.000 C 264.131 22.504,264.337 23.123,264.336 23.375 C 264.335 23.627,264.408 23.833,264.500 23.833 C 264.711 23.833,264.722 26.068,264.512 26.461 C 264.373 26.721,264.145 27.284,264.091 27.500 C 263.902 28.262,263.800 28.500,263.663 28.500 C 263.574 28.500,263.500 28.577,263.500 28.671 C 263.500 28.894,262.061 30.333,261.838 30.333 C 261.744 30.333,261.667 30.394,261.667 30.468 C 261.667 30.620,260.375 31.222,260.048 31.222 C 259.930 31.222,259.833 31.285,259.833 31.361 C 259.833 31.438,259.688 31.500,259.510 31.500 C 259.332 31.500,259.140 31.575,259.083 31.667 C 259.027 31.758,258.652 31.833,258.250 31.833 C 257.848 31.833,257.473 31.908,257.417 32.000 C 257.351 32.106,255.137 32.167,251.323 32.167 L 245.333 32.167 245.333 25.246 L 245.333 18.326 251.708 18.386 C 255.911 18.426,258.467 18.519,259.208 18.658 M328.571 18.480 C 328.621 18.561,329.225 18.680,329.914 18.744 C 330.603 18.809,331.167 18.930,331.167 19.014 C 331.167 19.098,331.312 19.167,331.490 19.167 C 331.668 19.167,331.860 19.242,331.917 19.333 C 331.973 19.425,332.165 19.500,332.343 19.500 C 332.521 19.500,332.667 19.575,332.667 19.667 C 332.667 19.758,332.817 19.833,333.000 19.833 C 333.183 19.833,333.333 19.908,333.333 20.000 C 333.333 20.092,333.483 20.167,333.667 20.167 C 333.850 20.167,334.000 20.230,334.000 20.307 C 334.000 20.384,334.262 20.589,334.583 20.762 C 334.904 20.934,335.167 21.134,335.167 21.205 C 335.167 21.275,335.246 21.333,335.343 21.333 C 335.528 21.333,336.683 22.461,337.667 23.604 C 338.259 24.291,339.167 25.919,339.167 26.294 C 339.167 26.407,339.242 26.500,339.333 26.500 C 339.425 26.500,339.500 26.650,339.500 26.833 C 339.500 27.017,339.575 27.167,339.667 27.167 C 339.758 27.167,339.833 27.392,339.833 27.667 C 339.833 27.942,339.908 28.167,340.000 28.167 C 340.092 28.167,340.167 28.462,340.167 28.823 C 340.167 29.185,340.242 29.527,340.333 29.583 C 340.432 29.644,340.500 30.665,340.500 32.083 C 340.500 33.502,340.432 34.522,340.333 34.583 C 340.242 34.640,340.167 34.982,340.167 35.343 C 340.167 35.704,340.092 36.000,340.000 36.000 C 339.908 36.000,339.833 36.177,339.833 36.393 C 339.833 36.725,338.933 38.738,338.668 39.000 C 338.621 39.046,338.433 39.378,338.250 39.739 C 337.920 40.389,335.903 42.519,335.163 43.000 C 334.951 43.137,334.641 43.381,334.473 43.542 C 334.304 43.702,334.054 43.833,333.917 43.833 C 333.779 43.833,333.667 43.908,333.667 44.000 C 333.667 44.092,333.517 44.167,333.333 44.167 C 333.150 44.167,333.000 44.242,333.000 44.333 C 333.000 44.425,332.850 44.500,332.667 44.500 C 332.483 44.500,332.333 44.566,332.333 44.648 C 332.333 44.729,331.998 44.846,331.587 44.907 C 331.177 44.969,330.797 45.090,330.744 45.176 C 330.691 45.263,330.393 45.333,330.083 45.333 C 329.773 45.333,329.473 45.408,329.417 45.500 C 329.360 45.592,328.793 45.667,328.157 45.667 C 327.497 45.667,327.000 45.738,327.000 45.833 C 327.000 45.940,325.389 46.000,322.500 46.000 L 318.000 46.000 318.000 32.167 L 318.000 18.333 323.240 18.333 C 326.122 18.333,328.521 18.399,328.571 18.480 M290.833 20.157 C 290.833 20.335,290.908 20.527,291.000 20.583 C 291.092 20.640,291.167 20.832,291.167 21.010 C 291.167 21.188,291.242 21.333,291.333 21.333 C 291.425 21.333,291.500 21.483,291.500 21.667 C 291.500 21.850,291.575 22.000,291.667 22.000 C 291.758 22.000,291.833 22.122,291.833 22.271 C 291.833 22.603,292.691 24.562,292.870 24.639 C 292.942 24.669,293.000 24.838,293.000 25.014 C 293.000 25.190,293.075 25.333,293.167 25.333 C 293.258 25.333,293.333 25.483,293.333 25.667 C 293.333 25.850,293.408 26.000,293.500 26.000 C 293.592 26.000,293.667 26.188,293.667 26.417 C 293.667 26.646,293.732 26.833,293.813 26.833 C 293.938 26.833,294.179 27.628,294.148 27.941 C 294.143 27.999,294.201 28.092,294.277 28.148 C 294.525 28.329,294.833 28.986,294.833 29.331 C 294.833 29.516,294.908 29.667,295.000 29.667 C 295.092 29.667,295.167 29.817,295.167 30.000 C 295.167 30.183,295.242 30.333,295.333 30.333 C 295.425 30.333,295.500 30.446,295.500 30.583 C 295.500 30.721,295.575 30.833,295.667 30.833 C 295.758 30.833,295.833 30.951,295.833 31.094 C 295.833 31.237,296.021 31.765,296.250 32.266 C 296.479 32.767,296.667 33.287,296.667 33.422 C 296.667 33.556,296.728 33.667,296.802 33.667 C 296.877 33.667,297.041 33.929,297.167 34.250 C 297.293 34.571,297.457 34.833,297.531 34.833 C 297.606 34.833,297.667 35.016,297.667 35.240 C 297.667 35.464,297.742 35.693,297.833 35.750 C 297.925 35.807,298.000 35.999,298.000 36.177 C 298.000 36.492,297.812 36.500,290.417 36.500 C 285.472 36.500,282.833 36.442,282.833 36.333 C 282.833 36.242,282.908 36.167,283.000 36.167 C 283.092 36.167,283.167 36.067,283.167 35.945 C 283.167 35.823,283.354 35.354,283.583 34.903 C 283.811 34.452,283.999 33.921,283.999 33.722 C 284.000 33.524,284.057 33.336,284.127 33.306 C 284.314 33.223,285.637 30.496,285.770 29.917 C 285.833 29.642,285.929 29.379,285.984 29.333 C 286.181 29.168,286.500 28.499,286.500 28.252 C 286.500 28.114,286.575 28.000,286.667 28.000 C 286.758 28.000,286.833 27.813,286.833 27.583 C 286.833 27.354,286.890 27.167,286.959 27.167 C 287.029 27.167,287.188 26.923,287.313 26.625 C 287.439 26.327,287.645 25.866,287.771 25.599 C 287.897 25.333,288.000 25.014,288.000 24.891 C 288.000 24.768,288.075 24.667,288.167 24.667 C 288.258 24.667,288.333 24.479,288.333 24.250 C 288.333 24.021,288.408 23.833,288.500 23.833 C 288.592 23.833,288.667 23.683,288.667 23.500 C 288.667 23.317,288.742 23.167,288.833 23.167 C 288.925 23.167,289.000 23.017,289.000 22.833 C 289.000 22.650,289.075 22.500,289.167 22.500 C 289.258 22.500,289.333 22.354,289.333 22.177 C 289.333 21.999,289.400 21.812,289.481 21.762 C 289.562 21.711,289.678 21.407,289.739 21.085 C 289.799 20.763,289.920 20.500,290.008 20.500 C 290.095 20.500,290.167 20.350,290.167 20.167 C 290.167 19.944,290.278 19.833,290.500 19.833 C 290.719 19.833,290.833 19.944,290.833 20.157 " stroke="none" fill="#939494" fill-rule="evenodd"></path><path id="path2" d="M85.958 11.111 C 85.706 11.154,85.500 11.259,85.500 11.344 C 85.500 11.430,85.386 11.500,85.247 11.500 C 84.922 11.500,83.000 13.427,83.000 13.753 C 83.000 13.889,82.925 14.000,82.833 14.000 C 82.742 14.000,82.667 14.262,82.667 14.583 C 82.667 14.904,82.592 15.167,82.500 15.167 C 82.404 15.167,82.333 15.694,82.333 16.417 C 82.333 17.139,82.404 17.667,82.500 17.667 C 82.592 17.667,82.667 17.892,82.667 18.167 C 82.667 18.442,82.742 18.667,82.833 18.667 C 82.925 18.667,83.000 18.779,83.000 18.917 C 83.000 19.054,83.075 19.167,83.167 19.167 C 83.258 19.167,83.333 19.282,83.333 19.424 C 83.333 19.797,84.499 21.000,84.860 21.000 C 85.029 21.000,85.167 21.075,85.167 21.167 C 85.167 21.258,85.317 21.333,85.500 21.333 C 85.683 21.333,85.833 21.408,85.833 21.500 C 85.833 21.592,86.096 21.667,86.417 21.667 C 86.737 21.667,87.000 21.742,87.000 21.833 C 87.000 21.927,87.472 22.000,88.083 22.000 C 88.694 22.000,89.167 21.927,89.167 21.833 C 89.167 21.742,89.354 21.667,89.583 21.667 C 89.813 21.667,90.000 21.592,90.000 21.500 C 90.000 21.408,90.150 21.333,90.333 21.333 C 90.517 21.333,90.667 21.258,90.667 21.167 C 90.667 21.075,90.799 21.000,90.962 21.000 C 91.124 21.000,91.422 20.831,91.625 20.625 C 92.582 19.648,92.833 19.329,92.833 19.091 C 92.833 18.949,92.908 18.833,93.000 18.833 C 93.092 18.833,93.167 18.646,93.167 18.417 C 93.167 18.188,93.242 18.000,93.333 18.000 C 93.432 18.000,93.500 17.389,93.500 16.500 C 93.500 15.611,93.432 15.000,93.333 15.000 C 93.242 15.000,93.167 14.775,93.167 14.500 C 93.167 14.225,93.092 14.000,93.000 14.000 C 92.908 14.000,92.833 13.850,92.833 13.667 C 92.833 13.483,92.758 13.333,92.667 13.333 C 92.575 13.333,92.500 13.261,92.500 13.172 C 92.500 12.926,91.447 11.833,91.209 11.833 C 91.094 11.833,91.000 11.758,91.000 11.667 C 91.000 11.575,90.856 11.500,90.681 11.500 C 90.505 11.500,90.330 11.407,90.292 11.294 C 90.222 11.083,86.939 10.945,85.958 11.111 M97.167 31.833 L 97.167 50.338 102.542 50.294 L 107.917 50.250 107.960 43.375 L 108.004 36.500 114.085 36.500 L 120.167 36.500 120.167 43.153 C 120.167 46.812,120.212 49.925,120.268 50.070 C 120.357 50.302,120.977 50.333,125.518 50.333 L 130.667 50.333 130.667 31.833 L 130.667 13.333 125.518 13.333 C 120.977 13.333,120.357 13.364,120.268 13.597 C 120.212 13.742,120.167 16.779,120.167 20.347 L 120.167 26.833 114.085 26.833 L 108.004 26.833 107.960 20.125 L 107.917 13.417 102.542 13.373 L 97.167 13.329 97.167 31.833 M219.167 18.167 L 219.167 21.667 217.417 21.667 L 215.667 21.667 215.667 26.000 L 215.667 30.333 217.407 30.333 L 219.148 30.333 219.199 37.825 C 219.238 43.540,219.299 45.366,219.458 45.525 C 219.573 45.640,219.667 45.868,219.667 46.033 C 219.667 46.198,219.742 46.333,219.833 46.333 C 219.925 46.333,220.000 46.446,220.000 46.583 C 220.000 46.721,220.075 46.833,220.167 46.833 C 220.258 46.833,220.333 46.952,220.333 47.097 C 220.333 47.439,222.227 49.333,222.570 49.333 C 222.715 49.333,222.833 49.408,222.833 49.500 C 222.833 49.592,222.946 49.667,223.083 49.667 C 223.221 49.667,223.333 49.742,223.333 49.833 C 223.333 49.925,223.483 50.000,223.667 50.000 C 223.850 50.000,224.000 50.075,224.000 50.167 C 224.000 50.258,224.294 50.333,224.653 50.333 C 225.012 50.333,225.335 50.421,225.370 50.528 C 225.417 50.667,226.366 50.722,228.723 50.722 C 231.006 50.722,232.071 50.663,232.206 50.528 C 232.313 50.421,232.648 50.333,232.950 50.333 C 233.253 50.333,233.500 50.258,233.500 50.167 C 233.500 50.075,233.725 50.000,234.000 50.000 C 234.275 50.000,234.500 49.925,234.500 49.833 C 234.500 49.742,234.650 49.667,234.833 49.667 C 235.017 49.667,235.167 49.592,235.167 49.500 C 235.167 49.408,235.279 49.333,235.417 49.333 C 235.632 49.333,235.667 48.749,235.667 45.070 L 235.667 40.807 235.125 40.924 C 234.827 40.988,234.558 41.106,234.528 41.187 C 234.497 41.267,234.253 41.333,233.986 41.333 C 233.719 41.333,233.500 41.408,233.500 41.500 C 233.500 41.908,230.677 41.692,230.235 41.250 C 230.006 41.021,229.747 40.833,229.659 40.833 C 229.561 40.833,229.500 38.806,229.500 35.583 L 229.500 30.333 232.750 30.333 L 236.000 30.333 236.000 26.000 L 236.000 21.667 232.750 21.667 L 229.500 21.667 229.500 18.167 L 229.500 14.667 224.333 14.667 L 219.167 14.667 219.167 18.167 M144.917 21.167 C 144.860 21.258,144.481 21.333,144.073 21.333 C 143.666 21.333,143.333 21.408,143.333 21.500 C 143.333 21.592,143.146 21.667,142.917 21.667 C 142.688 21.667,142.500 21.742,142.500 21.833 C 142.500 21.925,142.275 22.000,142.000 22.000 C 141.725 22.000,141.500 22.075,141.500 22.167 C 141.500 22.258,141.350 22.333,141.167 22.333 C 140.983 22.333,140.833 22.390,140.833 22.458 C 140.832 22.527,140.495 22.722,140.083 22.892 C 139.671 23.061,139.333 23.267,139.333 23.350 C 139.333 23.432,139.245 23.500,139.138 23.500 C 139.031 23.500,138.620 23.819,138.226 24.208 C 137.832 24.598,137.264 25.159,136.963 25.455 C 136.061 26.344,135.667 26.812,135.667 26.994 C 135.667 27.089,135.592 27.167,135.500 27.167 C 135.408 27.167,135.333 27.300,135.333 27.463 C 135.333 27.626,135.183 27.868,135.000 28.000 C 134.817 28.132,134.664 28.355,134.661 28.495 C 134.658 28.635,134.546 28.896,134.411 29.074 C 134.277 29.251,134.167 29.608,134.167 29.865 C 134.167 30.123,134.092 30.333,134.000 30.333 C 133.908 30.333,133.833 30.521,133.833 30.750 C 133.833 30.979,133.758 31.167,133.667 31.167 C 133.575 31.167,133.500 31.467,133.500 31.833 C 133.500 32.200,133.425 32.500,133.333 32.500 C 133.228 32.500,133.167 33.778,133.167 36.000 C 133.167 38.222,133.228 39.500,133.333 39.500 C 133.425 39.500,133.500 39.800,133.500 40.167 C 133.500 40.533,133.575 40.833,133.667 40.833 C 133.758 40.833,133.833 41.021,133.833 41.250 C 133.833 41.479,133.908 41.667,134.000 41.667 C 134.092 41.667,134.167 41.877,134.167 42.135 C 134.167 42.392,134.277 42.749,134.411 42.926 C 134.546 43.104,134.658 43.381,134.661 43.542 C 134.664 43.702,134.742 43.833,134.833 43.833 C 134.925 43.833,135.000 43.945,135.000 44.082 C 135.000 44.219,135.150 44.424,135.333 44.539 C 135.517 44.653,135.667 44.844,135.667 44.963 C 135.667 45.184,136.107 45.726,136.818 46.381 C 137.039 46.584,137.543 47.069,137.938 47.458 C 138.334 47.848,138.703 48.167,138.758 48.167 C 138.812 48.167,138.970 48.279,139.107 48.417 C 139.245 48.554,139.502 48.667,139.679 48.667 C 139.855 48.667,140.000 48.728,140.000 48.802 C 140.000 48.877,140.262 49.041,140.583 49.167 C 140.904 49.293,141.167 49.457,141.167 49.531 C 141.167 49.606,141.392 49.667,141.667 49.667 C 141.942 49.667,142.167 49.742,142.167 49.833 C 142.167 49.925,142.354 50.000,142.583 50.000 C 142.813 50.000,143.000 50.067,143.000 50.148 C 143.000 50.303,143.261 50.362,145.333 50.676 C 146.841 50.905,152.381 50.774,152.470 50.508 C 152.502 50.412,152.780 50.333,153.087 50.333 C 153.395 50.333,153.693 50.258,153.750 50.167 C 153.807 50.075,154.036 50.000,154.260 50.000 C 154.484 50.000,154.667 49.925,154.667 49.833 C 154.667 49.742,154.817 49.667,155.000 49.667 C 155.183 49.667,155.333 49.592,155.333 49.500 C 155.333 49.408,155.483 49.333,155.667 49.333 C 155.850 49.333,156.000 49.258,156.000 49.167 C 156.000 49.075,156.112 49.000,156.250 49.000 C 156.387 49.000,156.500 48.926,156.500 48.837 C 156.500 48.747,156.706 48.622,156.958 48.560 C 157.210 48.498,157.538 48.309,157.686 48.140 C 157.834 47.971,158.018 47.833,158.094 47.833 C 158.230 47.833,158.452 47.631,160.042 46.057 C 160.776 45.331,161.110 44.500,160.668 44.500 C 160.576 44.500,160.119 44.125,159.651 43.667 C 159.183 43.208,158.734 42.833,158.654 42.833 C 158.574 42.833,158.171 42.496,157.759 42.083 C 157.346 41.671,156.930 41.333,156.835 41.333 C 156.739 41.333,156.406 41.071,156.094 40.750 C 155.426 40.062,154.835 39.995,154.250 40.542 C 153.600 41.150,153.356 41.333,153.200 41.333 C 153.118 41.333,152.916 41.483,152.750 41.667 C 152.584 41.850,152.347 42.000,152.224 42.000 C 152.101 42.000,152.000 42.075,152.000 42.167 C 152.000 42.258,151.856 42.333,151.681 42.333 C 151.505 42.333,151.330 42.426,151.292 42.540 C 151.193 42.837,146.641 42.838,146.542 42.542 C 146.504 42.427,146.345 42.333,146.190 42.333 C 146.034 42.333,145.799 42.183,145.667 42.000 C 145.535 41.817,145.325 41.667,145.201 41.667 C 144.919 41.667,144.652 41.399,144.246 40.708 C 144.071 40.410,143.869 40.167,143.797 40.167 C 143.725 40.167,143.667 40.017,143.667 39.833 C 143.667 39.650,143.592 39.500,143.500 39.500 C 143.408 39.500,143.333 39.350,143.333 39.167 C 143.333 38.837,143.444 38.833,152.583 38.833 L 161.833 38.833 161.833 36.250 C 161.833 34.639,161.771 33.667,161.667 33.667 C 161.575 33.667,161.500 33.254,161.500 32.750 C 161.500 32.246,161.425 31.833,161.333 31.833 C 161.242 31.833,161.167 31.571,161.167 31.250 C 161.167 30.929,161.092 30.667,161.000 30.667 C 160.908 30.667,160.833 30.460,160.832 30.208 C 160.832 29.956,160.719 29.535,160.582 29.273 C 160.445 29.010,160.333 28.705,160.333 28.596 C 160.333 28.486,160.183 28.235,160.000 28.038 C 159.817 27.842,159.667 27.565,159.667 27.424 C 159.667 27.282,159.592 27.167,159.500 27.167 C 159.408 27.167,159.333 27.071,159.333 26.953 C 159.333 26.836,159.183 26.632,159.000 26.500 C 158.817 26.368,158.667 26.154,158.667 26.024 C 158.667 25.780,156.778 23.833,156.541 23.833 C 156.467 23.833,156.299 23.683,156.167 23.500 C 156.035 23.317,155.802 23.167,155.650 23.167 C 155.498 23.167,155.294 23.070,155.195 22.951 C 155.097 22.832,154.750 22.631,154.425 22.503 C 154.099 22.376,153.833 22.210,153.833 22.136 C 153.833 22.061,153.608 22.000,153.333 22.000 C 153.058 22.000,152.833 21.925,152.833 21.833 C 152.833 21.742,152.571 21.667,152.250 21.667 C 151.929 21.667,151.667 21.592,151.667 21.500 C 151.667 21.408,151.334 21.333,150.927 21.333 C 150.519 21.333,150.140 21.258,150.083 21.167 C 150.022 21.068,148.974 21.000,147.500 21.000 C 146.026 21.000,144.978 21.068,144.917 21.167 M173.083 21.167 C 173.027 21.258,172.610 21.333,172.157 21.333 C 171.704 21.333,171.333 21.408,171.333 21.500 C 171.333 21.592,171.071 21.667,170.750 21.667 C 170.429 21.667,170.167 21.742,170.167 21.833 C 170.167 21.925,170.017 22.000,169.833 22.000 C 169.650 22.000,169.500 22.075,169.500 22.167 C 169.500 22.258,169.313 22.333,169.083 22.333 C 168.854 22.333,168.667 22.408,168.667 22.500 C 168.667 22.592,168.557 22.667,168.422 22.667 C 168.084 22.667,167.000 23.198,167.000 23.364 C 167.000 23.439,166.918 23.500,166.817 23.500 C 166.716 23.500,166.424 23.725,166.167 24.000 C 165.910 24.275,165.618 24.500,165.519 24.500 C 165.242 24.500,163.667 26.128,163.667 26.414 C 163.667 26.553,163.592 26.667,163.500 26.667 C 163.183 26.667,163.335 27.350,163.742 27.758 C 163.967 27.983,164.224 28.167,164.313 28.167 C 164.401 28.167,164.811 28.504,165.224 28.917 C 165.636 29.329,166.049 29.667,166.140 29.667 C 166.232 29.667,166.631 30.003,167.028 30.414 C 167.425 30.825,167.865 31.162,168.005 31.164 C 168.145 31.165,168.368 31.317,168.500 31.500 C 168.839 31.971,169.291 31.914,169.833 31.333 C 170.090 31.058,170.379 30.833,170.476 30.833 C 170.573 30.833,170.839 30.646,171.068 30.417 C 171.297 30.188,171.601 30.000,171.742 30.000 C 171.884 30.000,172.000 29.925,172.000 29.833 C 172.000 29.742,172.150 29.667,172.333 29.667 C 172.517 29.667,172.667 29.592,172.667 29.500 C 172.667 29.408,172.929 29.333,173.250 29.333 C 173.571 29.333,173.833 29.258,173.833 29.167 C 173.833 29.068,174.444 29.000,175.333 29.000 C 176.222 29.000,176.833 29.068,176.833 29.167 C 176.833 29.258,177.058 29.333,177.333 29.333 C 177.608 29.333,177.833 29.408,177.833 29.500 C 177.833 29.592,177.941 29.667,178.072 29.667 C 178.389 29.667,180.333 31.602,180.333 31.919 C 180.333 32.055,180.400 32.167,180.481 32.167 C 180.562 32.167,180.664 32.354,180.707 32.583 L 180.787 33.000 176.727 33.000 C 174.131 33.000,172.667 33.060,172.667 33.167 C 172.667 33.263,172.139 33.333,171.417 33.333 C 170.694 33.333,170.167 33.404,170.167 33.500 C 170.167 33.592,169.867 33.667,169.500 33.667 C 169.133 33.667,168.833 33.742,168.833 33.833 C 168.833 33.925,168.646 34.000,168.417 34.000 C 168.188 34.000,168.000 34.075,168.000 34.167 C 168.000 34.258,167.775 34.333,167.500 34.333 C 167.225 34.333,167.000 34.390,166.999 34.458 C 166.999 34.527,166.662 34.722,166.249 34.892 C 165.837 35.061,165.500 35.267,165.500 35.350 C 165.500 35.432,165.412 35.500,165.305 35.500 C 165.118 35.500,163.667 36.912,163.667 37.093 C 163.667 37.141,163.517 37.342,163.333 37.538 C 163.150 37.735,163.000 38.063,163.000 38.268 C 163.000 38.472,162.911 38.669,162.802 38.705 C 162.685 38.744,162.574 39.229,162.532 39.886 C 162.493 40.499,162.395 41.000,162.314 41.000 C 162.233 41.000,162.167 41.487,162.167 42.083 C 162.167 42.679,162.231 43.167,162.309 43.167 C 162.388 43.167,162.493 43.710,162.544 44.375 C 162.675 46.081,164.562 49.000,165.535 49.000 C 165.659 49.000,165.868 49.150,166.000 49.333 C 166.132 49.517,166.411 49.667,166.620 49.667 C 166.829 49.667,167.000 49.742,167.000 49.833 C 167.000 49.925,167.150 50.000,167.333 50.000 C 167.517 50.000,167.667 50.075,167.667 50.167 C 167.667 50.258,167.914 50.333,168.217 50.333 C 168.519 50.333,168.859 50.425,168.971 50.538 C 169.266 50.833,176.230 50.836,176.525 50.542 C 176.639 50.427,176.939 50.333,177.190 50.333 C 177.441 50.333,177.693 50.258,177.750 50.167 C 177.807 50.075,177.999 50.000,178.177 50.000 C 178.354 50.000,178.500 49.925,178.500 49.833 C 178.500 49.742,178.612 49.667,178.750 49.667 C 178.887 49.667,179.000 49.592,179.000 49.500 C 179.000 49.408,179.122 49.333,179.272 49.333 C 179.422 49.333,179.666 49.194,179.814 49.024 C 179.962 48.854,180.252 48.661,180.458 48.596 C 180.665 48.531,180.833 48.408,180.833 48.322 C 180.833 48.237,180.908 48.167,181.000 48.167 C 181.094 48.167,181.167 48.639,181.167 49.250 L 181.167 50.333 186.095 50.333 L 191.023 50.333 190.970 41.139 C 190.928 33.969,190.871 31.929,190.708 31.875 C 190.594 31.837,190.500 31.549,190.500 31.236 C 190.500 30.923,190.425 30.667,190.333 30.667 C 190.242 30.667,190.167 30.442,190.167 30.167 C 190.167 29.892,190.092 29.667,190.000 29.667 C 189.908 29.667,189.833 29.517,189.833 29.333 C 189.833 29.150,189.758 29.000,189.667 29.000 C 189.575 29.000,189.500 28.887,189.500 28.750 C 189.500 28.613,189.425 28.500,189.333 28.500 C 189.242 28.500,189.167 28.350,189.167 28.167 C 189.167 27.983,189.099 27.833,189.016 27.833 C 188.934 27.833,188.787 27.607,188.691 27.331 C 188.595 27.055,188.400 26.784,188.258 26.730 C 188.116 26.676,188.000 26.525,188.000 26.395 C 188.000 26.111,186.438 24.500,186.162 24.500 C 186.055 24.500,185.757 24.275,185.500 24.000 C 185.243 23.725,184.951 23.500,184.850 23.500 C 184.749 23.500,184.667 23.439,184.667 23.364 C 184.667 23.198,183.583 22.667,183.244 22.667 C 183.110 22.667,183.000 22.592,183.000 22.500 C 183.000 22.408,182.813 22.333,182.583 22.333 C 182.354 22.333,182.167 22.258,182.167 22.167 C 182.167 22.075,181.942 22.000,181.667 22.000 C 181.392 22.000,181.167 21.925,181.167 21.833 C 181.167 21.742,180.984 21.667,180.760 21.667 C 180.536 21.667,180.307 21.592,180.250 21.500 C 180.193 21.408,179.781 21.333,179.333 21.333 C 178.886 21.333,178.473 21.258,178.417 21.167 C 178.355 21.067,177.279 21.000,175.750 21.000 C 174.221 21.000,173.145 21.067,173.083 21.167 M211.755 21.158 C 211.696 21.255,211.239 21.333,210.740 21.333 C 210.241 21.333,209.833 21.408,209.833 21.500 C 209.833 21.592,209.646 21.667,209.417 21.667 C 209.188 21.667,209.000 21.742,209.000 21.833 C 209.000 21.925,208.850 22.000,208.667 22.000 C 208.483 22.000,208.333 22.075,208.333 22.167 C 208.333 22.258,208.183 22.333,208.000 22.333 C 207.817 22.333,207.667 22.392,207.667 22.464 C 207.667 22.536,207.423 22.739,207.125 22.915 C 206.455 23.311,205.833 23.920,205.833 24.181 C 205.833 24.289,205.694 24.499,205.524 24.647 C 205.354 24.795,205.161 25.085,205.096 25.292 C 204.824 26.153,204.667 25.557,204.667 23.667 L 204.667 21.667 199.417 21.667 L 194.167 21.667 194.167 36.000 L 194.167 50.333 199.417 50.333 L 204.667 50.333 204.667 44.750 C 204.667 41.679,204.731 39.167,204.809 39.167 C 204.888 39.167,204.999 38.666,205.056 38.053 C 205.113 37.441,205.236 36.864,205.330 36.770 C 205.423 36.677,205.500 36.444,205.500 36.253 C 205.500 36.063,205.650 35.799,205.833 35.667 C 206.017 35.535,206.167 35.340,206.167 35.235 C 206.167 34.986,207.766 33.333,208.007 33.333 C 208.108 33.333,208.303 33.221,208.440 33.083 C 208.578 32.946,208.831 32.833,209.002 32.833 C 209.173 32.833,209.360 32.758,209.417 32.667 C 209.473 32.575,209.773 32.500,210.083 32.500 C 210.393 32.500,210.693 32.425,210.750 32.333 C 210.807 32.242,211.450 32.167,212.179 32.167 L 213.504 32.167 213.461 26.625 L 213.417 21.083 212.640 21.033 C 212.213 21.006,211.815 21.062,211.755 21.158 M85.833 24.000 C 85.833 24.092,85.683 24.167,85.500 24.167 C 85.317 24.167,85.167 24.242,85.167 24.333 C 85.167 24.425,85.044 24.500,84.894 24.500 C 84.550 24.500,83.000 26.060,83.000 26.407 C 83.000 26.550,82.925 26.667,82.833 26.667 C 82.742 26.667,82.667 26.854,82.667 27.083 C 82.667 27.313,82.592 27.500,82.500 27.500 C 82.391 27.500,82.333 31.417,82.333 38.917 L 82.333 50.333 87.917 50.333 L 93.500 50.333 93.500 38.950 C 93.500 27.663,93.456 26.673,92.958 26.668 C 92.890 26.667,92.833 26.550,92.833 26.407 C 92.833 26.060,91.284 24.500,90.939 24.500 C 90.789 24.500,90.667 24.425,90.667 24.333 C 90.667 24.242,90.517 24.167,90.333 24.167 C 90.150 24.167,90.000 24.092,90.000 24.000 C 90.000 23.898,89.194 23.833,87.917 23.833 C 86.639 23.833,85.833 23.898,85.833 24.000 M148.806 29.192 C 148.836 29.270,149.045 29.333,149.269 29.333 C 149.710 29.333,151.333 30.857,151.333 31.271 C 151.333 31.397,151.408 31.500,151.500 31.500 C 151.592 31.500,151.667 31.650,151.667 31.833 C 151.667 32.017,151.742 32.167,151.833 32.167 C 151.925 32.167,152.000 32.354,152.000 32.583 L 152.000 33.000 147.500 33.000 C 143.611 33.000,143.000 32.966,143.000 32.750 C 143.000 32.612,143.075 32.500,143.167 32.500 C 143.258 32.500,143.333 32.350,143.333 32.167 C 143.333 31.983,143.408 31.833,143.500 31.833 C 143.592 31.833,143.667 31.683,143.667 31.500 C 143.667 31.317,143.742 31.167,143.833 31.167 C 143.925 31.167,144.001 31.073,144.003 30.958 C 144.007 30.636,144.928 29.667,145.230 29.667 C 145.379 29.667,145.500 29.592,145.500 29.500 C 145.500 29.408,145.650 29.333,145.833 29.333 C 146.017 29.333,146.167 29.263,146.167 29.177 C 146.167 28.863,148.682 28.878,148.806 29.192 M340.314 30.036 C 340.390 30.499,340.414 30.523,340.466 30.189 C 340.500 29.972,340.460 29.726,340.376 29.642 C 340.283 29.550,340.259 29.705,340.314 30.036 M181.167 39.157 C 181.167 39.335,181.102 39.521,181.022 39.570 C 180.943 39.619,180.837 40.015,180.788 40.449 C 180.740 40.884,180.617 41.267,180.516 41.300 C 180.416 41.334,180.333 41.476,180.333 41.616 C 180.333 41.912,179.018 43.167,178.708 43.167 C 178.594 43.167,178.500 43.242,178.500 43.333 C 178.500 43.425,178.350 43.500,178.167 43.500 C 177.983 43.500,177.833 43.575,177.833 43.667 C 177.833 43.758,177.496 43.833,177.083 43.833 C 176.671 43.833,176.333 43.908,176.333 44.000 C 176.333 44.092,176.183 44.167,176.000 44.167 C 175.817 44.167,175.667 44.092,175.667 44.000 C 175.667 43.908,175.329 43.833,174.917 43.833 C 174.504 43.833,174.167 43.771,174.167 43.695 C 174.167 43.619,173.960 43.450,173.708 43.320 C 173.065 42.988,172.866 42.772,172.740 42.269 C 172.679 42.027,172.563 41.789,172.482 41.739 C 171.976 41.426,172.914 39.500,173.571 39.500 C 173.715 39.500,173.833 39.425,173.833 39.333 C 173.833 39.242,174.021 39.167,174.250 39.167 C 174.479 39.167,174.667 39.092,174.667 39.000 C 174.667 38.895,175.861 38.833,177.917 38.833 C 181.023 38.833,181.167 38.848,181.167 39.157 " stroke="none" fill="#141c24" fill-rule="evenodd"></path><path id="path3" d="" stroke="none" fill="#c8285c" fill-rule="evenodd"></path></g></svg>