<svg width="1128" height="384" xmlns="http://www.w3.org/2000/svg" version="1.1">

 <g>
  <title>Layer 1</title>
  <g id="color-ffffffff"/>
  <g stroke="null" id="color-090504ff">
   <path stroke="null" id="svg_1" d="m411.72779,56.81706c23.94986,-3.43364 48.84182,-0.77082 71.32791,8.27656c32.98166,12.91704 60.44302,39.05477 75.12749,71.26562c12.34087,26.70611 15.57986,57.36754 9.69362,86.14474c-5.75388,27.64823 -20.14248,53.4823 -40.83778,72.72161c-0.94211,0.9499 -2.12559,1.96208 -1.91537,3.457c-0.08565,10.29314 0.01557,20.58629 -0.02336,30.87943c-12.80025,-2.02437 -25.45256,-4.91299 -38.21388,-7.1398c-3.09884,-0.00779 -5.83953,1.81415 -8.75151,2.67061c-21.27146,7.5836 -44.41935,9.72476 -66.74193,6.4157c-27.00977,-3.94752 -52.71927,-16.18718 -72.84618,-34.60894c-18.01689,-16.32732 -31.63468,-37.46642 -38.96913,-60.64546c-9.21088,-28.97185 -8.65029,-61.0114 1.86086,-89.54724c8.33106,-23.04668 22.9766,-43.74197 41.83439,-59.36855c19.43395,-16.21053 43.39938,-26.90855 68.45486,-30.52127m65.02121,27.01756c3.457,2.60832 7.26437,4.70277 10.75252,7.26437c11.67127,8.36221 22.5873,17.82224 32.38214,28.3334c9.77148,10.40993 18.33612,21.88656 26.26231,33.74469c-6.68821,-25.33577 -23.14011,-48.56931 -46.42037,-61.12819c-7.21766,-3.77623 -14.8324,-7.15537 -22.9766,-8.21427m2.10223,17.09814c2.81076,2.29688 5.97968,4.08767 8.89944,6.22105c12.69124,9.19531 24.01215,20.25927 33.58119,32.66243c3.21563,4.14217 5.97968,8.60357 9.17974,12.76132c-3.32464,-12.51217 -9.77927,-24.23015 -18.77993,-33.55004c-8.93059,-8.94616 -20.32156,-15.89131 -32.88044,-18.09476m-1.30805,16.47526c9.06295,6.33005 18.03247,13.0494 25.06326,21.67633c4.24339,4.63269 7.76268,9.84155 11.48441,14.87912c-1.77522,-6.00304 -4.20446,-11.87371 -7.79383,-17.02807c-6.64149,-9.83377 -17.03585,-17.26165 -28.75384,-19.52739m-53.31101,7.38895c-12.23187,1.3392 -24.12894,6.00304 -33.97049,13.40756c-12.59781,9.2576 -21.84763,22.96103 -25.80293,38.08152c-3.72951,13.99151 -3.00541,29.18208 2.20345,42.71421c4.86627,12.79246 13.57885,24.10558 24.7596,32.00841c11.82699,8.55686 26.44139,13.08833 41.01685,12.96376c15.05041,-0.04672 30.03854,-5.20107 41.93561,-14.41974c13.70343,-10.33986 23.18682,-26.01316 26.24674,-42.8855c2.4526,-13.78908 0.78639,-28.34118 -5.03757,-41.1025c-6.67264,-14.89469 -18.76435,-27.29785 -33.49554,-34.32086c-11.67906,-5.67602 -24.96204,-7.82497 -37.85572,-6.44684m-107.74321,108.49846c3.60494,19.58189 15.27621,37.10048 30.45899,49.71386c11.39098,9.12524 24.68174,16.05481 38.83676,19.66754c-6.68042,-4.73391 -13.67228,-9.07074 -19.95562,-14.36524c-16.13267,-12.87811 -30.52127,-27.95188 -42.41834,-44.83201c-2.39031,-3.34021 -4.39133,-6.94515 -6.92179,-10.18414m17.16043,2.14116c1.46378,8.68143 5.43466,16.77113 10.45665,23.93428c9.79484,13.75793 24.83747,23.34255 41.04021,27.70273c-3.93195,-3.19228 -8.3077,-5.79281 -12.29416,-8.9228c-14.48203,-11.12625 -27.23557,-24.5961 -37.13162,-39.96574c-0.65403,-0.9499 -1.35477,-1.86086 -2.07109,-2.74847m16.97357,-0.24915c0.88761,6.05754 3.82295,11.61677 7.36559,16.52198c6.90622,9.46004 17.40958,15.89909 28.62148,18.93565c-3.19228,-2.54603 -6.68042,-4.70277 -9.90384,-7.22544c-6.77385,-5.38015 -13.04162,-11.41433 -18.43734,-18.18819c-2.74847,-3.20006 -4.75727,-6.96072 -7.64589,-10.04399z" fill="#090504"/>
   <path stroke="null" id="svg_2" d="m620.6973,59.36309c29.34558,-7.16316 61.04255,-4.67941 88.73749,7.50574c25.54599,11.09511 47.56491,30.10861 62.30389,53.73146c14.67668,23.28026 22.08121,51.03749 20.98338,78.52999c-0.80196,25.81072 -9.11745,51.31 -23.61506,72.67489c-15.93802,23.67735 -39.35064,42.23926 -66.07233,52.28325c-26.83069,10.2075 -56.87702,11.67906 -84.61089,4.31347c-22.40043,-5.9096 -43.27481,-17.54195 -59.99922,-33.58119c16.30397,-20.56293 27.63265,-45.0656 32.35099,-70.89967c4.29011,8.1987 9.58461,15.99252 16.59205,22.12014c11.00167,9.9272 25.21898,16.31175 40.00467,17.60423c11.59341,1.12119 23.47491,-0.65403 34.15735,-5.34901c14.89469,-6.28333 27.35236,-18.03247 34.67123,-32.42885c11.01725,-21.28703 9.9272,-48.30459 -2.93534,-68.54829c-8.13641,-13.09612 -20.71086,-23.43598 -35.23961,-28.65262c-14.03823,-5.25558 -29.7816,-5.58259 -44.12348,-1.35477c-11.82699,3.63608 -22.70409,10.371 -31.05072,19.52739c-5.00642,5.0765 -8.54907,11.29754 -12.08393,17.42516c-2.53046,-12.93261 -6.36119,-25.655 -11.99829,-37.58321c-5.31786,-11.92821 -12.49659,-22.89096 -20.32935,-33.2931c17.44073,-16.37404 38.99248,-28.34897 62.25717,-34.02499z" fill="#090504"/>
   <path stroke="null" id="svg_3" d="m198.87305,59.47988c20.2437,-0.17129 40.47962,0 60.72332,-0.08565c2.77962,-0.02336 5.55923,0.01557 8.33106,0.21801c-0.0545,61.2917 0,122.5834 -0.02336,183.8751c-0.14793,18.9045 -7.03079,37.66886 -19.1848,52.15089c-15.27621,18.57749 -39.00027,29.99961 -63.09806,29.94511c-17.97796,-0.0545 -35.96372,0.12458 -53.94168,-0.09343c-0.15572,-22.96103 -0.12458,-45.92206 -0.01557,-68.8753c17.75217,-0.11679 35.49655,0.01557 53.24094,-0.0545c7.37338,0.16351 14.14723,-6.37677 13.9448,-13.81243c0.03893,-61.08926 -0.00779,-122.17853 0.02336,-183.26779z" fill="#090504"/>
   <path stroke="null" id="svg_4" d="m775.5149,59.56553c22.91431,-0.31923 45.85199,-0.13236 68.77408,-0.09343c13.03383,22.62623 26.02094,45.29139 38.99248,67.96434c0.70853,1.19905 1.46378,2.38253 2.24238,3.55822c13.68007,-23.17904 26.81512,-46.68509 40.28497,-69.99649c0.80196,-2.07109 3.14556,-1.51828 4.92078,-1.6195c21.61404,0.17129 43.24366,-0.18686 64.85771,0.17908c-7.76268,14.29517 -16.14046,28.26332 -24.13672,42.43391c-17.02807,29.8361 -34.30529,59.54763 -51.16206,89.46159c2.25795,5.30229 5.68381,10.05178 8.40892,15.13606c18.69428,32.70136 37.47421,65.34823 56.18406,98.03402c5.05314,9.02402 10.43329,17.85339 15.3385,26.95527c-12.7691,0.23358 -25.55378,0.03114 -38.32289,0.10122c-10.08292,-0.13236 -20.1892,0.24915 -30.24876,-0.16351c-2.67061,-2.72511 -3.98645,-6.49356 -6.04197,-9.67805c-13.37642,-23.21018 -26.50368,-46.56051 -40.06696,-69.65391c-5.60595,8.96173 -10.57344,18.31276 -15.92245,27.43022c-7.54467,13.22069 -15.17499,26.40246 -22.72745,39.62315c-2.53825,4.03317 -4.39911,8.52571 -7.35781,12.2708c-13.69564,0.41266 -27.43022,0.04672 -41.14143,0.17129c-9.16417,-0.07786 -18.32834,0.16351 -27.48472,-0.13236c6.29891,-11.83478 13.2752,-23.28804 19.83104,-34.98267c17.23829,-29.99961 34.41429,-60.03036 51.63701,-90.03776c2.68618,-5.08428 6.11983,-9.81041 8.32328,-15.12049c-21.26367,-37.62214 -42.97115,-75.03406 -64.4139,-112.57056c-3.55043,-6.44684 -7.56803,-12.64453 -10.76809,-19.27045z" fill="#090504"/>
   <path stroke="null" id="svg_5" d="m427.29987,176.89335c4.95192,-1.3937 10.63573,-0.73189 14.7779,2.4526c5.48137,3.90081 8.09748,11.28976 6.30669,17.76774c-1.75964,7.06972 -8.59579,12.51217 -15.91466,12.34087c-6.53249,0.27251 -12.88589,-3.90081 -15.47086,-9.84934c-2.15673,-4.78063 -1.89979,-10.60459 0.79418,-15.12049c2.09444,-3.58158 5.5748,-6.30669 9.50675,-7.59139z" fill="#090504"/>
  </g>
 </g>
</svg>