<svg width="581" height="239" xmlns="http://www.w3.org/2000/svg">
 <!-- Created with Method Draw - http://github.com/duopixel/Method-Draw/ -->

 <g>
  <title>background</title>
  <rect fill="none" id="canvas_background" height="241" width="583" y="-1" x="-1"/>
  <g display="none" overflow="visible" y="0" x="0" height="100%" width="100%" id="canvasGrid">
   <rect fill="url(#gridpattern)" stroke-width="0" y="0" x="0" height="100%" width="100%"/>
  </g>
 </g>
 <g>
  <title>Layer 1</title>
  <style transform="matrix(0.16000000476837162,0,0,0.16000000476837162,0,0) " type="text/css">.st0{fill:#25292B;}</style>
  <g stroke="null" id="svg_31">
   <g stroke="null" transform="matrix(1.418640026409626,0,0,1.418640026409626,-2916.9571235618787,-2325.4632135543216) " id="svg_17">
    <path stroke="null" d="m2401.177243,1708.949917l-4.7,0c-1.3,0 -2.4,1.1 -2.4,2.4l0,18.1c0,2.3 -0.3,4.1 -0.9,5.5c-1.2,2.6 -3.3,3.9 -6.5,3.9c-2.5,0 -4.1,-0.9 -5,-2.7c-0.5,-1 -0.7,-2.6 -0.7,-4.6l0,-20.2c0,-1.3 -1.1,-2.4 -2.4,-2.4l-4.8,0c-1.3,0 -2.4,1.1 -2.4,2.4l0,20.2c0,4.1 0.5,7.2 1.5,9.3c1.8,3.8 5.4,5.7 10.6,5.7c1.8,0 3.4,-0.2 4.8,-0.7c1.4,-0.5 2.8,-1.4 4.2,-2.7c0.5,-0.4 0.9,-0.9 1.2,-1.4c0.3,-0.5 0.6,-0.9 0.6,-1l0,2.9c0,1.3 1.1,2.4 2.4,2.4l4.3,0c1.3,0 2.4,-1.1 2.4,-2.4l0,-32.2c0.1,-1.4 -0.9,-2.5 -2.2,-2.5z" class="st0" id="svg_29"/>
    <path stroke="null" d="m2324.677243,1696.549917l-4.7,0c-1.3,0 -2.4,1.1 -2.4,2.4l0,44.6c0,1.3 1.1,2.4 2.4,2.4l4.7,0c1.3,0 2.4,-1.1 2.4,-2.4l0,-44.6c0,-1.3 -1.1,-2.4 -2.4,-2.4z" class="st0" id="svg_28"/>
    <path stroke="null" d="m2241.477243,1708.949917l-4.7,0c-1.3,0 -2.4,1.1 -2.4,2.4l0,32.2c0,1.3 1.1,2.4 2.4,2.4l4.7,0c1.3,0 2.4,-1.1 2.4,-2.4l0,-32.2c0,-1.4 -1.1,-2.4 -2.4,-2.4z" class="st0" id="svg_27"/>
    <path stroke="null" d="m2234.377243,1702.849917c0,1.3 1.1,2.4 2.4,2.4l4.7,0c1.3,0 2.4,-1.1 2.4,-2.4l0,-3.9c0,-1.3 -1.1,-2.4 -2.4,-2.4l-4.7,0c-1.3,0 -2.4,1.1 -2.4,2.4l0,3.9z" class="st0" id="svg_26"/>
    <path stroke="null" d="m2363.077243,1740.849917c-3,3.7 -7.6,5.6 -13.7,5.6c-6.1,0 -10.7,-1.9 -13.7,-5.6c-3,-3.7 -4.5,-8.2 -4.5,-13.5c0,-5.2 1.5,-9.6 4.5,-13.4c3,-3.8 7.6,-5.7 13.7,-5.7c6.1,0 10.7,1.9 13.7,5.7c3,3.8 4.5,8.3 4.5,13.4c0,5.3 -1.5,9.8 -4.5,13.5zm-7.5,-5.1c1.5,-1.9 2.2,-4.7 2.2,-8.3c0,-3.6 -0.7,-6.3 -2.2,-8.3c-1.5,-1.9 -3.6,-2.9 -6.3,-2.9c-2.7,0 -4.8,1 -6.3,2.9c-1.5,1.9 -2.2,4.7 -2.2,8.3c0,3.6 0.7,6.4 2.2,8.3c1.5,1.9 3.6,2.9 6.3,2.9c2.8,0 4.9,-1 6.3,-2.9z" class="st0" id="svg_25"/>
    <path stroke="null" d="m2439.977243,1696.549917l-4.7,0c-1.3,0 -2.4,1.1 -2.4,2.4l0,15.1c-1,-1.7 -2.4,-3 -4.1,-4c-1.7,-1 -3.6,-1.4 -5.8,-1.4c-4.7,0 -8.4,1.8 -11.2,5.3c-2.8,3.5 -4.2,8.3 -4.2,14.4c0,5.3 1.4,9.6 4.3,13c2.8,3.4 6.3,5.1 10.5,5.1c2.5,0 4.6,-0.5 6.3,-1.4c1.7,-1 3.2,-2.5 4.5,-4.6l0,3.2c0,1.3 1.1,2.4 2.4,2.4l4.3,0c1.3,0 2.4,-1.1 2.4,-2.4l0,-44.7c0.1,-1.3 -1,-2.4 -2.3,-2.4zm-8.8,39c-1.4,2 -3.4,3 -6,3c-2.6,0 -4.6,-1 -5.9,-3c-1.3,-2 -1.9,-4.6 -1.9,-7.9c0,-3.1 0.6,-5.6 1.9,-7.7c1.3,-2.1 3.3,-3.1 6,-3.1c1.8,0 3.4,0.6 4.7,1.7c2.2,1.9 3.3,5 3.3,9.4c-0.1,3.1 -0.8,5.6 -2.1,7.6z" class="st0" id="svg_24"/>
    <path stroke="null" d="m2279.977243,1742.349917l0,0l-10.1,-14.9l9.6,-14.9l0,0c0.2,-0.3 0.3,-0.8 0.3,-1.2c0,-1.3 -1.1,-2.4 -2.4,-2.4l-5.3,0c-0.9,0 -1.6,0.5 -2,1.2l-5.4,9.8l-5.6,-9.8l0,0c-0.4,-0.7 -1.2,-1.2 -2,-1.2l-5.6,0c-1.3,0 -2.4,1.1 -2.4,2.4c0,0.4 0.1,0.8 0.3,1.2l0,0l9.6,14.9l-10.1,14.9l0,0c-0.2,0.3 -0.3,0.8 -0.3,1.2c0,1.3 1.1,2.4 2.4,2.4l5.5,0c0.9,0 1.6,-0.5 2,-1.2l0,0l5.8,-10.2l5.8,10.2c0.4,0.7 1.2,1.2 2,1.2l5.8,0c1.3,0 2.4,-1.1 2.4,-2.4c0,-0.5 -0.1,-0.9 -0.3,-1.2z" class="st0" id="svg_23"/>
    <path stroke="null" d="m2313.277243,1734.649917c0,-0.2 0,-0.4 -0.1,-0.6c-0.1,-0.2 -0.1,-0.4 -0.2,-0.6c-0.4,-0.7 -1.2,-1.2 -2,-1.2l-4.7,0c-1.1,0 -2,0.8 -2.3,1.8c-0.3,1.1 -0.7,2 -1.4,2.8c-0.9,1.2 -2.5,1.8 -4.7,1.8c-3.1,0 -5.2,-1.5 -6.3,-4.5c-0.6,-1.6 -0.9,-3.7 -0.9,-6.3c0,-2.8 0.3,-5 0.9,-6.6c1.2,-3.1 3.3,-4.7 6.5,-4.7c2.2,0 3.8,0.7 4.9,2.2c0.4,0.6 0.7,1.2 0.9,1.8l0,0c0.1,0.2 0.1,0.4 0.2,0.6c0.4,0.7 1.2,1.2 2,1.2l4.9,0c1.3,0 2.4,-1.1 2.4,-2.4c0,-0.2 0,-0.4 -0.1,-0.6l0,0c-0.8,-3.5 -2.3,-6.1 -4.6,-7.7c-2.8,-2 -6.5,-3 -11,-3c-5.3,0 -9.4,1.7 -12.4,5.1c-3,3.4 -4.5,8.2 -4.5,14.3c0,5.4 1.4,9.9 4.1,13.3c2.7,3.4 6.9,5.1 12.7,5.1c5.7,0 10.1,-2 13,-6.1c1.1,-1.6 2,-3.2 2.5,-5c0,-0.1 0.1,-0.3 0.1,-0.4l0,0c0.1,-0.1 0.1,-0.2 0.1,-0.3z" class="st0" id="svg_22"/>
    <path stroke="null" d="m2226.077243,1696.549917l-12.1,0c-0.9,0 -1.6,0.5 -2,1.2c-0.1,0.2 -0.2,0.4 -0.2,0.6l-6.6,33l-6.7,-33c-0.1,-0.2 -0.1,-0.4 -0.2,-0.6c-0.4,-0.7 -1.1,-1.1 -1.9,-1.2l-12.3,0c-1.3,0 -2.3,1.1 -2.3,2.4l0,44.6c0,1.3 1,2.4 2.3,2.4l4.7,0c1.3,0 2.4,-1.1 2.4,-2.4c0,0 0,-36.5 0,-37.4l8.7,38c0.1,0.2 0.1,0.4 0.2,0.6c0.4,0.7 1.2,1.2 2,1.2l6.1,0c0.9,0 1.6,-0.5 2,-1.2c0.1,-0.2 0.2,-0.4 0.2,-0.6l0.1,-0.6l8.6,-37.4c0,0.9 0,37.4 0,37.4c0,1.3 1,2.4 2.3,2.4l4.7,0c1.3,0 2.4,-1.1 2.4,-2.4l0,-44.6c0,-1.3 -1.1,-2.4 -2.4,-2.4z" class="st0" id="svg_21"/>
    <path stroke="null" d="m2161.977243,1751.349917c-0.6,0 -1.2,-0.2 -1.7,-0.5c-1.4,-1 -1.8,-2.9 -0.8,-4.3c2.8,-4.3 4.3,-9.2 4.3,-14.4c0,-5.2 -1.5,-10.2 -4.3,-14.4c-0.9,-1.4 -0.6,-3.3 0.8,-4.3c1.4,-1 3.3,-0.6 4.3,0.8c3.5,5.3 5.4,11.4 5.4,17.9c0,6.4 -1.9,12.6 -5.4,17.8c-0.7,0.9 -1.6,1.4 -2.6,1.4z" class="st0" id="svg_20"/>
    <path stroke="null" d="m2153.177243,1746.349917c-0.6,0 -1.2,-0.2 -1.7,-0.5c-1.4,-1 -1.8,-2.9 -0.8,-4.3c1.9,-2.8 2.9,-6 2.9,-9.4c0,-3.4 -1,-6.6 -2.9,-9.4c-1,-1.4 -0.6,-3.3 0.8,-4.3c1.4,-1 3.3,-0.6 4.3,0.8c2.6,3.8 3.9,8.3 3.9,12.8c0,4.6 -1.4,9 -3.9,12.8c-0.7,1 -1.6,1.5 -2.6,1.5z" class="st0" id="svg_19"/>
    <path stroke="null" d="m2138.777243,1718.649917c-1.2,-12.4 -11.6,-22.1 -24.3,-22.1c-10.5,0 -19.8,6.8 -23.1,16.6c-7.9,1.2 -14,8 -14,16.3c0,9.1 7.4,16.5 16.4,16.5l42,0c7.6,0 13.7,-6.2 13.7,-13.8c0.1,-6.6 -4.5,-12.1 -10.7,-13.5zm-3,21.1l-42,0c-5.7,0 -10.3,-4.6 -10.3,-10.3c0,-5.7 4.6,-10.3 10.3,-10.3c2.7,0 5.3,1.1 7.3,3c1.2,1.2 3.1,1.2 4.4,0c1.2,-1.2 1.2,-3.2 0,-4.4c-2.1,-2.1 -4.7,-3.6 -7.6,-4.3c2.9,-6.4 9.4,-10.7 16.6,-10.7c10.1,0 18.3,8.2 18.3,18.3c0,2 -0.3,3.9 -0.9,5.7c-0.5,1.6 0.3,3.4 2,3.9c0.3,0.1 0.6,0.2 1,0.2c1.3,0 2.5,-0.8 2.9,-2.1c0.4,-1.2 0.7,-2.5 0.9,-3.7c2.8,1.1 4.8,3.9 4.8,7.1c-0.1,4.1 -3.5,7.6 -7.7,7.6z" class="st0" id="svg_18"/>
   </g>
  </g>
 </g>
</svg>