<svg xmlns="http://www.w3.org/2000/svg" width="400" height="200.6"><g fill-rule="evenodd"><path d="M75.6 72.4a33.9 33.9 0 00-7.2 2c-2.8 1.2-6.6 5.2-6.6 7l-.2.6c-.7.7-1 6.7-.5 9a12.3 12.3 0 008 8.4l1.1.5 1 .3c.3 0 .7.2.7.3l.7.2c.3 0 .7.1 1 .3.1.2.5.3.8.3l1 .3 1.7.6 1.4.5.7.2c.3 0 .7.1 1 .3.2.2.5.3.8.3.2 0 .7.1 1 .3l1.8.6 1.4.5.7.3c.5 0 1.5.4 2.5.9l1 .2.6.2 1.2.5c2.8 1.3 3.7 2.8 3.7 6.1 0 1.6 0 2.3-.3 2.6-.2.2-.3.5-.3.7 0 .4-2 2.5-2.7 2.8l-1.3.7-1.2.5-.6.1c-2 1-11 1.3-14.3.4-3.2-.8-5.5-2.4-6.8-4.7a6 6 0 01-.4-1.9v-1.4H59l.2 1.5c.1 2.3.3 3.2.6 3.6l.3.8c0 1.4 3.4 5.5 5.8 7a16.4 16.4 0 005.1 2.2l1 .3 1.4.3c3.2 1 11.2 1 15 0a22.2 22.2 0 004.6-1.4l.6-.3c.1-.2.4-.3.6-.3l.4-.2c0-.1.2-.3.5-.3l.5-.3c0-.1 0-.2.2-.2 1 0 4.5-3.9 5.3-5.8l.3-.7c.8-1.8.9-2.5.9-6.2 0-2.7 0-3.8-.2-4a1 1 0 01-.3-.7c0-2-4-6.6-7-7.9a41.3 41.3 0 01-2.3-1l-1-.3-1.8-.6-1.5-.5L86 97l-2.4-.8-.7-.2-1-.3-2.6-1c-.8-.1-1.9-.5-2.3-.7l-.7-.2-1-.3-2.4-.9c-2.5-.6-4.7-3-4.7-5a12.2 12.2 0 011-3.7c0-.8 3.2-3.2 4.2-3.2l.5-.1a32.5 32.5 0 0114.6.1c1.7 0 4.8 3 4.8 4.6 0 1.4.3 1.5 4.3 1.4h3.6v-1.5c0-1.6-.3-3-.8-3.9l-.3-.8c0-1.2-3.3-4.6-5.8-5.8a767.8 767.8 0 01-3.3-1.4l-1.3-.3a25 25 0 00-2.1-.5 90 90 0 00-12-.2m34.1 22a196.5 196.5 0 00.6 23l.2.6a17.3 17.3 0 008 9.5c.8.5 2.6 1.3 3 1.3l1 .3a5 5 0 001.9.3h1.4v-6.8l-.6-.3c-.3-.2-.8-.3-1-.3-.4 0-1-.3-2-.9a7 7 0 00-.6-.3c-1.2-.5-3.8-4-3.8-5.1 0-.3-.2-.6-.3-.7-.3-.4-.5-17.6-.1-18 .2-.3 1-.3 4-.3 4.9 0 4.4.5 4.4-4v-3.8h-4.3l-4.2-.1-.1-7.7v-7.7h-7.5v21m61.8-1.8c0 19.5.2 23.5.8 24.2l.2.8.3.9c.2.2.3.5.3.8l.3.7c.2.1.3.3.3.5l.5 1 .5.8c0 .2 2.9 3.2 3.7 3.8a17 17 0 004.8 2.4c.8.8 9 1.2 11.3.6a18.6 18.6 0 005.5-2.2 23 23 0 004.8-4.6l.5-.8a8.2 8.2 0 001.2-2.5c0-.3.2-.7.3-.8l.2-.6a45.9 45.9 0 00-.6-20.1l-1.5-3.1c-.4-.6-2.9-3.2-3.3-3.4l-1.3-.7a13.6 13.6 0 00-4-1.7c-1-.6-8.4-.9-10.3-.4-1.9.5-4 1.5-5.3 2.6-1 .7-1.6.9-1.6.4V73.5h-7.6v19.1m43.5-19c-.2.1-.2 54.8 0 55.3 0 .2.6.3 3.8.3h3.7V117c0-11.8 0-12.2.4-12.4.4-.2 25-.3 25.5 0 .3 0 .3 1.3.3 12 0 9 .1 12 .3 12.2.2.2 1.3.3 3.9.3h3.7V73.4h-3.9l-3.9.1V85c0 8.1-.1 11.6-.3 11.8-.4.5-25.1.4-25.6-.1-.4-.4-.4-.7-.4-11.8V73.4h-3.7c-2 0-3.7 0-3.8.2m87.6 0c-.2.2-.1 38.7.1 40.1A17.8 17.8 0 00308 125a16.9 16.9 0 008.2 4.1 30.2 30.2 0 0011.5-.7 19 19 0 004.3-2.1 19.4 19.4 0 004.8-5.7l.2-.4.3-.8c.6-1.1.8-2 1.3-4.8.3-1.5.2-12.2-.2-13.5-.9-3.3-1-3.6-2.3-6.2-.7-1.3-3.2-3.8-4.6-4.5a179 179 0 00-3.3-1.5 33.3 33.3 0 00-11-.7c-2 .3-5.9 2.2-6.2 3.1l-.5.2c-.4 0-.4-.3-.4-9v-9h-7.5m-169.8 28.2l.2 14a17.1 17.1 0 001 4.9l.3.9c.2.2.3.5.3.8 0 .2 0 .5.2.5l.5.9a12 12 0 006.2 4.9 30 30 0 0014.6-.2l1.2-.5 1.3-.7c.4-.2 2.5-2.2 2.8-2.7a21 21 0 003-10.5c.2-1 .3-5.2.2-13.2V89h-7.4L157 102c-.2 14.2-.2 15-1.3 16.7l-.3.6c-.2.5-1.7 1.8-2.4 2.1-2 1-7.7 1-8.5 0a.8.8 0 00-.5-.1c-.6 0-2-1.4-2.5-2.5-1.3-2.6-1.3-2-1.4-16.6V89h-3.7l-3.7-.1v12.8m130.9 0a81.8 81.8 0 001 18.8c.2 0 .3.4.4.7.6 2.8 4.8 7.1 6.9 7.2.1 0 .4 0 .6.2 1.1.5 2.5.7 7 .7 4.4 0 5.4-.1 7-.7l.9-.3c.7-.2 3-1.7 3.7-2.5a14.2 14.2 0 003.5-7.1l.4-2c.1-.7.3-5.9.3-14.4l.1-13.4h-7.2l-.1 12.5c0 12.1-.2 15.1-.8 15.7l-.1.4c0 1-2.2 3.9-3 3.9-.1 0-.5 0-.8.2-1.3.7-3.9 1-6 .5-3.1-.5-4.4-1.6-5.7-4.6-.6-1.4-.7-3.3-.7-15.7l-.1-13h-7.4v13m-69.8-6.2c1 .3 2.4 1 2.4 1.1l.2.2c.8 0 3.2 3.4 3.2 4.5a38.8 38.8 0 010 14.4c0 2-4.6 6.2-6.9 6.2-.3 0-.7 0-.9.2-.4.4-5.8 0-6.5-.6l-.7-.3c-4.1-1-6.4-8.6-5.2-17.5.5-4.4 3.3-8 6-8.1l.8-.2c.3-.3 6.6-.2 7.6.1m130.3-.1l1.5.5 1.4.6c.1.2.3.3.5.3.3 0 1.9 1.8 2.3 2.6 1.2 2.5 1.3 2.9 1.3 9.1 0 6.2 0 6.7-1.1 8.6l-.4.7c-.3.6-2.3 2.6-2.9 2.9a9.4 9.4 0 00-1.5.7c-1.7 1-7.3 1-9 .1l-1-.5c-1.7-.9-4-3.5-4-4.6l-.3-.5c-.5-.5-.7-2.1-.7-7.3 0-5.8.2-7.1 1.2-8.8l.4-1c.7-1.3 3.5-3.2 4.7-3.2l.7-.2c.3-.3 6.4-.3 7 0" fill="#e2eaf2"/><path d="M385 12.1c0 .3-.6.3-4.2.3-3.4 0-4.1 0-4.2.3-.1.3-.8.3-4.2.3-2.6 0-4 .1-4 .2 0 .2-1.5.2-4 .2-3.2 0-3.7 0-3.7.3s-.6.3-4.1.3c-3.5 0-4.2 0-4.3.3 0 .3-.7.3-4.2.3s-4 0-4 .3-.7.3-4.2.3c-2.6 0-4 .1-4 .2 0 .2-1.6.2-4.2.2-3.5 0-4.1 0-4.1.3s-.6.3-4.1.3c-3.6 0-4.1 0-4.1.4 0 .2-.6.3-4.1.3-3.5 0-4.1 0-4.2.3-.1.2-.8.3-4.3.3-2.6 0-4 0-4 .2 0 0-1.6.2-4.1.2-3.4 0-4 0-4.1.3-.1.2-.8.3-4.3.3s-4 0-4 .3c0 .2-.6.3-4 .3-3.3 0-3.9 0-3.9.3 0 .2-.6.3-4 .3-2.7 0-4.2 0-4.2.2 0 0-1.5.2-4.1.2-3.5 0-4.1 0-4.1.3 0 .2-.6.3-4.1.3-3.5 0-4.1 0-4.1.3 0 .2-.6.3-4.2.3-3.5 0-4 0-4 .3 0 .2-.7.3-4.2.3-2.5 0-4.1 0-4.2.2 0 0-1.7.2-4.1.2-3.4 0-4 0-4.1.3-.1.2-.8.3-4.2.3-3.6 0-4.1 0-4.1.3 0 .2-.6.3-4.1.3-3.6 0-4.2 0-4.2.3 0 .2-.6.3-4 .3-2.7 0-4.2 0-4.2.2 0 .1-1.5.2-4.1.2-3.5 0-4.1 0-4.1.3 0 .2-.6.3-4 .3-3.3 0-3.8 0-3.8.3 0 .2-.6.3-4.1.3-3.6 0-4.2 0-4.2.3 0 .2-.6.3-4 .3-2.7 0-4.2 0-4.2.2 0 .1-1.5.2-4.1.2-3.5 0-4.1 0-4.2.3-.1.2-.8.3-4.2.3-3.5 0-4.1 0-4.1.3 0 .2-.6.3-4.1.3a25 25 0 00-4.2.2s-1.8.2-4 .2c-2.7.1-4.1.2-4.1.4 0 .1-1.4.2-4.2.2-3.5 0-4.1 0-4.1.3 0 .2-.6.3-4.1.3-3.5 0-4.1 0-4.2.3-.1.2-.8.3-4.2.3-2.7 0-4.2 0-4.2.2 0 .1-1.3.2-3.6.2-2.9 0-3.6 0-3.9.3-.2.2-1 .3-4.3.3-3.4 0-4 0-4 .3s-.6.3-4.2.3-4.2 0-4.2.3-.6.3-4.1.3c-2.7 0-4.2 0-4.2.2 0 .1-1.4.2-3.9.2-3.2 0-4 0-4.2.3-.2.2-1 .3-4.3.3-3.4 0-4 0-4 .3s-.6.3-4.1.3c-3.5 0-4.1 0-4.1.3s-.6.3-4.2.3c-2.5 0-4.3 0-4.3.2 0 0-1.7.2-4 .2-3 0-4 .2-4.1.4 0 .1-1 .2-4.1.2-3.4 0-4 0-4.1.3-.1.3-.8.3-4.2.3-3.5 0-4.1 0-4.1.3s-.6.3-4 .3c-2.2 0-3.9 0-3.9.2 0 .1-1.4.2-3.4.2-2.5 0-3.5.2-3.5.4l-.5.2c-.5 0-1.4.8-1.4 1.3 0 .2 0 .3-.2.3-.1 0-.2 1.4-.2 3.6 0 2.3 0 3.6.2 3.6.1 0 .2 1 .2 2.8 0 2.2 0 2.7.3 2.8.3 0 .3.6.3 2.7s0 2.6.3 2.7c.3 0 .3.6.3 2.6s0 2.5.3 2.5.3.4.3 2.7c0 1.7.1 2.7.2 2.7s.2 1 .2 2.5c0 2.1 0 2.5.3 2.5s.3.5.3 2.7c0 2.3 0 2.7.3 2.7s.3.4.3 2.5 0 2.5.3 2.5.3.5.3 2.7c0 1.6.1 2.8.2 2.9.1 0 .2 1.1.2 2.5 0 2 0 2.4.3 2.4s.3.4.3 2.7c0 2.2 0 2.7.3 2.8.3.1.3.6.3 2.6 0 2.1 0 2.5.3 2.5s.3.4.3 2.7c0 1.7.1 2.7.2 2.7.2 0 .2 1 .2 2.4 0 2 .1 2.5.3 2.6.3 0 .3.6.3 2.8 0 2.2 0 2.7.3 2.7s.3.4.3 2.5c0 2 0 2.5.3 2.5s.3.4.3 2.7c0 1.7.1 2.7.2 2.7.2 0 .2 1 .2 2.5 0 2 .1 2.5.3 2.5.3 0 .3.4.3 2.7 0 2.3.1 2.8.4 2.9.2 0 .3.5.3 2.5s0 2.3.3 2.3c.2 0 .3.5.3 2.8 0 1.8 0 2.9.2 2.9 0 0 .2 1.2.2 3.3 0 2-.1 3.3-.2 3.3-.2 0-.2.5-.2 1 0 1-.1 1.2-.3 1.2-.3 0-.3.2-.3.8 0 .5-.2.8-.3.9-.3 0-.4.4-.4 1 0 .8 0 1-.3 1-.2 0-.3.3-.3.9 0 .4 0 .8-.2.8 0 0-.2.4-.2.9 0 .7 0 .9-.3.9-.2 0-.3.2-.3.8 0 .6 0 .8-.3.8-.2 0-.3.3-.3 1.1 0 .9 0 1.1-.3 1.1-.2 0-.3.2-.3.8 0 .5 0 .8-.2.8l-.2.8c0 .6 0 .8-.3.8-.2 0-.3.3-.3 1 0 .6 0 .8-.3.8-.2 0-.3.3-.3 1.1 0 .9 0 1.1-.3 1.1-.4 0-.4 1.8 0 2 .2 0 .3.2.3.4s.4.2 2 .2c1.5 0 1.8 0 1.8-.3 0-.2.2-.3.6-.3.4 0 .7 0 .7-.2 0 0 .2-.2.5-.2s.5 0 .5-.3c0-.2.2-.3.8-.3.5 0 .8 0 .8-.3 0-.2.2-.3.6-.3.4 0 .6 0 .6-.3 0-.2.2-.3.8-.3.4 0 .8 0 .8-.2 0 0 .2-.2.5-.2s.5-.1.6-.3c0-.2.4-.3.8-.3s.7 0 .8-.3c0-.1.3-.3.6-.3s.5 0 .5-.3c0-.2.2-.3.6-.3.3 0 .6 0 .6-.2 0 0 .3-.2.8-.2.6 0 .8 0 .8-.3 0-.2.2-.3.6-.3.4 0 .6 0 .6-.3 0-.2.2-.3.8-.3.5 0 .8 0 .9-.3 0-.1.3-.3.5-.3s.4 0 .4-.2l.6-.2c.4 0 .6 0 .6-.3 0-.2.2-.3.8-.3.6 0 .8 0 .8-.3 0-.2.2-.3.6-.3.3 0 .6 0 .6-.2l.8-.3c.5 0 .8-.2.8-.3 0-.1.2-.2.5-.2s.5-.1.5-.3c0-.2.2-.3.6-.3.4 0 .6 0 .6-.3 0-.2.2-.3.8-.3.5 0 .8 0 .8-.2l.4-.2c.2 0 .5-.1.7-.3.2-.2.6-.3 1-.3.3 0 .6-.1.7-.3 0-.2.4-.3.9-.3s.7 0 .7-.3c0-.2.4-.3 1.6-.3 1 0 1.7 0 1.8-.2 0-.1.4-.2.9-.2.4 0 .8 0 .8.2 0 .1 1.5.2 4 .2 3.6 0 4.2 0 4.2.3s.6.3 4.4.3c3.8 0 4.4 0 4.4.3s.6.3 4.1.3c3.1 0 4.1 0 4.2.3 0 .1 1.2.2 4.4.3 2.5 0 4.4.1 4.4.2s1.7.2 4 .2c3.5 0 4.2 0 4.3.3 0 .3.7.3 4.4.3 3.6 0 4.3 0 4.4.3 0 .3.7.3 4.2.3 2.8 0 4.1 0 4.2.2 0 .2 1.5.3 4.3.4 2.4 0 4.3.2 4.4.2 0 .1 2 .2 4.4.2 3.7 0 4.3 0 4.3.3s.6.3 4.2.3 4.2 0 4.2.3.6.3 4.4.3c2.5 0 4.4.1 4.4.2l4.1.3 4.2.3c0 .1 2 .2 4.4.2 3.8 0 4.4 0 4.4.3s.6.3 4 .3c3.5 0 4.2 0 4.3.3 0 .3.8.3 4.4.3 2.8 0 4.3.1 4.3.2 0 .2 1.5.2 4.2.2 3.5 0 4 0 4 .3s.7.3 4.5.3 4.4 0 4.4.3.6.3 4.4.3c3.8 0 4.4 0 4.4.3s.6.3 4.1.3c2.6 0 4.1.1 4.1.2 0 .2 1.6.2 4.5.2 3.7 0 4.4 0 4.4.3s.6.3 4 .3c3.5 0 4.2 0 4.3.3 0 .3.7.3 4.4.3s4.3 0 4.3.3.6.3 4.1.3c2.5 0 4.2.1 4.2.2.1.2 1.8.2 4.5.2 3.7 0 4.3 0 4.3.3s.6.3 4.2.3 4.2 0 4.2.3.6.3 4.3.3c3.7 0 4.4 0 4.4.3.1.3.8.3 4.5.3 2.7 0 4.2.1 4.2.2 0 .2 1.6.2 4.3.2 3.6 0 4.2 0 4.2.3s.6.4 4.4.4c3.8 0 4.4 0 4.4.3 0 .2.6.3 4 .3 3.5 0 4.2 0 4.3.3.1.2.8.3 4.4.3 2.8 0 4.4 0 4.4.2 0 0 1.5.2 4 .2 3.6 0 4.2 0 4.2.3 0 .2.6.3 4.4.3 3.8 0 4.4 0 4.4.3 0 .2.6.3 4 .3 3.5 0 4.2 0 4.3.3.1.2.8.3 4.4.3 2.8 0 4.4 0 4.4.2 0 0 1.6.2 4.4.2 3.8 0 4.4 0 4.4.3 0 .2.6.3 4 .3 3.6 0 4.2 0 4.2.3 0 .2.7.3 5 .3 4.2 0 4.8 0 4.8-.3 0-.2.2-.3.6-.3.4 0 .6-.1.6-.3 0-.2.2-.3.3-.3.2 0 .3-.2.3-.5s.1-.5.2-.5c.2 0 .2-.7.2-1.7 0-1.4.1-1.8.3-1.8.3 0 .3-.4.3-3 0-2.5 0-3 .3-3s.3-.4.3-2.7c0-2.2.1-2.7.3-2.8.3 0 .3-.6.3-3 0-2 .1-3.1.2-3.1.2 0 .2-1.1.2-3 0-2.6 0-3 .3-3s.3-.5.3-3c0-2.6.1-3 .3-3 .3 0 .4-.5.4-3s0-3 .3-3.1c.2-.1.3-.7.3-3 0-1.9 0-3 .2-3 0 0 .2-1.1.2-3 0-2.7 0-3.2.3-3.2.2 0 .3-.5.3-3s0-3 .3-3c.2 0 .3-.5.3-3 0-2.6 0-3 .3-3 .2 0 .3-.5.3-2.8 0-1.8 0-2.8.2-2.8 0 0 .2-1.2.2-3 0-2.6 0-3 .3-3 .2 0 .3-.5.3-3 0-2.6 0-3 .3-3 .2 0 .3-.5.3-3s0-3 .3-3.2c.2 0 .3-.6.3-3 0-1.8 0-3 .2-3 0 0 .2-1 .2-3 0-2.7 0-3.1.3-3.1.2 0 .3-.5.3-3 0-2.6 0-3 .3-3 .2 0 .3-.5.3-3 0-2.6 0-3 .3-3 .2 0 .3-.5.3-3 0-2 0-3 .2-3 .1 0 .2-1.2.2-3 0-2.6 0-3 .3-3.2.2 0 .3-.6.3-2.8 0-2.2 0-2.7.3-2.8.2 0 .3-.6.3-3 0-2.2 0-2.8.3-3 .2-.3.3-1 .3-3.2 0-1.7 0-2.8.2-2.8.1 0 .2-1.1.2-3 0-2.7 0-3.2.3-3.2.2 0 .3-.4.3-3 0-2.5 0-3 .3-3 .2 0 .3-.5.3-3 0-2.6 0-3 .3-3 .2 0 .3-.5.3-3 0-1.9 0-3 .2-3 .1 0 .2-1.5.2-4 0-4.4-.1-4.9-1.2-4.9-.2 0-.4 0-.4-.3 0-.2-.7-.3-4.6-.3-4 0-4.6 0-4.6.3M85.5 72c2.2.1 2.8.3 5.4 1a18.8 18.8 0 016.5 3.3 13 13 0 014.3 9.4c.4 1.5.3 1.6-4.2 1.6-4.1 0-4.3 0-4.5-1.3a5.5 5.5 0 00-2.9-4l-1-.6a33.5 33.5 0 00-15.3-.3c-3.1.7-4.8 3-4.9 6.2v2.2l1.3 1.2a6 6 0 001.6 1.2l.8.3 1.7.6 1.4.5.6.2c.2 0 .7.1 1 .3l1 .3.9.3 1.7.6 1.4.5.6.2c.3 0 .7.1 1 .3.3.2.8.3 1 .3.3 0 .6.1.8.3l.9.3c.2 0 .7.1 1 .3l.9.3c.2 0 .4 0 .5.2l.5.2c.3 0 .7.1 1 .3l1 .3c.3 0 .7.1.9.3.2.2.5.3.7.3a38 38 0 003 1.4c0 .1 0 .2.2.2 1 0 5.2 4.5 5.2 5.5 0 .1.1.4.3.5.2.2.3.5.3.7a20 20 0 01.7 8.8c-.4 2-.8 3-2 5-1.1 2-3.8 4.6-4.5 4.6-.1 0-.2 0-.2.2a16.9 16.9 0 01-4.8 2.2l-1 .4a197.7 197.7 0 00-4.1.8 57.2 57.2 0 01-14.6-.9c-.7 0-1.5-.3-2.7-.8l-.9-.4-1.3-.7-1.3-.7c-1-.5-4-3.6-4.6-4.7-1-2-1.4-3-1.4-3.4l-.3-1.1c-.4-.8-.4-3.4-.1-4 .2-.3.4-.4 4-.4 4.5 0 4.4 0 4.4 1.8 0 1.1.6 2.5 1.6 3.5.7.8 3 2.4 3.5 2.4.2 0 .5 0 .8.2l1.4.4A31 31 0 0089 120c1 0 4-2 4.7-3.2 1-1.6 1.4-5.2.7-6a1 1 0 01-.2-.5c0-.5-1.5-2-2.4-2.5l-.8-.5-.6-.2a13 13 0 01-2.5-.9c-.3-.2-.8-.3-1-.3-.3 0-.6 0-.6-.2l-.5-.2-1-.3c-.2-.2-.6-.3-.8-.3l-1-.3c-.2-.2-.6-.3-.8-.3l-.9-.3a24 24 0 00-3.3-1 26.3 26.3 0 00-3.5-1.2l-1.7-.6-1.4-.5-.6-.2c-.2 0-.6-.1-.8-.3-.2-.2-.5-.3-.7-.3-.3 0-1-.3-3.1-1.5-2-1-5.1-5-5.1-6.3l-.3-1.1c-.4-1-.4-6-.1-7l.4-1.5c.5-2.7 4.2-7.7 5.8-7.7l.4-.3.6-.3c.2 0 .4 0 .4-.2l.6-.3c.3 0 .7-.2.7-.3l.6-.2c.2 0 .7-.1 1-.3a3 3 0 011.1-.3c.3 0 1-.1 1.4-.3.5-.2 1.6-.3 2.7-.3 1 0 2 0 2.1-.2.3-.2 2.8-.1 7 .2m32.1 8.9v7.5l4.2.1c2.3 0 4.3.1 4.4.2.3.2.4 7.4 0 8-.1.4-.4.4-4.3.4h-4.3l.1 8.5c0 9 .2 9.8 1.2 11.6l.3.7c.2.4 1.8 2 2 2l.9.7 1.2.6.5.1 1 .4c1.6.2 1.6 0 1.6 4 .1 4.6.2 4.5-2.3 4a9.4 9.4 0 01-2.7-.5 16 16 0 01-9.4-7.2l-.6-1s-.2-.2-.2-.5c0-.2 0-.3-.2-.3l-.3-.7-.2-.8c-.3-.4-.7-2-1-3.3-.1-1.2-.4-41.4-.2-42 .1-.1 1-.2 4.2-.1h4l.1 7.6m62 1c0 9.7 0 9.2 1 8.4.4-.4.9-.6 1-.6l.2-.2c0-.2 2.3-1.2 3.9-1.6a36.4 36.4 0 0110.2.2c1.6.2 5 1.7 6.1 2.7 2.2 1.7 5 5.4 5 6.6l.1.6c.3.5.8 2.4 1 3.5l.2 2a60.7 60.7 0 01-.4 12.6c0 .5-.2 1-.8 2.8a17.9 17.9 0 01-8 9l-.7.4c-1.8.8-2.6 1-6 1.4-3.3.4-8.8-.1-9.6-1l-.7-.1-.7-.3-.5-.3a13.8 13.8 0 01-3.6-2.3 14.5 14.5 0 01-3.5-4.3 14.7 14.7 0 01-1.6-3.8c-.2-.2-.4-1.2-.8-4.2-.2-1.6-.3-39.8 0-40 0-.1 1.9-.2 4.1-.1h4v8.5m43.7 3v11.6h25.1l.1-11.5.1-11.6h8.6v28l-.1 28.2h-8.5v-24.6H223v12.3l-.1 12.3h-4.2l-4.2.1-.2-.5c-.3-.8-.2-55.3 0-55.6.3-.2 1.4-.3 4.4-.2h4.2V85m87.4-11.4l.1 8.9c0 4.6 0 8.5.2 8.5l.8-.6 1-.6.2-.2 1-.6a39 39 0 001.3-.6c.2-.2.6-.2.8-.2a27.1 27.1 0 0111 0 14.8 14.8 0 015.2 2.2 12.2 12.2 0 014.4 4.4c.1 0 1.3 2.5 1.5 3.2l.3.7.2.7a54.8 54.8 0 01-.3 19.2l-.3 1c0 .1 0 .3-.2.3-.1 0-.2.1-.2.3 0 .3-.1.6-.3.7a1 1 0 00-.3.7l-.3.4c-.2 0-.3.2-.3.3 0 .6-3 3.8-4.4 4.7a15.1 15.1 0 01-4 1.9 26.4 26.4 0 01-14.1 0l-.8-.2a15 15 0 01-3.7-2c-1.7-1.1-4.7-4.7-4.7-5.6 0-.1 0-.2-.2-.2l-.3-.5-.8-2a4 4 0 01-.3-1.2 196.4 196.4 0 01-.6-22.9v-21h4c3.5 0 4 0 4.1.3m28.5 13v1.6c0 1-.2 1.2-.4 1.2s-.3-.3-.3-1.2c0-.8 0-1.3-.3-1.4-.4-.4-.4-.6.2-.7.7-.1 1 0 .8.5m2.3 0l.2.6c.1 0 .2.1.2.4l.2.4.2-.3c0-.6.7-1.7 1-1.7.7 0 .9.5.8 1.9 0 1.6-.6 2-.8.6l-.1-.5c0 .2-.2.4-.4.4-.1 0-.3.3-.3.6-.1.8-1.1-.1-1.2-1.2 0-1-.6-.3-.6.9 0 .4 0 .7-.2.7-.3 0-.2-3.2 0-3.3.6-.2.8-.1 1 .5M140 88.7l.5.2v13c.1 13.3.2 14.2 1 16l.2.7.2.4.7.9 1.2.9 1.2.6c1.1.5 6.4.4 7.6-.2 1.6-.7 3.2-2.6 3.2-3.7l.1-.4c.6-.6.7-3.6.8-15.8 0-9.6.1-12.5.3-12.7.3-.2 7-.2 7.5 0a277.4 277.4 0 01-.3 29.7l-.2 1-.2.5c0 .3-.1.7-.3 1l-.3 1c0 .2-.1.5-.3.6l-.3.5c0 .9-2.9 4.1-4.2 4.8l-1 .6c-.3.2-1.7.7-3.1 1a29.2 29.2 0 01-12.6-.2c-.4 0-.8-.2-.8-.3 0-.1-.2-.2-.5-.2a1 1 0 01-.7-.3c-.1-.2-.4-.3-.5-.3-.7 0-3.9-3-3.9-3.6 0-.1 0-.2-.2-.2l-.6-1a96 96 0 00-1.2-3l-.2-.7-.2-1.3c-.5-1-.6-5-.7-17.2l-.1-12.1.4-.2a38 38 0 017.5 0m131 0c.3.4.3 1.7.3 11.6a89.3 89.3 0 001 17.3l.2.8.3.4c.1.6 1 1.6 2 2l1.2.6c.8.4 6.3.4 7 0 2.6-1.2 3-1.7 4-4.9.4-1 .5-1.9.5-14.4V88.8l.6-.2c1-.3 7.5-.1 7.7.3a397.9 397.9 0 01-.4 27.6 9 9 0 01-.4 2.2l-.2 1-.2.8-.2.4-.3 1-.3.7c0 1-3 4.4-4.5 5.2a4 4 0 00-1 .6l-.6.2c-.3 0-.5 0-.6.2-1.5 1.4-12.5 1.4-15.3 0l-1.6-.7c-2-1-4.9-4.1-4.9-5.2 0-.2 0-.3-.2-.3l-.3-.7a13.2 13.2 0 01-1.1-4.2 53 53 0 00-.4-2.3c-.3-1.6-.3-26.7 0-26.8.7-.3 7.4-.1 7.7.2m-84.6 7c-2.8.7-4.6 2-5.8 4.3a3 3 0 00-.4 1c0 .2 0 .7-.3 1a43 43 0 00.1 13.2 9.5 9.5 0 005.8 6.1c.8.4 6.9.3 7.6 0l1.3-.6c1.4-.6 4-3.3 4-4l.3-.8c.2-.3.3-.7.3-1a83.6 83.6 0 000-13 9 9 0 00-.8-2.1l-.4-.7c-.4-1-3.4-3.1-4.5-3.1a14.7 14.7 0 00-7.3-.2m131.2 0c-2.4.5-4.4 1.6-5.2 3a10.6 10.6 0 00-1.3 2.8c-.5 1-.8 9.3-.3 12 .5 3.3 2.3 6 4.7 7.1l1.3.6c.8.4 7 .4 7.4 0l.6-.2c.3 0 1.3-.5 1.9-.9a9 9 0 002-2c0-.2.2-.4.3-.5.3-.1.6-.7 1.2-2.2 1-2.2 1-12 0-14.2-1-2.3-1.9-3.7-2.4-3.7l-.4-.3a7.8 7.8 0 00-2.7-1.3 14.2 14.2 0 00-7.1-.3" fill="#3c1c74"/><path d="M78.4 71.8c-.2.1.6.2 2.4.2 1.9 0 2.7 0 2.5-.2l-2.5-.2-2.4.2m-4.8.5l-.7.3.7-.1 2-.3 1.3-.1h-1.3c-.7 0-1.6 0-2 .2m12.5 0l2.2.2.7.1-.7-.3a7 7 0 00-2.2-.2h-1.5l1.5.1M71 73l-.6.3.5-.2 1.1-.3.6-.1h-.6c-.3 0-.8 0-1 .3m19 0c1.1.3 1.5.3.6 0-.4-.3-.9-.4-1.1-.4-.2 0 0 .2.5.3m-20.6.5l-.7.3c-.3 0-.6.2-.6.3l1-.2c1-.5 1.2-.6.8-.6l-.5.2m22.8.2c4.3 2 6.3 3.6 7.8 6.7l.8 1.2c0-.8-2.2-4.1-3.5-5.1l-1.2-1a147 147 0 01-4-1.8m17-.2a1620.4 1620.4 0 00.2 20.8l.1-20.7c.3-.3 0-.4-.2-.1m8 7.5l.2 7.7h7.8-3.9l-3.8-.1V81a98.5 98.5 0 00-.2 0m53.8-7.5V112.6l.1-19.7a1738.7 1738.7 0 000-19.4m7.8-.1c.2 0 .2 3 .2 8.9 0 7 0 8.8.3 8.8s2-1.2 1.9-1.4l-1 .6c-1 .8-1 1.4-1-8.4a40.7 40.7 0 00-.4-8.5m35.4 0c-.3.4-.4 54.9 0 55.7l.1.5h4.2l4.2-.1v-24.6H248.4v12.3l.1 12.3h8.5v-28.1a1319 1319 0 00-.2 0v28h-4l-4-.1-.2-12.2v-12.3H223l-.1 12.3c0 6.7-.2 12.2-.2 12.2h-8v-27.9a429.5 429.5 0 01.2-28.2l-.4.3m8.2-.1c.1 0 .2 3.9.2 11.4 0 9.4 0 11.5.2 11.7.2.1 3.8.2 12.8.1h12.5l.1-11.5a83 83 0 01-.2-.2v11.5h-25.1l-.1-11.5a73 73 0 00-.4-11.5m87.7 9v8.9c.2 0 .4-.2.6-.4a19.9 19.9 0 011.4-1.2l-.9.6-.8.6c-.1 0-.2-4-.2-8.7v-8.7l-.1 8.9M67.2 74.5c-.1.2-.3.3-.4.3-1 0-5.4 5-5.2 5.9 0 0 .4-.3.7-1a14 14 0 014.5-4.6c.7-.5 1.2-.9 1-.9l-.6.3M78 80.1l-1.6.3a68.5 68.5 0 019.4 0c-1.3-.2-7.6-.5-7.8-.3m-4.5 1c-2 .6-5 3.1-4.4 3.7l.6-.8A7.3 7.3 0 0174 81c.4 0 .8-.2.8-.3.2-.2 0-.2-1.2.2m14 0l1.1.2.5.2 1 .6c1.3.6 2.6 2.3 2.8 3.7.1.4.1.4.2-.1 0-1.7-2.1-3.8-5-4.7-1-.3-1.3-.3-.5 0m-26.4.7l-.2 1c.1.5.1.4.2 0 0-.4 0-.8.2-.9.1-.1.2-.3.1-.5 0-.1-.2 0-.3.4m39.8.6c.2 1.4.5 2 .5 1.4l-.3-1.2c-.2-.5-.3-.5-.2-.2m-40.4 1.9c-.3 1.1-.2 6.5.1 7 .3.5.3.4.2 0a31.1 31.1 0 010-7.8l-.3.8m8.1 2.4v2.3c.2.5.2.2.2-1.5 0-2.6 0-2.8-.2-.8m32.8-.5l-.1 1h-3.8c-3.5 0-3.7 0-4.1-.3-.3-.3-.4-.4-.4-.1 0 .5.8.7 4.4.7 4.4 0 4.5 0 4.3-1.5l-.2-.8-.1 1M338 86c-.6.1-.6.3-.2.7.2.1.3.6.3 1.4 0 .9 0 1.2.3 1.2.2 0 .3-.3.3-1.2l.1-1.6c.2-.4-.1-.6-.8-.5m2.2 0c-.3.1-.4 3.3 0 3.3l.1-.7c0-1.2.6-2 .6-.9 0 1 1 2 1.2 1.2 0-.3.2-.5.3-.6.2 0 .3-.2.4-.4l.1.5c.2 1.4.7 1 .8-.6 0-1.4-.1-2-.7-2-.4 0-1 1.2-1 1.8l-.3.3-.2-.4c0-.3 0-.4-.2-.4l-.2-.6c-.2-.6-.4-.7-1-.5m.5.8c-.2.2-.3-.1-.2-.5.2-.3.2-.3.3 0v.5m2.6-.3c0 .2 0 .4-.3.4-.1 0-.3-.2-.3-.5 0-.4.5-.4.6.1m-.9 1.3c-.2.2-.3-.1-.2-.5.2-.3.2-.3.3 0v.5m-156.5 0l-.6.3.6-.2a58 58 0 018.6 0 31 31 0 00-8.6-.1m131 0a62 62 0 018.2.1l.8.2-.8-.3c-1.2-.4-7.4-.4-8.2 0m-133.1.6c-.7.3-.3.3.6 0 .4-.2.5-.3.3-.3-.3 0-.7.1-1 .3m12.4 0c1 .3 1.6.3.7 0l-1-.3c-.4 0-.2 0 .3.3m118.6-.1l-1.2.6-1 .6h.3l1.7-.8c.7-.4 1.2-.6 1-.6-.3 0-.6 0-.8.2m12.4 0c1 .4 1.6.4.7 0l-1-.2c-.4 0-.2 0 .3.3m14.7.3c0 .2 0 .4-.2.4l-.2-.4c0-.3.1-.4.2-.4s.2.1.2.4m-184.9-.1c-.2 0-.2 2.6-.2 11.8V112l.2-11.6V88.8h7.5V102c0 7.3 0 13.8-.2 14.2l-.1 1 .3-1c.5-1.6.4-27.5 0-27.7-.4-.2-7.1-.1-7.5 0m106.3 0a342.4 342.4 0 00.2 27.2l-.1-14v-13l3.7-.1 3.7-.1h-7.5m-137.4.2c.2.1.3 6.8 0 7.6 0 .5-.1.5-4.3.5h-4.2l-.1 8.4a41.9 41.9 0 00.4 9.3c0-.3-.2-4.4-.2-9V97h4.2c4 0 4.2 0 4.4-.4a31.6 31.6 0 00-.2-7.9m6.3 0c-.2.2-.1 24.2 0 24.5a336.8 336.8 0 00.2-24.7l-.2.2m7.9 0c.2.1.2 3 .3 13v12.6-12.8a62 62 0 00-.3-12.8m42.2.2l-.7.5s.4 0 .8-.3l.8-.4c0-.2-.2-.1-.9.2m15.4-.2l2 .8c0-.2-1.6-1-1.9-1 0 0-.1.1 0 .2m89.9.1a554 554 0 000 12.2 86.3 86.3 0 01.3-12.4c-.1 0-.3 0-.3.2m7.9 0a434 434 0 010 25.8 213.2 213.2 0 000-25.8m33.1-.2c.3.3 3 1.5 3 1.4 0-.1-2.6-1.4-2.9-1.4h-.1m-57.5 12.1a133.4 133.4 0 00.4 14.3l-.3-13.7-.1-12.4v11.8m-202-10.7c.2.3.8.9 1.3 1.2 1 .7 1 .7-.6-.7-.8-.8-1-.9-.7-.5m130.7-.4c.3.3 1.8 1.1 1.7 1 0-.2-.3-.4-.6-.6-.8-.4-1.2-.5-1.1-.4m132 .7l.7.5c1 .7 2.2 1.9 2.8 2.8l.6.7c.1 0-.1-.5-.5-1-1.2-1.5-3.6-3.5-3.6-3m-128.7 2c1.5 1.5 2.3 2.6 3 4.4.3.5.5.8.5.6 0-1-2.8-5-4.5-6.3l1 1.2M61 92c0 1.2 3.9 6.3 4.9 6.3l.9.5c1.5 1 1.1.5-.4-.5-2.5-1.6-4.5-4-5.3-6.4 0-.2 0-.2-.1 0m11 .3c.8.4 1 .4.5 0-.2-.2-.5-.3-.7-.3l.3.3m1.6.6l.9.3c.2 0 0-.2-.3-.3-1-.4-1.3-.4-.6 0m3 1l.9.2c.1-.1-1-.5-1.3-.5-.2 0 0 .1.4.3m1.8.6c1 .4 1.1.4.6 0-.2-.2-.6-.3-.9-.3-.4 0-.3 0 .3.3m1.8.6c.3.2.7.3 1 .3.1 0 0-.2-.4-.3-1-.4-1.3-.4-.6 0M337 96.2l.8 1.4-1.4-3 .6 1.6M189 95.4h.6-.6m130.8 0H320.6h-.7m-133.4.2l-.8.3c-.5.1-.5.1-.1.2.7 0 2.2-.6 1.5-.6l-.6.1m5.9.2a6 6 0 001.4.3c.3 0 .6 0 .7.2l.3.2c.6 0-.3-.5-1.2-.7-1.9-.3-2.1-.3-1.2 0m125-.1l-.8.2a7 7 0 00-3 1.5c-.4.4-.4.4 0 0 .7-.5 2.6-1.3 4-1.6.8-.2 1-.3.7-.3a2 2 0 00-1 .2m6 .1l1.5.3c.3 0 .1-.1-.5-.3-1.3-.4-2.1-.4-1 0m-240 .2l1 .2c0-.1-1-.5-1.4-.5-.2 0 0 .1.4.3m242.4.4l.5.3 1 .5c.3.3.7.5.7.4.1 0-1.1-1-2-1.3-.6-.2-.6-.2-.2 0m-240.5.3c1 .4 1 .4.5 0-.2-.2-.6-.3-.8-.3-.4 0-.4 0 .3.3m97.7.5c-1 .7-1.9 1.9-2.3 2.9-.2.5-.2.6 0 .2l.3-.5.2-.5c.2 0 .4-.5.7-.8l1.4-1.2c.6-.4 1-.7.8-.7l-1 .6m12.8-.2c1 .6 2.4 2 2.4 2.3 0 .1.1.4.3.5.6.5.3-.2-.6-1.1-.8-1-2.2-2.1-2.6-2.1l.5.4m-108.9.3c.3.2.8.3 1 .3l-.3-.3c-.3-.2-.7-.3-1-.3l.3.3m3 1l1 .2c0-.1-1-.5-1.4-.5-.2 0 0 .1.5.3m247.8-.2c0 .4.6 1.8.6 1.4 0-.3-.1-.7-.3-1l-.3-.4m-246 .8c1 .4 1 .4.6 0-.2-.2-.7-.3-1-.3-.3 0-.3 0 .4.3m220.3 0l-.1.4s.2 0 .3-.2l.2-.4-.4.2m16.7-.2c0 .2.1.4.3.5.2.1.3.2.3 0l-.3-.4c-.2-.1-.3-.2-.3 0m-121.6.4l.3 1.2c.2.5.3.7.3.5l-.3-1.2c-.1-.4-.3-.7-.3-.5m-113.6.3l.8.3-.4-.3-.8-.3.4.3m-25.3.2c.2.2.6.3.8.3.3 0 .2-.1-.3-.3-.8-.4-1-.4-.5 0m243.3.4a27.6 27.6 0 00.2 17.5c.7 1.4 3.4 3.8 4 3.6 0 0 0-.2-.4-.3a9.5 9.5 0 01-4.6-7 44.4 44.4 0 01.8-13.6l.3-.6s-.2.1-.3.4m17.8-.3s0 .2.2.3l.3.7c0 .3.2.6.3.7l-.1-.8c-.3-.8-.7-1.4-.7-1m-234.7.2l.7.5.7.2-1.3-.8h-.1m-24.8.5c.2.2.6.3.8.3.3 0 .5 0 .6.2l.5.2c.5 0 .2-.2-1-.6-1.3-.5-1.4-.5-.9 0m128.9 0c0 .2 0 .4.2.5l.2.6c0 .3 0 .3.1 0 0-.1 0-.5-.2-.8-.2-.4-.3-.5-.3-.3m139.7.3l.3 1.7.2 1.1v-1c0-.7-.1-1.5-.3-1.8l-.3-.6.1.6m-241 1c1.7 1.4 3 2.8 3.6 4.2.2.3.3.5.4.4.1-.6-2.3-3.5-4.1-4.9-1.3-1-1.3-.7 0 .3m82.6 0l-.2.8c.1.2.6-1 .5-1.4 0-.2-.2 0-.3.5m-107.2-.3l.9.3c.4 0-.8-.6-1.2-.6-.3 0-.2.1.3.3m1.9.6c.3.2.7.3.9.2h-.1c-.3 0-.5-.2-.6-.3l-.4-.2c-.3 0-.2.1.2.3m255.8 1c.3 2.7.5 3.6.4 2 0-1-.2-2-.3-2.4-.2-.7-.2-.7 0 .4m-131.2-.6c0 .2 0 .5.2.7.3.4.3 0 0-.7l-.2-.4v.4M76.4 102.4c.3.2.7.3 1 .3l.5.2.5.2c.5 0-.2-.4-1-.6-.4 0-.9-.2-1-.3-.3 0-.3 0 0 .2m3 1c.9.4 1.3.4.6 0-.3-.2-.8-.3-1-.3-.1 0 0 .2.4.3m100 1.4l.1 8.2.1-4.3a338.3 338.3 0 00-.1-3.9m20.4 4v2.7a149.2 149.2 0 000-2.8M81.3 104c.3.2.7.3 1 .2H82l-.6-.3-.4-.2c-.2 0-.2.1.2.3m1.4.5c.1.1.5.3.9.3l1.2.4.9.3.5.2c.1.2.4.2.6.2.3 0-1.4-.8-2.8-1.2-.4 0-.8-.2-1-.3h-.3M339 109c0 2.6.1 4.2.2 4 .3-.6.3-7.6 0-8-.1-.2-.2 1.2-.2 4m-251.2-2.7c.2.2.5.3.8.3l.9.3c.2.2.7.3.9.3.2 0 .3 0 0-.1l-.9-.4c-.3-.2-.8-.3-1-.3-.2 0-.5 0-.5-.2l-.4-.2c-.1 0 0 .2.2.3m14.1 1.3c.4 1.2.6 1.5.6 1 0-.2 0-.4-.2-.5l-.2-.6a1 1 0 00-.3-.7c-.2-.2-.2 0 .1.8m229.2 1.3v1.2a24.4 24.4 0 000-1.2m-240.2-1.5l.5.3c.7.2 2.7 2.2 2.7 2.7 0 .2 0 .5.2.5l.2.7c0 .4 0 .5.1.1.1-.5-.8-2.5-1.4-3-.6-.6-2.3-1.6-2.3-1.3m11.7 5.7c0 3.1 0 4 .2 3.1.2-1.4.2-5 0-6.3-.1-.7-.2.2-.2 3.2m228.2-.9c0 1.7-.6 3.8-1.2 5-.1.1-.2.3-.1.4.1.1 1-2.1 1-2.5l.3-1c.1-.3.2-1 .1-1.6v-.3m-272 .6a8 8 0 00.2 4l.3.6-.2-.6-.1-2.3v-1.6h8l.1 1.2.1 1.2v-1c.1-2 .3-1.9-4.2-1.9-3.7 0-4 0-4.1.4m243.3 1.2c0 .8.1 1.6.3 2l.3.5-.1-.6-.3-1.9-.1-1.3v1.3m-131 0l.1 1c.3.4.3-.1 0-1l-.1-.7v.7m-14.8.1l-.3 1.7c0 .7-.2 1.3-.3 1.4l-.1.4-.3 1c-.4.6-.4.9 0 .4.3-.6.8-2.2 1-3.7.3-1.3.2-1.8 0-1.2m-62 .2c-.2 1.2-1 3-2.1 3.8-.9.7-3 2-3.6 2-.4 0-1.5.5-1.1.6l2.7-1c2.1-1 4.3-3.8 4.1-5.2v-.2m244.2.7c0 .7-.2 1.4-.3 1.6 0 .4 0 .3.2-.1s.3-1 .3-1.6v-1l-.2 1.1m-139.3-.4v.5c0 .4 0 .4.1 0 .2-.5.2-.8 0-.5m-19.9.2c0 1.7 4.4 7.2 5.2 6.4l-.6-.4c-1.5-.7-4-3.8-4-5 0-.3-.5-1.4-.6-1m-39 .3c0 .3 0 .9.2 1.4.2.8.3 1 .3.5 0-.7-.5-2.5-.5-1.9m-8 1c0 .7 0 1.6.2 2l.3.7-.1-.7-.3-2-.1-1.2v1.2m-65.3-.6c0 1 2 3.2 3.7 4l.6.3c-2.4-1.7-3.9-3.1-3.9-3.9 0-.1 0-.3-.2-.4h-.2m42.1.4l.3 1.2c.4.7.3.4 0-1-.2-.7-.2-.7-.3-.2m8.5-.2c0 .3.1.7.3 1 .1.3.2.3.2.1l-.1-.5c-.1 0-.3-.3-.3-.6l-.1-.4v.4m53.8.8c0 .5.2 1 .3 1.2.2.2.2.2.1-.1l-.3-1.3c-.2-.7-.2-.7-.1.2m27.2-.2l-.2.7c.1 0 .3-.2.4-.6.3-.8.2-1-.2-.1m8.6 0c-.4 1.9-.4 2 0 1.2l.2-1.2c0-.5 0-.5-.2 0m87.7.7l-.3 1.7c0 .3 0 .2.2-.2s.3-1 .2-1.7v-1l-.1 1.2m-8.2-.1l-.5 1.2c-.2.4-.2.6 0 .5.3-.2 1-2.4.8-2.5l-.3.8m-15.2 0l.2 1 1.7 2.7c.4.2.2-.2-.3-.7-.3-.3-.5-.7-.6-1 0-.2-.2-.4-.3-.4l-.3-.8c0-.5-.2-1-.3-1-.2 0-.2 0-.1.2m31 .4l.3 1c.4.6.4.3 0-.7-.2-.7-.3-.7-.3-.3m-184 .5c.4.9 1.8 2.3 2.8 3 1.2.6 1.3.6.3-.1l-1-.6c-.2 0-1.8-2-1.8-2.2l-.3-.4c-.3-.3-.3-.2 0 .3m79 .5c-.8 1-2 2-3 2.6-.3.1-.5.3-.3.3.5.2 3-2 3.9-3.4.5-.9.2-.6-.6.5M102 118.2l-.7 1.7-.4 1c.1.1.8-1.3 1.2-2.5l.2-1-.3.8m-42.7-.3l.3.9c.2.3.3.3.3.1l-.2-.5-.3-.5v-.4.4m81.7-.3c0 .8 2.2 3.6 2.9 3.6l-.6-.6-1.1-1.1c-.1-.3-.3-.5-.4-.5l-.3-.6c0-.5-.5-1.1-.5-.8m122.6.6l.3 1.2c.3.7.3.4 0-1-.2-.7-.3-.7-.3-.2m65 0c-.2.5-1.6 1.9-2 2-.2 0-.3.2-.2.2.1.2 1.8-1.3 2.4-2l.2-.6-.4.4m-218.7 0l.2.4.3.9c0 .3.2.7.3.7l-.2-1c-.4-1.2-.6-1.5-.6-1m54 .3l-.7 2.3v.3c.2 0 .3-.5.4-.9 0-.4.2-.8.3-1l.2-.8-.1-.5-.1.6m8.2-.2l.3.9c.2.3.3.3.3.1 0-.1 0-.3-.2-.5l-.2-.5-.1-.4v.4m34.4.5a16.7 16.7 0 01-6.6 8.2c-.8.5-1.4 1-1.2 1 .2 0 1-.5 2.5-1.7a16.8 16.8 0 005.7-8l-.4.5m79.5 0c0 .4-1.3 1.7-1.8 2-.3 0-.4.2-.4.3.2.2 1.3-.7 1.9-1.5.3-.3.5-.7.4-.8h-.1m17.2.2c0 .2 0 .4.2.4l.3.8c0 .3.2.6.3.6.1 0 .2-.2 0-.4l-.5-1c-.1-.4-.3-.6-.3-.4m-170.3.4c0 .3.1.8.3 1 .4.7.4.8 0-1-.3-.5-.3-.5-.3 0m204.2.3a44.5 44.5 0 01-.4 1.3c.1 0 .3-.3.3-.6l.4-.7v-.3c0-.2-.1 0-.3.3M60 119.5l.4 1 .6 1.1.4.4c.1 0 0-.4-.3-.8l-.5-1c0-.3-.6-1-.6-.7m94.7.3l-1 .9c-.4.2-.6.5-.5.5.3 0 2.2-1.8 2-1.8-.2 0-.4.1-.5.4m139.8.4c-.1.6-.2 1-.1 1.1v-.3l.3-.6.2-.7c-.1-.3-.2-.2-.4.5M173 120l.3.8c.1.4.3.7.4.7l-.2-.8c-.4-.7-.7-1.2-.5-.7m-100.5.2l.6.3.5.2c.2 0 .1-.2-.2-.3a2 2 0 00-.9-.3h-.4l.4.1m38.6.5c0 .2.2.4.4.6.3.2.3.2 0-.2-.3-.7-.4-.8-.4-.4m153.3 0c0 .2 0 .4.2.4l.3.9c0 .4.2.7.3.7l-.2-1c-.4-1.2-.6-1.5-.6-1M75 121l1.6.2c.7 0-.3-.3-1.8-.4-.7-.1-.7-.1.2.1m10.3 0c-.8.3-1 .3-.4.3.3 0 1 0 1.6-.2 1.3-.4.2-.4-1.2 0m188.8-.2c0 .8 5 1.6 7.8 1.1 1.2-.2 2.3-.6 1.6-.6-.1 0-.4 0-.5.2-.3.3-6.2.4-6.9 0a84.6 84.6 0 00-2-.7m51.5.2c-.2.1-.3.3-.2.3l.6-.3.2-.3c-.2 0-.4 0-.6.3m-21.2.1c0 .9 3 4.5 4.7 5.5l1 .7a15 15 0 003.5 1.7c.3.2.8.3 1 .3.4 0 .7 0 .7.2l.8.2h.7l-.8-.2-1.4-.4c-3.4-.8-7.5-3.8-9.6-7.1l-.6-.9M99.8 122.4a17 17 0 01-2.3 2.3l-1.1 1c.3.3 3.2-2.5 4.2-4 .5-.9.3-.6-.8.7m23.6-1c.2.2.9.4 1.3.5 1.5.2 1.5.3 1.5 4 0 4 0 3.9-1.8 3.8h-1.1l1.3.1c1.8.4 1.8.3 1.7-4 0-4 0-4-1.6-4.1l-1-.4-.5-.1c-.2 0-.2 0 .2.2m10.4 0s0 .3.2.5a61.1 61.1 0 011.2 2.3c.1 0 0-.4-.3-.8l-.5-1c0-.4-.6-1.4-.6-1m11.1 0c1 .5 4 .8 4.9.6.6-.1.4-.2-1.8-.3-1.5 0-2.7-.2-2.8-.3a.8.8 0 00-.6-.2l.3.3m7.5-.1l-1 .2h-.8l.7.1c.5 0 1 0 1.2-.2l.2-.3c-.1 0-.3 0-.3.2m33 0c.4.2 1.4.4 3.4.7 1.2.1 4.2-.3 5-.7.3-.1.4-.2.2-.2s-.5 0-.6.2c-.2.2-1.2.3-3.7.3-2.6 0-3.6-.1-3.8-.3a.9.9 0 00-.5-.2c-.3 0-.2 0 0 .2m131.2 0c.3.3.8.4 1.1.3.5 0 .5 0 0-.1l-.8-.2-.5-.2c-.2 0-.2 0 .2.3m7.6-.1c-.1.1-1.4.3-3 .3-2.5.2-2.8.2-2 .3 1.4.3 4.3 0 5.6-.6.4-.2.4-.2 0-.2a1 1 0 00-.6.2m12.3.2c-.2.2-.2.4 0 .4l.2-.3c.2-.5 0-.6-.3-.1m-173.3 0c0 .3-.1.6-.3.7v.3c.3 0 .6-1 .4-1.2l-.1.3m-51.4 0c0 .8 4 4.8 5.7 5.8a15.3 15.3 0 004.5 1.9l.6.2c.4 0 .3-.1-.4-.3-2.8-1-5.5-2.4-7.4-4.2a12.4 12.4 0 01-2.7-3.3c-.1-.2-.3-.2-.3-.2m62.2.1a17 17 0 004.3 4.7c.4.4 2.3 1.6 2.6 1.6a17 17 0 01-6-5.2c-.5-.7-.9-1.2-.9-1m120 .2l-.2.6c0 .8-2 3.2-3.7 4.5-1.3 1-1.4 1.2-.2.4 1.6-1 4-4 4-5l.3-.5.2-.3s-.2 0-.4.3m-232.1.5c.5.7 1.7 1.9 2.3 2.3.5.4.5.4-.1-.3a68.6 68.6 0 01-2.2-2m273.9.3l-1.1 1.3-.5.7c.2 0 .4-.2 1.5-1.6l.6-1-.5.6m-173.5.8c-.5 1-2.7 3.3-3.7 4l-.5.4c1 0 5.2-4.6 4.7-5.1l-.5.7m103.2-.7c0 .8 2.6 3.8 4 4.7.7.5 1 .5.5 0l-.4-.2c-.6 0-3.5-3.2-4-4.4 0-.2 0-.3 0 0m-130 1.5a11 11 0 003.8 3.5l-.8-.7c-.5-.4-1.5-1.2-2-1.8l-1-1m198 .7a20.6 20.6 0 01-5 3.4 13.3 13.3 0 005.5-3.6c-.1 0-.3 0-.4.2m-268.7.3l.5.4.7.3a8 8 0 002.2 1.2s-.2-.3-.8-.6a44 44 0 01-2.6-1.3m30.9.5l-1.3.7-1 .6 1.3-.5c1.3-.7 1.4-.8 1.3-1 0 0-.2 0-.3.2m-26.9 1.7l.8.3c.3 0 .2-.1-.3-.3-.8-.4-1-.4-.5 0m23.4 0c-.3.2-.4.3-.2.3l.8-.3c.3-.2.3-.3.2-.3l-.8.3m-21.6.6c.3.2.8.3 1 .2.6 0 .6 0 0 0l-.8-.3-.5-.2c-.2 0-.1.1.3.3m20.3-.2l-.8.3-.6.1h.6c.3 0 .8 0 1-.2l.2-.3-.4.1m48.8.1c.1.2.5.4.7.4.4 0 .4 0 0-.2l-.7-.3c-.2-.2-.2-.2 0 .1m16.8.3c-.6.3-.9.4-.6.4l.8-.3c.3 0 .6-.2.7-.3.3-.4.3-.4-1 .2m24.6-.4c0 .3 1 .6 1.2.4l-.3-.1a1 1 0 01-.6-.3h-.3m16.9 0l-1 .5c-.4.2-.6.4-.4.4l.5-.2.5-.2c.2 0 .5-.1.7-.3.4-.3.2-.4-.3-.1m72.7 0c.2.3.5.4.7.4.2 0 0-.2-.3-.3-.7-.4-1-.4-.4 0m17.2 0c-.5.3-.5.3-.1.3l.7-.3c.3-.4 0-.4-.6 0m-215.4.5l.6.2c.4 0 .4 0 0-.2-.5-.3-.7-.3-.6 0m16.3-.1l-1.6.3-2.7.4-1.4.2 1.5-.1c2.3-.1 6.3-.9 4.7-1l-.5.2m52.2 0c0 .2.4.3.8.4.4 0 .9.2 1 .3l1 .2c.6 0 .1-.2-1.6-.6-.4 0-.8-.2-1-.3h-.2m41.6 0c.3.3 1.6.7 2.7.8.8.1.4 0-1-.4l-1.5-.4c-.2-.1-.3-.1-.2 0m89.3 0c.2.3 1.5.7 2.6.8.8.1.5 0-.9-.4a23 23 0 01-1.5-.4c-.3-.1-.3-.1-.2 0m55.3.1a42.4 42.4 0 01-2 .7c1.1-.1 2.5-.5 2.7-.7.2-.3 0-.2-.7 0m-252.6.4l2.5.3c1.8 0 .1-.2-2.2-.4-1.4 0-1.4 0-.3.1m79.2.1c-.7.2-.7.3-.2.2 1-.2 2-.5 1.5-.5a5 5 0 00-1.3.3m40.7 0c-.7.2-.7.3-.2.2 1-.2 2-.5 1.5-.5a5 5 0 00-1.3.3m90.3 0c-.7.2-.7.3-.2.2 1-.2 2-.5 1.5-.5a5 5 0 00-1.3.3m-139 .5a27.7 27.7 0 005.6 0l-2.9-.1c-2 0-3.3 0-2.8.1m42.3 0c.9.2 2.3.2 3.3 0 1.7-.1 1.6-.1-1.5-.1-3 0-3.2 0-1.8.2m88.7 0a27.7 27.7 0 005.6 0c.6-.2-.6-.2-2.8-.2-2 0-3.3 0-2.8.1m42.4 0c1 .2 2.4.2 3.3 0 1.5-.1 1.4-.1-1.6-.1s-3.2 0-1.7.2" fill="#8171a9"/><path d="M74.5 72.3c0 .1-.4.3-.8.3l-.8.2.8-.1 2-.3 1-.1h-2.1m11.3.1l2 .3 1 .1-1-.3c-.6-.1-1.6-.3-2.1-.2h-1l1 .1m-14.6.7c-.4.2-.5.3-.3.3a3 3 0 001-.3c.8-.3.2-.3-.7 0m18.6 0l1.1.3c.3 0 .2-.1-.3-.3-1-.4-1.6-.4-.8 0m23.7.3h3.6l.1 7.7v7.7h8.2-4l-4-.1-.1-7.7v-7.7h-7.4 3.6m58 .2c-.1.1-.2 9-.1 19.6v19.3V93l.1-19.5H178.8l-3.6-.1c-2.8 0-3.7 0-3.8.2m43.5-.1c-.3 0-.4 55-.1 55.7.1.4 7.5.5 7.8 0l.3-12.2v-12h25.5l.2 12.2.1 12.2h8v-56h-7.5 3.7l3.7.1v55.8h-3.7c-2.6 0-3.7 0-4-.3 0-.1-.2-3.1-.2-12.2 0-10.7 0-12-.3-12-.5-.3-25.1-.2-25.5 0-.4.2-.4.6-.4 12.4v12h-3.7c-3.7 0-3.7 0-3.9-.4V73.5h3.8l3.7-.2h-7.6m87.8 0c0 .2 1 .2 2.4.2 4.6-.1 5-.2 1.4-.2h-3.8m-233 .4c-.8.3-1.6.7-1.3.7 0 0 .3 0 .5-.2l1-.4c.8-.4.6-.4-.3-.1m22.5 0c.2.2.5.3.7.3.2 0 .4.1.5.3.2 0 .3.1.4 0 0 0-.1-.2-.4-.3l-1-.4c-.5-.3-.7-.2-.2.1m17.6 20.4v10.4a2394.8 2394.8 0 000-10.4m69.5-11.9v9c0 .5.7.3 1.5-.4.9-.7 2.6-1.7 4-2.1l.5-.4-.6.1-1.6.7-2.1 1.4-1.3.8s-.2-4-.2-8.8l-.1-9-.1 8.7m43.4 2.6c0 11.2 0 11.5.4 11.9.5.5 25.2.6 25.6.1.3-.3.4-23.4.2-23.4 0 0-.2 5.2-.2 11.5 0 8.7 0 11.6-.2 11.8-.3.3-24.5.3-25 0-.4-.2-.4-.6-.4-11.6 0-7.4-.1-11.5-.2-11.6-.2 0-.2 3.8-.2 11.3m87.7-2.3c0 8.9 0 9 .3 9s.4-.1.4-.2-.1-.2-.3-.1c-.2.1-.3-1-.3-8.8v-8.9l-.1 9M66.4 75.3a14 14 0 00-3.6 3.6c0 .1.2 0 .4-.4 1-1.3 2-2.2 3.4-3l1.3-1c-.1 0-.8.3-1.5.8m27.5-.8l1.1.7c2 1 5.1 4.4 5.1 5.5 0 .3.6 1.1.6.8 0-.1 0-.3-.2-.4l-.2-.4c0-1-3.1-4.5-5.1-5.7-.9-.5-1.6-.8-1.3-.5M62 80.3c-.1.2-.2.4-.1.5 0 0 .2-.1.3-.4.1-.2.2-.4.1-.5l-.3.4m15.2-.4l-1.2.3-1 .2 1-.1c1.5-.2 8.5-.2 9.9 0l1 .1-1.1-.2c-1.2-.3-8.4-.5-8.6-.3m-3.3.7c-.1.3 0 .3.6 0 .4-.1.4-.1 0-.1l-.6.1m-1.4.5l-.2.3.4-.1.6-.3c.4-.1.4-.1 0-.1-.2 0-.6 0-.8.2m16-.1c.3 0 .6.2.7.3l.4.1-.2-.3-.8-.2c-.4 0-.4 0 0 0m-27.2.9l-.2.9c.1.1.2 0 .2-.2s0-.5.2-.6c.1-.1.2-.3.1-.5 0-.1-.2 0-.3.4m9.8 0c-.7.5-2 1.9-2 2.2l-.2.3c-.2 0-.2.2-.2.3 0 .2.3 0 .5-.4.4-1 .7-1.2 1.8-2 1-.8 1-1 .1-.4m19.5.3c1 .6 2.4 2.4 2.4 3.2 0 .4 0 .4.1 0 .3-.9-2.2-3.9-3.2-3.9l.7.7m10 .1c0 .3.1.8.3 1.1.4.8.4.5 0-.7-.2-.6-.3-.7-.3-.4m-39.9 2.3l-.2 3.4v2l.2-2.5a39.3 39.3 0 01.3-4.2l-.3 1.3m40.5 1.3l-.1 1h-3.6c-3.5 0-3.6 0-4-.4l-.3-.2c0 .7.7.9 4.2.9 4 0 4 0 4-1.4l-.1-1-.1 1m-32.8.4c-.4 1.3-.4 2 0 2.8.3.8.4.6 0-.6l.1-1.8.2-1c0-.2-.2.1-.3.6m274.3.4l.2.4.2-.4c0-.3 0-.4-.2-.4 0 0-.2.1-.2.4M187 87.8l-.9.3-.7.1h.8a73.8 73.8 0 018-.2 33 33 0 00-7.2-.2m130.3.2l-1 .3 1-.2a59.7 59.7 0 010-.1m-121 .6c.3.1.8.3 1 .2.4 0 .3 0-.1-.1-1.5-.4-1.6-.5-1-.1m119-.1c-1.2.5-2.2 1-2.3 1.2 0 0 .4 0 .9-.3a91.1 91.1 0 011.4-.9m12 0c.4.2 1 .4 1.2.3.3 0 .2 0-.2-.1-1.5-.4-1.6-.5-1-.1m14.5 0l.2.4c.1 0 .2 0 .2-.3 0-.2 0-.4-.2-.4 0 0-.2 0-.2.3m-184.4.2c0 .1 1.6.2 3.7.2 2 0 3.7-.1 3.7-.2l-3.7-.1-3.7.1m106.3.1c-.2.5 0 26 .2 27l.3 1.2-.1-1.3-.2-14-.1-13H270.9h-3.7c-2.8-.1-3.6 0-3.7.1m24.7 0c0 .2-.2 5.7-.2 12.4a434.3 434.3 0 010 13c.2-1 .2-3.7.3-13.3V88.9h3.5l3.6-.1h-3.6c-2.7-.1-3.6 0-3.6.1m-162.4 3.7c0 4.6.5 4-4.4 4-2.7 0-3.8.2-4 .3a51 51 0 00-.2 8.7v8.4l.1-8.5.2-8.5h4.1c3.2-.1 4.2-.2 4.3-.4v-7.8 3.8m6.8 8.6v6.3a831.6 831.6 0 000-6.3M295.5 100.3l-.1 13.2-.1 1.7.2-1.5c.1-.8.2-6.6.1-13.2V88.8v11.5M329 89.2l.7.3c.2 0 .2 0 0-.2l-.7-.3c-.4-.2-.4-.2 0 .2m-58 12.6c0 8.5.1 13.1.3 13.7l.2 1-.1-1-.3-13.7-.1-12.8v12.8m-71.8-12.1l1 .6c.2.2.6.2.4 0-.1-.2-1.7-1-2-1l.6.4m130.9-.2c0 .2 1.4 1 1.5 1 0-.1-.3-.4-.7-.6l-.8-.4m-261.4.3c0 .4 2.3 2.4 2.5 2.2l-.4-.4-1.4-1.1-.7-.7m243 .4l-.6.6c0 .2.3 0 .6-.2 1-.8 1-1 0-.4m-251 .2c0 .2 0 .5.2.7.2.4.2-.1 0-.7l-.2-.4v.4m271.6.5a28 28 0 013.2 3c-.6-.9-2.2-2.4-3-3l-.7-.5.5.5M202 91a18 18 0 002.5 2.5A15 15 0 00202 91M61.2 92c0 .2.1.6.3.8l.3.2-.2-.4-.3-.6v-.4.4m10.6.4l.8.3c.3 0 .2-.1-.3-.3-.8-.4-1-.4-.5 0m1.7.6l1 .3c.1 0 0-.2-.5-.3-1-.4-1.1-.4-.5 0m1.5.5l1 .3.6.1-.8-.3c-1-.4-1-.4-.8-.1m3.3 1c.3.2.7.4 1 .4.2 0 0-.2-.5-.3-1-.4-1.1-.4-.5 0m126.4-.2l.2.4c.1 0 .4.4.5.8.2.4.4.7.5.6 0 0-.3-.8-.8-1.5-.2-.3-.4-.4-.4-.3m-142 .6c.9 1.4 5.6 5 5 3.9l-1.1-.6C66 98 65 97 64 96c-1-1-1.5-1.4-1.2-1m273.2-.3c0 .1.8 1.5 1 1.5l-.4-.8c-.3-.7-.6-1-.6-.7m-255.8.4l1 .3c.2 0 0-.2-.5-.3-1-.4-1.1-.4-.5 0m106 .3l-.7.2c-1.4 0-5 2.8-5 3.9l.6-.7c1-1.7 3.2-2.9 6.2-3.5h-.2a2 2 0 00-1 0m5.6 0l1.4.3 2.1.7c.6.3 1 .4 1 .3 0-.2-1.4-.8-2.4-1-.7-.3-2.5-.5-2.1-.3m125.6 0l-.8.3-.7.2.8-.1 1.5-.3.8-.2h-.8l-.8.1m6 .1a16.4 16.4 0 001.4.2l-.6-.2-1-.2h-.6l.8.2m-241.5.2l.9.3.6.1-.8-.3c-.9-.4-1-.4-.7-.1m244.2.6a8.6 8.6 0 012 1.3l1 .7-.5-.6c-.3-.4-.8-.7-1-.8a33.8 33.8 0 01-2-1c-.1 0 0 .2.5.4m-12.2.6c-.8.6-2 2-2 2.3l.6-.7a8 8 0 011.6-1.6c.6-.3 1-.6.8-.6-.1 0-.6.2-1 .6m-228.7-.1l.9.3c.2 0 0-.2-.4-.3-1-.4-1.2-.4-.5 0m121-.2l.1.4.2.4c0 .4.4 1.4.5 1.3.1-.1-.5-1.9-.7-2.1-.1-.1-.2-.1-.2 0m131 .1c0 .2.1.5.3.7.4.5.4.3 0-.4-.2-.4-.3-.5-.3-.3m-140.5.4l.6.4c.4.3.4.2 0-.2s-.8-.6-.6-.2m-109.6.3l.9.3c.2 0 0-.2-.4-.3-1-.4-1.2-.4-.5 0m1.5.4c.2.3 2.3 1 2.4.8l-.9-.4a50.5 50.5 0 01-1.5-.4m109.1.2l.9 1c.6 1 .8 1 .2.1-.5-.8-.9-1.2-1.1-1.2-.1 0-.1 0 0 .1m140.1.1c0 .2.1.7.3 1 .2.5.3.6.3.3 0-.2 0-.5-.2-.6l-.2-.6c-.1-.3-.1-.3-.2 0m-8.1 1l.5 1.1c0 .4.6 1.4.6 1 0 0 0-.4-.2-.5a85.8 85.8 0 01-1-1.6M91.8 99l.9.3c.2 0 0-.1-.4-.3-1-.4-1.2-.4-.5 0m115.3.2c0 .5.4 2 .5 1.9l-.2-1.2c-.1-.6-.3-1-.3-.7m-138.5.2l.8.3c.3 0-.7-.6-1-.6-.3 0-.1.1.2.3m24.9.2l.6.3 1.2.5c.5.3.9.4.8.3l-1-.6a55.9 55.9 0 01-1.6-.5m105.6.6c0 .1 0 .3.2.4l.3.7v.5-.5c0-.3 0-.7-.2-1-.2-.1-.3-.2-.3 0m139.3.5l.3 1.6.2.8v-.7c0-.4-.1-1.1-.3-1.6l-.3-.9.1.8M73 101c1 .4 1.1.4.6 0-.2-.2-.6-.3-.9-.3-.4 0-.3 0 .3.3m106.9.5c-.2.4-.3.9-.2 1 0 .2.1.1.1-.2 0-.2.1-.6.3-.8v-.6l-.2.6m-83 0a21 21 0 014.5 4.8c0-.8-3-4.2-4.5-5-.5-.4-.5-.3 0 .1m-22 .2c.9.4 1 .4.5 0-.2-.2-.6-.3-.8-.3-.3 0-.2.1.3.3m235.6 1a91 91 0 000 12.1l.3.7-.1-.7a85.3 85.3 0 01-.2-12.1m20.3-.2l.3 2.3.1 1.5v-1.6c0-.9-.2-2-.3-2.3l-.2-.7.1.8M76 102l1 .4a83.2 83.2 0 01-1-.4m123.6 0c0 .6.4 1 .4.6 0-.3 0-.5-.2-.6h-.2m8.2 1.2v11l-.2 1.2.3-1.2a69 69 0 000-11l-.2-1.4v1.4m-128.2 0c1 .4 1.1.4.7 0-.3-.2-.7-.3-1-.3-.4 0-.3 0 .3.3m120.6 5.4a75.9 75.9 0 00.1-4.2l-.1 4.2m-118.7-4.8c.9.4 1 .4.5 0-.2-.1-.5-.3-.8-.3-.2 0-.1.1.3.3m97.9.7c-.2 1.3-.2 7.6 0 8.5l.1-4.3c0-5.7 0-5.6-.1-4.2m-96.6-.3l1 .4a89.5 89.5 0 01-1-.4m256.2 4.6v2a82.2 82.2 0 000-2m-253.1-3.5l.5.2.6.2-.2-.3a2 2 0 00-1-.3h-.3l.4.2m2 .7c1 .4 1.3.4.6 0l-1-.3s0 .2.4.3m2 .7l1.7.7c.5.2 1.3.8 1.8 1.4l1 .8c0-.5-1.9-2-3.1-2.6a76.3 76.3 0 01-1.3-.3m11.4-.1l.3.6c.2.4.3.5.3.3 0-.1-.1-.5-.3-.7l-.3-.2m.6 1.8l.2.4.2 1v1l.2-.8c0-.5 0-1-.3-1.4-.2-.4-.3-.5-.3-.2m-7.5 1.8c.3.7.3 5 .1 5.2l-.2.4c0 .2.1 0 .3-.1.4-.6.4-4.7 0-5.4-.2-.3-.3-.3-.2 0m8.2 2.7V112v1.1m228.4-.5c0 1-.4 2.6-.7 3.5v.3c.2 0 .3-.4.4-.8l.3-1.2c.1-.3.2-1 .1-1.7v-1.2 1m-159.5.8l.1 1.4c.2 1 .2 0 0-1.3l-.1-.9v.8M59 113c-.2.2-.1 2.3.2 3.3.2.7.2.8.2.3l-.3-2.1v-1.5H67v1l.1 1.1v-2.2h-8m243.5 1.1l.3 1.8.2.7-.1-.7-.3-1.8-.2-1 .1 1m-138.2.3c-.2 2-.3 3.3-.1 2.3.3-1.2.5-3.2.3-3.2l-.2.9m-7.6.2a29 29 0 00-.2 2.1l.3-1.2c.1-.4.2-.9.1-1.2 0-.4 0-.3-.2.3m-39.4 0c0 .3 0 .6.2.6.2.2.2 0 0-.6-.2-.3-.2-.3-.2 0m221.2.4c-.4 2.3-.4 2.3 0 1.3l.2-1.5c0-.5-.1-.4-.2.2m-159 0c0 .3.7 2.2.8 2.2 0 0 0-.5-.3-1l-.4-1.3c-.1-.2-.1-.2-.1 0m-39.2.5l.3 1.5c.3.5.3.6.2.2-.5-2.4-.4-2.3-.5-1.7m-7.6.5c0 .5.1 1.4.3 2 .3 1 .3 1 0-1.8l-.2-1v.8m-30.6.5c0 .6-.2 1.3-.3 1.6 0 .3 0 .2.2-.2s.3-1 .3-1.5l-.1-.9-.1 1m15.5-.4c0 .2 0 .6.2.9.2.2.3.3.3.1l-.1-.4c-.1 0-.3-.4-.3-.7v-.5l-.1.6m-50.6-.2c0 .5 1.6 2.6 2.5 3.2.3.2 0-.1-.6-.8a6.3 6.3 0 01-1.3-1.5c0-.3-.6-1.2-.6-.9m42.5 0c0 .6.6 2.2.6 1.7l-.3-1.2-.3-.5m62.2.4l.3 1.2c.2.5.3.5.3.2 0-.2 0-.5-.2-.6l-.2-.8c-.1-.5-.1-.5-.2 0m27.5-.1l-.2.6c-.2.1-.2.3-.2.4.2.2.6-.7.5-1.1 0-.3 0-.3 0 0m7.8.8l-.3 1c0 .3.2 0 .3-.4l.3-1c0-.2-.2 0-.3.4m80 .2c-.2.5-.2 1-.2 1.1.1 0 .2 0 .2-.3 0-.2 0-.5.2-.6.1-.1.2-.4.1-.7 0-.3-.1-.2-.3.5m7.7 0c-.3 2.2-.3 2.3 0 1.3a5 5 0 00.2-1.6c0-.6 0-.6-.2.3m-201.3 0l-.3.7c.3 0 1-1 .8-1.1l-.5.5m217.4-.4c0 1.2 3.5 4.9 4.7 4.9l-.6-.5a9.5 9.5 0 01-3.9-4.2c0-.2-.1-.3-.2-.2m-39.5.3c0 .2 0 .5.2.7l.4 1 .3.4v-.5l-.6-1.1c-.1-.5-.3-.7-.3-.5m31.5.3l.3.9c.2.4.3.5.3.3 0-.5-.6-1.6-.6-1.2m-184.7.1c0 .5 2.8 3.8 3 3.5l-.6-.6-1.6-1.8c-.4-.7-.8-1.1-.8-1m37.7.5l-.5 1c-.2.4-.2.4.1.2.2-.2.4-.4.4-.6 0-.2 0-.5.2-.6.1-.1.2-.3.1-.5 0-.1-.2 0-.3.5m24.4-.5c0 .3 1.8 2.6 2.2 2.8.7.4.6.3-.3-.7-.6-.5-1.2-1.3-1.4-1.6l-.5-.5m18 .4c-1 1.8-3.8 3.8-5.6 4-.8.2-.8.2-.2.2 1.7.1 7-4 6.3-4.7l-.5.5m139.3.2c-.1.4-.2.8-.1.9l.1-.2.2-.6c.2-.1.2-.3.2-.5 0-.1-.2 0-.4.4m-196.8-.2c0 .9 2.3 3.7 3 3.7.2 0 0-.2-.4-.5-1-.6-1.3-1-2-2.3l-.6-.9m-81.4 0l.3.9c.2.5.3.5.3.2s-.6-1.4-.6-1m33.2.2l-.8.7-.4.5c.2 0 1.8-1.4 1.6-1.4l-.4.2m171.3.2c.2 1.1.5 1.9.5 1.4l-.3-1.2c-.2-.5-.3-.6-.2-.2m65 .1c-.4.6-1 1.1-2 1.9-.3.3-.5.5-.4.6.3 0 2.9-2.6 2.9-2.8 0-.4-.2-.3-.6.3m-165.3.5a3 3 0 00-.1 1.2v-.2l.3-.9c.1-.2.2-.5.1-.7l-.3.6m8.8-.6l.3.8c.2.5.3.5.3.3 0-.3-.1-.6-.3-.8l-.3-.3m34.1.4c-.3.9-.2 1.1.1.4l.2-.8s-.2.1-.3.4m80 .2l-.7 1.1c-.3.3-.4.5-.3.5.3 0 1.6-2 1.4-2.2 0 0-.3.2-.4.6m-185 .2c-.2.3-.3.6-.2.7l.3-.5c.3-.8.2-1-.2-.2m202.2-.1l1.8 3.5 1.2 1.5a16 16 0 004 3.3c1.5 1 1.2.6-.4-.4-2-1.3-5-4.4-5-5.1l-.5-1-.6-1.2c-.1-.5-.5-1-.5-.6m-170.3.3l.3 1c.2.6.3.7.3.4 0-.2-.1-.7-.3-1-.2-.4-.3-.6-.3-.4m-62.9.2c.1.2 1.3.8 1.4.7l-.7-.5-.7-.2m20 .2l-.8.5c.1 0 1.3-.5 1.5-.8.1-.2.1-.2-.8.3m182.2-.3l.8.9c.6.6.7.6.2 0-.8-1-1-1-1-.9m64.6.2l-.2.7-.1.4-.5.7-.2.5c.2 0 .3-.3.4-.5l.4-.7c.5-1 .6-1.3.5-1.4l-.3.3m-276.8.4a8 8 0 001.3 2l-.4-.7-.5-1-.3-.6c-.3-.3-.3-.3 0 .3m94.1.3c-.4.4-1 .9-1.4 1-1 .4-1 .6-.1.3.6-.2 2.5-1.9 2.4-2 0 0-.5.2-.9.7m-43.4 0c.2.5.7 1.3.7 1.1l-.9-1.7.2.5m183.1 0l-.2.8c0 .2.1 0 .3-.4.3-1 .3-1.2 0-.4m-88.6.4l-.4.9-.3.4c-.2.1-.3.3-.3.4 0 .4.6-.4 1.1-1.5.6-1.1.5-1.3 0-.2m-105-.3c-.3.6-.6 1.2-.4 1 .2 0 .9-1.2.7-1.2l-.2.2m-28.3.3l.9.3c.2 0 0-.2-.4-.3-.8-.4-1.2-.4-.5 0m15.5 0c-.5.2-.6.2-.2.3l.6-.2.6-.3h.4l-.4-.1a3 3 0 00-1 .3m74.9.3l-.2.9-.2.4-.2.3c0 .4.4-.1.7-1 .3-1 .2-1.4-.1-.6m101.6-.1l.2.8c.2.5.7 1.2.7 1 0-.2 0-.4-.2-.4l-.3-.8c0-.4-.2-.8-.3-.9-.2 0-.2 0-.1.3m-80.8.3l.9.4c.1 0 0-.2-.5-.4-1-.6-1.2-.6-.4 0m100.7 0c-.4.2-.5.4-.4.4l.8-.4c.7-.6.3-.6-.4 0m-209.8 0c.4.2 1.3.3 2 .3h1.3l-1.3-.1-2-.3-.7-.1.7.2m11.8-.1l-1.5.3-1.3.1h1c.7 0 1.5 0 1.9-.2.4-.2.5-.3.3-.3l-.4.1m35.4.2c.2.2.4.3.6.2.1 0 0-.2-.4-.3-.5-.3-.5-.2-.2 0m203.8 0c-.4.3-.4.4-.2.4l.6-.3c.3-.4.2-.4-.4 0m-191.8.2s0 .3.2.4l.3.6c0 .4 0 .4 0 0 0-.3 0-.6-.2-.8-.2-.3-.3-.3-.3-.2M123.3 121.7c.2.1.6.3.9.2h.5-.5l-.7-.4a.7.7 0 00-.4-.1l.2.3m62.1 0c.3.1.7.3 1 .2.7 0 .7 0 0-.1a5 5 0 01-1-.3c-.2-.1-.2 0 0 .2m90.2 0l1.1.2c.6 0 .6 0 0-.1l-1.2-.3c-.2-.1-.2 0 .1.1m7.7 0l-.8.2-.6.1h.7c.3 0 .7 0 1-.2.2-.2.3-.3.1-.3l-.4.1m33.1.2c.3.1.7.3 1 .2h.7-.6c-.4-.1-.7-.2-.8-.4a.7.7 0 00-.4-.1c-.2 0 0 .1.1.3m8.3-.2l-.9.3-.7.2.8-.1c.8 0 1.8-.5 1.1-.5l-.3.1m-225 .6c-.3.6-1.7 2-2.8 3l.3-.2c1-.7 2.5-2.2 2.9-2.9.3-.6 0-.5-.3.1m12.7.4l.6.8c.1-.1-1-1.7-1-1.7-.1 0 0 .4.4.9m181.1-.4a12.2 12.2 0 01-6 6.1c-.1.1-.1.2 0 .2.8 0 3.7-2.2 4.7-3.6 1-1.3 2-3.2 1.7-3.2l-.4.5m-148.1-.2H145.8h-.3m5.7 0h.4-.4m-26 .4l.6.3v6.8h-1.3l-1.2.1h2.7V126c0-3.8 0-4-1-4-.2 0 0 .1.2.3m22 0c.2.1 2.6 0 3-.1l-1.4-.1c-1 0-1.8 0-1.7.1m40.5 0c.3.2 4.1.2 4.2 0l-2.1-.1c-1.3 0-2.2 0-2 .1m90.2 0l1.7.1 1.8-.1-1.8-.1c-1.2 0-2 0-1.7.1m40.5 0c.3.2 3.7.2 4.2 0l-2-.1c-1.3 0-2.3 0-2.2.1m-255.3 1.4l1.4 1.3c.1 0-2.5-2.7-2.7-2.7l1.3 1.4m272.2-.7a20.4 20.4 0 01-3.5 3.6 14.6 14.6 0 004.1-4.3l-.6.7m-160 .4c1.5 2 5.2 4.8 5.6 4.4l-.6-.4c-1.5-.7-2.1-1.2-4-3.2-1-1-1.4-1.3-1-.8m27.5 1.2a14.6 14.6 0 01-2.8 2.4c-.9.4-1.4.9-1.1.9.6 0 4.6-3.3 5.5-4.7.6-.8.5-.7-1.6 1.4m62.8-1.7c0 .3 1.7 2.8 1.7 2.7l-.8-1.4-.9-1.3m-152.3.8c0 .5 4.6 4.2 5.2 4.2.3 0-.2-.4-1-.9-.6-.2-1.7-1.1-2.6-2l-1.6-1.3m21.7-.1c0 .4 2 2.7 3 3.3l-.4-.3-1.7-2-.9-1m26.5.8c-.2.1-.2.3-.2.4l.4-.2.1-.4s-.2 0-.3.2m-96.7.8c0 .2 3.4 2.1 3.6 2l-.5-.4c-.3-.1-1.2-.5-1.9-1l-1.2-.6m30.9.7l-.5.3c-.3 0-.5.2-.5.3l.6-.1c.6-.4 1-.7.6-.7-.1 0-.2 0-.2.2m63.7.8l-.8.6-.6.3c-.2.3-.2.3.4 0 .7-.3 2-1.5 1.8-1.5l-.8.6m109.3.2l.8.6.6.2-.8-.6-.6-.2m-199.6.7l.8.3c.3 0-.7-.6-1-.6-.3 0-.1.1.2.3m23 0c-.4.4-.3.4.6 0 .5-.2.6-.3.3-.3-.2 0-.6.1-.8.3m-21.4.6c.4.2.9.3 1.1.2h-.1l-.7-.3-.5-.2c-.4 0-.3 0 .2.3m19.5 0c-.4.1-.6.3-.4.3l1-.3c.8-.4.3-.4-.6 0m28.8 0l.7.3-.2-.3c-.7-.4-1-.4-.5 0m20.8 0l.7.3c.2 0 0-.2-.3-.3-.7-.4-.9-.4-.4 0m17 0c-.3.2-.4.3-.2.3l.7-.3c.4-.4.1-.4-.5 0m24.5 0c.2.2.6.3.7.3.2 0 0-.2-.2-.3-.8-.4-1-.4-.5 0m16.2 0c-.3.2-.4.3-.2.3l.8-.3c.3-.2.4-.3.2-.3l-.8.3m73.1 0l.7.3c.2 0 0-.2-.3-.3-.7-.4-.9-.4-.4 0m42.1.2c1 .5 1.6.6 1.2.3-.1-.1-.7-.4-1.8-.7-.2 0 0 .1.6.4m15.8-.2c-.3.2-.4.3-.2.3l.7-.3c.5-.4.2-.4-.5 0m-255.9.5c.6.2 1.1.2.7 0l-.7-.2h-.4l.4.2m15.8 0c-.4.2 0 .2.7 0l.4-.2h-.4c-.3 0-.6 0-.7.2m67 0l-.6.2c-.3 0-.8.1-1.1.3-.4.2-.5.2-.2.2l1.2-.3c1-.2 1.8-.6 1.2-.6-.2 0-.4 0-.4.2m27.4 0c.8.4 2.6.8 2.7.7.1-.1-1.3-.5-1.9-.5l-.6-.2-.4-.2c-.2 0-.1.1.2.3m89.2-.1c.1.2.6.3 1 .4a104 104 0 010-.2l-.7-.2-.4-.2c-.3 0-.3 0 0 .2m14.5 0l-.7.2c-.3 0-.9.1-1.2.3-.7.3-.7.3-.1.2 1.8-.4 3.3-.9 2.4-1-.2 0-.4.2-.4.3m-211.8.4c2.4.3 4 .4 2 0l-2.4-.2c-.5 0-.4 0 .4.2m12 0h1c.2-.1 0-.2-.6-.2s-.8 0-.5.1m34.8 0l1 .4c.3.1.3 0 .2 0-.2-.2-.6-.4-1-.4-.8-.1-.8 0-.2 0m21.2.2a7 7 0 001.3.3c.5 0-1.2-.6-1.8-.6-.3 0 0 .1.5.3M315 129c1.7.4 2 .4 1.2.1a4 4 0 00-1.3-.3c-.5 0-.5 0 .1.2m10.5 0c-1.1.3-.6.4.6.1.6-.2.9-.3.6-.3l-1.2.2m-241.3.2l-1 .1h1l1.5-.1.6-.2h-.6l-1.5.2m-4.1.3H81 80m66.7.1h4c1.9-.1 1.7-.2-2-.2-4 0-4 0-2 .2m41.3 0h3.6c1.5-.1 1.2-.2-2-.2-3.3 0-3.4 0-1.6.2m89.5 0h4.2c1.9-.1 1.7-.2-2.2-.2-4 0-4 0-2 .2m41.3 0h3.8c1.6-.1 1.4-.2-2-.2-3.3 0-3.5 0-1.8.2" fill="#948cbc"/><path d="M77.2 72.2h.8c.2-.1 0-.1-.5-.1h-.3m6.4 0c.3.1.6.1.8 0h-.8m25.8 21.4v10a2213.1 2213.1 0 000-10m193-.3v9.7a2147 2147 0 000-9.7m40-6c-.2.2-.2.7 0 .7l.2-.4c0-.5 0-.5-.2-.3M126 92.6v1.8a66.3 66.3 0 000-1.8M288 101v6.2a818.3 818.3 0 000-6.2m7.8-.3v5.9a753.2 753.2 0 000-5.9M338.9 104v.4c.1-.3.1-.7 0-.8v.4M200 108.8v1.8a53.1 53.1 0 000-1.8m-43.2 4c0 .6 0 .8.1.5v-1 .5m-24.4 1.4c0 .5 0 .6.1.4v-.8.4M126 126v1.7a55.5 55.5 0 000-1.7" fill="#9484b4"/></g></svg>