<?xml version="1.0" encoding="UTF-8"?>
<svg version="1.1" xmlns="http://www.w3.org/2000/svg" width="512" height="512">
<path d="M0 0 C3.11555722 2.22014117 3.65049698 2.375 7.75 2.375 C9.11273089 2.07861684 10.46748209 1.7435177 11.8125 1.375 C34.6143656 -4.2371586 59.87469081 -1.94841146 80.2265625 10.0546875 C86.96361793 14.27786093 94.64314755 19.3412787 99.57421875 25.6171875 C103.23241958 28.49012009 107.40894987 28.33382543 111.9375 28.75 C135.27641408 31.4729052 155.90390209 41.23317986 173.8125 56.375 C175.00359375 57.32246094 175.00359375 57.32246094 176.21875 58.2890625 C195.79258103 74.48571845 208.1374648 99.99592485 211.5625 124.875 C212.13437332 131.67098295 211.88774051 138.56155425 211.8125 145.375 C207.08523518 143.50668762 202.41963923 141.50332388 197.75 139.49609375 C191.06512021 136.94481649 184.50405376 137.18355991 177.4375 137.1875 C176.2402832 137.18685547 175.04306641 137.18621094 173.80957031 137.18554688 C165.05439984 137.23648942 156.43433501 137.78705819 147.72680664 138.65893555 C140.05457276 139.41531455 132.5186549 139.59413237 124.8125 139.375 C125.85604937 142.37760526 126.61900897 143.26896577 129.45703125 144.82421875 C130.50246094 145.23285156 131.54789062 145.64148438 132.625 146.0625 C133.66269531 146.47886719 134.70039063 146.89523438 135.76953125 147.32421875 C148.14207546 151.59663774 161.23644073 149.82057338 173.51953125 146.25 C176.8125 145.375 176.8125 145.375 180.8125 145.375 C179.45875148 156.34503109 174.53786891 165.47284251 165.8125 172.375 C151.96550803 181.98644148 137.71426903 184.49168396 121.24804688 184.8046875 C120.33732422 184.835625 119.42660156 184.8665625 118.48828125 184.8984375 C117.66239502 184.91825684 116.83650879 184.93807617 115.9855957 184.95849609 C113.31836075 185.46970863 112.44865209 186.23979479 110.8125 188.375 C108.73991129 194.59276612 109.8806956 200.84433357 111.23828125 207.1171875 C111.54256908 208.59675734 111.84642567 210.07641591 112.14990234 211.55615234 C112.30948425 212.32159363 112.46906616 213.08703491 112.63348389 213.87567139 C124.17506205 269.62867424 127.96085938 333.06375993 95.37109375 382.734375 C91.9707533 387.70897105 87.9713861 392.03201834 83.8125 396.375 C83.02875 397.385625 82.245 398.39625 81.4375 399.4375 C69.66317405 412.61353142 52.83063277 422.30411032 36.8125 429.375 C36.1525 429.375 35.4925 429.375 34.8125 429.375 C35.3075 430.53 35.8025 431.685 36.3125 432.875 C38.72629923 440.15104553 39.26228761 449.42545628 37.0859375 456.85546875 C35.1416593 460.56224305 32.73475774 463.01073644 28.8125 464.375 C25.43078978 464.30746969 22.1493532 463.91278411 18.8125 463.375 C18.379375 464.15875 17.94625 464.9425 17.5 465.75 C15.8125 468.375 15.8125 468.375 12.8125 470.375 C8.68569107 471.1373235 4.63679471 471.19662891 0.765625 469.453125 C-4.70946142 465.60698991 -9.06205306 460.35999236 -13.4765625 455.375 C-13.92112793 454.88781494 -14.36569336 454.40062988 -14.82373047 453.89868164 C-15.76527171 452.84673769 -16.67436452 451.76515917 -17.55517578 450.66186523 C-19.56876042 448.31497628 -21.05152168 446.60242111 -24.15576172 445.98095703 C-26.41702425 445.97215834 -28.56869586 446.15859835 -30.8125 446.4375 C-31.60503174 446.51403809 -32.39756348 446.59057617 -33.21411133 446.66943359 C-34.80382538 446.82326129 -36.39254575 446.98777675 -37.97998047 447.16357422 C-39.90842939 447.34827194 -41.84821271 447.40565376 -43.78515625 447.44140625 C-49.31729773 447.54631412 -52.41236543 447.96037896 -56.4375 451.9375 C-57.38463661 453.05827832 -58.31348475 454.19631041 -59.1875 455.375 C-60.12173645 452.36468256 -60.23199911 451.50849732 -59.1875 448.375 C-64.86383627 449.72163833 -67.70272688 452.39243897 -71.5625 456.5 C-72.10777344 457.06332031 -72.65304688 457.62664062 -73.21484375 458.20703125 C-74.5484075 459.58738671 -75.86927679 460.97998709 -77.1875 462.375 C-78.55845624 458.68462722 -77.78760967 456.66616165 -76.25 453.125 C-75.86972656 452.23296875 -75.48945313 451.3409375 -75.09765625 450.421875 C-74.64712891 449.40867187 -74.64712891 449.40867187 -74.1875 448.375 C-74.8475 448.54128906 -75.5075 448.70757812 -76.1875 448.87890625 C-79.17995731 449.37375271 -81.98514949 449.35454537 -85.00927734 449.30786133 C-93.96762809 449.32693874 -98.88778029 451.45058923 -105.69140625 457.41796875 C-109.66937032 460.90350078 -114.02649201 463.69474606 -118.5 466.5 C-119.30219971 467.00345947 -120.10439941 467.50691895 -120.9309082 468.02563477 C-140.95358726 480.375 -140.95358726 480.375 -146.1875 480.375 C-145.87828116 478.91596742 -145.56501201 477.45779278 -145.25 476 C-145.07597656 475.18789063 -144.90195313 474.37578125 -144.72265625 473.5390625 C-144.1875 471.375 -144.1875 471.375 -143.1875 469.375 C-144.610625 470.10203125 -144.610625 470.10203125 -146.0625 470.84375 C-158.36233056 476.9628618 -171.03906901 481.43553057 -184.1875 485.375 C-184.8695752 485.58560059 -185.55165039 485.79620117 -186.25439453 486.01318359 C-205.2047436 491.65100337 -229.56503112 491.03668328 -247.1875 481.9375 C-254.95317548 477.1718729 -261.02712615 471.21833992 -263.83984375 462.30859375 C-264.93434427 456.22120322 -264.67721617 451.55328851 -261.1875 446.375 C-252.09313119 436.27014577 -238.91908697 434.96642758 -226.04172516 434.25674438 C-221.6239654 434.09323217 -217.20637548 434.05433269 -212.78590775 434.03947449 C-210.33477751 434.03097508 -207.88398436 434.0102893 -205.43295288 433.98693848 C-200.22618729 433.93935587 -195.01938707 433.90604011 -189.8125 433.875 C-183.77165211 433.83893482 -177.73097397 433.7965222 -171.69028854 433.73905945 C-169.31226792 433.7194565 -166.93438809 433.71077045 -164.55630493 433.70275879 C-153.99245673 433.62787665 -143.6628672 432.72406293 -133.1875 431.375 C-129.63560811 417.57961754 -126.5542709 403.72968213 -123.9140625 389.734375 C-123.76598711 388.95271029 -123.61791172 388.17104557 -123.4653492 387.36569405 C-119.36714779 365.63832266 -116.04952037 343.78426479 -112.68133545 321.93438721 C-101.60856113 250.10814942 -101.60856113 250.10814942 -91.5625 227.3125 C-81.24032331 201.20930318 -82.47652767 167.50446738 -81.14059448 139.58886719 C-80.38675989 124.28365306 -78.20699605 109.39603731 -75.1875 94.375 C-75.744375 94.79652344 -76.30125 95.21804687 -76.875 95.65234375 C-82.09823887 99.40213517 -85.70488061 101.375 -92.1875 101.375 C-96.70363172 100.34860643 -98.67017661 98.19438721 -101.1875 94.375 C-104.19949948 87.59800117 -103.84090571 81.73869721 -101.5625 74.875 C-99.52315481 69.64646605 -96.70414966 65.69088822 -93.1875 61.375 C-91.80940688 59.40086047 -90.49978732 57.39390356 -89.1875 55.375 C-89.950625 54.983125 -90.71375 54.59125 -91.5 54.1875 C-94.62034664 52.08308017 -95.75116501 50.85244262 -97.1875 47.375 C-98.12977388 40.50801779 -96.74344796 35.27203176 -92.921875 29.4453125 C-87.74154402 22.72134754 -80.56847549 19.22416336 -73.1875 15.375 C-73.83976563 15.23964844 -74.49203125 15.10429688 -75.1640625 14.96484375 C-80.79663303 13.57747018 -84.6775932 12.08270124 -88.18359375 7.328125 C-89.92653781 3.93718324 -90.08367916 0.9803977 -89.1875 -2.625 C-86.48929546 -9.4476029 -81.55079394 -13.28344356 -75.1875 -16.625 C-71.75 -17.9375 -71.75 -17.9375 -68.1875 -18.625 C-67.51976562 -18.75777344 -66.85203125 -18.89054687 -66.1640625 -19.02734375 C-44.0863933 -22.38043685 -17.59951623 -13.01757321 0 0 Z " fill="#CBC8C7" transform="translate(281.1875,20.625)"/>
<path d="M0 0 C2 3 2 3 3.25 6.75 C4.92410025 11.28089818 7.25739 14.91179528 11 18 C11.6185083 18.19062012 12.2370166 18.38124023 12.87426758 18.57763672 C15.41068292 19.42650709 16.99645786 20.20445879 19 22 C20.89022279 26.71741117 21.57363794 31.62269161 22.3125 36.625 C22.55145766 38.07962278 22.79261358 39.53388602 23.03588867 40.98779297 C23.74549841 45.31769737 24.37878141 49.65668142 25 54 C25.26103516 55.76537109 25.26103516 55.76537109 25.52734375 57.56640625 C32.67494839 107.1270698 31.47676737 162.86794415 1 205 C-1.85362425 208.49128038 -4.88343944 211.74548303 -8 215 C-8.78375 216.010625 -9.5675 217.02125 -10.375 218.0625 C-22.14932595 231.23853142 -38.98186723 240.92911032 -55 248 C-55.66 248 -56.32 248 -57 248 C-56.505 249.155 -56.01 250.31 -55.5 251.5 C-53.08620077 258.77604553 -52.55021239 268.05045628 -54.7265625 275.48046875 C-56.6708407 279.18724305 -59.07774226 281.63573644 -63 283 C-66.38171022 282.93246969 -69.6631468 282.53778411 -73 282 C-73.433125 282.78375 -73.86625 283.5675 -74.3125 284.375 C-76 287 -76 287 -79 289 C-83.12680893 289.7623235 -87.17570529 289.82162891 -91.046875 288.078125 C-96.52196142 284.23198991 -100.87455306 278.98499236 -105.2890625 274 C-105.73362793 273.51281494 -106.17819336 273.02562988 -106.63623047 272.52368164 C-107.57777171 271.47173769 -108.48686452 270.39015917 -109.36767578 269.28686523 C-111.38126042 266.93997628 -112.86402168 265.22742111 -115.96826172 264.60595703 C-118.22952425 264.59715834 -120.38119586 264.78359835 -122.625 265.0625 C-123.41753174 265.13903809 -124.21006348 265.21557617 -125.02661133 265.29443359 C-126.61632538 265.44826129 -128.20504575 265.61277675 -129.79248047 265.78857422 C-131.72092939 265.97327194 -133.66071271 266.03065376 -135.59765625 266.06640625 C-141.12979773 266.17131412 -144.22486543 266.58537896 -148.25 270.5625 C-149.19713661 271.68327832 -150.12598475 272.82131041 -151 274 C-151.93423645 270.98968256 -152.04449911 270.13349732 -151 267 C-156.67633627 268.34663833 -159.51522688 271.01743897 -163.375 275.125 C-163.92027344 275.68832031 -164.46554688 276.25164062 -165.02734375 276.83203125 C-166.3609075 278.21238671 -167.68177679 279.60498709 -169 281 C-170.37095624 277.30962722 -169.60010967 275.29116165 -168.0625 271.75 C-167.68222656 270.85796875 -167.30195313 269.9659375 -166.91015625 269.046875 C-166.45962891 268.03367187 -166.45962891 268.03367187 -166 267 C-166.66 267.16628906 -167.32 267.33257812 -168 267.50390625 C-170.99245731 267.99875271 -173.79764949 267.97954537 -176.82177734 267.93286133 C-185.78012809 267.95193874 -190.70028029 270.07558923 -197.50390625 276.04296875 C-201.48187032 279.52850078 -205.83899201 282.31974606 -210.3125 285.125 C-211.11469971 285.62845947 -211.91689941 286.13191895 -212.7434082 286.65063477 C-232.76608726 299 -232.76608726 299 -238 299 C-237.69078116 297.54096742 -237.37751201 296.08279278 -237.0625 294.625 C-236.88847656 293.81289063 -236.71445313 293.00078125 -236.53515625 292.1640625 C-236 290 -236 290 -235 288 C-236.423125 288.72703125 -236.423125 288.72703125 -237.875 289.46875 C-250.17483056 295.5878618 -262.85156901 300.06053057 -276 304 C-276.6820752 304.21060059 -277.36415039 304.42120117 -278.06689453 304.63818359 C-297.0172436 310.27600337 -321.37753112 309.66168328 -339 300.5625 C-346.76567548 295.7968729 -352.83962615 289.84333992 -355.65234375 280.93359375 C-356.74684427 274.84620322 -356.48971617 270.17828851 -353 265 C-343.90563119 254.89514577 -330.73158697 253.59142758 -317.85422516 252.88174438 C-313.4364654 252.71823217 -309.01887548 252.67933269 -304.59840775 252.66447449 C-302.14727751 252.65597508 -299.69648436 252.6352893 -297.24545288 252.61193848 C-292.03868729 252.56435587 -286.83188707 252.53104011 -281.625 252.5 C-275.58415211 252.46393482 -269.54347397 252.4215222 -263.50278854 252.36405945 C-261.12476792 252.3444565 -258.74688809 252.33577045 -256.36880493 252.32775879 C-245.80495673 252.25287665 -235.4753672 251.34906293 -225 250 C-221.45574143 236.23426503 -218.37922846 222.4146887 -215.74609375 208.44921875 C-215.52489176 207.2809127 -215.52489176 207.2809127 -215.29922104 206.08900452 C-211.47030458 185.78176772 -208.27827729 165.37273862 -205.08776855 144.95739746 C-204.14927091 138.95977614 -203.20341844 132.96331064 -202.25797081 126.96678162 C-201.52582722 122.32300998 -200.79492905 117.67905681 -200.06826782 113.03442383 C-199.93609863 112.19201141 -199.80392944 111.349599 -199.66775513 110.48165894 C-199.42271292 108.91979761 -199.17844208 107.35781498 -198.93511963 105.79568481 C-198.63127407 103.86253793 -198.31617509 101.93116864 -198 100 C-197.80281876 98.59621094 -197.80281876 98.59621094 -197.60165405 97.1640625 C-196.57592747 93.47467251 -193.34474179 91.72007275 -190.375 89.5625 C-189.09540838 88.6002147 -187.81675206 87.63668436 -186.5390625 86.671875 C-185.92579102 86.21361328 -185.31251953 85.75535156 -184.68066406 85.28320312 C-182.62354729 83.71257475 -180.67945567 82.03669443 -178.75 80.3125 C-176 78 -176 78 -174 78 C-175.21913675 93.01184627 -176.53226551 108.01037114 -178 123 C-175.29117012 120.89647198 -172.58295734 118.79215115 -169.875 116.6875 C-169.05692871 116.05175049 -168.23885742 115.41600098 -167.39599609 114.76098633 C-162.45824039 110.92077698 -157.53504582 107.06303931 -152.625 103.1875 C-146.49446747 98.35237565 -140.27092869 93.65151304 -134 89 C-132.79696764 92.60909707 -133.20914779 94.73720918 -133.7421875 98.49609375 C-133.92136719 99.77677734 -134.10054687 101.05746094 -134.28515625 102.37695312 C-134.38199707 103.043479 -134.47883789 103.71000488 -134.57861328 104.39672852 C-134.8732803 106.42565902 -135.15825464 108.45576177 -135.44140625 110.48632812 C-136.96849945 121.25720891 -136.96849945 121.25720891 -138 125 C-123.95642345 118.03583484 -112.13624897 111.18987479 -103 98 C-101 99 -101 99 -100.38549805 100.78613281 C-99.69432046 104.75547944 -99.80963584 108.73050954 -99.8125 112.75 C-99.81185547 113.67707764 -99.81121094 114.60415527 -99.81054688 115.55932617 C-99.87303761 123.82869708 -100.7066341 131.83562773 -102 140 C-86.386706 129.56034188 -70.52881601 117.39246393 -66.48828125 98.0078125 C-64.25621837 84.25830516 -63.40605343 68.78492162 -66.5625 55.12890625 C-67 53 -67 53 -67 49 C-65.56640625 47.39453125 -65.56640625 47.39453125 -63.5625 45.8125 C-49.60679958 34.15826596 -40.10660749 20.15787977 -32 4 C-29.46727795 6.53272205 -29.38834362 8.1918812 -28.6875 11.6875 C-26.75000771 20.56437792 -24.34466492 29.97137957 -20 38 C-10.28157933 26.76833044 -5.01014477 13.80921153 0 0 Z " fill="#42B049" transform="translate(373,202)"/>
<path d="M0 0 C3.11555722 2.22014117 3.65049698 2.375 7.75 2.375 C9.11273089 2.07861684 10.46748209 1.7435177 11.8125 1.375 C35.35563574 -4.41960532 59.56023372 -1.381018 80.61328125 10.3125 C83.96188349 12.47130584 86.84787724 14.71984618 89.8125 17.375 C89.8125 17.705 89.8125 18.035 89.8125 18.375 C89.16104004 18.40416504 88.50958008 18.43333008 87.83837891 18.46337891 C60.76371329 19.7998747 31.49413741 23.5800533 9.8125 41.375 C8.98621094 42.02855469 8.15992188 42.68210938 7.30859375 43.35546875 C-4.86952519 53.5627776 -13.80631139 67.8377205 -15.89453125 83.7578125 C-18.48557743 115.74859601 -8.45083324 143.19254941 7.8125 170.375 C7.44898438 170.84808594 7.08546875 171.32117188 6.7109375 171.80859375 C2.86618143 176.86592673 -0.71528985 182.05586955 -4.1875 187.375 C-3.5275 188.035 -2.8675 188.695 -2.1875 189.375 C-1.72859375 189.84035156 -1.2696875 190.30570313 -0.796875 190.78515625 C0.31318512 191.88174477 1.45081779 192.95087366 2.609375 193.99609375 C16.93074146 207.31496456 26.86447955 228.1798705 27.93994141 247.68652344 C28.12232934 253.25662862 28.02732458 258.8073571 27.8125 264.375 C27.76996094 265.51453125 27.72742188 266.6540625 27.68359375 267.828125 C26.44847712 287.90533999 17.45059075 300.36918534 2.8125 313.375 C-6.78638385 321.375 -6.78638385 321.375 -10.1875 321.375 C-10.1153125 320.46363281 -10.043125 319.55226563 -9.96875 318.61328125 C-9.38383756 310.44887848 -9.05691121 302.31096592 -9 294.125 C-8.98066406 292.76822144 -8.98066406 292.76822144 -8.9609375 291.3840332 C-8.95964844 290.530271 -8.95835937 289.67650879 -8.95703125 288.796875 C-8.95292236 288.03987305 -8.94881348 287.28287109 -8.94458008 286.50292969 C-9.2195671 284.09409863 -9.99133686 282.46687807 -11.1875 280.375 C-11.64898437 281.0040625 -12.11046875 281.633125 -12.5859375 282.28125 C-21.17610976 293.55372901 -31.50869279 300.41596061 -44.1875 306.375 C-44.8475 306.375 -45.5075 306.375 -46.1875 306.375 C-44.90417426 294.70219672 -43.5749977 283.03588494 -42.1875 271.375 C-48.80193948 276.4402103 -55.39722911 281.52676579 -61.9375 286.6875 C-67.43075044 291.01513441 -72.95447995 295.30204534 -78.5 299.5625 C-79.62196777 300.42838745 -79.62196777 300.42838745 -80.76660156 301.31176758 C-81.45850586 301.84181396 -82.15041016 302.37186035 -82.86328125 302.91796875 C-83.7900769 303.6298938 -83.7900769 303.6298938 -84.7355957 304.35620117 C-86.1875 305.375 -86.1875 305.375 -87.1875 305.375 C-86.45506213 296.1979843 -85.59641086 287.0361015 -84.6875 277.875 C-84.5559797 276.51823012 -84.42446924 275.1614593 -84.29296875 273.8046875 C-84.10154297 271.87496094 -84.10154297 271.87496094 -83.90625 269.90625 C-83.79216797 268.74673828 -83.67808594 267.58722656 -83.56054688 266.39257812 C-83.26004413 263.96180985 -82.85903657 261.72393694 -82.1875 259.375 C-83.1053125 260.09945313 -84.023125 260.82390625 -84.96875 261.5703125 C-91.32246957 266.57834507 -97.68366294 271.56216058 -104.1875 276.375 C-103.67088783 268.97090225 -102.33806016 261.99589762 -100.5 254.8125 C-100.10397583 253.24411377 -100.10397583 253.24411377 -99.69995117 251.64404297 C-97.72369402 244.00922177 -95.3621008 236.60283233 -92.58203125 229.2265625 C-89.12510328 219.8146077 -87.33182624 210.71340455 -86.125 200.75 C-85.95264898 199.3609197 -85.78028551 197.97184095 -85.60791016 196.58276367 C-83.7832087 181.67465431 -82.47465055 166.7682062 -81.765625 151.765625 C-81.61665101 148.65614648 -81.46570646 145.54677291 -81.3125 142.4375 C-81.27462372 141.66676147 -81.23674744 140.89602295 -81.19772339 140.10192871 C-80.41181932 124.62472506 -78.24127888 109.56658353 -75.1875 94.375 C-75.744375 94.79652344 -76.30125 95.21804687 -76.875 95.65234375 C-82.09823887 99.40213517 -85.70488061 101.375 -92.1875 101.375 C-96.70363172 100.34860643 -98.67017661 98.19438721 -101.1875 94.375 C-104.19949948 87.59800117 -103.84090571 81.73869721 -101.5625 74.875 C-99.52315481 69.64646605 -96.70414966 65.69088822 -93.1875 61.375 C-91.80940688 59.40086047 -90.49978732 57.39390356 -89.1875 55.375 C-89.950625 54.983125 -90.71375 54.59125 -91.5 54.1875 C-94.62034664 52.08308017 -95.75116501 50.85244262 -97.1875 47.375 C-98.12977388 40.50801779 -96.74344796 35.27203176 -92.921875 29.4453125 C-87.74154402 22.72134754 -80.56847549 19.22416336 -73.1875 15.375 C-74.16589844 15.17197266 -74.16589844 15.17197266 -75.1640625 14.96484375 C-80.79663303 13.57747018 -84.6775932 12.08270124 -88.18359375 7.328125 C-89.92653781 3.93718324 -90.08367916 0.9803977 -89.1875 -2.625 C-86.48929546 -9.4476029 -81.55079394 -13.28344356 -75.1875 -16.625 C-71.75 -17.9375 -71.75 -17.9375 -68.1875 -18.625 C-67.51976562 -18.75777344 -66.85203125 -18.89054687 -66.1640625 -19.02734375 C-44.0863933 -22.38043685 -17.59951623 -13.01757321 0 0 Z " fill="#949694" transform="translate(281.1875,20.625)"/>
<path d="M0 0 C-1.21913675 15.01184627 -2.53226551 30.01037114 -4 45 C-1.29117012 42.89647198 1.41704266 40.79215115 4.125 38.6875 C4.94307129 38.05175049 5.76114258 37.41600098 6.60400391 36.76098633 C11.54175961 32.92077698 16.46495418 29.06303931 21.375 25.1875 C27.50553253 20.35237565 33.72907131 15.65151304 40 11 C41.20303236 14.60909707 40.79085221 16.73720918 40.2578125 20.49609375 C40.07863281 21.77677734 39.89945313 23.05746094 39.71484375 24.37695312 C39.61800293 25.043479 39.52116211 25.71000488 39.42138672 26.39672852 C39.1267197 28.42565902 38.84174536 30.45576177 38.55859375 32.48632812 C37.03150055 43.25720891 37.03150055 43.25720891 36 47 C50.04357655 40.03583484 61.86375103 33.18987479 71 20 C73 21 73 21 73.61450195 22.78613281 C74.30567954 26.75547944 74.19036416 30.73050954 74.1875 34.75 C74.18814453 35.67707764 74.18878906 36.60415527 74.18945312 37.55932617 C74.12696239 45.82869708 73.2933659 53.83562773 72 62 C84.64016473 53.54829222 96.2852696 44.3992686 104 31 C105 33 105 33 104.50390625 35.1875 C91.04226665 75.40484652 66.49043252 110.48820843 38.1640625 141.6171875 C36.73073335 143.1954019 35.3086322 144.78389285 33.8984375 146.3828125 C25.21285497 156.20541674 16.00077677 165.51658246 6 174 C4.88926737 174.97240976 3.78004102 175.94654131 2.671875 176.921875 C-13.71152797 191.31302174 -30.71491606 204.28160711 -49.6875 215.125 C-50.32220215 215.49125488 -50.9569043 215.85750977 -51.61083984 216.23486328 C-55.68636011 218.50264946 -59.51028726 219.88189439 -64 221 C-63.69078116 219.54096742 -63.37751201 218.08279278 -63.0625 216.625 C-62.88847656 215.81289063 -62.71445313 215.00078125 -62.53515625 214.1640625 C-62 212 -62 212 -61 210 C-62.423125 210.72703125 -62.423125 210.72703125 -63.875 211.46875 C-76.17483056 217.5878618 -88.85156901 222.06053057 -102 226 C-102.6820752 226.21060059 -103.36415039 226.42120117 -104.06689453 226.63818359 C-123.0172436 232.27600337 -147.37753112 231.66168328 -165 222.5625 C-172.76567548 217.7968729 -178.83962615 211.84333992 -181.65234375 202.93359375 C-182.74684427 196.84620322 -182.48971617 192.17828851 -179 187 C-169.90563119 176.89514577 -156.73158697 175.59142758 -143.85422516 174.88174438 C-139.4364654 174.71823217 -135.01887548 174.67933269 -130.59840775 174.66447449 C-128.14727751 174.65597508 -125.69648436 174.6352893 -123.24545288 174.61193848 C-118.03868729 174.56435587 -112.83188707 174.53104011 -107.625 174.5 C-101.58415211 174.46393482 -95.54347397 174.4215222 -89.50278854 174.36405945 C-87.12476792 174.3444565 -84.74688809 174.33577045 -82.36880493 174.32775879 C-71.80495673 174.25287665 -61.4753672 173.34906293 -51 172 C-47.45574143 158.23426503 -44.37922846 144.4146887 -41.74609375 130.44921875 C-41.52489176 129.2809127 -41.52489176 129.2809127 -41.29922104 128.08900452 C-37.47030458 107.78176772 -34.27827729 87.37273862 -31.08776855 66.95739746 C-30.14927091 60.95977614 -29.20341844 54.96331064 -28.25797081 48.96678162 C-27.52582722 44.32300998 -26.79492905 39.67905681 -26.06826782 35.03442383 C-25.87001404 33.77080521 -25.87001404 33.77080521 -25.66775513 32.48165894 C-25.42271292 30.91979761 -25.17844208 29.35781498 -24.93511963 27.79568481 C-24.63127407 25.86253793 -24.31617509 23.93116864 -24 22 C-23.80281876 20.59621094 -23.80281876 20.59621094 -23.60165405 19.1640625 C-22.57592747 15.47467251 -19.34474179 13.72007275 -16.375 11.5625 C-15.09540838 10.6002147 -13.81675206 9.63668436 -12.5390625 8.671875 C-11.92579102 8.21361328 -11.31251953 7.75535156 -10.68066406 7.28320312 C-8.62354729 5.71257475 -6.67945567 4.03669443 -4.75 2.3125 C-2 0 -2 0 0 0 Z " fill="#43B149" transform="translate(199,280)"/>
<path d="M0 0 C17.01736244 13.31157578 29.36934697 33.48884504 32.06396484 55.18847656 C32.69635301 62.19620054 32.52093389 69.22816304 32.25 76.25 C32.20746094 77.38953125 32.16492188 78.5290625 32.12109375 79.703125 C30.88597712 99.78033999 21.88809075 112.24418534 7.25 125.25 C-2.34888385 133.25 -2.34888385 133.25 -5.75 133.25 C-5.64171875 131.88294922 -5.64171875 131.88294922 -5.53125 130.48828125 C-4.94633756 122.32387848 -4.61941121 114.18596592 -4.5625 106 C-4.54960937 105.09548096 -4.53671875 104.19096191 -4.5234375 103.2590332 C-4.52214844 102.405271 -4.52085937 101.55150879 -4.51953125 100.671875 C-4.51542236 99.91487305 -4.51131348 99.15787109 -4.50708008 98.37792969 C-4.7820671 95.96909863 -5.55383686 94.34187807 -6.75 92.25 C-7.21148437 92.8790625 -7.67296875 93.508125 -8.1484375 94.15625 C-16.73860976 105.42872901 -27.07119279 112.29096061 -39.75 118.25 C-40.41 118.25 -41.07 118.25 -41.75 118.25 C-40.46667426 106.57719672 -39.1374977 94.91088494 -37.75 83.25 C-44.36443948 88.3152103 -50.95972911 93.40176579 -57.5 98.5625 C-62.99325044 102.89013441 -68.51697995 107.17704534 -74.0625 111.4375 C-74.81047852 112.0147583 -75.55845703 112.5920166 -76.32910156 113.18676758 C-77.02100586 113.71681396 -77.71291016 114.24686035 -78.42578125 114.79296875 C-79.04364502 115.26758545 -79.66150879 115.74220215 -80.2980957 116.23120117 C-81.75 117.25 -81.75 117.25 -82.75 117.25 C-82.01756213 108.0729843 -81.15891086 98.9111015 -80.25 89.75 C-80.1184797 88.39323012 -79.98696924 87.0364593 -79.85546875 85.6796875 C-79.66404297 83.74996094 -79.66404297 83.74996094 -79.46875 81.78125 C-79.35466797 80.62173828 -79.24058594 79.46222656 -79.12304688 78.26757812 C-78.82254413 75.83680985 -78.42153657 73.59893694 -77.75 71.25 C-79.12671875 72.33667969 -79.12671875 72.33667969 -80.53125 73.4453125 C-86.88496957 78.45334507 -93.24616294 83.43716058 -99.75 88.25 C-99.2334077 80.84618698 -97.90187942 73.87039304 -96.0625 66.6875 C-95.79630859 65.64045898 -95.53011719 64.59341797 -95.25585938 63.51464844 C-89.42754247 41.11334098 -80.92397588 17.6480405 -61.75 3.25 C-61.12867188 2.78335938 -60.50734375 2.31671875 -59.8671875 1.8359375 C-42.26601752 -10.16820771 -17.77800173 -12.3546168 0 0 Z " fill="#93CC8B" transform="translate(276.75,208.75)"/>
<path d="M0 0 C2.31 0.66 4.62 1.32 7 2 C18.82321981 61.32835481 26.51848177 128.07641616 -8.44140625 181.359375 C-11.8417467 186.33397105 -15.8411139 190.65701834 -20 195 C-20.78375 196.010625 -21.5675 197.02125 -22.375 198.0625 C-34.14932595 211.23853142 -50.98186723 220.92911032 -67 228 C-67.66 228 -68.32 228 -69 228 C-68.505 229.155 -68.01 230.31 -67.5 231.5 C-65.08620077 238.77604553 -64.55021239 248.05045628 -66.7265625 255.48046875 C-68.6708407 259.18724305 -71.07774226 261.63573644 -75 263 C-78.38171022 262.93246969 -81.6631468 262.53778411 -85 262 C-85.433125 262.78375 -85.86625 263.5675 -86.3125 264.375 C-88 267 -88 267 -91 269 C-95.12680893 269.7623235 -99.17570529 269.82162891 -103.046875 268.078125 C-108.52196142 264.23198991 -112.87455306 258.98499236 -117.2890625 254 C-117.95591064 253.26922241 -117.95591064 253.26922241 -118.63623047 252.52368164 C-119.57777171 251.47173769 -120.48686452 250.39015917 -121.36767578 249.28686523 C-123.38126042 246.93997628 -124.86402168 245.22742111 -127.96826172 244.60595703 C-130.22952425 244.59715834 -132.38119586 244.78359835 -134.625 245.0625 C-135.41753174 245.13903809 -136.21006348 245.21557617 -137.02661133 245.29443359 C-138.61632538 245.44826129 -140.20504575 245.61277675 -141.79248047 245.78857422 C-143.72092939 245.97327194 -145.66071271 246.03065376 -147.59765625 246.06640625 C-153.12979773 246.17131412 -156.22486543 246.58537896 -160.25 250.5625 C-161.19713661 251.68327832 -162.12598475 252.82131041 -163 254 C-163.93423645 250.98968256 -164.04449911 250.13349732 -163 247 C-168.67633627 248.34663833 -171.51522688 251.01743897 -175.375 255.125 C-176.19291016 255.96998047 -176.19291016 255.96998047 -177.02734375 256.83203125 C-178.3609075 258.21238671 -179.68177679 259.60498709 -181 261 C-182.37095624 257.30962722 -181.60010967 255.29116165 -180.0625 251.75 C-179.68222656 250.85796875 -179.30195313 249.9659375 -178.91015625 249.046875 C-178.60980469 248.37140625 -178.30945313 247.6959375 -178 247 C-178.65355469 247.16371094 -179.30710938 247.32742188 -179.98046875 247.49609375 C-183.76991774 248.12848563 -187.48490951 248.10696709 -191.3125 248.0625 C-192.05306641 248.05798828 -192.79363281 248.05347656 -193.55664062 248.04882812 C-195.37112899 248.03712175 -197.18557534 248.01918898 -199 248 C-195.81195614 244.77231794 -192.56785215 241.65038787 -189.1875 238.625 C-188.31222656 237.84125 -187.43695313 237.0575 -186.53515625 236.25 C-184.40863359 234.36267018 -182.27165688 232.48931996 -180.125 230.625 C-168.88407412 220.80898022 -157.67859278 210.70672469 -147.98828125 199.328125 C-146.37954537 197.44441855 -144.75061455 195.58601786 -143.10546875 193.734375 C-115.29034495 162.29558324 -90.8403622 124.90430002 -80 84 C-79.67322266 82.77603516 -79.67322266 82.77603516 -79.33984375 81.52734375 C-75.81235909 67.12998041 -75.21591548 49.60753233 -78.5625 35.12890625 C-79 33 -79 33 -79 29 C-77.49609375 27.32421875 -77.49609375 27.32421875 -75.4375 25.6875 C-71.3743021 22.34133702 -67.66784269 18.77100077 -64 15 C-60.3630629 20.77855765 -61.56138542 28.56862954 -61.5625 35.1875 C-61.56110016 35.9722168 -61.55970032 36.75693359 -61.55825806 37.56542969 C-61.57921248 51.86837511 -63.40991668 65.13535832 -67 79 C-67.44810195 80.83557504 -67.89474835 82.67150611 -68.33984375 84.5078125 C-70.11091198 91.62648792 -72.01174973 98.27446575 -75 105 C-75.69400713 106.89346095 -76.38144225 108.78934284 -77.0625 110.6875 C-82.64095281 125.2683063 -90.46156198 139.00012532 -97.7734375 152.765625 C-106.0971746 168.51085075 -114.1311413 185.75889618 -109.1953125 203.96875 C-105.71885632 211.54502692 -99.17274624 219.64767494 -92 224 C-66.20758726 220.99088518 -36.92356592 202.71665302 -20.625 183.0625 C0.72669851 154.53260734 7.40708748 121.76142391 7.26074219 86.79052734 C7.25006252 83.76769734 7.26068095 80.7454679 7.2734375 77.72265625 C7.28356631 64.70674118 6.52418423 51.92432864 5 39 C4.91260559 38.25598938 4.82521118 37.51197876 4.73516846 36.74542236 C4.17530755 32.05405538 3.56427484 27.3704375 2.9375 22.6875 C2.76201985 21.357468 2.58689038 20.02738968 2.41210938 18.69726562 C2.0843909 16.20735861 1.75554578 13.71759948 1.42529297 11.22802734 C0.93246358 7.48739007 0.46038148 3.74475247 0 0 Z " fill="#05A34B" transform="translate(385,222)"/>
<path d="M0 0 C2 1 2 1 2.61450195 2.78613281 C3.30567954 6.75547944 3.19036416 10.73050954 3.1875 14.75 C3.18814453 15.67707764 3.18878906 16.60415527 3.18945312 17.55932617 C3.12696239 25.82869708 2.2933659 33.83562773 1 42 C13.64016473 33.54829222 25.2852696 24.3992686 33 11 C34 13 34 13 33.50390625 15.1875 C20.04226665 55.40484652 -4.50956748 90.48820843 -32.8359375 121.6171875 C-34.26926665 123.1954019 -35.6913678 124.78389285 -37.1015625 126.3828125 C-45.78714503 136.20541674 -54.99922323 145.51658246 -65 154 C-66.11073263 154.97240976 -67.21995898 155.94654131 -68.328125 156.921875 C-84.81074029 171.40016964 -101.9219416 184.39147593 -121 195.3125 C-121.67659668 195.7038916 -122.35319336 196.0952832 -123.05029297 196.49853516 C-124.66490585 197.3987915 -126.32901863 198.20926775 -128 199 C-128.66 198.67 -129.32 198.34 -130 198 C-129.66492432 197.56059082 -129.32984863 197.12118164 -128.98461914 196.66845703 C-108.30183457 169.40494481 -90.15609364 140.15678466 -74 110 C-73.54061035 109.14293457 -73.0812207 108.28586914 -72.60791016 107.40283203 C-61.06098827 85.76150396 -50.54097397 63.77493514 -41.18774414 41.10351562 C-40.92241379 40.46045975 -40.65708344 39.81740387 -40.38371277 39.15486145 C-39.66341206 37.40524837 -38.94657685 35.65420971 -38.22998047 33.90307617 C-37.82408691 32.94506104 -37.41819336 31.9870459 -37 31 C-36.68877197 30.25234375 -36.37754395 29.5046875 -36.05688477 28.734375 C-34.76757002 26.61857644 -33.69839138 26.00986272 -31.47265625 24.95703125 C-30.76802246 24.61027344 -30.06338867 24.26351563 -29.33740234 23.90625 C-28.58668457 23.5453125 -27.8359668 23.184375 -27.0625 22.8125 C-15.86099384 17.13989709 -7.23673038 10.44756639 0 0 Z " fill="#4FB548" transform="translate(270,300)"/>
<path d="M0 0 C26.28094761 -1.70573458 52.37245106 11.5720104 72 28 C72.79664063 28.63292969 73.59328125 29.26585938 74.4140625 29.91796875 C93.97848288 46.1294761 106.324081 71.61450506 109.75 96.5 C110.32187332 103.29598295 110.07524051 110.18655425 110 117 C105.27273518 115.13168762 100.60713923 113.12832388 95.9375 111.12109375 C89.25262021 108.56981649 82.69155376 108.80855991 75.625 108.8125 C74.4277832 108.81185547 73.23056641 108.81121094 71.99707031 108.81054688 C63.31804914 108.86104634 54.75389726 109.33991783 46.12744141 110.28833008 C38.39877093 111.10945562 30.76502712 111.09402656 23 111 C23.01047363 110.04448242 23.02094727 109.08896484 23.03173828 108.10449219 C23.40382953 70.81133769 22.88177809 32.39777898 0 1 C0 0.67 0 0.34 0 0 Z " fill="#ED71A6" transform="translate(383,49)"/>
<path d="M0 0 C1.06670233 3.20010698 0.96413645 4.03141957 0.1796875 7.17578125 C-0.02245361 7.99723633 -0.22459473 8.81869141 -0.43286133 9.66503906 C-1.37501649 13.26882411 -2.33757356 16.86632446 -3.32666016 20.45751953 C-3.91570944 22.6817252 -4.41595475 24.9010333 -4.88671875 27.15234375 C-6.30293704 32.65587557 -7.5704596 35.93611549 -12.20703125 39.38671875 C-16.30282957 41.68336879 -20.61406606 43.34811877 -25 45 C-26.57082696 45.63022966 -28.14113464 46.26175504 -29.7109375 46.89453125 C-52.91584898 56.0157425 -82.04566771 62.95467052 -106.328125 54.203125 C-117.1542054 49.3282233 -124.58787818 43.84187271 -130 33 C-131.61667176 27.87892597 -131.65466549 22.92548673 -129.9375 17.875 C-125.22262859 10.87873919 -119.02797892 7.27976991 -111 5 C-100.55361364 3.17769018 -90.17893094 2.70003804 -79.59840775 2.66447449 C-77.14727751 2.65597508 -74.69648436 2.6352893 -72.24545288 2.61193848 C-67.03868729 2.56435587 -61.83188707 2.53104011 -56.625 2.5 C-50.58415211 2.46393482 -44.54347397 2.4215222 -38.50278854 2.36405945 C-36.12476792 2.3444565 -33.74688809 2.33577045 -31.36880493 2.32775879 C-20.80495673 2.25287665 -10.4753672 1.34906293 0 0 Z " fill="#24AF4A" transform="translate(148,452)"/>
<path d="M0 0 C-2.69743207 2.69743207 -5.90323511 3.7039874 -9.375 5.125 C-41.3646523 18.7146026 -61.29354131 46.06653979 -74.01171875 77.359375 C-74.671306 79.12175041 -75.2784495 80.90463406 -75.83203125 82.703125 C-77.91163277 89.04638442 -80.7221966 92.17179508 -86.40234375 95.71875 C-90.9980165 97.98548784 -94.66599069 98.53045666 -99.75 97.375 C-103.5494612 95.05310705 -105.4591892 92.21682431 -107.25 88.1875 C-109.18951437 79.94456391 -107.59355057 73.55086546 -104 66 C-102.1784341 63.17024121 -100.12329177 60.60585808 -98 58 C-96.62190688 56.02586047 -95.31228732 54.01890356 -94 52 C-94.763125 51.608125 -95.52625 51.21625 -96.3125 50.8125 C-99.43284664 48.70808017 -100.56366501 47.47744262 -102 44 C-102.94227388 37.13301779 -101.55594796 31.89703176 -97.734375 26.0703125 C-92.55404402 19.34634754 -85.38097549 15.84916336 -78 12 C-78.97839844 11.79697266 -78.97839844 11.79697266 -79.9765625 11.58984375 C-85.60913303 10.20247018 -89.4900932 8.70770124 -92.99609375 3.953125 C-94.73903781 0.56218324 -94.89617916 -2.3946023 -94 -6 C-91.30179546 -12.8226029 -86.36329394 -16.65844356 -80 -20 C-76.5625 -21.3125 -76.5625 -21.3125 -73 -22 C-72.33226562 -22.13277344 -71.66453125 -22.26554687 -70.9765625 -22.40234375 C-46.89224337 -26.06020109 -18.55422143 -14.8338377 0 0 Z " fill="#ED71A6" transform="translate(286,24)"/>
<path d="M0 0 C12.64087358 4.95561239 22.3266429 13.69785871 28.01171875 26.1171875 C32.34701475 37.33667213 32.26321845 49.97074451 27.56640625 61 C21.69604871 73.53908371 13.41888077 82.23415564 0.1640625 87.06640625 C-9.99316524 89.6787284 -22.64045209 89.5546566 -32.2109375 85.12890625 C-33.15839844 84.69964844 -34.10585938 84.27039063 -35.08203125 83.828125 C-42.25334424 79.99009162 -44.88582891 75.97494805 -47.40625 68.3125 C-51.14092022 53.53698432 -51.27115879 35.94624424 -43.703125 22.4375 C-37.05770314 12.31482252 -29.09995782 5.34074504 -18.2109375 0.12890625 C-12.94152455 -2.50580023 -5.49596482 -1.49099776 0 0 Z " fill="#FEFEFE" transform="translate(341.2109375,64.87109375)"/>
<path d="M0 0 C5.39256814 1.19396294 8.83652972 4.4890668 13 8 C13.60199219 8.50402344 14.20398438 9.00804687 14.82421875 9.52734375 C28.70797426 22.24602887 38.1031688 43.73333756 39.12744141 62.31152344 C39.30982934 67.88162862 39.21482458 73.4323571 39 79 C38.95746094 80.13953125 38.91492188 81.2790625 38.87109375 82.453125 C37.63597712 102.53033999 28.63809075 114.99418534 14 128 C4.40111615 136 4.40111615 136 1 136 C1.10828125 134.63294922 1.10828125 134.63294922 1.21875 133.23828125 C1.80366244 125.07387848 2.13058879 116.93596592 2.1875 108.75 C2.20039063 107.84548096 2.21328125 106.94096191 2.2265625 106.0090332 C2.22785156 105.155271 2.22914063 104.30150879 2.23046875 103.421875 C2.23457764 102.66487305 2.23868652 101.90787109 2.24291992 101.12792969 C1.9679329 98.71909863 1.19616314 97.09187807 0 95 C-0.46148437 95.6290625 -0.92296875 96.258125 -1.3984375 96.90625 C-9.98860976 108.17872901 -20.32119279 115.04096061 -33 121 C-33.66 121 -34.32 121 -35 121 C-34.72837293 115.56745854 -33.89405741 111.35658995 -31.70703125 106.36328125 C-18.78297817 76.15870085 -9.32804813 44.21509101 -2.64404297 12.08496094 C-1.80118057 8.04765644 -0.90430339 4.02393373 0 0 Z " fill="#A9D395" transform="translate(270,206)"/>
<path d="M0 0 C4.21173016 3.59097142 8.4994231 7.62384621 11 12.625 C15.9430977 12.09913854 20.22543158 10.97648277 24.88671875 9.24609375 C27 8.625 27 8.625 31 8.625 C34.9172452 16.45949039 35.75291245 26.63117032 33.2734375 35.109375 C31.32643766 38.81342347 28.92134296 41.26105462 25 42.625 C21.61828978 42.55746969 18.3368532 42.16278411 15 41.625 C14.566875 42.40875 14.13375 43.1925 13.6875 44 C12 46.625 12 46.625 9 48.625 C4.87319107 49.3873235 0.82429471 49.44662891 -3.046875 47.703125 C-8.52196142 43.85698991 -12.87455306 38.60999236 -17.2890625 33.625 C-17.73362793 33.13781494 -18.17819336 32.65062988 -18.63623047 32.14868164 C-19.57777171 31.09673769 -20.48686452 30.01515917 -21.36767578 28.91186523 C-23.38126042 26.56497628 -24.86402168 24.85242111 -27.96826172 24.23095703 C-30.22952425 24.22215834 -32.38119586 24.40859835 -34.625 24.6875 C-35.41753174 24.76403809 -36.21006348 24.84057617 -37.02661133 24.91943359 C-38.61632538 25.07326129 -40.20504575 25.23777675 -41.79248047 25.41357422 C-43.72092939 25.59827194 -45.66071271 25.65565376 -47.59765625 25.69140625 C-53.12979773 25.79631412 -56.22486543 26.21037896 -60.25 30.1875 C-61.19713661 31.30827832 -62.12598475 32.44631041 -63 33.625 C-63.93423645 30.61468256 -64.04449911 29.75849732 -63 26.625 C-68.67633627 27.97163833 -71.51522688 30.64243897 -75.375 34.75 C-75.92027344 35.31332031 -76.46554688 35.87664062 -77.02734375 36.45703125 C-78.3609075 37.83738671 -79.68177679 39.22998709 -81 40.625 C-82.84755397 35.782343 -80.49495396 32.25847141 -78.51171875 27.78125 C-70.71283379 11.49830673 -59.18572226 -0.19062617 -42 -6.375 C-27.72694837 -11.09670895 -12.1207417 -8.99411821 0 0 Z " fill="#E86DA4" transform="translate(285,442.375)"/>
<path d="M0 0 C-0.17338025 1.62977432 -0.36695422 3.25903919 -0.640625 4.875 C-1.03284579 7.00249475 -1.03284579 7.00249475 -1.171875 9.1875 C-1.66479952 12.02674526 -2.30868325 13.64030748 -4 16 C-9.01167711 19.41503662 -14.39522222 21.72596848 -20 24 C-21.16402344 24.47614746 -21.16402344 24.47614746 -22.3515625 24.96191406 C-46.24630575 34.57304223 -76.16475812 42.2721557 -101.328125 33.203125 C-111.07056773 28.8161771 -119.08580218 23.85013988 -124 14 C-124 13.34 -124 12.68 -124 12 C-123.12859375 12.19335938 -122.2571875 12.38671875 -121.359375 12.5859375 C-120.16828125 12.84632813 -118.9771875 13.10671875 -117.75 13.375 C-116.00976562 13.75785156 -116.00976562 13.75785156 -114.234375 14.1484375 C-89.37223581 19.25315311 -65.69431774 17.30167296 -41 12 C-40.22382324 11.83483887 -39.44764648 11.66967773 -38.64794922 11.49951172 C-29.07839548 9.38517185 -19.88030996 5.96109909 -10.67626953 2.64135742 C-9.72606934 2.30080322 -8.77586914 1.96024902 -7.796875 1.609375 C-6.94448242 1.29967773 -6.09208984 0.98998047 -5.21386719 0.67089844 C-3 0 -3 0 0 0 Z " fill="#04A34A" transform="translate(143,473)"/>
<path d="M0 0 C26.28094761 -1.70573458 52.37245106 11.5720104 72 28 C72.79664063 28.63292969 73.59328125 29.26585938 74.4140625 29.91796875 C93.98444075 46.13441291 106.36675334 71.65804546 109.75 96.5625 C110.29125284 103.007185 110.07661115 109.53912666 110 116 C109.67 116 109.34 116 109 116 C108.84144531 115.00742188 108.68289063 114.01484375 108.51953125 112.9921875 C103.51741705 83.21945612 87.77374381 57.47310586 63.1875 39.75 C39.46136489 23.13710089 39.46136489 23.13710089 12.41796875 17.28515625 C11.22107422 17.14400391 11.22107422 17.14400391 10 17 C8.0859375 14.55078125 8.0859375 14.55078125 6.375 11.3125 C5.80523437 10.25675781 5.23546875 9.20101562 4.6484375 8.11328125 C4.10445313 7.08589844 3.56046875 6.05851562 3 5 C2.01097974 3.32679449 1.01488468 1.65764498 0 0 Z " fill="#F08BB7" transform="translate(383,49)"/>
<path d="M0 0 C-3.27527702 3.27527702 -6.50201465 4.87164573 -11 6 C-14.18554688 5.73120117 -14.18554688 5.73120117 -17.84375 5.10546875 C-24.75390476 4.07229513 -31.51006269 3.84440666 -38.4921875 3.91015625 C-39.49786774 3.91894806 -40.50354797 3.92773987 -41.53970337 3.9367981 C-45.70804697 3.98260498 -49.87595816 4.04549012 -54.04394531 4.11645508 C-57.1308527 4.16500189 -60.21753517 4.19465967 -63.3046875 4.22265625 C-64.2309494 4.24441422 -65.1572113 4.26617218 -66.11154175 4.28858948 C-74.80655302 4.35397476 -83.2922659 2.89862995 -89.765625 -3.328125 C-91 -5 -91 -5 -91.875 -8.5 C-90.63060969 -13.47756125 -88.3261847 -15.40128488 -84 -18 C-57.4922534 -30.68815919 -21.5641451 -17.24022912 0 0 Z " fill="#ED71A6" transform="translate(286,24)"/>
<path d="M0 0 C1.051875 0.50660156 1.051875 0.50660156 2.125 1.0234375 C3.07375 1.46945313 4.0225 1.91546875 5 2.375 C6.3921875 3.03628906 6.3921875 3.03628906 7.8125 3.7109375 C14.13719807 6.26871981 20.15570893 7.38795807 27 7.375 C28.08607544 7.37693359 28.08607544 7.37693359 29.1940918 7.37890625 C35.99445903 7.24933338 42.20567513 5.76645672 48.70703125 3.875 C52 3 52 3 56 3 C54.64625148 13.97003109 49.72536891 23.09784251 41 30 C28.46584412 38.70017878 15.21092888 42.21017852 0.125 42.0625 C-0.75414062 42.05798828 -1.63328125 42.05347656 -2.5390625 42.04882812 C-4.69273803 42.03712337 -6.84637817 42.01919069 -9 42 C-8.79636841 41.20287598 -8.79636841 41.20287598 -8.58862305 40.38964844 C-5.7985985 29.36179008 -3.40669274 18.41750584 -1.90112305 7.13574219 C-1.08761416 1.08761416 -1.08761416 1.08761416 0 0 Z " fill="#ED71A6" transform="translate(406,163)"/>
<path d="M0 0 C0.03963867 0.64735107 0.07927734 1.29470215 0.12011719 1.96166992 C0.86350393 13.60635098 1.75686567 25.14967142 3.9375 36.625 C4.09508789 37.46957764 4.25267578 38.31415527 4.41503906 39.18432617 C5.41097706 44.12459778 6.8538862 48.43874388 9 53 C13.76772327 48.97731826 18.38967954 44.83131307 22.9375 40.5625 C27.24959657 36.5362131 31.57974403 32.54954799 36.05078125 28.69921875 C39.41728459 25.76449139 42.7004658 22.73652058 45.99609375 19.72265625 C48 18 48 18 49 18 C48.67 29.22 48.34 40.44 48 52 C45.339375 52.20625 42.67875 52.4125 39.9375 52.625 C23.57938166 54.28089684 9.41858308 61.00509625 -1.3125 73.8125 C-5.38342278 79.23186261 -8.73827445 85.06773665 -12 91 C-13.23332254 87.36366274 -12.8291558 84.44002598 -12.29296875 80.671875 C-12.11934814 79.40907715 -11.94572754 78.1462793 -11.7668457 76.84521484 C-11.67214996 76.17754089 -11.57745422 75.50986694 -11.47988892 74.82196045 C-10.98408597 71.30854376 -10.5178616 67.79128497 -10.0546875 64.2734375 C-9.96167862 63.56712189 -9.86866974 62.86080627 -9.77284241 62.13308716 C-7.87072731 47.47137838 -6.89891614 32.71643035 -6.34106445 17.94677734 C-5.78423938 3.78423938 -5.78423938 3.78423938 -3 1 C-1 0 -1 0 0 0 Z " fill="#06A34C" transform="translate(206,149)"/>
<path d="M0 0 C6.45313139 3.70240266 10.52367024 9.38745576 12.75 16.4375 C13.5162424 23.11475523 12.15016934 28.61269737 8.75 34.4375 C4.52087282 39.23168802 -0.02408421 42.97448662 -6.49609375 43.68359375 C-12.62423485 43.99139992 -17.25739288 43.09088847 -22.25 39.4375 C-27.32354739 34.78111095 -29.80371716 30.22385759 -30.62109375 23.2890625 C-30.77079885 16.01515564 -30.38812234 10.84604983 -25.25 5.4375 C-17.87115873 -1.10870938 -9.56490917 -4.3125024 0 0 Z " fill="#996834" transform="translate(347.25,89.5625)"/>
<path d="M0 0 C-0.65226562 0.6290625 -1.30453125 1.258125 -1.9765625 1.90625 C-7.98567962 7.77810181 -7.98567962 7.77810181 -13.0625 14.4375 C-15.69471692 18.07039442 -17.90664555 19.12215987 -22.19921875 20.21875 C-25.11386958 21.03176278 -27.84024388 22.13643492 -30.6340332 23.29077148 C-38.57144765 26.51537559 -46.3038935 28.82982454 -55 28 C-59.09079956 25.98332774 -61.23862017 24.26439328 -63 20 C-63.23337163 16.98138868 -63.17766945 14.02038062 -63 11 C-61.88625 11.7115625 -61.88625 11.7115625 -60.75 12.4375 C-55.16037985 15.61342054 -49.59523254 15.74035159 -43.36328125 14.45703125 C-34.77346958 12.0653582 -26.82241514 8.33148974 -18.77880859 4.52978516 C-4.93774199 -1.9750968 -4.93774199 -1.9750968 0 0 Z " fill="#E064A2" transform="translate(247,48)"/>
<path d="M0 0 C0 0.33 0 0.66 0 1 C-1.27875 1.061875 -2.5575 1.12375 -3.875 1.1875 C-16.17953224 2.63169393 -25.24796885 11.2492855 -32.875 20.4375 C-41.8594327 32.53681856 -41.88003903 46.54221588 -41 61 C-40.3182117 65.14510558 -39.26803806 69.00535159 -38 73 C-37.64670805 74.66255036 -37.30746105 76.32836709 -37 78 C-45.69215218 70.07480243 -50.46446684 61.09250102 -51.24609375 49.28125 C-51.49449027 34.66968999 -48.49280796 23.74849344 -38.375 12.6875 C-26.96320716 2.05277477 -14.93839371 -0.40989495 0 0 Z " fill="#E3E3E3" transform="translate(334,63)"/>
<path d="M0 0 C0.33 0 0.66 0 1 0 C1.185625 0.886875 1.37125 1.77375 1.5625 2.6875 C3.42582217 6.9812424 5.81419694 8.98731421 10 11 C16.34164323 12.932369 22.00368874 13.24082255 28.60546875 13.125 C29.60653152 13.11742676 30.6075943 13.10985352 31.63899231 13.10205078 C35.88559792 13.06965587 40.13180457 13.0135708 44.37817383 12.95898438 C67.40001668 12.6888709 67.40001668 12.6888709 78 15 C78 15.66 78 16.32 78 17 C68.92411794 23.54482725 61.13535086 23.59724359 50.5 22.875 C48.97934254 22.79461516 47.45850053 22.71765154 45.9375 22.64404297 C43.68418797 22.53465801 41.43126828 22.42325253 39.17871094 22.29922485 C33.44070052 21.98730959 27.7445923 21.99148837 22 22.125 C14.74673673 22.19380754 8.02471034 22.08588338 2.07421875 17.5234375 C-0.903267 14.52541736 -2.35680696 12.07647038 -2.5 7.8125 C-2.0808703 4.61663603 -1.76071707 2.6410756 0 0 Z " fill="#E164A3" transform="translate(194,14)"/>
<path d="M0 0 C0.495 0.99 0.495 0.99 1 2 C-7.06130357 15.65679663 -18.31854639 23.21807156 -33.5625 27.375 C-42.62082343 29.65488772 -51.7294621 29.36276018 -61 29 C-59.68 24.71 -58.36 20.42 -57 16 C-54.30263672 16.05220703 -54.30263672 16.05220703 -51.55078125 16.10546875 C-49.13803027 16.13363316 -46.72526907 16.16093044 -44.3125 16.1875 C-42.54422852 16.22520508 -42.54422852 16.22520508 -40.74023438 16.26367188 C-28.45313007 16.36466177 -14.09925186 14.86941997 -4.828125 5.8984375 C-3.1354306 3.98230744 -1.53274688 2.04535428 0 0 Z " fill="#E164A3" transform="translate(458,176)"/>
<path d="M0 0 C0.66 0.33 1.32 0.66 2 1 C1.71801758 1.57331055 1.43603516 2.14662109 1.14550781 2.73730469 C-0.16079571 5.40447478 -1.45670491 8.07649785 -2.75 10.75 C-3.21736572 11.71123779 -3.68473145 12.67247559 -4.16625977 13.6628418 C-6.55752072 18.66420772 -8.56688138 23.42047242 -9.9375 28.8125 C-11.6987525 34.63882342 -15.14601129 37.33814191 -20.1796875 40.56640625 C-24.93561372 42.98389229 -28.45334455 43.57878533 -33.75 42.375 C-37.52755423 40.06649464 -39.60776261 37.4708902 -40.75 33.1875 C-40.8325 32.465625 -40.915 31.74375 -41 31 C-40.1646875 31.06960937 -40.1646875 31.06960937 -39.3125 31.140625 C-31.3516539 31.5171515 -26.32118252 29.04939958 -20.1875 24.125 C-14.85993454 19.27122989 -10.66142328 13.41112626 -6.31494141 7.69482422 C-4.2788788 5.07054895 -2.1432788 2.53717868 0 0 Z " fill="#E064A2" transform="translate(220,79)"/>
<path d="M0 0 C-0.99 0.66 -1.98 1.32 -3 2 C-4.32451172 1.22076172 -4.32451172 1.22076172 -5.67578125 0.42578125 C-15.55788464 -5.34085688 -25.31688035 -10.27173656 -36.25 -13.75 C-36.91177246 -13.96100342 -37.57354492 -14.17200684 -38.25537109 -14.3894043 C-53.38583916 -19.01123316 -70.0769701 -18.29840213 -84.3125 -11.0625 C-87.18622415 -8.85708379 -88.12951763 -7.48192949 -89 -4 C-89.66 -4.33 -90.32 -4.66 -91 -5 C-91.45767394 -8.26909955 -91.80786436 -10.85552549 -89.828125 -13.66015625 C-66.29276165 -35.5704588 -21.08672908 -16.85854176 0 0 Z " fill="#F08BB7" transform="translate(286,24)"/>
<path d="M0 0 C-0.04882812 3.07617188 -0.04882812 3.07617188 -0.09765625 6.15234375 C-0.20561184 8.01732141 -0.20561184 8.01732141 1 9 C5.14276875 9.24733137 5.14276875 9.24733137 9 8 C9.34751969 10.91916538 9.53280018 13.13195476 7.95703125 15.69921875 C4.99314771 19.28890761 3.37632477 20.8411933 -1.25 21.375 C-6.19272958 20.88072704 -7.53828301 19.46171699 -11 16 C-12.53214888 12.93570224 -12.22938548 10.3834358 -12 7 C-9.2414293 1.08877707 -6.40234626 -0.28454872 0 0 Z " fill="#060504" transform="translate(343,100)"/>
<path d="M0 0 C1.01375444 0.98605372 2.01584852 1.98439877 3 3 C2.15816162 3.05422119 1.31632324 3.10844238 0.44897461 3.16430664 C-2.70510765 3.3829451 -5.85526188 3.63050625 -9.00561523 3.8972168 C-10.36346728 4.00632847 -11.72227346 4.10421944 -13.08178711 4.19018555 C-22.63978738 4.65356732 -22.63978738 4.65356732 -30.43359375 9.62109375 C-31.94746155 11.42701768 -31.94746155 11.42701768 -33 13 C-33.93423645 9.98968256 -34.04449911 9.13349732 -33 6 C-34.32 5.67 -35.64 5.34 -37 5 C-25.35747321 -3.32764069 -13.35401164 -8.31843642 0 0 Z " fill="#09A14D" transform="translate(255,463)"/>
<path d="M0 0 C1.13598633 0.00483398 1.13598633 0.00483398 2.29492188 0.00976562 C3.47344727 0.02233398 3.47344727 0.02233398 4.67578125 0.03515625 C5.47306641 0.03966797 6.27035156 0.04417969 7.09179688 0.04882812 C9.05732382 0.06059775 11.0228121 0.07853277 12.98828125 0.09765625 C10.04845437 2.05754084 7.84003411 2.84213039 4.48828125 3.84765625 C-7.54877604 7.78732114 -18.47758743 13.93518191 -25.01171875 25.09765625 C-26.00171875 24.76765625 -26.99171875 24.43765625 -28.01171875 24.09765625 C-28.01171875 17.91255716 -25.73972676 14.75645458 -21.54296875 10.31640625 C-15.66488028 5.16400772 -8.04848611 -0.06051493 0 0 Z " fill="#F08AB7" transform="translate(213.01171875,35.90234375)"/>
<path d="M0 0 C1.8253125 0.185625 1.8253125 0.185625 3.6875 0.375 C2.841875 1.32375 1.99625 2.2725 1.125 3.25 C-5.54890409 11.10722042 -10.23519431 18.49360131 -13.3125 28.375 C-13.725 29.591875 -14.1375 30.80875 -14.5625 32.0625 C-14.81 32.825625 -15.0575 33.58875 -15.3125 34.375 C-16.6325 34.045 -17.9525 33.715 -19.3125 33.375 C-20.11940768 22.68347325 -16.03698969 14.43385317 -9.3125 6.375 C-8.91160156 5.77300781 -8.51070312 5.17101562 -8.09765625 4.55078125 C-5.70357327 1.09266139 -4.0986726 0.01440658 0 0 Z " fill="#F08AB7" transform="translate(197.3125,75.625)"/>
<path d="M0 0 C3 0.25 3 0.25 5 2.25 C4.42307692 8.82692308 4.42307692 8.82692308 3 10.25 C0.0625 10.4375 0.0625 10.4375 -3 10.25 C-5 8.25 -5 8.25 -5.25 5.25 C-4.90584825 1.120179 -4.129821 0.34415175 0 0 Z " fill="#FBFAFA" transform="translate(347,99.75)"/>
<path d="M0 0 C1.4540625 0.0309375 1.4540625 0.0309375 2.9375 0.0625 C1.98328192 1.21176266 1.02397955 2.35680541 0.0625 3.5 C-0.47117188 4.13808594 -1.00484375 4.77617187 -1.5546875 5.43359375 C-3.0625 7.0625 -3.0625 7.0625 -5.0625 8.0625 C-4.046875 0.08258929 -4.046875 0.08258929 0 0 Z " fill="#E370A2" transform="translate(226.0625,467.9375)"/>
</svg>
