<svg xmlns="http://www.w3.org/2000/svg" width="40" height="40"><path d="M8.203 0h23.594A8.202 8.202 0 0 1 40 8.203v23.594A8.202 8.202 0 0 1 31.797 40H8.203A8.202 8.202 0 0 1 0 31.797V8.203A8.202 8.202 0 0 1 8.203 0Zm0 0"/><path d="m26.328 19.063-.312-.157c-.235-3.828-2.266-5.937-5.782-6.015-1.953 0-3.75.859-4.843 2.5l1.875 1.328c.78-1.172 2.03-1.485 2.968-1.485 1.172 0 2.032.391 2.578 1.016.391.469.704 1.094.782 1.953-1.016-.156-2.11-.234-3.203-.156-3.36.156-5.47 2.11-5.313 4.765.078 1.329.781 2.5 1.875 3.282 1.016.625 2.266.937 3.594.86 1.719-.079 3.047-.704 3.984-1.954.703-.86 1.172-2.11 1.407-3.594.78.547 1.406 1.172 1.718 1.953.625 1.328.625 3.516-1.172 5.313-1.562 1.562-3.437 2.265-6.25 2.265-3.203 0-5.547-1.015-7.109-3.046-1.484-1.797-2.266-4.453-2.266-7.891 0-3.438.782-6.094 2.266-7.89 1.563-2.032 3.906-3.047 7.11-3.047 3.124 0 5.546 1.015 7.187 3.046.781.938 1.406 2.188 1.797 3.594l2.187-.625c-.468-1.719-1.172-3.203-2.187-4.453-2.11-2.578-5.157-3.906-8.985-3.906h-.078c-3.828 0-6.875 1.328-8.828 3.906-1.797 2.266-2.734 5.39-2.734 9.375 0 3.984.937 7.11 2.734 9.375 1.953 2.578 5 3.906 8.828 3.906h.078c3.438 0 5.86-.937 7.891-2.968a7.19 7.19 0 0 0 1.64-7.891c-.624-1.406-1.796-2.578-3.437-3.36Zm-5.937 5.546c-1.407.078-2.97-.547-3.047-1.953 0-1.015.781-2.187 3.125-2.265a13.974 13.974 0 0 1 3.203.234c-.235 3.36-1.875 3.906-3.281 3.984Zm0 0" fill="#FFF"/></svg>